<svg width="21" height="21" viewBox="0 0 21 21" fill="none" xmlns="http://www.w3.org/2000/svg">
<g clip-path="url(#clip0_912_5261)">
<path d="M1.60059 16.07C1.60059 16.389 1.67159 16.7169 1.82246 17.0359C1.97334 17.3549 2.16859 17.6562 2.42597 17.9398C2.86085 18.4184 3.34011 18.764 3.88149 18.9855C4.414 19.2071 4.99088 19.3223 5.61214 19.3223C6.51741 19.3223 7.4848 19.1096 8.50544 18.6754C9.52608 18.2411 10.5467 17.6562 11.5585 16.9207C12.5791 16.1763 13.5465 15.3522 14.4695 14.4394C15.3837 13.5178 16.209 12.5518 16.9457 11.5416C17.6734 10.5313 18.2592 9.5211 18.6852 8.51971C19.1112 7.50946 19.3242 6.54353 19.3242 5.6219C19.3242 5.01929 19.2177 4.44328 19.0047 3.91157C18.7917 3.371 18.4545 2.87473 17.9841 2.43164C17.4161 1.87335 16.7948 1.59863 16.138 1.59863C15.8895 1.59863 15.641 1.6518 15.4192 1.75815C15.1884 1.86449 14.9843 2.024 14.8245 2.25441L12.7655 5.15222C12.6057 5.37377 12.4904 5.57759 12.4105 5.77255C12.3306 5.95865 12.2862 6.14474 12.2862 6.31312C12.2862 6.5258 12.3484 6.73849 12.4726 6.94231C12.588 7.14613 12.7566 7.35881 12.9696 7.5715L13.6441 8.27158C13.7418 8.36906 13.7861 8.48426 13.7861 8.62605C13.7861 8.69695 13.7773 8.75898 13.7595 8.82987C13.7329 8.90077 13.7063 8.95394 13.6885 9.00711C13.5288 9.29955 13.2536 9.68061 12.8631 10.1414C12.4637 10.6022 12.0377 11.0719 11.5762 11.5416C11.097 12.0113 10.6355 12.4455 10.1651 12.8443C9.70358 13.2342 9.32195 13.5001 9.02019 13.6596C8.97582 13.6773 8.92257 13.7039 8.86044 13.7305C8.78944 13.757 8.71844 13.7659 8.63856 13.7659C8.48769 13.7659 8.37231 13.7127 8.27468 13.6153L7.60017 12.9506C7.37829 12.7291 7.16529 12.5607 6.96116 12.4544C6.75704 12.3303 6.55291 12.2683 6.33103 12.2683C6.1624 12.2683 5.9849 12.3037 5.78965 12.3835C5.59439 12.4632 5.39027 12.5784 5.16839 12.7291L2.23072 14.8116C1.99997 14.9711 1.84021 15.1572 1.74259 15.3788C1.65384 15.6003 1.60059 15.8218 1.60059 16.07Z" fill="#3757FF" stroke="#3757FF" stroke-width="2.08513" stroke-miterlimit="10"/>
</g>
<defs>
<clipPath id="clip0_912_5261">
<rect width="20" height="20" fill="white" transform="matrix(-1 0 0 1 20.6006 0.322266)"/>
</clipPath>
</defs>
</svg>
