<svg width="33" height="32" viewBox="0 0 33 32" fill="none" xmlns="http://www.w3.org/2000/svg">
<path d="M29.6677 24.4406C29.6677 24.9206 29.561 25.4139 29.3343 25.8939C29.1077 26.3739 28.8143 26.8272 28.4277 27.2539C27.7743 27.9739 27.0543 28.4939 26.241 28.8272C25.441 29.1606 24.5743 29.3339 23.641 29.3339C22.281 29.3339 20.8277 29.0139 19.2943 28.3606C17.761 27.7072 16.2277 26.8272 14.7077 25.7206C13.1743 24.6006 11.721 23.3606 10.3343 21.9872C8.96101 20.6006 7.72101 19.1472 6.61435 17.6272C5.52102 16.1072 4.64102 14.5872 4.00102 13.0806C3.36102 11.5606 3.04102 10.1072 3.04102 8.72057C3.04102 7.8139 3.20102 6.94724 3.52102 6.14724C3.84102 5.3339 4.34768 4.58724 5.05435 3.92057C5.90768 3.08057 6.84102 2.66724 7.82768 2.66724C8.20102 2.66724 8.57435 2.74724 8.90768 2.90724C9.25435 3.06724 9.56101 3.30724 9.80101 3.6539L12.8943 8.0139C13.1343 8.34724 13.3077 8.6539 13.4277 8.94724C13.5477 9.22724 13.6143 9.50724 13.6143 9.76057C13.6143 10.0806 13.521 10.4006 13.3343 10.7072C13.161 11.0139 12.9077 11.3339 12.5877 11.6539L11.5743 12.7072C11.4277 12.8539 11.361 13.0272 11.361 13.2406C11.361 13.3472 11.3743 13.4406 11.401 13.5472C11.441 13.6539 11.481 13.7339 11.5077 13.8139C11.7477 14.2539 12.161 14.8272 12.7477 15.5206C13.3477 16.2139 13.9877 16.9206 14.681 17.6272C15.401 18.3339 16.0943 18.9872 16.801 19.5872C17.4943 20.1739 18.0677 20.5739 18.521 20.8139C18.5877 20.8406 18.6677 20.8806 18.761 20.9206C18.8677 20.9606 18.9743 20.9739 19.0943 20.9739C19.321 20.9739 19.4943 20.8939 19.641 20.7472L20.6543 19.7472C20.9877 19.4139 21.3077 19.1606 21.6143 19.0006C21.921 18.8139 22.2277 18.7206 22.561 18.7206C22.8143 18.7206 23.081 18.7739 23.3743 18.8939C23.6677 19.0139 23.9743 19.1872 24.3077 19.4139L28.721 22.5472C29.0677 22.7872 29.3077 23.0672 29.4543 23.4006C29.5877 23.7339 29.6677 24.0672 29.6677 24.4406Z" fill="white" stroke="#292D32" stroke-width="1.53108" stroke-miterlimit="10"/>
</svg>
