<svg width="31" height="30" viewBox="0 0 31 30" fill="none" xmlns="http://www.w3.org/2000/svg">
<path d="M23.6248 15.8125V20.4375C23.6248 24.3375 19.9873 27.5 15.4998 27.5C11.0123 27.5 7.37476 24.3375 7.37476 20.4375V15.8125C7.37476 19.7125 11.0123 22.5 15.4998 22.5C19.9873 22.5 23.6248 19.7125 23.6248 15.8125Z" fill="white" stroke="black" stroke-width="1.88701" stroke-linecap="round" stroke-linejoin="round"/>
<path d="M23.6248 9.5625V15.8125C23.6248 19.7125 19.9873 22.5 15.4998 22.5C11.0123 22.5 7.37476 19.7125 7.37476 15.8125V9.5625C7.37476 5.6625 11.0123 2.5 15.4998 2.5C17.7498 2.5 19.7748 3.2875 21.2498 4.5625C22.7123 5.85 23.6248 7.6125 23.6248 9.5625Z" fill="white" stroke="black" stroke-width="1.88701" stroke-linecap="round" stroke-linejoin="round"/>
<path d="M23.625 9.5625C23.625 10.7 23.3125 11.75 22.7625 12.65C21.425 14.85 18.675 16.25 15.5 16.25C12.325 16.25 9.575 14.85 8.2375 12.65C7.6875 11.75 7.375 10.7 7.375 9.5625C7.375 7.6125 8.28749 5.85 9.74999 4.575C11.225 3.2875 13.25 2.5 15.5 2.5C17.75 2.5 19.775 3.2875 21.25 4.5625C22.7125 5.85 23.625 7.6125 23.625 9.5625Z" fill="white" stroke="black" stroke-width="1.88701" stroke-linecap="round" stroke-linejoin="round"/>
</svg>
