<svg width="43" height="35" viewBox="0 0 43 35" fill="none" xmlns="http://www.w3.org/2000/svg">
<path d="M30.9922 28H23.4922C20.3672 28 18.4922 25.75 18.4922 23V8C18.4922 5.25 20.3672 3 23.4922 3H30.9922C34.1172 3 35.9922 5.25 35.9922 8V23C35.9922 25.75 34.1172 28 30.9922 28Z" fill="white" stroke="black" stroke-width="1.89063" stroke-linecap="round" stroke-linejoin="round"/>
<path d="M32.4766 14.6406L29.0391 14.6406" stroke="black" stroke-width="1.89063" stroke-linecap="round" stroke-linejoin="round"/>
<path d="M32.4766 16.3594L32.4766 14.6406" stroke="black" stroke-width="1.89063" stroke-linecap="round" stroke-linejoin="round"/>
<path d="M19.5078 32H12.0078C8.88281 32 7.00781 29.75 7.00781 27V12C7.00781 9.25 8.88281 7 12.0078 7H19.5078C22.6328 7 24.5078 9.25 24.5078 12V27C24.5078 29.75 22.6328 32 19.5078 32Z" fill="white" stroke="black" stroke-width="1.89063" stroke-linecap="round" stroke-linejoin="round"/>
<path d="M20.9922 18.6406L17.5547 18.6406" stroke="black" stroke-width="1.89063" stroke-linecap="round" stroke-linejoin="round"/>
<path d="M20.9922 20.3594L20.9922 18.6406" stroke="black" stroke-width="1.89063" stroke-linecap="round" stroke-linejoin="round"/>
</svg>
