<svg width="34" height="33" viewBox="0 0 34 33" fill="none" xmlns="http://www.w3.org/2000/svg">
<path d="M12.7775 3.90522L5.36625 9.68022C4.12875 10.6427 3.125 12.6915 3.125 14.2452V24.434C3.125 27.624 5.72375 30.2365 8.91375 30.2365H24.8362C28.0262 30.2365 30.625 27.624 30.625 24.4477V14.4377C30.625 12.774 29.5112 10.6427 28.15 9.69397L19.6525 3.74022C17.7275 2.39272 14.6337 2.46147 12.7775 3.90522Z" fill="white" stroke="#292D32" stroke-width="1.5" stroke-linecap="round" stroke-linejoin="round"/>
<path d="M14.8145 24.7501H18.9395C21.2082 24.7501 23.0645 22.8939 23.0645 20.6251V16.5001C23.0645 14.2314 21.2082 12.3751 18.9395 12.3751H14.8145C12.5457 12.3751 10.6895 14.2314 10.6895 16.5001V20.6251C10.6895 22.8939 12.5457 24.7501 14.8145 24.7501Z" stroke="#292D32" stroke-width="1.5" stroke-linecap="round" stroke-linejoin="round"/>
<path d="M16.877 12.3751V24.7501" stroke="#292D32" stroke-width="1.5" stroke-linecap="round" stroke-linejoin="round"/>
<path d="M10.6895 18.5625H23.0645" stroke="#292D32" stroke-width="1.5" stroke-linecap="round" stroke-linejoin="round"/>
</svg>
