<svg width="30" height="31" viewBox="0 0 30 31" fill="none" xmlns="http://www.w3.org/2000/svg">
<path d="M9.35071 23.4375L13.2257 26.4375C13.7257 26.9375 14.8507 27.1875 15.6007 27.1875H20.3507C21.8507 27.1875 23.4757 26.0625 23.8507 24.5625L26.8507 15.4375C27.4757 13.6875 26.3507 12.1875 24.4757 12.1875H19.4757C18.7257 12.1875 18.1007 11.5625 18.2257 10.6875L18.8507 6.68749C19.1007 5.56249 18.3507 4.31249 17.2257 3.93749C16.2257 3.56249 14.9757 4.06249 14.4757 4.81249L9.35071 12.4375" stroke="#7558D3" stroke-width="1.88013" stroke-miterlimit="10"/>
<path d="M2.97571 23.4375V11.1875C2.97571 9.4375 3.72571 8.8125 5.47571 8.8125H6.72571C8.47571 8.8125 9.22571 9.4375 9.22571 11.1875V23.4375C9.22571 25.1875 8.47571 25.8125 6.72571 25.8125H5.47571C3.72571 25.8125 2.97571 25.1875 2.97571 23.4375Z" stroke="#7558D3" stroke-width="1.88013" stroke-linecap="round" stroke-linejoin="round"/>
</svg>
