<svg width="21" height="22" viewBox="0 0 21 22" fill="none" xmlns="http://www.w3.org/2000/svg">
<path d="M5.49563 19.7881C7.00336 19.7881 8.22562 18.5658 8.22562 17.0581C8.22562 15.5503 7.00336 14.3281 5.49563 14.3281C3.98789 14.3281 2.76562 15.5503 2.76562 17.0581C2.76562 18.5658 3.98789 19.7881 5.49563 19.7881Z" stroke="white" stroke-width="1.3" stroke-linecap="round" stroke-linejoin="round"/>
<path d="M18.2346 15.2381V4.56309C18.2346 2.28809 16.8084 1.97309 15.3646 2.36684L9.90461 3.85434C8.90711 4.12559 8.22461 4.91309 8.22461 6.05059V7.94934V9.22684V17.0493" stroke="white" stroke-width="1.3" stroke-linecap="round" stroke-linejoin="round"/>
<path d="M15.5054 17.9681C17.0131 17.9681 18.2354 16.7458 18.2354 15.2381C18.2354 13.7303 17.0131 12.5081 15.5054 12.5081C13.9977 12.5081 12.7754 13.7303 12.7754 15.2381C12.7754 16.7458 13.9977 17.9681 15.5054 17.9681Z" stroke="white" stroke-width="1.3" stroke-linecap="round" stroke-linejoin="round"/>
<path d="M8.22461 8.86809L18.2346 6.13809" stroke="white" stroke-width="1.3" stroke-linecap="round" stroke-linejoin="round"/>
</svg>
