<svg width="33" height="32" viewBox="0 0 33 32" fill="none" xmlns="http://www.w3.org/2000/svg">
<path d="M28.2561 14.827C28.2561 21.347 23.5228 27.4536 17.0561 29.2403C16.6161 29.3603 16.1361 29.3603 15.6961 29.2403C9.22942 27.4536 4.49609 21.347 4.49609 14.827V8.97362C4.49609 7.88029 5.32278 6.64029 6.34945 6.22696L13.7761 3.187C15.4427 2.507 17.3228 2.507 18.9894 3.187L26.4161 6.22696C27.4294 6.64029 28.2695 7.88029 28.2695 8.97362L28.2561 14.827Z" fill="white" stroke="#292D32" stroke-width="1.5" stroke-linecap="round" stroke-linejoin="round"/>
<path d="M16.3815 16.6668C17.8543 16.6668 19.0482 15.4729 19.0482 14.0002C19.0482 12.5274 17.8543 11.3335 16.3815 11.3335C14.9088 11.3335 13.7148 12.5274 13.7148 14.0002C13.7148 15.4729 14.9088 16.6668 16.3815 16.6668Z" stroke="#292D32" stroke-width="1.5" stroke-miterlimit="10" stroke-linecap="round" stroke-linejoin="round"/>
<path d="M16.3828 16.667V20.667" stroke="#292D32" stroke-width="1.5" stroke-miterlimit="10" stroke-linecap="round" stroke-linejoin="round"/>
</svg>
