<svg width="243" height="242" viewBox="0 0 243 242" fill="none" xmlns="http://www.w3.org/2000/svg">
<g clip-path="url(#clip0_1300_6530)">
<path d="M6 2H2V6H6V2Z" fill="white"/>
<path d="M12 2H8V6H12V2Z" fill="white"/>
<path d="M16 2H12V6H16V2Z" fill="white"/>
<path d="M22 2H18V6H22V2Z" fill="white"/>
<path d="M26 2H22V6H26V2Z" fill="white"/>
<path d="M32 2H28V6H32V2Z" fill="white"/>
<path d="M36 2H32V6H36V2Z" fill="white"/>
<path d="M45 2H41V6H45V2Z" fill="white"/>
<path d="M55 2H51V6H55V2Z" fill="white"/>
<path d="M65 2H61V6H65V2Z" fill="white"/>
<path d="M69 2H65V6H69V2Z" fill="white"/>
<path d="M85 2H81V6H85V2Z" fill="white"/>
<path d="M89 2H85V6H89V2Z" fill="white"/>
<path d="M103 2H99V6H103V2Z" fill="white"/>
<path d="M109 2H105V6H109V2Z" fill="white"/>
<path d="M113 2H109V6H113V2Z" fill="white"/>
<path d="M123 2H119V6H123V2Z" fill="white"/>
<path d="M132 2H128V6H132V2Z" fill="white"/>
<path d="M142 2H138V6H142V2Z" fill="white"/>
<path d="M156 2H152V6H156V2Z" fill="white"/>
<path d="M162 2H158V6H162V2Z" fill="white"/>
<path d="M172 2H168V6H172V2Z" fill="white"/>
<path d="M186 2H182V6H186V2Z" fill="white"/>
<path d="M202 2H198V6H202V2Z" fill="white"/>
<path d="M211 2H207V6H211V2Z" fill="white"/>
<path d="M215 2H211V6H215V2Z" fill="white"/>
<path d="M219 2H215V6H219V2Z" fill="white"/>
<path d="M225 2H221V6H225V2Z" fill="white"/>
<path d="M229 2H225V6H229V2Z" fill="white"/>
<path d="M235 2H231V6H235V2Z" fill="white"/>
<path d="M239 2H235V6H239V2Z" fill="white"/>
<path d="M6 8H2V12H6V8Z" fill="white"/>
<path d="M36 8H32V12H36V8Z" fill="white"/>
<path d="M45 8H41V12H45V8Z" fill="white"/>
<path d="M55 8H51V12H55V8Z" fill="white"/>
<path d="M59 8H55V12H59V8Z" fill="white"/>
<path d="M65 8H61V12H65V8Z" fill="white"/>
<path d="M69 8H65V12H69V8Z" fill="white"/>
<path d="M75 8H71V12H75V8Z" fill="white"/>
<path d="M85 8H81V12H85V8Z" fill="white"/>
<path d="M89 8H85V12H89V8Z" fill="white"/>
<path d="M103 8H99V12H103V8Z" fill="white"/>
<path d="M109 8H105V12H109V8Z" fill="white"/>
<path d="M113 8H109V12H113V8Z" fill="white"/>
<path d="M123 8H119V12H123V8Z" fill="white"/>
<path d="M128 8H124V12H128V8Z" fill="white"/>
<path d="M138 8H134V12H138V8Z" fill="white"/>
<path d="M142 8H138V12H142V8Z" fill="white"/>
<path d="M148 8H144V12H148V8Z" fill="white"/>
<path d="M152 8H148V12H152V8Z" fill="white"/>
<path d="M156 8H152V12H156V8Z" fill="white"/>
<path d="M176 8H172V12H176V8Z" fill="white"/>
<path d="M182 8H178V12H182V8Z" fill="white"/>
<path d="M186 8H182V12H186V8Z" fill="white"/>
<path d="M192 8H188V12H192V8Z" fill="white"/>
<path d="M196 8H192V12H196V8Z" fill="white"/>
<path d="M202 8H198V12H202V8Z" fill="white"/>
<path d="M211 8H207V12H211V8Z" fill="white"/>
<path d="M239 8H235V12H239V8Z" fill="white"/>
<path d="M6 12H2V16H6V12Z" fill="white"/>
<path d="M16 12H12V16H16V12Z" fill="white"/>
<path d="M22 12H18V16H22V12Z" fill="white"/>
<path d="M26 12H22V16H26V12Z" fill="white"/>
<path d="M36 12H32V16H36V12Z" fill="white"/>
<path d="M45 12H41V16H45V12Z" fill="white"/>
<path d="M59 12H55V16H59V12Z" fill="white"/>
<path d="M65 12H61V16H65V12Z" fill="white"/>
<path d="M79 12H75V16H79V12Z" fill="white"/>
<path d="M85 12H81V16H85V12Z" fill="white"/>
<path d="M89 12H85V16H89V12Z" fill="white"/>
<path d="M103 12H99V16H103V12Z" fill="white"/>
<path d="M113 12H109V16H113V12Z" fill="white"/>
<path d="M123 12H119V16H123V12Z" fill="white"/>
<path d="M128 12H124V16H128V12Z" fill="white"/>
<path d="M152 12H148V16H152V12Z" fill="white"/>
<path d="M156 12H152V16H156V12Z" fill="white"/>
<path d="M162 12H158V16H162V12Z" fill="white"/>
<path d="M182 12H178V16H182V12Z" fill="white"/>
<path d="M196 12H192V16H196V12Z" fill="white"/>
<path d="M202 12H198V16H202V12Z" fill="white"/>
<path d="M211 12H207V16H211V12Z" fill="white"/>
<path d="M219 12H215V16H219V12Z" fill="white"/>
<path d="M225 12H221V16H225V12Z" fill="white"/>
<path d="M229 12H225V16H229V12Z" fill="white"/>
<path d="M239 12H235V16H239V12Z" fill="white"/>
<path d="M6 18H2V22H6V18Z" fill="white"/>
<path d="M16 18H12V22H16V18Z" fill="white"/>
<path d="M22 18H18V22H22V18Z" fill="white"/>
<path d="M26 18H22V22H26V18Z" fill="white"/>
<path d="M36 18H32V22H36V18Z" fill="white"/>
<path d="M49 18H45V22H49V18Z" fill="white"/>
<path d="M55 18H51V22H55V18Z" fill="white"/>
<path d="M65 18H61V22H65V18Z" fill="white"/>
<path d="M75 18H71V22H75V18Z" fill="white"/>
<path d="M79 18H75V22H79V18Z" fill="white"/>
<path d="M85 18H81V22H85V18Z" fill="white"/>
<path d="M95 18H91V22H95V18Z" fill="white"/>
<path d="M113 18H109V22H113V18Z" fill="white"/>
<path d="M123 18H119V22H123V18Z" fill="white"/>
<path d="M128 18H124V22H128V18Z" fill="white"/>
<path d="M132 18H128V22H132V18Z" fill="white"/>
<path d="M142 18H138V22H142V18Z" fill="white"/>
<path d="M148 18H144V22H148V18Z" fill="white"/>
<path d="M166 18H162V22H166V18Z" fill="white"/>
<path d="M172 18H168V22H172V18Z" fill="white"/>
<path d="M182 18H178V22H182V18Z" fill="white"/>
<path d="M196 18H192V22H196V18Z" fill="white"/>
<path d="M211 18H207V22H211V18Z" fill="white"/>
<path d="M219 18H215V22H219V18Z" fill="white"/>
<path d="M225 18H221V22H225V18Z" fill="white"/>
<path d="M229 18H225V22H229V18Z" fill="white"/>
<path d="M239 18H235V22H239V18Z" fill="white"/>
<path d="M6 22H2V26H6V22Z" fill="white"/>
<path d="M16 22H12V26H16V22Z" fill="white"/>
<path d="M22 22H18V26H22V22Z" fill="white"/>
<path d="M26 22H22V26H26V22Z" fill="white"/>
<path d="M36 22H32V26H36V22Z" fill="white"/>
<path d="M55 22H51V26H55V22Z" fill="white"/>
<path d="M59 22H55V26H59V22Z" fill="white"/>
<path d="M75 22H71V26H75V22Z" fill="white"/>
<path d="M95 22H91V26H95V22Z" fill="white"/>
<path d="M99 22H95V26H99V22Z" fill="white"/>
<path d="M103 22H99V26H103V22Z" fill="white"/>
<path d="M113 22H109V26H113V22Z" fill="white"/>
<path d="M119 22H115V26H119V22Z" fill="white"/>
<path d="M123 22H119V26H123V22Z" fill="white"/>
<path d="M128 22H124V26H128V22Z" fill="white"/>
<path d="M132 22H128V26H132V22Z" fill="white"/>
<path d="M138 22H134V26H138V22Z" fill="white"/>
<path d="M142 22H138V26H142V22Z" fill="white"/>
<path d="M148 22H144V26H148V22Z" fill="white"/>
<path d="M162 22H158V26H162V22Z" fill="white"/>
<path d="M176 22H172V26H176V22Z" fill="white"/>
<path d="M211 22H207V26H211V22Z" fill="white"/>
<path d="M219 22H215V26H219V22Z" fill="white"/>
<path d="M225 22H221V26H225V22Z" fill="white"/>
<path d="M229 22H225V26H229V22Z" fill="white"/>
<path d="M239 22H235V26H239V22Z" fill="white"/>
<path d="M6 28H2V32H6V28Z" fill="white"/>
<path d="M36 28H32V32H36V28Z" fill="white"/>
<path d="M45 28H41V32H45V28Z" fill="white"/>
<path d="M55 28H51V32H55V28Z" fill="white"/>
<path d="M59 28H55V32H59V28Z" fill="white"/>
<path d="M65 28H61V32H65V28Z" fill="white"/>
<path d="M69 28H65V32H69V28Z" fill="white"/>
<path d="M75 28H71V32H75V28Z" fill="white"/>
<path d="M95 28H91V32H95V28Z" fill="white"/>
<path d="M99 28H95V32H99V28Z" fill="white"/>
<path d="M103 28H99V32H103V28Z" fill="white"/>
<path d="M113 28H109V32H113V28Z" fill="white"/>
<path d="M132 28H128V32H132V28Z" fill="white"/>
<path d="M148 28H144V32H148V28Z" fill="white"/>
<path d="M176 28H172V32H176V28Z" fill="white"/>
<path d="M182 28H178V32H182V28Z" fill="white"/>
<path d="M192 28H188V32H192V28Z" fill="white"/>
<path d="M211 28H207V32H211V28Z" fill="white"/>
<path d="M239 28H235V32H239V28Z" fill="white"/>
<path d="M6 31H2V35H6V31Z" fill="white"/>
<path d="M12 31H8V35H12V31Z" fill="white"/>
<path d="M16 31H12V35H16V31Z" fill="white"/>
<path d="M22 31H18V35H22V31Z" fill="white"/>
<path d="M26 31H22V35H26V31Z" fill="white"/>
<path d="M32 31H28V35H32V31Z" fill="white"/>
<path d="M36 31H32V35H36V31Z" fill="white"/>
<path d="M45 31H41V35H45V31Z" fill="white"/>
<path d="M55 31H51V35H55V31Z" fill="white"/>
<path d="M65 31H61V35H65V31Z" fill="white"/>
<path d="M75 31H71V35H75V31Z" fill="white"/>
<path d="M85 31H81V35H85V31Z" fill="white"/>
<path d="M95 31H91V35H95V31Z" fill="white"/>
<path d="M103 31H99V35H103V31Z" fill="white"/>
<path d="M113 31H109V35H113V31Z" fill="white"/>
<path d="M123 31H119V35H123V31Z" fill="white"/>
<path d="M132 31H128V35H132V31Z" fill="white"/>
<path d="M142 31H138V35H142V31Z" fill="white"/>
<path d="M152 31H148V35H152V31Z" fill="white"/>
<path d="M162 31H158V35H162V31Z" fill="white"/>
<path d="M172 31H168V35H172V31Z" fill="white"/>
<path d="M182 31H178V35H182V31Z" fill="white"/>
<path d="M192 31H188V35H192V31Z" fill="white"/>
<path d="M202 31H198V35H202V31Z" fill="white"/>
<path d="M211 31H207V35H211V31Z" fill="white"/>
<path d="M215 31H211V35H215V31Z" fill="white"/>
<path d="M219 31H215V35H219V31Z" fill="white"/>
<path d="M225 31H221V35H225V31Z" fill="white"/>
<path d="M229 31H225V35H229V31Z" fill="white"/>
<path d="M235 31H231V35H235V31Z" fill="white"/>
<path d="M239 31H235V35H239V31Z" fill="white"/>
<path d="M45 35H41V39H45V35Z" fill="white"/>
<path d="M55 35H51V39H55V35Z" fill="white"/>
<path d="M59 35H55V39H59V35Z" fill="white"/>
<path d="M75 35H71V39H75V35Z" fill="white"/>
<path d="M85 35H81V39H85V35Z" fill="white"/>
<path d="M89 35H85V39H89V35Z" fill="white"/>
<path d="M109 35H105V39H109V35Z" fill="white"/>
<path d="M113 35H109V39H113V35Z" fill="white"/>
<path d="M132 35H128V39H132V35Z" fill="white"/>
<path d="M138 35H134V39H138V35Z" fill="white"/>
<path d="M152 35H148V39H152V35Z" fill="white"/>
<path d="M156 35H152V39H156V35Z" fill="white"/>
<path d="M176 35H172V39H176V35Z" fill="white"/>
<path d="M182 35H178V39H182V35Z" fill="white"/>
<path d="M186 35H182V39H186V35Z" fill="white"/>
<path d="M16 41H12V45H16V41Z" fill="white"/>
<path d="M22 41H18V45H22V41Z" fill="white"/>
<path d="M26 41H22V45H26V41Z" fill="white"/>
<path d="M36 41H32V45H36V41Z" fill="white"/>
<path d="M45 41H41V45H45V41Z" fill="white"/>
<path d="M49 41H45V45H49V41Z" fill="white"/>
<path d="M59 41H55V45H59V41Z" fill="white"/>
<path d="M79 41H75V45H79V41Z" fill="white"/>
<path d="M103 41H99V45H103V41Z" fill="white"/>
<path d="M109 41H105V45H109V41Z" fill="white"/>
<path d="M113 41H109V45H113V41Z" fill="white"/>
<path d="M119 41H115V45H119V41Z" fill="white"/>
<path d="M123 41H119V45H123V41Z" fill="white"/>
<path d="M128 41H124V45H128V41Z" fill="white"/>
<path d="M132 41H128V45H132V41Z" fill="white"/>
<path d="M142 41H138V45H142V41Z" fill="white"/>
<path d="M148 41H144V45H148V41Z" fill="white"/>
<path d="M162 41H158V45H162V41Z" fill="white"/>
<path d="M172 41H168V45H172V41Z" fill="white"/>
<path d="M182 41H178V45H182V41Z" fill="white"/>
<path d="M192 41H188V45H192V41Z" fill="white"/>
<path d="M206 41H202V45H206V41Z" fill="white"/>
<path d="M211 41H207V45H211V41Z" fill="white"/>
<path d="M215 41H211V45H215V41Z" fill="white"/>
<path d="M229 41H225V45H229V41Z" fill="white"/>
<path d="M235 41H231V45H235V41Z" fill="white"/>
<path d="M239 41H235V45H239V41Z" fill="white"/>
<path d="M12 45H8V49H12V45Z" fill="white"/>
<path d="M26 45H22V49H26V45Z" fill="white"/>
<path d="M40 45H36V49H40V45Z" fill="white"/>
<path d="M45 45H41V49H45V45Z" fill="white"/>
<path d="M65 45H61V49H65V45Z" fill="white"/>
<path d="M69 45H65V49H69V45Z" fill="white"/>
<path d="M75 45H71V49H75V45Z" fill="white"/>
<path d="M79 45H75V49H79V45Z" fill="white"/>
<path d="M89 45H85V49H89V45Z" fill="white"/>
<path d="M99 45H95V49H99V45Z" fill="white"/>
<path d="M103 45H99V49H103V45Z" fill="white"/>
<path d="M113 45H109V49H113V45Z" fill="white"/>
<path d="M119 45H115V49H119V45Z" fill="white"/>
<path d="M123 45H119V49H123V45Z" fill="white"/>
<path d="M128 45H124V49H128V45Z" fill="white"/>
<path d="M138 45H134V49H138V45Z" fill="white"/>
<path d="M142 45H138V49H142V45Z" fill="white"/>
<path d="M156 45H152V49H156V45Z" fill="white"/>
<path d="M162 45H158V49H162V45Z" fill="white"/>
<path d="M176 45H172V49H176V45Z" fill="white"/>
<path d="M182 45H178V49H182V45Z" fill="white"/>
<path d="M219 45H215V49H219V45Z" fill="white"/>
<path d="M239 45H235V49H239V45Z" fill="white"/>
<path d="M12 51H8V55H12V51Z" fill="white"/>
<path d="M16 51H12V55H16V51Z" fill="white"/>
<path d="M22 51H18V55H22V51Z" fill="white"/>
<path d="M26 51H22V55H26V51Z" fill="white"/>
<path d="M36 51H32V55H36V51Z" fill="white"/>
<path d="M40 51H36V55H40V51Z" fill="white"/>
<path d="M49 51H45V55H49V51Z" fill="white"/>
<path d="M55 51H51V55H55V51Z" fill="white"/>
<path d="M65 51H61V55H65V51Z" fill="white"/>
<path d="M69 51H65V55H69V51Z" fill="white"/>
<path d="M85 51H81V55H85V51Z" fill="white"/>
<path d="M89 51H85V55H89V51Z" fill="white"/>
<path d="M99 51H95V55H99V51Z" fill="white"/>
<path d="M123 51H119V55H123V51Z" fill="white"/>
<path d="M128 51H124V55H128V51Z" fill="white"/>
<path d="M138 51H134V55H138V51Z" fill="white"/>
<path d="M152 51H148V55H152V51Z" fill="white"/>
<path d="M162 51H158V55H162V51Z" fill="white"/>
<path d="M166 51H162V55H166V51Z" fill="white"/>
<path d="M172 51H168V55H172V51Z" fill="white"/>
<path d="M182 51H178V55H182V51Z" fill="white"/>
<path d="M186 51H182V55H186V51Z" fill="white"/>
<path d="M192 51H188V55H192V51Z" fill="white"/>
<path d="M196 51H192V55H196V51Z" fill="white"/>
<path d="M202 51H198V55H202V51Z" fill="white"/>
<path d="M206 51H202V55H206V51Z" fill="white"/>
<path d="M211 51H207V55H211V51Z" fill="white"/>
<path d="M215 51H211V55H215V51Z" fill="white"/>
<path d="M229 51H225V55H229V51Z" fill="white"/>
<path d="M235 51H231V55H235V51Z" fill="white"/>
<path d="M12 55H8V59H12V55Z" fill="white"/>
<path d="M16 55H12V59H16V55Z" fill="white"/>
<path d="M26 55H22V59H26V55Z" fill="white"/>
<path d="M32 55H28V59H32V55Z" fill="white"/>
<path d="M55 55H51V59H55V55Z" fill="white"/>
<path d="M69 55H65V59H69V55Z" fill="white"/>
<path d="M89 55H85V59H89V55Z" fill="white"/>
<path d="M95 55H91V59H95V55Z" fill="white"/>
<path d="M123 55H119V59H123V55Z" fill="white"/>
<path d="M132 55H128V59H132V55Z" fill="white"/>
<path d="M138 55H134V59H138V55Z" fill="white"/>
<path d="M142 55H138V59H142V55Z" fill="white"/>
<path d="M148 55H144V59H148V55Z" fill="white"/>
<path d="M182 55H178V59H182V55Z" fill="white"/>
<path d="M186 55H182V59H186V55Z" fill="white"/>
<path d="M206 55H202V59H206V55Z" fill="white"/>
<path d="M211 55H207V59H211V55Z" fill="white"/>
<path d="M215 55H211V59H215V55Z" fill="white"/>
<path d="M219 55H215V59H219V55Z" fill="white"/>
<path d="M225 55H221V59H225V55Z" fill="white"/>
<path d="M229 55H225V59H229V55Z" fill="white"/>
<path d="M6 61H2V65H6V61Z" fill="white"/>
<path d="M36 61H32V65H36V61Z" fill="white"/>
<path d="M40 61H36V65H40V61Z" fill="white"/>
<path d="M49 61H45V65H49V61Z" fill="white"/>
<path d="M69 61H65V65H69V61Z" fill="white"/>
<path d="M75 61H71V65H75V61Z" fill="white"/>
<path d="M85 61H81V65H85V61Z" fill="white"/>
<path d="M95 61H91V65H95V61Z" fill="white"/>
<path d="M103 61H99V65H103V61Z" fill="white"/>
<path d="M109 61H105V65H109V61Z" fill="white"/>
<path d="M119 61H115V65H119V61Z" fill="white"/>
<path d="M142 61H138V65H142V61Z" fill="white"/>
<path d="M148 61H144V65H148V61Z" fill="white"/>
<path d="M166 61H162V65H166V61Z" fill="white"/>
<path d="M172 61H168V65H172V61Z" fill="white"/>
<path d="M176 61H172V65H176V61Z" fill="white"/>
<path d="M182 61H178V65H182V61Z" fill="white"/>
<path d="M186 61H182V65H186V61Z" fill="white"/>
<path d="M192 61H188V65H192V61Z" fill="white"/>
<path d="M202 61H198V65H202V61Z" fill="white"/>
<path d="M215 61H211V65H215V61Z" fill="white"/>
<path d="M219 61H215V65H219V61Z" fill="white"/>
<path d="M235 61H231V65H235V61Z" fill="white"/>
<path d="M239 61H235V65H239V61Z" fill="white"/>
<path d="M12 65H8V69H12V65Z" fill="white"/>
<path d="M22 65H18V69H22V65Z" fill="white"/>
<path d="M26 65H22V69H26V65Z" fill="white"/>
<path d="M40 65H36V69H40V65Z" fill="white"/>
<path d="M45 65H41V69H45V65Z" fill="white"/>
<path d="M49 65H45V69H49V65Z" fill="white"/>
<path d="M55 65H51V69H55V65Z" fill="white"/>
<path d="M59 65H55V69H59V65Z" fill="white"/>
<path d="M65 65H61V69H65V65Z" fill="white"/>
<path d="M79 65H75V69H79V65Z" fill="white"/>
<path d="M85 65H81V69H85V65Z" fill="white"/>
<path d="M89 65H85V69H89V65Z" fill="white"/>
<path d="M99 65H95V69H99V65Z" fill="white"/>
<path d="M103 65H99V69H103V65Z" fill="white"/>
<path d="M109 65H105V69H109V65Z" fill="white"/>
<path d="M123 65H119V69H123V65Z" fill="white"/>
<path d="M138 65H134V69H138V65Z" fill="white"/>
<path d="M142 65H138V69H142V65Z" fill="white"/>
<path d="M162 65H158V69H162V65Z" fill="white"/>
<path d="M172 65H168V69H172V65Z" fill="white"/>
<path d="M196 65H192V69H196V65Z" fill="white"/>
<path d="M206 65H202V69H206V65Z" fill="white"/>
<path d="M211 65H207V69H211V65Z" fill="white"/>
<path d="M219 65H215V69H219V65Z" fill="white"/>
<path d="M229 65H225V69H229V65Z" fill="white"/>
<path d="M235 65H231V69H235V65Z" fill="white"/>
<path d="M6 71H2V75H6V71Z" fill="white"/>
<path d="M16 71H12V75H16V71Z" fill="white"/>
<path d="M22 71H18V75H22V71Z" fill="white"/>
<path d="M36 71H32V75H36V71Z" fill="white"/>
<path d="M45 71H41V75H45V71Z" fill="white"/>
<path d="M79 71H75V75H79V71Z" fill="white"/>
<path d="M99 71H95V75H99V71Z" fill="white"/>
<path d="M103 71H99V75H103V71Z" fill="white"/>
<path d="M109 71H105V75H109V71Z" fill="white"/>
<path d="M113 71H109V75H113V71Z" fill="white"/>
<path d="M128 71H124V75H128V71Z" fill="white"/>
<path d="M132 71H128V75H132V71Z" fill="white"/>
<path d="M148 71H144V75H148V71Z" fill="white"/>
<path d="M156 71H152V75H156V71Z" fill="white"/>
<path d="M162 71H158V75H162V71Z" fill="white"/>
<path d="M172 71H168V75H172V71Z" fill="white"/>
<path d="M176 71H172V75H176V71Z" fill="white"/>
<path d="M182 71H178V75H182V71Z" fill="white"/>
<path d="M202 71H198V75H202V71Z" fill="white"/>
<path d="M206 71H202V75H206V71Z" fill="white"/>
<path d="M211 71H207V75H211V71Z" fill="white"/>
<path d="M225 71H221V75H225V71Z" fill="white"/>
<path d="M229 71H225V75H229V71Z" fill="white"/>
<path d="M235 71H231V75H235V71Z" fill="white"/>
<path d="M12 75H8V79H12V75Z" fill="white"/>
<path d="M22 75H18V79H22V75Z" fill="white"/>
<path d="M26 75H22V79H26V75Z" fill="white"/>
<path d="M32 75H28V79H32V75Z" fill="white"/>
<path d="M40 75H36V79H40V75Z" fill="white"/>
<path d="M45 75H41V79H45V75Z" fill="white"/>
<path d="M59 75H55V79H59V75Z" fill="white"/>
<path d="M69 75H65V79H69V75Z" fill="white"/>
<path d="M75 75H71V79H75V75Z" fill="white"/>
<path d="M79 75H75V79H79V75Z" fill="white"/>
<path d="M85 75H81V79H85V75Z" fill="white"/>
<path d="M89 75H85V79H89V75Z" fill="white"/>
<path d="M99 75H95V79H99V75Z" fill="white"/>
<path d="M103 75H99V79H103V75Z" fill="white"/>
<path d="M119 75H115V79H119V75Z" fill="white"/>
<path d="M132 75H128V79H132V75Z" fill="white"/>
<path d="M138 75H134V79H138V75Z" fill="white"/>
<path d="M142 75H138V79H142V75Z" fill="white"/>
<path d="M172 75H168V79H172V75Z" fill="white"/>
<path d="M186 75H182V79H186V75Z" fill="white"/>
<path d="M192 75H188V79H192V75Z" fill="white"/>
<path d="M211 75H207V79H211V75Z" fill="white"/>
<path d="M215 75H211V79H215V75Z" fill="white"/>
<path d="M219 75H215V79H219V75Z" fill="white"/>
<path d="M229 75H225V79H229V75Z" fill="white"/>
<path d="M12 81H8V85H12V81Z" fill="white"/>
<path d="M22 81H18V85H22V81Z" fill="white"/>
<path d="M26 81H22V85H26V81Z" fill="white"/>
<path d="M36 81H32V85H36V81Z" fill="white"/>
<path d="M59 81H55V85H59V81Z" fill="white"/>
<path d="M65 81H61V85H65V81Z" fill="white"/>
<path d="M109 81H105V85H109V81Z" fill="white"/>
<path d="M113 81H109V85H113V81Z" fill="white"/>
<path d="M128 81H124V85H128V81Z" fill="white"/>
<path d="M132 81H128V85H132V81Z" fill="white"/>
<path d="M142 81H138V85H142V81Z" fill="white"/>
<path d="M162 81H158V85H162V81Z" fill="white"/>
<path d="M166 81H162V85H166V81Z" fill="white"/>
<path d="M172 81H168V85H172V81Z" fill="white"/>
<path d="M176 81H172V85H176V81Z" fill="white"/>
<path d="M192 81H188V85H192V81Z" fill="white"/>
<path d="M206 81H202V85H206V81Z" fill="white"/>
<path d="M211 81H207V85H211V81Z" fill="white"/>
<path d="M215 81H211V85H215V81Z" fill="white"/>
<path d="M219 81H215V85H219V81Z" fill="white"/>
<path d="M225 81H221V85H225V81Z" fill="white"/>
<path d="M235 81H231V85H235V81Z" fill="white"/>
<path d="M239 81H235V85H239V81Z" fill="white"/>
<path d="M16 85H12V89H16V85Z" fill="white"/>
<path d="M32 85H28V89H32V85Z" fill="white"/>
<path d="M40 85H36V89H40V85Z" fill="white"/>
<path d="M45 85H41V89H45V85Z" fill="white"/>
<path d="M59 85H55V89H59V85Z" fill="white"/>
<path d="M65 85H61V89H65V85Z" fill="white"/>
<path d="M69 85H65V89H69V85Z" fill="white"/>
<path d="M75 85H71V89H75V85Z" fill="white"/>
<path d="M85 85H81V89H85V85Z" fill="white"/>
<path d="M95 85H91V89H95V85Z" fill="white"/>
<path d="M99 85H95V89H99V85Z" fill="white"/>
<path d="M103 85H99V89H103V85Z" fill="white"/>
<path d="M109 85H105V89H109V85Z" fill="white"/>
<path d="M113 85H109V89H113V85Z" fill="white"/>
<path d="M138 85H134V89H138V85Z" fill="white"/>
<path d="M148 85H144V89H148V85Z" fill="white"/>
<path d="M156 85H152V89H156V85Z" fill="white"/>
<path d="M172 85H168V89H172V85Z" fill="white"/>
<path d="M186 85H182V89H186V85Z" fill="white"/>
<path d="M192 85H188V89H192V85Z" fill="white"/>
<path d="M196 85H192V89H196V85Z" fill="white"/>
<path d="M211 85H207V89H211V85Z" fill="white"/>
<path d="M219 85H215V89H219V85Z" fill="white"/>
<path d="M6 91H2V95H6V91Z" fill="white"/>
<path d="M12 91H8V95H12V91Z" fill="white"/>
<path d="M22 91H18V95H22V91Z" fill="white"/>
<path d="M32 91H28V95H32V91Z" fill="white"/>
<path d="M36 91H32V95H36V91Z" fill="white"/>
<path d="M40 91H36V95H40V91Z" fill="white"/>
<path d="M49 91H45V95H49V91Z" fill="white"/>
<path d="M55 91H51V95H55V91Z" fill="white"/>
<path d="M85 91H81V95H85V91Z" fill="white"/>
<path d="M99 91H95V95H99V91Z" fill="white"/>
<path d="M103 91H99V95H103V91Z" fill="white"/>
<path d="M113 91H109V95H113V91Z" fill="white"/>
<path d="M119 91H115V95H119V91Z" fill="white"/>
<path d="M128 91H124V95H128V91Z" fill="white"/>
<path d="M148 91H144V95H148V91Z" fill="white"/>
<path d="M152 91H148V95H152V91Z" fill="white"/>
<path d="M166 91H162V95H166V91Z" fill="white"/>
<path d="M182 91H178V95H182V91Z" fill="white"/>
<path d="M206 91H202V95H206V91Z" fill="white"/>
<path d="M211 91H207V95H211V91Z" fill="white"/>
<path d="M215 91H211V95H215V91Z" fill="white"/>
<path d="M225 91H221V95H225V91Z" fill="white"/>
<path d="M235 91H231V95H235V91Z" fill="white"/>
<path d="M12 94H8V98H12V94Z" fill="white"/>
<path d="M16 94H12V98H16V94Z" fill="white"/>
<path d="M22 94H18V98H22V94Z" fill="white"/>
<path d="M40 94H36V98H40V94Z" fill="white"/>
<path d="M49 94H45V98H49V94Z" fill="white"/>
<path d="M55 94H51V98H55V94Z" fill="white"/>
<path d="M65 94H61V98H65V94Z" fill="white"/>
<path d="M75 94H71V98H75V94Z" fill="white"/>
<path d="M79 94H75V98H79V94Z" fill="white"/>
<path d="M85 94H81V98H85V94Z" fill="white"/>
<path d="M89 94H85V98H89V94Z" fill="white"/>
<path d="M95 94H91V98H95V94Z" fill="white"/>
<path d="M99 94H95V98H99V94Z" fill="white"/>
<path d="M103 94H99V98H103V94Z" fill="white"/>
<path d="M119 94H115V98H119V94Z" fill="white"/>
<path d="M128 94H124V98H128V94Z" fill="white"/>
<path d="M132 94H128V98H132V94Z" fill="white"/>
<path d="M142 94H138V98H142V94Z" fill="white"/>
<path d="M156 94H152V98H156V94Z" fill="white"/>
<path d="M162 94H158V98H162V94Z" fill="white"/>
<path d="M182 94H178V98H182V94Z" fill="white"/>
<path d="M196 94H192V98H196V94Z" fill="white"/>
<path d="M206 94H202V98H206V94Z" fill="white"/>
<path d="M211 94H207V98H211V94Z" fill="white"/>
<path d="M225 94H221V98H225V94Z" fill="white"/>
<path d="M6 98H2V102H6V98Z" fill="white"/>
<path d="M26 98H22V102H26V98Z" fill="white"/>
<path d="M32 98H28V102H32V98Z" fill="white"/>
<path d="M36 98H32V102H36V98Z" fill="white"/>
<path d="M45 98H41V102H45V98Z" fill="white"/>
<path d="M49 98H45V102H49V98Z" fill="white"/>
<path d="M55 98H51V102H55V98Z" fill="white"/>
<path d="M65 98H61V102H65V98Z" fill="white"/>
<path d="M89 98H85V102H89V98Z" fill="white"/>
<path d="M95 98H91V102H95V98Z" fill="white"/>
<path d="M113 98H109V102H113V98Z" fill="white"/>
<path d="M119 98H115V102H119V98Z" fill="white"/>
<path d="M128 98H124V102H128V98Z" fill="white"/>
<path d="M132 98H128V102H132V98Z" fill="white"/>
<path d="M138 98H134V102H138V98Z" fill="white"/>
<path d="M142 98H138V102H142V98Z" fill="white"/>
<path d="M148 98H144V102H148V98Z" fill="white"/>
<path d="M152 98H148V102H152V98Z" fill="white"/>
<path d="M166 98H162V102H166V98Z" fill="white"/>
<path d="M172 98H168V102H172V98Z" fill="white"/>
<path d="M176 98H172V102H176V98Z" fill="white"/>
<path d="M182 98H178V102H182V98Z" fill="white"/>
<path d="M186 98H182V102H186V98Z" fill="white"/>
<path d="M192 98H188V102H192V98Z" fill="white"/>
<path d="M196 98H192V102H196V98Z" fill="white"/>
<path d="M202 98H198V102H202V98Z" fill="white"/>
<path d="M206 98H202V102H206V98Z" fill="white"/>
<path d="M215 98H211V102H215V98Z" fill="white"/>
<path d="M225 98H221V102H225V98Z" fill="white"/>
<path d="M229 98H225V102H229V98Z" fill="white"/>
<path d="M239 98H235V102H239V98Z" fill="white"/>
<path d="M6 104H2V108H6V104Z" fill="white"/>
<path d="M12 104H8V108H12V104Z" fill="white"/>
<path d="M26 104H22V108H26V104Z" fill="white"/>
<path d="M45 104H41V108H45V104Z" fill="white"/>
<path d="M49 104H45V108H49V104Z" fill="white"/>
<path d="M55 104H51V108H55V104Z" fill="white"/>
<path d="M59 104H55V108H59V104Z" fill="white"/>
<path d="M69 104H65V108H69V104Z" fill="white"/>
<path d="M89 104H85V108H89V104Z" fill="white"/>
<path d="M109 104H105V108H109V104Z" fill="white"/>
<path d="M113 104H109V108H113V104Z" fill="white"/>
<path d="M119 104H115V108H119V104Z" fill="white"/>
<path d="M123 104H119V108H123V104Z" fill="white"/>
<path d="M128 104H124V108H128V104Z" fill="white"/>
<path d="M142 104H138V108H142V104Z" fill="white"/>
<path d="M148 104H144V108H148V104Z" fill="white"/>
<path d="M172 104H168V108H172V104Z" fill="white"/>
<path d="M192 104H188V108H192V104Z" fill="white"/>
<path d="M202 104H198V108H202V104Z" fill="white"/>
<path d="M206 104H202V108H206V104Z" fill="white"/>
<path d="M211 104H207V108H211V104Z" fill="white"/>
<path d="M215 104H211V108H215V104Z" fill="white"/>
<path d="M219 104H215V108H219V104Z" fill="white"/>
<path d="M239 104H235V108H239V104Z" fill="white"/>
<path d="M12 108H8V112H12V108Z" fill="white"/>
<path d="M26 108H22V112H26V108Z" fill="white"/>
<path d="M32 108H28V112H32V108Z" fill="white"/>
<path d="M36 108H32V112H36V108Z" fill="white"/>
<path d="M40 108H36V112H40V108Z" fill="white"/>
<path d="M45 108H41V112H45V108Z" fill="white"/>
<path d="M49 108H45V112H49V108Z" fill="white"/>
<path d="M75 108H71V112H75V108Z" fill="white"/>
<path d="M79 108H75V112H79V108Z" fill="white"/>
<path d="M85 108H81V112H85V108Z" fill="white"/>
<path d="M89 108H85V112H89V108Z" fill="white"/>
<path d="M95 108H91V112H95V108Z" fill="white"/>
<path d="M113 108H109V112H113V108Z" fill="white"/>
<path d="M119 108H115V112H119V108Z" fill="white"/>
<path d="M123 108H119V112H123V108Z" fill="white"/>
<path d="M128 108H124V112H128V108Z" fill="white"/>
<path d="M132 108H128V112H132V108Z" fill="white"/>
<path d="M166 108H162V112H166V108Z" fill="white"/>
<path d="M176 108H172V112H176V108Z" fill="white"/>
<path d="M182 108H178V112H182V108Z" fill="white"/>
<path d="M192 108H188V112H192V108Z" fill="white"/>
<path d="M196 108H192V112H196V108Z" fill="white"/>
<path d="M202 108H198V112H202V108Z" fill="white"/>
<path d="M206 108H202V112H206V108Z" fill="white"/>
<path d="M211 108H207V112H211V108Z" fill="white"/>
<path d="M215 108H211V112H215V108Z" fill="white"/>
<path d="M219 108H215V112H219V108Z" fill="white"/>
<path d="M225 108H221V112H225V108Z" fill="white"/>
<path d="M229 108H225V112H229V108Z" fill="white"/>
<path d="M235 108H231V112H235V108Z" fill="white"/>
<path d="M239 108H235V112H239V108Z" fill="white"/>
<path d="M12 114H8V118H12V114Z" fill="white"/>
<path d="M16 114H12V118H16V114Z" fill="white"/>
<path d="M22 114H18V118H22V114Z" fill="white"/>
<path d="M26 114H22V118H26V114Z" fill="white"/>
<path d="M45 114H41V118H45V114Z" fill="white"/>
<path d="M55 114H51V118H55V114Z" fill="white"/>
<path d="M59 114H55V118H59V114Z" fill="white"/>
<path d="M75 114H71V118H75V114Z" fill="white"/>
<path d="M79 114H75V118H79V114Z" fill="white"/>
<path d="M85 114H81V118H85V114Z" fill="white"/>
<path d="M113 114H109V118H113V114Z" fill="white"/>
<path d="M132 114H128V118H132V114Z" fill="white"/>
<path d="M156 114H152V118H156V114Z" fill="white"/>
<path d="M166 114H162V118H166V114Z" fill="white"/>
<path d="M176 114H172V118H176V114Z" fill="white"/>
<path d="M202 114H198V118H202V114Z" fill="white"/>
<path d="M219 114H215V118H219V114Z" fill="white"/>
<path d="M12 118H8V122H12V118Z" fill="white"/>
<path d="M26 118H22V122H26V118Z" fill="white"/>
<path d="M36 118H32V122H36V118Z" fill="white"/>
<path d="M45 118H41V122H45V118Z" fill="white"/>
<path d="M49 118H45V122H49V118Z" fill="white"/>
<path d="M55 118H51V122H55V118Z" fill="white"/>
<path d="M59 118H55V122H59V118Z" fill="white"/>
<path d="M69 118H65V122H69V118Z" fill="white"/>
<path d="M75 118H71V122H75V118Z" fill="white"/>
<path d="M79 118H75V122H79V118Z" fill="white"/>
<path d="M85 118H81V122H85V118Z" fill="white"/>
<path d="M95 118H91V122H95V118Z" fill="white"/>
<path d="M99 118H95V122H99V118Z" fill="white"/>
<path d="M113 118H109V122H113V118Z" fill="white"/>
<path d="M123 118H119V122H123V118Z" fill="white"/>
<path d="M132 118H128V122H132V118Z" fill="white"/>
<path d="M148 118H144V122H148V118Z" fill="white"/>
<path d="M166 118H162V122H166V118Z" fill="white"/>
<path d="M172 118H168V122H172V118Z" fill="white"/>
<path d="M176 118H172V122H176V118Z" fill="white"/>
<path d="M192 118H188V122H192V118Z" fill="white"/>
<path d="M196 118H192V122H196V118Z" fill="white"/>
<path d="M202 118H198V122H202V118Z" fill="white"/>
<path d="M211 118H207V122H211V118Z" fill="white"/>
<path d="M219 118H215V122H219V118Z" fill="white"/>
<path d="M229 118H225V122H229V118Z" fill="white"/>
<path d="M12 124H8V128H12V124Z" fill="white"/>
<path d="M16 124H12V128H16V124Z" fill="white"/>
<path d="M22 124H18V128H22V124Z" fill="white"/>
<path d="M26 124H22V128H26V124Z" fill="white"/>
<path d="M45 124H41V128H45V124Z" fill="white"/>
<path d="M65 124H61V128H65V124Z" fill="white"/>
<path d="M75 124H71V128H75V124Z" fill="white"/>
<path d="M85 124H81V128H85V124Z" fill="white"/>
<path d="M89 124H85V128H89V124Z" fill="white"/>
<path d="M99 124H95V128H99V124Z" fill="white"/>
<path d="M109 124H105V128H109V124Z" fill="white"/>
<path d="M113 124H109V128H113V124Z" fill="white"/>
<path d="M132 124H128V128H132V124Z" fill="white"/>
<path d="M152 124H148V128H152V124Z" fill="white"/>
<path d="M156 124H152V128H156V124Z" fill="white"/>
<path d="M172 124H168V128H172V124Z" fill="white"/>
<path d="M186 124H182V128H186V124Z" fill="white"/>
<path d="M192 124H188V128H192V124Z" fill="white"/>
<path d="M196 124H192V128H196V124Z" fill="white"/>
<path d="M202 124H198V128H202V124Z" fill="white"/>
<path d="M219 124H215V128H219V124Z" fill="white"/>
<path d="M235 124H231V128H235V124Z" fill="white"/>
<path d="M239 124H235V128H239V124Z" fill="white"/>
<path d="M16 128H12V132H16V128Z" fill="white"/>
<path d="M22 128H18V132H22V128Z" fill="white"/>
<path d="M26 128H22V132H26V128Z" fill="white"/>
<path d="M32 128H28V132H32V128Z" fill="white"/>
<path d="M36 128H32V132H36V128Z" fill="white"/>
<path d="M40 128H36V132H40V128Z" fill="white"/>
<path d="M45 128H41V132H45V128Z" fill="white"/>
<path d="M49 128H45V132H49V128Z" fill="white"/>
<path d="M59 128H55V132H59V128Z" fill="white"/>
<path d="M75 128H71V132H75V128Z" fill="white"/>
<path d="M79 128H75V132H79V128Z" fill="white"/>
<path d="M85 128H81V132H85V128Z" fill="white"/>
<path d="M89 128H85V132H89V128Z" fill="white"/>
<path d="M95 128H91V132H95V128Z" fill="white"/>
<path d="M109 128H105V132H109V128Z" fill="white"/>
<path d="M113 128H109V132H113V128Z" fill="white"/>
<path d="M119 128H115V132H119V128Z" fill="white"/>
<path d="M123 128H119V132H123V128Z" fill="white"/>
<path d="M128 128H124V132H128V128Z" fill="white"/>
<path d="M132 128H128V132H132V128Z" fill="white"/>
<path d="M142 128H138V132H142V128Z" fill="white"/>
<path d="M152 128H148V132H152V128Z" fill="white"/>
<path d="M172 128H168V132H172V128Z" fill="white"/>
<path d="M176 128H172V132H176V128Z" fill="white"/>
<path d="M182 128H178V132H182V128Z" fill="white"/>
<path d="M192 128H188V132H192V128Z" fill="white"/>
<path d="M202 128H198V132H202V128Z" fill="white"/>
<path d="M206 128H202V132H206V128Z" fill="white"/>
<path d="M211 128H207V132H211V128Z" fill="white"/>
<path d="M215 128H211V132H215V128Z" fill="white"/>
<path d="M219 128H215V132H219V128Z" fill="white"/>
<path d="M229 128H225V132H229V128Z" fill="white"/>
<path d="M239 128H235V132H239V128Z" fill="white"/>
<path d="M6 134H2V138H6V134Z" fill="white"/>
<path d="M12 134H8V138H12V134Z" fill="white"/>
<path d="M22 134H18V138H22V134Z" fill="white"/>
<path d="M40 134H36V138H40V134Z" fill="white"/>
<path d="M55 134H51V138H55V134Z" fill="white"/>
<path d="M75 134H71V138H75V134Z" fill="white"/>
<path d="M89 134H85V138H89V134Z" fill="white"/>
<path d="M109 134H105V138H109V134Z" fill="white"/>
<path d="M113 134H109V138H113V134Z" fill="white"/>
<path d="M119 134H115V138H119V134Z" fill="white"/>
<path d="M128 134H124V138H128V134Z" fill="white"/>
<path d="M132 134H128V138H132V134Z" fill="white"/>
<path d="M138 134H134V138H138V134Z" fill="white"/>
<path d="M148 134H144V138H148V134Z" fill="white"/>
<path d="M176 134H172V138H176V134Z" fill="white"/>
<path d="M186 134H182V138H186V134Z" fill="white"/>
<path d="M196 134H192V138H196V134Z" fill="white"/>
<path d="M202 134H198V138H202V134Z" fill="white"/>
<path d="M211 134H207V138H211V134Z" fill="white"/>
<path d="M215 134H211V138H215V134Z" fill="white"/>
<path d="M225 134H221V138H225V134Z" fill="white"/>
<path d="M235 134H231V138H235V134Z" fill="white"/>
<path d="M239 134H235V138H239V134Z" fill="white"/>
<path d="M6 138H2V142H6V138Z" fill="white"/>
<path d="M22 138H18V142H22V138Z" fill="white"/>
<path d="M36 138H32V142H36V138Z" fill="white"/>
<path d="M40 138H36V142H40V138Z" fill="white"/>
<path d="M45 138H41V142H45V138Z" fill="white"/>
<path d="M59 138H55V142H59V138Z" fill="white"/>
<path d="M79 138H75V142H79V138Z" fill="white"/>
<path d="M85 138H81V142H85V138Z" fill="white"/>
<path d="M95 138H91V142H95V138Z" fill="white"/>
<path d="M99 138H95V142H99V138Z" fill="white"/>
<path d="M109 138H105V142H109V138Z" fill="white"/>
<path d="M119 138H115V142H119V138Z" fill="white"/>
<path d="M132 138H128V142H132V138Z" fill="white"/>
<path d="M138 138H134V142H138V138Z" fill="white"/>
<path d="M142 138H138V142H142V138Z" fill="white"/>
<path d="M148 138H144V142H148V138Z" fill="white"/>
<path d="M152 138H148V142H152V138Z" fill="white"/>
<path d="M156 138H152V142H156V138Z" fill="white"/>
<path d="M162 138H158V142H162V138Z" fill="white"/>
<path d="M172 138H168V142H172V138Z" fill="white"/>
<path d="M176 138H172V142H176V138Z" fill="white"/>
<path d="M186 138H182V142H186V138Z" fill="white"/>
<path d="M192 138H188V142H192V138Z" fill="white"/>
<path d="M202 138H198V142H202V138Z" fill="white"/>
<path d="M206 138H202V142H206V138Z" fill="white"/>
<path d="M211 138H207V142H211V138Z" fill="white"/>
<path d="M225 138H221V142H225V138Z" fill="white"/>
<path d="M229 138H225V142H229V138Z" fill="white"/>
<path d="M239 138H235V142H239V138Z" fill="white"/>
<path d="M16 144H12V148H16V144Z" fill="white"/>
<path d="M22 144H18V148H22V144Z" fill="white"/>
<path d="M26 144H22V148H26V144Z" fill="white"/>
<path d="M32 144H28V148H32V144Z" fill="white"/>
<path d="M45 144H41V148H45V144Z" fill="white"/>
<path d="M49 144H45V148H49V144Z" fill="white"/>
<path d="M55 144H51V148H55V144Z" fill="white"/>
<path d="M59 144H55V148H59V144Z" fill="white"/>
<path d="M65 144H61V148H65V144Z" fill="white"/>
<path d="M69 144H65V148H69V144Z" fill="white"/>
<path d="M89 144H85V148H89V144Z" fill="white"/>
<path d="M113 144H109V148H113V144Z" fill="white"/>
<path d="M119 144H115V148H119V144Z" fill="white"/>
<path d="M123 144H119V148H123V144Z" fill="white"/>
<path d="M128 144H124V148H128V144Z" fill="white"/>
<path d="M132 144H128V148H132V144Z" fill="white"/>
<path d="M138 144H134V148H138V144Z" fill="white"/>
<path d="M142 144H138V148H142V144Z" fill="white"/>
<path d="M162 144H158V148H162V144Z" fill="white"/>
<path d="M215 144H211V148H215V144Z" fill="white"/>
<path d="M219 144H215V148H219V144Z" fill="white"/>
<path d="M235 144H231V148H235V144Z" fill="white"/>
<path d="M16 148H12V152H16V148Z" fill="white"/>
<path d="M32 148H28V152H32V148Z" fill="white"/>
<path d="M36 148H32V152H36V148Z" fill="white"/>
<path d="M40 148H36V152H40V148Z" fill="white"/>
<path d="M55 148H51V152H55V148Z" fill="white"/>
<path d="M65 148H61V152H65V148Z" fill="white"/>
<path d="M69 148H65V152H69V148Z" fill="white"/>
<path d="M75 148H71V152H75V148Z" fill="white"/>
<path d="M79 148H75V152H79V148Z" fill="white"/>
<path d="M95 148H91V152H95V148Z" fill="white"/>
<path d="M99 148H95V152H99V148Z" fill="white"/>
<path d="M113 148H109V152H113V148Z" fill="white"/>
<path d="M119 148H115V152H119V148Z" fill="white"/>
<path d="M148 148H144V152H148V148Z" fill="white"/>
<path d="M152 148H148V152H152V148Z" fill="white"/>
<path d="M156 148H152V152H156V148Z" fill="white"/>
<path d="M162 148H158V152H162V148Z" fill="white"/>
<path d="M166 148H162V152H166V148Z" fill="white"/>
<path d="M182 148H178V152H182V148Z" fill="white"/>
<path d="M186 148H182V152H186V148Z" fill="white"/>
<path d="M192 148H188V152H192V148Z" fill="white"/>
<path d="M196 148H192V152H196V148Z" fill="white"/>
<path d="M206 148H202V152H206V148Z" fill="white"/>
<path d="M211 148H207V152H211V148Z" fill="white"/>
<path d="M219 148H215V152H219V148Z" fill="white"/>
<path d="M229 148H225V152H229V148Z" fill="white"/>
<path d="M239 148H235V152H239V148Z" fill="white"/>
<path d="M12 151H8V155H12V151Z" fill="white"/>
<path d="M22 151H18V155H22V151Z" fill="white"/>
<path d="M26 151H22V155H26V151Z" fill="white"/>
<path d="M45 151H41V155H45V151Z" fill="white"/>
<path d="M59 151H55V155H59V151Z" fill="white"/>
<path d="M69 151H65V155H69V151Z" fill="white"/>
<path d="M75 151H71V155H75V151Z" fill="white"/>
<path d="M89 151H85V155H89V151Z" fill="white"/>
<path d="M95 151H91V155H95V151Z" fill="white"/>
<path d="M99 151H95V155H99V151Z" fill="white"/>
<path d="M109 151H105V155H109V151Z" fill="white"/>
<path d="M113 151H109V155H113V151Z" fill="white"/>
<path d="M119 151H115V155H119V151Z" fill="white"/>
<path d="M128 151H124V155H128V151Z" fill="white"/>
<path d="M138 151H134V155H138V151Z" fill="white"/>
<path d="M142 151H138V155H142V151Z" fill="white"/>
<path d="M148 151H144V155H148V151Z" fill="white"/>
<path d="M152 151H148V155H152V151Z" fill="white"/>
<path d="M182 151H178V155H182V151Z" fill="white"/>
<path d="M186 151H182V155H186V151Z" fill="white"/>
<path d="M196 151H192V155H196V151Z" fill="white"/>
<path d="M206 151H202V155H206V151Z" fill="white"/>
<path d="M215 151H211V155H215V151Z" fill="white"/>
<path d="M219 151H215V155H219V151Z" fill="white"/>
<path d="M225 151H221V155H225V151Z" fill="white"/>
<path d="M235 151H231V155H235V151Z" fill="white"/>
<path d="M6 157H2V161H6V157Z" fill="white"/>
<path d="M12 157H8V161H12V157Z" fill="white"/>
<path d="M22 157H18V161H22V157Z" fill="white"/>
<path d="M26 157H22V161H26V157Z" fill="white"/>
<path d="M32 157H28V161H32V157Z" fill="white"/>
<path d="M36 157H32V161H36V157Z" fill="white"/>
<path d="M40 157H36V161H40V157Z" fill="white"/>
<path d="M49 157H45V161H49V157Z" fill="white"/>
<path d="M55 157H51V161H55V157Z" fill="white"/>
<path d="M59 157H55V161H59V157Z" fill="white"/>
<path d="M65 157H61V161H65V157Z" fill="white"/>
<path d="M69 157H65V161H69V157Z" fill="white"/>
<path d="M75 157H71V161H75V157Z" fill="white"/>
<path d="M79 157H75V161H79V157Z" fill="white"/>
<path d="M89 157H85V161H89V157Z" fill="white"/>
<path d="M99 157H95V161H99V157Z" fill="white"/>
<path d="M103 157H99V161H103V157Z" fill="white"/>
<path d="M109 157H105V161H109V157Z" fill="white"/>
<path d="M113 157H109V161H113V157Z" fill="white"/>
<path d="M123 157H119V161H123V157Z" fill="white"/>
<path d="M138 157H134V161H138V157Z" fill="white"/>
<path d="M142 157H138V161H142V157Z" fill="white"/>
<path d="M156 157H152V161H156V157Z" fill="white"/>
<path d="M162 157H158V161H162V157Z" fill="white"/>
<path d="M172 157H168V161H172V157Z" fill="white"/>
<path d="M176 157H172V161H176V157Z" fill="white"/>
<path d="M192 157H188V161H192V157Z" fill="white"/>
<path d="M196 157H192V161H196V157Z" fill="white"/>
<path d="M202 157H198V161H202V157Z" fill="white"/>
<path d="M206 157H202V161H206V157Z" fill="white"/>
<path d="M211 157H207V161H211V157Z" fill="white"/>
<path d="M229 157H225V161H229V157Z" fill="white"/>
<path d="M235 157H231V161H235V157Z" fill="white"/>
<path d="M239 157H235V161H239V157Z" fill="white"/>
<path d="M6 161H2V165H6V161Z" fill="white"/>
<path d="M22 161H18V165H22V161Z" fill="white"/>
<path d="M26 161H22V165H26V161Z" fill="white"/>
<path d="M40 161H36V165H40V161Z" fill="white"/>
<path d="M45 161H41V165H45V161Z" fill="white"/>
<path d="M59 161H55V165H59V161Z" fill="white"/>
<path d="M65 161H61V165H65V161Z" fill="white"/>
<path d="M69 161H65V165H69V161Z" fill="white"/>
<path d="M85 161H81V165H85V161Z" fill="white"/>
<path d="M95 161H91V165H95V161Z" fill="white"/>
<path d="M109 161H105V165H109V161Z" fill="white"/>
<path d="M119 161H115V165H119V161Z" fill="white"/>
<path d="M123 161H119V165H123V161Z" fill="white"/>
<path d="M132 161H128V165H132V161Z" fill="white"/>
<path d="M138 161H134V165H138V161Z" fill="white"/>
<path d="M162 161H158V165H162V161Z" fill="white"/>
<path d="M166 161H162V165H166V161Z" fill="white"/>
<path d="M186 161H182V165H186V161Z" fill="white"/>
<path d="M192 161H188V165H192V161Z" fill="white"/>
<path d="M202 161H198V165H202V161Z" fill="white"/>
<path d="M215 161H211V165H215V161Z" fill="white"/>
<path d="M235 161H231V165H235V161Z" fill="white"/>
<path d="M239 161H235V165H239V161Z" fill="white"/>
<path d="M16 167H12V171H16V167Z" fill="white"/>
<path d="M32 167H28V171H32V167Z" fill="white"/>
<path d="M36 167H32V171H36V167Z" fill="white"/>
<path d="M65 167H61V171H65V167Z" fill="white"/>
<path d="M75 167H71V171H75V167Z" fill="white"/>
<path d="M79 167H75V171H79V167Z" fill="white"/>
<path d="M85 167H81V171H85V167Z" fill="white"/>
<path d="M89 167H85V171H89V167Z" fill="white"/>
<path d="M99 167H95V171H99V167Z" fill="white"/>
<path d="M103 167H99V171H103V167Z" fill="white"/>
<path d="M119 167H115V171H119V167Z" fill="white"/>
<path d="M123 167H119V171H123V167Z" fill="white"/>
<path d="M132 167H128V171H132V167Z" fill="white"/>
<path d="M156 167H152V171H156V167Z" fill="white"/>
<path d="M162 167H158V171H162V167Z" fill="white"/>
<path d="M166 167H162V171H166V167Z" fill="white"/>
<path d="M172 167H168V171H172V167Z" fill="white"/>
<path d="M176 167H172V171H176V167Z" fill="white"/>
<path d="M186 167H182V171H186V167Z" fill="white"/>
<path d="M192 167H188V171H192V167Z" fill="white"/>
<path d="M196 167H192V171H196V167Z" fill="white"/>
<path d="M211 167H207V171H211V167Z" fill="white"/>
<path d="M215 167H211V171H215V167Z" fill="white"/>
<path d="M219 167H215V171H219V167Z" fill="white"/>
<path d="M229 167H225V171H229V167Z" fill="white"/>
<path d="M6 171H2V175H6V171Z" fill="white"/>
<path d="M12 171H8V175H12V171Z" fill="white"/>
<path d="M16 171H12V175H16V171Z" fill="white"/>
<path d="M22 171H18V175H22V171Z" fill="white"/>
<path d="M32 171H28V175H32V171Z" fill="white"/>
<path d="M45 171H41V175H45V171Z" fill="white"/>
<path d="M49 171H45V175H49V171Z" fill="white"/>
<path d="M65 171H61V175H65V171Z" fill="white"/>
<path d="M69 171H65V175H69V171Z" fill="white"/>
<path d="M75 171H71V175H75V171Z" fill="white"/>
<path d="M79 171H75V175H79V171Z" fill="white"/>
<path d="M89 171H85V175H89V171Z" fill="white"/>
<path d="M95 171H91V175H95V171Z" fill="white"/>
<path d="M99 171H95V175H99V171Z" fill="white"/>
<path d="M103 171H99V175H103V171Z" fill="white"/>
<path d="M119 171H115V175H119V171Z" fill="white"/>
<path d="M123 171H119V175H123V171Z" fill="white"/>
<path d="M128 171H124V175H128V171Z" fill="white"/>
<path d="M148 171H144V175H148V171Z" fill="white"/>
<path d="M176 171H172V175H176V171Z" fill="white"/>
<path d="M186 171H182V175H186V171Z" fill="white"/>
<path d="M196 171H192V175H196V171Z" fill="white"/>
<path d="M202 171H198V175H202V171Z" fill="white"/>
<path d="M206 171H202V175H206V171Z" fill="white"/>
<path d="M211 171H207V175H211V171Z" fill="white"/>
<path d="M215 171H211V175H215V171Z" fill="white"/>
<path d="M225 171H221V175H225V171Z" fill="white"/>
<path d="M12 177H8V181H12V177Z" fill="white"/>
<path d="M26 177H22V181H26V177Z" fill="white"/>
<path d="M36 177H32V181H36V177Z" fill="white"/>
<path d="M45 177H41V181H45V177Z" fill="white"/>
<path d="M55 177H51V181H55V177Z" fill="white"/>
<path d="M59 177H55V181H59V177Z" fill="white"/>
<path d="M75 177H71V181H75V177Z" fill="white"/>
<path d="M89 177H85V181H89V177Z" fill="white"/>
<path d="M95 177H91V181H95V177Z" fill="white"/>
<path d="M109 177H105V181H109V177Z" fill="white"/>
<path d="M113 177H109V181H113V177Z" fill="white"/>
<path d="M128 177H124V181H128V177Z" fill="white"/>
<path d="M132 177H128V181H132V177Z" fill="white"/>
<path d="M142 177H138V181H142V177Z" fill="white"/>
<path d="M148 177H144V181H148V177Z" fill="white"/>
<path d="M152 177H148V181H152V177Z" fill="white"/>
<path d="M166 177H162V181H166V177Z" fill="white"/>
<path d="M172 177H168V181H172V177Z" fill="white"/>
<path d="M176 177H172V181H176V177Z" fill="white"/>
<path d="M186 177H182V181H186V177Z" fill="white"/>
<path d="M192 177H188V181H192V177Z" fill="white"/>
<path d="M206 177H202V181H206V177Z" fill="white"/>
<path d="M211 177H207V181H211V177Z" fill="white"/>
<path d="M215 177H211V181H215V177Z" fill="white"/>
<path d="M219 177H215V181H219V177Z" fill="white"/>
<path d="M229 177H225V181H229V177Z" fill="white"/>
<path d="M235 177H231V181H235V177Z" fill="white"/>
<path d="M239 177H235V181H239V177Z" fill="white"/>
<path d="M6 181H2V185H6V181Z" fill="white"/>
<path d="M12 181H8V185H12V181Z" fill="white"/>
<path d="M16 181H12V185H16V181Z" fill="white"/>
<path d="M22 181H18V185H22V181Z" fill="white"/>
<path d="M26 181H22V185H26V181Z" fill="white"/>
<path d="M40 181H36V185H40V181Z" fill="white"/>
<path d="M45 181H41V185H45V181Z" fill="white"/>
<path d="M49 181H45V185H49V181Z" fill="white"/>
<path d="M75 181H71V185H75V181Z" fill="white"/>
<path d="M79 181H75V185H79V181Z" fill="white"/>
<path d="M85 181H81V185H85V181Z" fill="white"/>
<path d="M89 181H85V185H89V181Z" fill="white"/>
<path d="M95 181H91V185H95V181Z" fill="white"/>
<path d="M123 181H119V185H123V181Z" fill="white"/>
<path d="M142 181H138V185H142V181Z" fill="white"/>
<path d="M148 181H144V185H148V181Z" fill="white"/>
<path d="M172 181H168V185H172V181Z" fill="white"/>
<path d="M202 181H198V185H202V181Z" fill="white"/>
<path d="M215 181H211V185H215V181Z" fill="white"/>
<path d="M219 181H215V185H219V181Z" fill="white"/>
<path d="M225 181H221V185H225V181Z" fill="white"/>
<path d="M239 181H235V185H239V181Z" fill="white"/>
<path d="M12 187H8V191H12V187Z" fill="white"/>
<path d="M32 187H28V191H32V187Z" fill="white"/>
<path d="M36 187H32V191H36V187Z" fill="white"/>
<path d="M40 187H36V191H40V187Z" fill="white"/>
<path d="M45 187H41V191H45V187Z" fill="white"/>
<path d="M55 187H51V191H55V187Z" fill="white"/>
<path d="M59 187H55V191H59V187Z" fill="white"/>
<path d="M65 187H61V191H65V187Z" fill="white"/>
<path d="M75 187H71V191H75V187Z" fill="white"/>
<path d="M79 187H75V191H79V187Z" fill="white"/>
<path d="M85 187H81V191H85V187Z" fill="white"/>
<path d="M89 187H85V191H89V187Z" fill="white"/>
<path d="M103 187H99V191H103V187Z" fill="white"/>
<path d="M109 187H105V191H109V187Z" fill="white"/>
<path d="M113 187H109V191H113V187Z" fill="white"/>
<path d="M128 187H124V191H128V187Z" fill="white"/>
<path d="M132 187H128V191H132V187Z" fill="white"/>
<path d="M142 187H138V191H142V187Z" fill="white"/>
<path d="M176 187H172V191H176V187Z" fill="white"/>
<path d="M182 187H178V191H182V187Z" fill="white"/>
<path d="M192 187H188V191H192V187Z" fill="white"/>
<path d="M196 187H192V191H196V187Z" fill="white"/>
<path d="M206 187H202V191H206V187Z" fill="white"/>
<path d="M211 187H207V191H211V187Z" fill="white"/>
<path d="M215 187H211V191H215V187Z" fill="white"/>
<path d="M219 187H215V191H219V187Z" fill="white"/>
<path d="M235 187H231V191H235V187Z" fill="white"/>
<path d="M239 187H235V191H239V187Z" fill="white"/>
<path d="M12 191H8V195H12V191Z" fill="white"/>
<path d="M16 191H12V195H16V191Z" fill="white"/>
<path d="M22 191H18V195H22V191Z" fill="white"/>
<path d="M40 191H36V195H40V191Z" fill="white"/>
<path d="M59 191H55V195H59V191Z" fill="white"/>
<path d="M65 191H61V195H65V191Z" fill="white"/>
<path d="M75 191H71V195H75V191Z" fill="white"/>
<path d="M79 191H75V195H79V191Z" fill="white"/>
<path d="M85 191H81V195H85V191Z" fill="white"/>
<path d="M89 191H85V195H89V191Z" fill="white"/>
<path d="M99 191H95V195H99V191Z" fill="white"/>
<path d="M103 191H99V195H103V191Z" fill="white"/>
<path d="M123 191H119V195H123V191Z" fill="white"/>
<path d="M166 191H162V195H166V191Z" fill="white"/>
<path d="M176 191H172V195H176V191Z" fill="white"/>
<path d="M182 191H178V195H182V191Z" fill="white"/>
<path d="M196 191H192V195H196V191Z" fill="white"/>
<path d="M211 191H207V195H211V191Z" fill="white"/>
<path d="M225 191H221V195H225V191Z" fill="white"/>
<path d="M235 191H231V195H235V191Z" fill="white"/>
<path d="M6 197H2V201H6V197Z" fill="white"/>
<path d="M12 197H8V201H12V197Z" fill="white"/>
<path d="M16 197H12V201H16V197Z" fill="white"/>
<path d="M36 197H32V201H36V197Z" fill="white"/>
<path d="M40 197H36V201H40V197Z" fill="white"/>
<path d="M45 197H41V201H45V197Z" fill="white"/>
<path d="M49 197H45V201H49V197Z" fill="white"/>
<path d="M59 197H55V201H59V197Z" fill="white"/>
<path d="M85 197H81V201H85V197Z" fill="white"/>
<path d="M89 197H85V201H89V197Z" fill="white"/>
<path d="M95 197H91V201H95V197Z" fill="white"/>
<path d="M103 197H99V201H103V197Z" fill="white"/>
<path d="M113 197H109V201H113V197Z" fill="white"/>
<path d="M119 197H115V201H119V197Z" fill="white"/>
<path d="M123 197H119V201H123V197Z" fill="white"/>
<path d="M128 197H124V201H128V197Z" fill="white"/>
<path d="M132 197H128V201H132V197Z" fill="white"/>
<path d="M142 197H138V201H142V197Z" fill="white"/>
<path d="M148 197H144V201H148V197Z" fill="white"/>
<path d="M156 197H152V201H156V197Z" fill="white"/>
<path d="M176 197H172V201H176V197Z" fill="white"/>
<path d="M186 197H182V201H186V197Z" fill="white"/>
<path d="M196 197H192V201H196V197Z" fill="white"/>
<path d="M202 197H198V201H202V197Z" fill="white"/>
<path d="M206 197H202V201H206V197Z" fill="white"/>
<path d="M211 197H207V201H211V197Z" fill="white"/>
<path d="M215 197H211V201H215V197Z" fill="white"/>
<path d="M219 197H215V201H219V197Z" fill="white"/>
<path d="M235 197H231V201H235V197Z" fill="white"/>
<path d="M239 197H235V201H239V197Z" fill="white"/>
<path d="M45 201H41V205H45V201Z" fill="white"/>
<path d="M69 201H65V205H69V201Z" fill="white"/>
<path d="M75 201H71V205H75V201Z" fill="white"/>
<path d="M85 201H81V205H85V201Z" fill="white"/>
<path d="M99 201H95V205H99V201Z" fill="white"/>
<path d="M113 201H109V205H113V201Z" fill="white"/>
<path d="M132 201H128V205H132V201Z" fill="white"/>
<path d="M148 201H144V205H148V201Z" fill="white"/>
<path d="M152 201H148V205H152V201Z" fill="white"/>
<path d="M156 201H152V205H156V201Z" fill="white"/>
<path d="M162 201H158V205H162V201Z" fill="white"/>
<path d="M166 201H162V205H166V201Z" fill="white"/>
<path d="M202 201H198V205H202V201Z" fill="white"/>
<path d="M219 201H215V205H219V201Z" fill="white"/>
<path d="M235 201H231V205H235V201Z" fill="white"/>
<path d="M239 201H235V205H239V201Z" fill="white"/>
<path d="M6 207H2V211H6V207Z" fill="white"/>
<path d="M12 207H8V211H12V207Z" fill="white"/>
<path d="M16 207H12V211H16V207Z" fill="white"/>
<path d="M22 207H18V211H22V207Z" fill="white"/>
<path d="M26 207H22V211H26V207Z" fill="white"/>
<path d="M32 207H28V211H32V207Z" fill="white"/>
<path d="M36 207H32V211H36V207Z" fill="white"/>
<path d="M65 207H61V211H65V207Z" fill="white"/>
<path d="M69 207H65V211H69V207Z" fill="white"/>
<path d="M79 207H75V211H79V207Z" fill="white"/>
<path d="M103 207H99V211H103V207Z" fill="white"/>
<path d="M113 207H109V211H113V207Z" fill="white"/>
<path d="M123 207H119V211H123V207Z" fill="white"/>
<path d="M132 207H128V211H132V207Z" fill="white"/>
<path d="M138 207H134V211H138V207Z" fill="white"/>
<path d="M142 207H138V211H142V207Z" fill="white"/>
<path d="M148 207H144V211H148V207Z" fill="white"/>
<path d="M156 207H152V211H156V207Z" fill="white"/>
<path d="M176 207H172V211H176V207Z" fill="white"/>
<path d="M182 207H178V211H182V207Z" fill="white"/>
<path d="M186 207H182V211H186V207Z" fill="white"/>
<path d="M202 207H198V211H202V207Z" fill="white"/>
<path d="M211 207H207V211H211V207Z" fill="white"/>
<path d="M219 207H215V211H219V207Z" fill="white"/>
<path d="M225 207H221V211H225V207Z" fill="white"/>
<path d="M229 207H225V211H229V207Z" fill="white"/>
<path d="M6 211H2V215H6V211Z" fill="white"/>
<path d="M36 211H32V215H36V211Z" fill="white"/>
<path d="M49 211H45V215H49V211Z" fill="white"/>
<path d="M55 211H51V215H55V211Z" fill="white"/>
<path d="M65 211H61V215H65V211Z" fill="white"/>
<path d="M69 211H65V215H69V211Z" fill="white"/>
<path d="M75 211H71V215H75V211Z" fill="white"/>
<path d="M79 211H75V215H79V211Z" fill="white"/>
<path d="M89 211H85V215H89V211Z" fill="white"/>
<path d="M95 211H91V215H95V211Z" fill="white"/>
<path d="M99 211H95V215H99V211Z" fill="white"/>
<path d="M109 211H105V215H109V211Z" fill="white"/>
<path d="M113 211H109V215H113V211Z" fill="white"/>
<path d="M132 211H128V215H132V211Z" fill="white"/>
<path d="M138 211H134V215H138V211Z" fill="white"/>
<path d="M152 211H148V215H152V211Z" fill="white"/>
<path d="M156 211H152V215H156V211Z" fill="white"/>
<path d="M176 211H172V215H176V211Z" fill="white"/>
<path d="M202 211H198V215H202V211Z" fill="white"/>
<path d="M219 211H215V215H219V211Z" fill="white"/>
<path d="M225 211H221V215H225V211Z" fill="white"/>
<path d="M229 211H225V215H229V211Z" fill="white"/>
<path d="M235 211H231V215H235V211Z" fill="white"/>
<path d="M6 214H2V218H6V214Z" fill="white"/>
<path d="M16 214H12V218H16V214Z" fill="white"/>
<path d="M22 214H18V218H22V214Z" fill="white"/>
<path d="M26 214H22V218H26V214Z" fill="white"/>
<path d="M36 214H32V218H36V214Z" fill="white"/>
<path d="M45 214H41V218H45V214Z" fill="white"/>
<path d="M49 214H45V218H49V214Z" fill="white"/>
<path d="M55 214H51V218H55V214Z" fill="white"/>
<path d="M59 214H55V218H59V214Z" fill="white"/>
<path d="M79 214H75V218H79V214Z" fill="white"/>
<path d="M85 214H81V218H85V214Z" fill="white"/>
<path d="M113 214H109V218H113V214Z" fill="white"/>
<path d="M119 214H115V218H119V214Z" fill="white"/>
<path d="M123 214H119V218H123V214Z" fill="white"/>
<path d="M128 214H124V218H128V214Z" fill="white"/>
<path d="M132 214H128V218H132V214Z" fill="white"/>
<path d="M138 214H134V218H138V214Z" fill="white"/>
<path d="M152 214H148V218H152V214Z" fill="white"/>
<path d="M166 214H162V218H166V214Z" fill="white"/>
<path d="M172 214H168V218H172V214Z" fill="white"/>
<path d="M176 214H172V218H176V214Z" fill="white"/>
<path d="M192 214H188V218H192V214Z" fill="white"/>
<path d="M196 214H192V218H196V214Z" fill="white"/>
<path d="M202 214H198V218H202V214Z" fill="white"/>
<path d="M206 214H202V218H206V214Z" fill="white"/>
<path d="M211 214H207V218H211V214Z" fill="white"/>
<path d="M215 214H211V218H215V214Z" fill="white"/>
<path d="M219 214H215V218H219V214Z" fill="white"/>
<path d="M225 214H221V218H225V214Z" fill="white"/>
<path d="M235 214H231V218H235V214Z" fill="white"/>
<path d="M239 214H235V218H239V214Z" fill="white"/>
<path d="M6 220H2V224H6V220Z" fill="white"/>
<path d="M16 220H12V224H16V220Z" fill="white"/>
<path d="M22 220H18V224H22V220Z" fill="white"/>
<path d="M26 220H22V224H26V220Z" fill="white"/>
<path d="M36 220H32V224H36V220Z" fill="white"/>
<path d="M45 220H41V224H45V220Z" fill="white"/>
<path d="M49 220H45V224H49V220Z" fill="white"/>
<path d="M55 220H51V224H55V220Z" fill="white"/>
<path d="M59 220H55V224H59V220Z" fill="white"/>
<path d="M69 220H65V224H69V220Z" fill="white"/>
<path d="M75 220H71V224H75V220Z" fill="white"/>
<path d="M79 220H75V224H79V220Z" fill="white"/>
<path d="M85 220H81V224H85V220Z" fill="white"/>
<path d="M89 220H85V224H89V220Z" fill="white"/>
<path d="M103 220H99V224H103V220Z" fill="white"/>
<path d="M109 220H105V224H109V220Z" fill="white"/>
<path d="M113 220H109V224H113V220Z" fill="white"/>
<path d="M119 220H115V224H119V220Z" fill="white"/>
<path d="M132 220H128V224H132V220Z" fill="white"/>
<path d="M138 220H134V224H138V220Z" fill="white"/>
<path d="M162 220H158V224H162V220Z" fill="white"/>
<path d="M166 220H162V224H166V220Z" fill="white"/>
<path d="M186 220H182V224H186V220Z" fill="white"/>
<path d="M192 220H188V224H192V220Z" fill="white"/>
<path d="M196 220H192V224H196V220Z" fill="white"/>
<path d="M206 220H202V224H206V220Z" fill="white"/>
<path d="M211 220H207V224H211V220Z" fill="white"/>
<path d="M215 220H211V224H215V220Z" fill="white"/>
<path d="M235 220H231V224H235V220Z" fill="white"/>
<path d="M239 220H235V224H239V220Z" fill="white"/>
<path d="M6 224H2V228H6V224Z" fill="white"/>
<path d="M16 224H12V228H16V224Z" fill="white"/>
<path d="M22 224H18V228H22V224Z" fill="white"/>
<path d="M26 224H22V228H26V224Z" fill="white"/>
<path d="M36 224H32V228H36V224Z" fill="white"/>
<path d="M45 224H41V228H45V224Z" fill="white"/>
<path d="M49 224H45V228H49V224Z" fill="white"/>
<path d="M59 224H55V228H59V224Z" fill="white"/>
<path d="M69 224H65V228H69V224Z" fill="white"/>
<path d="M75 224H71V228H75V224Z" fill="white"/>
<path d="M85 224H81V228H85V224Z" fill="white"/>
<path d="M89 224H85V228H89V224Z" fill="white"/>
<path d="M99 224H95V228H99V224Z" fill="white"/>
<path d="M109 224H105V228H109V224Z" fill="white"/>
<path d="M119 224H115V228H119V224Z" fill="white"/>
<path d="M148 224H144V228H148V224Z" fill="white"/>
<path d="M152 224H148V228H152V224Z" fill="white"/>
<path d="M156 224H152V228H156V224Z" fill="white"/>
<path d="M182 224H178V228H182V224Z" fill="white"/>
<path d="M186 224H182V228H186V224Z" fill="white"/>
<path d="M192 224H188V228H192V224Z" fill="white"/>
<path d="M202 224H198V228H202V224Z" fill="white"/>
<path d="M215 224H211V228H215V224Z" fill="white"/>
<path d="M225 224H221V228H225V224Z" fill="white"/>
<path d="M229 224H225V228H229V224Z" fill="white"/>
<path d="M239 224H235V228H239V224Z" fill="white"/>
<path d="M6 230H2V234H6V230Z" fill="white"/>
<path d="M36 230H32V234H36V230Z" fill="white"/>
<path d="M69 230H65V234H69V230Z" fill="white"/>
<path d="M79 230H75V234H79V230Z" fill="white"/>
<path d="M89 230H85V234H89V230Z" fill="white"/>
<path d="M95 230H91V234H95V230Z" fill="white"/>
<path d="M109 230H105V234H109V230Z" fill="white"/>
<path d="M119 230H115V234H119V230Z" fill="white"/>
<path d="M128 230H124V234H128V230Z" fill="white"/>
<path d="M138 230H134V234H138V230Z" fill="white"/>
<path d="M142 230H138V234H142V230Z" fill="white"/>
<path d="M148 230H144V234H148V230Z" fill="white"/>
<path d="M152 230H148V234H152V230Z" fill="white"/>
<path d="M156 230H152V234H156V230Z" fill="white"/>
<path d="M162 230H158V234H162V230Z" fill="white"/>
<path d="M176 230H172V234H176V230Z" fill="white"/>
<path d="M186 230H182V234H186V230Z" fill="white"/>
<path d="M196 230H192V234H196V230Z" fill="white"/>
<path d="M202 230H198V234H202V230Z" fill="white"/>
<path d="M206 230H202V234H206V230Z" fill="white"/>
<path d="M219 230H215V234H219V230Z" fill="white"/>
<path d="M229 230H225V234H229V230Z" fill="white"/>
<path d="M235 230H231V234H235V230Z" fill="white"/>
<path d="M6 234H2V238H6V234Z" fill="white"/>
<path d="M12 234H8V238H12V234Z" fill="white"/>
<path d="M16 234H12V238H16V234Z" fill="white"/>
<path d="M22 234H18V238H22V234Z" fill="white"/>
<path d="M26 234H22V238H26V234Z" fill="white"/>
<path d="M32 234H28V238H32V234Z" fill="white"/>
<path d="M36 234H32V238H36V234Z" fill="white"/>
<path d="M59 234H55V238H59V234Z" fill="white"/>
<path d="M79 234H75V238H79V234Z" fill="white"/>
<path d="M89 234H85V238H89V234Z" fill="white"/>
<path d="M99 234H95V238H99V234Z" fill="white"/>
<path d="M119 234H115V238H119V234Z" fill="white"/>
<path d="M123 234H119V238H123V234Z" fill="white"/>
<path d="M132 234H128V238H132V234Z" fill="white"/>
<path d="M142 234H138V238H142V234Z" fill="white"/>
<path d="M148 234H144V238H148V234Z" fill="white"/>
<path d="M152 234H148V238H152V234Z" fill="white"/>
<path d="M172 234H168V238H172V234Z" fill="white"/>
<path d="M182 234H178V238H182V234Z" fill="white"/>
<path d="M192 234H188V238H192V234Z" fill="white"/>
<path d="M202 234H198V238H202V234Z" fill="white"/>
<path d="M206 234H202V238H206V234Z" fill="white"/>
<path d="M211 234H207V238H211V234Z" fill="white"/>
<path d="M215 234H211V238H215V234Z" fill="white"/>
<path d="M229 234H225V238H229V234Z" fill="white"/>
<path d="M235 234H231V238H235V234Z" fill="white"/>
<path d="M239 234H235V238H239V234Z" fill="white"/>
</g>
<defs>
<clipPath id="clip0_1300_6530">
<rect width="243" height="242" fill="white"/>
</clipPath>
</defs>
</svg>
