<svg width="210" height="211" viewBox="0 0 210 211" fill="none" xmlns="http://www.w3.org/2000/svg">
<g clip-path="url(#clip0_1617_19855)">
<path d="M209.414 0.966774H0.0268555V210.354H209.414V0.966774Z" fill="white"/>
<path d="M56.2037 11.1831H51.0967V16.2901H56.2037V11.1831Z" fill="black"/>
<path d="M81.7383 11.1831H76.6313V16.2901H81.7383V11.1831Z" fill="black"/>
<path d="M102.167 11.1831H97.0601V16.2901H102.167V11.1831Z" fill="black"/>
<path d="M112.381 11.1831H107.274V16.2901H112.381V11.1831Z" fill="black"/>
<path d="M122.595 11.1831H117.488V16.2901H122.595V11.1831Z" fill="black"/>
<path d="M127.702 11.1831H122.595V16.2901H127.702V11.1831Z" fill="black"/>
<path d="M148.13 11.1831H143.023V16.2901H148.13V11.1831Z" fill="black"/>
<path d="M61.3111 16.2905H56.2041V21.3975H61.3111V16.2905Z" fill="black"/>
<path d="M66.418 16.2905H61.311V21.3975H66.418V16.2905Z" fill="black"/>
<path d="M71.525 16.2905H66.418V21.3975H71.525V16.2905Z" fill="black"/>
<path d="M76.6324 16.2905H71.5254V21.3975H76.6324V16.2905Z" fill="black"/>
<path d="M86.8458 16.2905H81.7388V21.3975H86.8458V16.2905Z" fill="black"/>
<path d="M91.9532 16.2905H86.8462V21.3975H91.9532V16.2905Z" fill="black"/>
<path d="M97.0601 16.2905H91.9531V21.3975H97.0601V16.2905Z" fill="black"/>
<path d="M102.167 16.2905H97.0601V21.3975H102.167V16.2905Z" fill="black"/>
<path d="M117.488 16.2905H112.381V21.3975H117.488V16.2905Z" fill="black"/>
<path d="M122.595 16.2905H117.488V21.3975H122.595V16.2905Z" fill="black"/>
<path d="M143.023 16.2905H137.916V21.3975H143.023V16.2905Z" fill="black"/>
<path d="M148.13 16.2905H143.023V21.3975H148.13V16.2905Z" fill="black"/>
<path d="M158.344 16.2905H153.237V21.3975H158.344V16.2905Z" fill="black"/>
<path d="M56.2037 21.3909H51.0967V26.4979H56.2037V21.3909Z" fill="black"/>
<path d="M61.3111 21.3909H56.2041V26.4979H61.3111V21.3909Z" fill="black"/>
<path d="M71.525 21.3909H66.418V26.4979H71.525V21.3909Z" fill="black"/>
<path d="M81.7383 21.3909H76.6313V26.4979H81.7383V21.3909Z" fill="black"/>
<path d="M86.8458 21.3909H81.7388V26.4979H86.8458V21.3909Z" fill="black"/>
<path d="M102.167 21.3909H97.0601V26.4979H102.167V21.3909Z" fill="black"/>
<path d="M112.381 21.3909H107.274V26.4979H112.381V21.3909Z" fill="black"/>
<path d="M122.595 21.3909H117.488V26.4979H122.595V21.3909Z" fill="black"/>
<path d="M143.023 21.3909H137.916V26.4979H143.023V21.3909Z" fill="black"/>
<path d="M153.236 21.3909H148.129V26.4979H153.236V21.3909Z" fill="black"/>
<path d="M61.3111 26.506H56.2041V31.613H61.3111V26.506Z" fill="black"/>
<path d="M66.418 26.506H61.311V31.613H66.418V26.506Z" fill="black"/>
<path d="M71.525 26.506H66.418V31.613H71.525V26.506Z" fill="black"/>
<path d="M102.167 26.506H97.0601V31.613H102.167V26.506Z" fill="black"/>
<path d="M112.381 26.506H107.274V31.613H112.381V26.506Z" fill="black"/>
<path d="M117.488 26.506H112.381V31.613H117.488V26.506Z" fill="black"/>
<path d="M122.595 26.506H117.488V31.613H122.595V26.506Z" fill="black"/>
<path d="M127.702 26.506H122.595V31.613H127.702V26.506Z" fill="black"/>
<path d="M137.916 26.506H132.809V31.613H137.916V26.506Z" fill="black"/>
<path d="M143.023 26.506H137.916V31.613H143.023V26.506Z" fill="black"/>
<path d="M148.13 26.506H143.023V31.613H148.13V26.506Z" fill="black"/>
<path d="M66.4175 31.6132H61.3105V36.7202H66.4175V31.6132Z" fill="black"/>
<path d="M71.525 31.6132H66.418V36.7202H71.525V31.6132Z" fill="black"/>
<path d="M76.6324 31.6132H71.5254V36.7202H76.6324V31.6132Z" fill="black"/>
<path d="M81.7383 31.6132H76.6313V36.7202H81.7383V31.6132Z" fill="black"/>
<path d="M97.0601 31.6132H91.9531V36.7202H97.0601V31.6132Z" fill="black"/>
<path d="M102.167 31.6132H97.0601V36.7202H102.167V31.6132Z" fill="black"/>
<path d="M107.274 31.6132H102.167V36.7202H107.274V31.6132Z" fill="black"/>
<path d="M148.13 31.6132H143.023V36.7202H148.13V31.6132Z" fill="black"/>
<path d="M56.2037 36.7144H51.0967V41.8214H56.2037V36.7144Z" fill="black"/>
<path d="M66.418 36.7144H61.311V41.8214H66.418V36.7144Z" fill="black"/>
<path d="M71.525 36.7144H66.418V41.8214H71.525V36.7144Z" fill="black"/>
<path d="M76.6324 36.7144H71.5254V41.8214H76.6324V36.7144Z" fill="black"/>
<path d="M81.7383 36.7144H76.6313V41.8214H81.7383V36.7144Z" fill="black"/>
<path d="M91.9527 36.7144H86.8457V41.8214H91.9527V36.7144Z" fill="black"/>
<path d="M97.0601 36.7144H91.9531V41.8214H97.0601V36.7144Z" fill="black"/>
<path d="M107.274 36.7144H102.167V41.8214H107.274V36.7144Z" fill="black"/>
<path d="M137.916 36.7144H132.809V41.8214H137.916V36.7144Z" fill="black"/>
<path d="M148.13 36.7144H143.023V41.8214H148.13V36.7144Z" fill="black"/>
<path d="M158.344 36.7144H153.237V41.8214H158.344V36.7144Z" fill="black"/>
<path d="M56.2037 41.823H51.0967V46.93H56.2037V41.823Z" fill="black"/>
<path d="M66.418 41.823H61.311V46.93H66.418V41.823Z" fill="black"/>
<path d="M76.6324 41.823H71.5254V46.93H76.6324V41.823Z" fill="black"/>
<path d="M86.8458 41.823H81.7388V46.93H86.8458V41.823Z" fill="black"/>
<path d="M97.0601 41.823H91.9531V46.93H97.0601V41.823Z" fill="black"/>
<path d="M107.274 41.823H102.167V46.93H107.274V41.823Z" fill="black"/>
<path d="M117.488 41.823H112.381V46.93H117.488V41.823Z" fill="black"/>
<path d="M127.702 41.823H122.595V46.93H127.702V41.823Z" fill="black"/>
<path d="M137.916 41.823H132.809V46.93H137.916V41.823Z" fill="black"/>
<path d="M148.13 41.823H143.023V46.93H148.13V41.823Z" fill="black"/>
<path d="M158.344 41.823H153.237V46.93H158.344V41.823Z" fill="black"/>
<path d="M61.3111 46.9304H56.2041V52.0374H61.3111V46.9304Z" fill="black"/>
<path d="M66.418 46.9304H61.311V52.0374H66.418V46.9304Z" fill="black"/>
<path d="M71.525 46.9304H66.418V52.0374H71.525V46.9304Z" fill="black"/>
<path d="M81.7383 46.9304H76.6313V52.0374H81.7383V46.9304Z" fill="black"/>
<path d="M107.274 46.9304H102.167V52.0374H107.274V46.9304Z" fill="black"/>
<path d="M132.809 46.9304H127.702V52.0374H132.809V46.9304Z" fill="black"/>
<path d="M137.916 46.9304H132.809V52.0374H137.916V46.9304Z" fill="black"/>
<path d="M148.13 46.9304H143.023V52.0374H148.13V46.9304Z" fill="black"/>
<path d="M153.237 46.9304H148.13V52.0374H153.237V46.9304Z" fill="black"/>
<path d="M158.344 46.9304H153.237V52.0374H158.344V46.9304Z" fill="black"/>
<path d="M15.3477 52.0377H10.2407V57.1447H15.3477V52.0377Z" fill="black"/>
<path d="M25.5616 52.0377H20.4546V57.1447H25.5616V52.0377Z" fill="black"/>
<path d="M45.9903 52.0377H40.8833V57.1447H45.9903V52.0377Z" fill="black"/>
<path d="M51.0967 52.0377H45.9897V57.1447H51.0967V52.0377Z" fill="black"/>
<path d="M71.525 52.0377H66.418V57.1447H71.525V52.0377Z" fill="black"/>
<path d="M81.7383 52.0377H76.6313V57.1447H81.7383V52.0377Z" fill="black"/>
<path d="M86.8458 52.0377H81.7388V57.1447H86.8458V52.0377Z" fill="black"/>
<path d="M91.9532 52.0377H86.8462V57.1447H91.9532V52.0377Z" fill="black"/>
<path d="M102.167 52.0377H97.0601V57.1447H102.167V52.0377Z" fill="black"/>
<path d="M112.381 52.0377H107.274V57.1447H112.381V52.0377Z" fill="black"/>
<path d="M137.916 52.0377H132.809V57.1447H137.916V52.0377Z" fill="black"/>
<path d="M148.13 52.0377H143.023V57.1447H148.13V52.0377Z" fill="black"/>
<path d="M158.344 52.0377H153.237V57.1447H158.344V52.0377Z" fill="black"/>
<path d="M173.665 52.0377H168.558V57.1447H173.665V52.0377Z" fill="black"/>
<path d="M188.986 52.0377H183.879V57.1447H188.986V52.0377Z" fill="black"/>
<path d="M199.2 52.0377H194.093V57.1447H199.2V52.0377Z" fill="black"/>
<path d="M15.3477 57.1465H10.2407V62.2534H15.3477V57.1465Z" fill="black"/>
<path d="M25.5616 57.1465H20.4546V62.2534H25.5616V57.1465Z" fill="black"/>
<path d="M30.669 57.1465H25.562V62.2534H30.669V57.1465Z" fill="black"/>
<path d="M35.7759 57.1465H30.6689V62.2534H35.7759V57.1465Z" fill="black"/>
<path d="M56.2037 57.1465H51.0967V62.2534H56.2037V57.1465Z" fill="black"/>
<path d="M71.525 57.1465H66.418V62.2534H71.525V57.1465Z" fill="black"/>
<path d="M86.8458 57.1465H81.7388V62.2534H86.8458V57.1465Z" fill="black"/>
<path d="M102.167 57.1465H97.0601V62.2534H102.167V57.1465Z" fill="black"/>
<path d="M107.274 57.1465H102.167V62.2534H107.274V57.1465Z" fill="black"/>
<path d="M112.381 57.1465H107.274V62.2534H112.381V57.1465Z" fill="black"/>
<path d="M132.809 57.1465H127.702V62.2534H132.809V57.1465Z" fill="black"/>
<path d="M153.236 57.1465H148.129V62.2534H153.236V57.1465Z" fill="black"/>
<path d="M158.344 57.1465H153.237V62.2534H158.344V57.1465Z" fill="black"/>
<path d="M163.451 57.1465H158.344V62.2534H163.451V57.1465Z" fill="black"/>
<path d="M168.558 57.1465H163.451V62.2534H168.558V57.1465Z" fill="black"/>
<path d="M173.665 57.1465H168.558V62.2534H173.665V57.1465Z" fill="black"/>
<path d="M183.879 57.1465H178.772V62.2534H183.879V57.1465Z" fill="black"/>
<path d="M194.093 57.1465H188.986V62.2534H194.093V57.1465Z" fill="black"/>
<path d="M199.2 57.1465H194.093V62.2534H199.2V57.1465Z" fill="black"/>
<path d="M15.3477 62.2547H10.2407V67.3617H15.3477V62.2547Z" fill="black"/>
<path d="M25.5616 62.2547H20.4546V67.3617H25.5616V62.2547Z" fill="black"/>
<path d="M40.8829 62.2547H35.7759V67.3617H40.8829V62.2547Z" fill="black"/>
<path d="M45.9903 62.2547H40.8833V67.3617H45.9903V62.2547Z" fill="black"/>
<path d="M51.0967 62.2547H45.9897V67.3617H51.0967V62.2547Z" fill="black"/>
<path d="M56.2037 62.2547H51.0967V67.3617H56.2037V62.2547Z" fill="black"/>
<path d="M61.3111 62.2547H56.2041V67.3617H61.3111V62.2547Z" fill="black"/>
<path d="M76.6324 62.2547H71.5254V67.3617H76.6324V62.2547Z" fill="black"/>
<path d="M91.9532 62.2547H86.8462V67.3617H91.9532V62.2547Z" fill="black"/>
<path d="M112.381 62.2547H107.274V67.3617H112.381V62.2547Z" fill="black"/>
<path d="M117.488 62.2547H112.381V67.3617H117.488V62.2547Z" fill="black"/>
<path d="M122.595 62.2547H117.488V67.3617H122.595V62.2547Z" fill="black"/>
<path d="M132.809 62.2547H127.702V67.3617H132.809V62.2547Z" fill="black"/>
<path d="M153.237 62.2547H148.13V67.3617H153.237V62.2547Z" fill="black"/>
<path d="M158.344 62.2547H153.237V67.3617H158.344V62.2547Z" fill="black"/>
<path d="M163.451 62.2547H158.344V67.3617H163.451V62.2547Z" fill="black"/>
<path d="M168.558 62.2547H163.451V67.3617H168.558V62.2547Z" fill="black"/>
<path d="M173.665 62.2547H168.558V67.3617H173.665V62.2547Z" fill="black"/>
<path d="M183.879 62.2547H178.772V67.3617H183.879V62.2547Z" fill="black"/>
<path d="M188.986 62.2547H183.879V67.3617H188.986V62.2547Z" fill="black"/>
<path d="M199.2 62.2547H194.093V67.3617H199.2V62.2547Z" fill="black"/>
<path d="M20.4556 67.3548H15.3486V72.4618H20.4556V67.3548Z" fill="black"/>
<path d="M35.7759 67.3548H30.6689V72.4618H35.7759V67.3548Z" fill="black"/>
<path d="M66.418 67.3548H61.311V72.4618H66.418V67.3548Z" fill="black"/>
<path d="M76.6324 67.3548H71.5254V72.4618H76.6324V67.3548Z" fill="black"/>
<path d="M107.274 67.3548H102.167V72.4618H107.274V67.3548Z" fill="black"/>
<path d="M117.488 67.3548H112.381V72.4618H117.488V67.3548Z" fill="black"/>
<path d="M137.916 67.3548H132.809V72.4618H137.916V67.3548Z" fill="black"/>
<path d="M148.13 67.3548H143.023V72.4618H148.13V67.3548Z" fill="black"/>
<path d="M158.344 67.3548H153.237V72.4618H158.344V67.3548Z" fill="black"/>
<path d="M173.665 67.3548H168.558V72.4618H173.665V67.3548Z" fill="black"/>
<path d="M15.3477 72.4627H10.2407V77.5697H15.3477V72.4627Z" fill="black"/>
<path d="M25.5621 72.4627H20.4551V77.5697H25.5621V72.4627Z" fill="black"/>
<path d="M30.669 72.4627H25.562V77.5697H30.669V72.4627Z" fill="black"/>
<path d="M35.7759 72.4627H30.6689V77.5697H35.7759V72.4627Z" fill="black"/>
<path d="M45.9903 72.4627H40.8833V77.5697H45.9903V72.4627Z" fill="black"/>
<path d="M51.0967 72.4627H45.9897V77.5697H51.0967V72.4627Z" fill="black"/>
<path d="M56.2037 72.4627H51.0967V77.5697H56.2037V72.4627Z" fill="black"/>
<path d="M81.7383 72.4627H76.6313V77.5697H81.7383V72.4627Z" fill="black"/>
<path d="M86.8458 72.4627H81.7388V77.5697H86.8458V72.4627Z" fill="black"/>
<path d="M91.9527 72.4627H86.8457V77.5697H91.9527V72.4627Z" fill="black"/>
<path d="M137.916 72.4627H132.809V77.5697H137.916V72.4627Z" fill="black"/>
<path d="M153.236 72.4627H148.129V77.5697H153.236V72.4627Z" fill="black"/>
<path d="M158.344 72.4627H153.237V77.5697H158.344V72.4627Z" fill="black"/>
<path d="M168.558 72.4627H163.451V77.5697H168.558V72.4627Z" fill="black"/>
<path d="M199.2 72.4627H194.093V77.5697H199.2V72.4627Z" fill="black"/>
<path d="M15.3477 77.5703H10.2407V82.6772H15.3477V77.5703Z" fill="black"/>
<path d="M25.5616 77.5703H20.4546V82.6772H25.5616V77.5703Z" fill="black"/>
<path d="M35.7759 77.5703H30.6689V82.6772H35.7759V77.5703Z" fill="black"/>
<path d="M40.8829 77.5703H35.7759V82.6772H40.8829V77.5703Z" fill="black"/>
<path d="M51.0967 77.5703H45.9897V82.6772H51.0967V77.5703Z" fill="black"/>
<path d="M61.3111 77.5703H56.2041V82.6772H61.3111V77.5703Z" fill="black"/>
<path d="M71.525 77.5703H66.418V82.6772H71.525V77.5703Z" fill="black"/>
<path d="M76.6324 77.5703H71.5254V82.6772H76.6324V77.5703Z" fill="black"/>
<path d="M81.7383 77.5703H76.6313V82.6772H81.7383V77.5703Z" fill="black"/>
<path d="M86.8458 77.5703H81.7388V82.6772H86.8458V77.5703Z" fill="black"/>
<path d="M91.9532 77.5703H86.8462V82.6772H91.9532V77.5703Z" fill="black"/>
<path d="M97.0601 77.5703H91.9531V82.6772H97.0601V77.5703Z" fill="black"/>
<path d="M112.381 77.5703H107.274V82.6772H112.381V77.5703Z" fill="black"/>
<path d="M117.488 77.5703H112.381V82.6772H117.488V77.5703Z" fill="black"/>
<path d="M122.595 77.5703H117.488V82.6772H122.595V77.5703Z" fill="black"/>
<path d="M132.809 77.5703H127.702V82.6772H132.809V77.5703Z" fill="black"/>
<path d="M143.023 77.5703H137.916V82.6772H143.023V77.5703Z" fill="black"/>
<path d="M153.237 77.5703H148.13V82.6772H153.237V77.5703Z" fill="black"/>
<path d="M158.344 77.5703H153.237V82.6772H158.344V77.5703Z" fill="black"/>
<path d="M168.558 77.5703H163.451V82.6772H168.558V77.5703Z" fill="black"/>
<path d="M173.665 77.5703H168.558V82.6772H173.665V77.5703Z" fill="black"/>
<path d="M183.879 77.5703H178.772V82.6772H183.879V77.5703Z" fill="black"/>
<path d="M199.2 77.5703H194.093V82.6772H199.2V77.5703Z" fill="black"/>
<path d="M20.4556 82.6783H15.3486V87.7853H20.4556V82.6783Z" fill="black"/>
<path d="M35.7759 82.6783H30.6689V87.7853H35.7759V82.6783Z" fill="black"/>
<path d="M45.9903 82.6783H40.8833V87.7853H45.9903V82.6783Z" fill="black"/>
<path d="M56.2037 82.6783H51.0967V87.7853H56.2037V82.6783Z" fill="black"/>
<path d="M66.4175 82.6783H61.3105V87.7853H66.4175V82.6783Z" fill="black"/>
<path d="M76.6324 82.6783H71.5254V87.7853H76.6324V82.6783Z" fill="black"/>
<path d="M91.9532 82.6783H86.8462V87.7853H91.9532V82.6783Z" fill="black"/>
<path d="M97.0601 82.6783H91.9531V87.7853H97.0601V82.6783Z" fill="black"/>
<path d="M107.274 82.6783H102.167V87.7853H107.274V82.6783Z" fill="black"/>
<path d="M112.381 82.6783H107.274V87.7853H112.381V82.6783Z" fill="black"/>
<path d="M117.488 82.6783H112.381V87.7853H117.488V82.6783Z" fill="black"/>
<path d="M122.595 82.6783H117.488V87.7853H122.595V82.6783Z" fill="black"/>
<path d="M132.809 82.6783H127.702V87.7853H132.809V82.6783Z" fill="black"/>
<path d="M153.237 82.6783H148.13V87.7853H153.237V82.6783Z" fill="black"/>
<path d="M163.451 82.6783H158.344V87.7853H163.451V82.6783Z" fill="black"/>
<path d="M168.558 82.6783H163.451V87.7853H168.558V82.6783Z" fill="black"/>
<path d="M183.878 82.6783H178.771V87.7853H183.878V82.6783Z" fill="black"/>
<path d="M188.986 82.6783H183.879V87.7853H188.986V82.6783Z" fill="black"/>
<path d="M199.2 82.6783H194.093V87.7853H199.2V82.6783Z" fill="black"/>
<path d="M20.4556 87.7862H15.3486V92.8932H20.4556V87.7862Z" fill="black"/>
<path d="M25.5616 87.7862H20.4546V92.8932H25.5616V87.7862Z" fill="black"/>
<path d="M35.7759 87.7862H30.6689V92.8932H35.7759V87.7862Z" fill="black"/>
<path d="M40.8829 87.7862H35.7759V92.8932H40.8829V87.7862Z" fill="black"/>
<path d="M56.2037 87.7862H51.0967V92.8932H56.2037V87.7862Z" fill="black"/>
<path d="M61.3111 87.7862H56.2041V92.8932H61.3111V87.7862Z" fill="black"/>
<path d="M71.525 87.7862H66.418V92.8932H71.525V87.7862Z" fill="black"/>
<path d="M76.6324 87.7862H71.5254V92.8932H76.6324V87.7862Z" fill="black"/>
<path d="M86.8458 87.7862H81.7388V92.8932H86.8458V87.7862Z" fill="black"/>
<path d="M97.0601 87.7862H91.9531V92.8932H97.0601V87.7862Z" fill="black"/>
<path d="M107.274 87.7862H102.167V92.8932H107.274V87.7862Z" fill="black"/>
<path d="M137.916 87.7862H132.809V92.8932H137.916V87.7862Z" fill="black"/>
<path d="M153.237 87.7862H148.13V92.8932H153.237V87.7862Z" fill="black"/>
<path d="M158.344 87.7862H153.237V92.8932H158.344V87.7862Z" fill="black"/>
<path d="M168.558 87.7862H163.451V92.8932H168.558V87.7862Z" fill="black"/>
<path d="M173.665 87.7862H168.558V92.8932H173.665V87.7862Z" fill="black"/>
<path d="M178.772 87.7862H173.665V92.8932H178.772V87.7862Z" fill="black"/>
<path d="M183.878 87.7862H178.771V92.8932H183.878V87.7862Z" fill="black"/>
<path d="M194.093 87.7862H188.986V92.8932H194.093V87.7862Z" fill="black"/>
<path d="M15.3477 92.8945H10.2407V98.0015H15.3477V92.8945Z" fill="black"/>
<path d="M25.5616 92.8945H20.4546V98.0015H25.5616V92.8945Z" fill="black"/>
<path d="M45.9903 92.8945H40.8833V98.0015H45.9903V92.8945Z" fill="black"/>
<path d="M51.0967 92.8945H45.9897V98.0015H51.0967V92.8945Z" fill="black"/>
<path d="M56.2037 92.8945H51.0967V98.0015H56.2037V92.8945Z" fill="black"/>
<path d="M61.3111 92.8945H56.2041V98.0015H61.3111V92.8945Z" fill="black"/>
<path d="M97.0601 92.8945H91.9531V98.0015H97.0601V92.8945Z" fill="black"/>
<path d="M102.167 92.8945H97.0601V98.0015H102.167V92.8945Z" fill="black"/>
<path d="M107.274 92.8945H102.167V98.0015H107.274V92.8945Z" fill="black"/>
<path d="M112.381 92.8945H107.274V98.0015H112.381V92.8945Z" fill="black"/>
<path d="M117.488 92.8945H112.381V98.0015H117.488V92.8945Z" fill="black"/>
<path d="M127.702 92.8945H122.595V98.0015H127.702V92.8945Z" fill="black"/>
<path d="M137.916 92.8945H132.809V98.0015H137.916V92.8945Z" fill="black"/>
<path d="M153.237 92.8945H148.13V98.0015H153.237V92.8945Z" fill="black"/>
<path d="M168.558 92.8945H163.451V98.0015H168.558V92.8945Z" fill="black"/>
<path d="M194.093 92.8945H188.986V98.0015H194.093V92.8945Z" fill="black"/>
<path d="M20.4556 98.0019H15.3486V103.109H20.4556V98.0019Z" fill="black"/>
<path d="M40.8829 98.0019H35.7759V103.109H40.8829V98.0019Z" fill="black"/>
<path d="M51.0967 98.0019H45.9897V103.109H51.0967V98.0019Z" fill="black"/>
<path d="M56.2037 98.0019H51.0967V103.109H56.2037V98.0019Z" fill="black"/>
<path d="M61.3111 98.0019H56.2041V103.109H61.3111V98.0019Z" fill="black"/>
<path d="M66.4175 98.0019H61.3105V103.109H66.4175V98.0019Z" fill="black"/>
<path d="M71.525 98.0019H66.418V103.109H71.525V98.0019Z" fill="black"/>
<path d="M81.7383 98.0019H76.6313V103.109H81.7383V98.0019Z" fill="black"/>
<path d="M86.8458 98.0019H81.7388V103.109H86.8458V98.0019Z" fill="black"/>
<path d="M97.0601 98.0019H91.9531V103.109H97.0601V98.0019Z" fill="black"/>
<path d="M112.381 98.0019H107.274V103.109H112.381V98.0019Z" fill="black"/>
<path d="M117.488 98.0019H112.381V103.109H117.488V98.0019Z" fill="black"/>
<path d="M122.595 98.0019H117.488V103.109H122.595V98.0019Z" fill="black"/>
<path d="M127.702 98.0019H122.595V103.109H127.702V98.0019Z" fill="black"/>
<path d="M132.809 98.0019H127.702V103.109H132.809V98.0019Z" fill="black"/>
<path d="M137.916 98.0019H132.809V103.109H137.916V98.0019Z" fill="black"/>
<path d="M143.023 98.0019H137.916V103.109H143.023V98.0019Z" fill="black"/>
<path d="M148.13 98.0019H143.023V103.109H148.13V98.0019Z" fill="black"/>
<path d="M153.237 98.0019H148.13V103.109H153.237V98.0019Z" fill="black"/>
<path d="M158.344 98.0019H153.237V103.109H158.344V98.0019Z" fill="black"/>
<path d="M163.451 98.0019H158.344V103.109H163.451V98.0019Z" fill="black"/>
<path d="M168.558 98.0019H163.451V103.109H168.558V98.0019Z" fill="black"/>
<path d="M173.665 98.0019H168.558V103.109H173.665V98.0019Z" fill="black"/>
<path d="M183.878 98.0019H178.771V103.109H183.878V98.0019Z" fill="black"/>
<path d="M188.986 98.0019H183.879V103.109H188.986V98.0019Z" fill="black"/>
<path d="M194.093 98.0019H188.986V103.109H194.093V98.0019Z" fill="black"/>
<path d="M199.2 98.0019H194.093V103.109H199.2V98.0019Z" fill="black"/>
<path d="M20.4556 103.102H15.3486V108.209H20.4556V103.102Z" fill="black"/>
<path d="M25.5621 103.102H20.4551V108.209H25.5621V103.102Z" fill="black"/>
<path d="M30.669 103.102H25.562V108.209H30.669V103.102Z" fill="black"/>
<path d="M35.7759 103.102H30.6689V108.209H35.7759V103.102Z" fill="black"/>
<path d="M45.9903 103.102H40.8833V108.209H45.9903V103.102Z" fill="black"/>
<path d="M56.2037 103.102H51.0967V108.209H56.2037V103.102Z" fill="black"/>
<path d="M61.3111 103.102H56.2041V108.209H61.3111V103.102Z" fill="black"/>
<path d="M97.0601 103.102H91.9531V108.209H97.0601V103.102Z" fill="black"/>
<path d="M102.167 103.102H97.0601V108.209H102.167V103.102Z" fill="black"/>
<path d="M112.381 103.102H107.274V108.209H112.381V103.102Z" fill="black"/>
<path d="M132.809 103.102H127.702V108.209H132.809V103.102Z" fill="black"/>
<path d="M143.023 103.102H137.916V108.209H143.023V103.102Z" fill="black"/>
<path d="M153.236 103.102H148.129V108.209H153.236V103.102Z" fill="black"/>
<path d="M173.665 103.102H168.558V108.209H173.665V103.102Z" fill="black"/>
<path d="M188.986 103.102H183.879V108.209H188.986V103.102Z" fill="black"/>
<path d="M199.2 103.102H194.093V108.209H199.2V103.102Z" fill="black"/>
<path d="M15.3477 108.218H10.2407V113.325H15.3477V108.218Z" fill="black"/>
<path d="M25.5621 108.218H20.4551V113.325H25.5621V108.218Z" fill="black"/>
<path d="M30.669 108.218H25.562V113.325H30.669V108.218Z" fill="black"/>
<path d="M51.0967 108.218H45.9897V113.325H51.0967V108.218Z" fill="black"/>
<path d="M61.3111 108.218H56.2041V113.325H61.3111V108.218Z" fill="black"/>
<path d="M86.8458 108.218H81.7388V113.325H86.8458V108.218Z" fill="black"/>
<path d="M91.9527 108.218H86.8457V113.325H91.9527V108.218Z" fill="black"/>
<path d="M97.0601 108.218H91.9531V113.325H97.0601V108.218Z" fill="black"/>
<path d="M112.381 108.218H107.274V113.325H112.381V108.218Z" fill="black"/>
<path d="M117.488 108.218H112.381V113.325H117.488V108.218Z" fill="black"/>
<path d="M127.702 108.218H122.595V113.325H127.702V108.218Z" fill="black"/>
<path d="M132.809 108.218H127.702V113.325H132.809V108.218Z" fill="black"/>
<path d="M137.916 108.218H132.809V113.325H137.916V108.218Z" fill="black"/>
<path d="M153.236 108.218H148.129V113.325H153.236V108.218Z" fill="black"/>
<path d="M173.665 108.218H168.558V113.325H173.665V108.218Z" fill="black"/>
<path d="M178.772 108.218H173.665V113.325H178.772V108.218Z" fill="black"/>
<path d="M183.879 108.218H178.772V113.325H183.879V108.218Z" fill="black"/>
<path d="M20.4556 113.325H15.3486V118.432H20.4556V113.325Z" fill="black"/>
<path d="M30.669 113.325H25.562V118.432H30.669V113.325Z" fill="black"/>
<path d="M40.8829 113.325H35.7759V118.432H40.8829V113.325Z" fill="black"/>
<path d="M45.9903 113.325H40.8833V118.432H45.9903V113.325Z" fill="black"/>
<path d="M51.0967 113.325H45.9897V118.432H51.0967V113.325Z" fill="black"/>
<path d="M56.2037 113.325H51.0967V118.432H56.2037V113.325Z" fill="black"/>
<path d="M66.418 113.325H61.311V118.432H66.418V113.325Z" fill="black"/>
<path d="M76.6324 113.325H71.5254V118.432H76.6324V113.325Z" fill="black"/>
<path d="M81.7383 113.325H76.6313V118.432H81.7383V113.325Z" fill="black"/>
<path d="M97.0601 113.325H91.9531V118.432H97.0601V113.325Z" fill="black"/>
<path d="M112.381 113.325H107.274V118.432H112.381V113.325Z" fill="black"/>
<path d="M137.916 113.325H132.809V118.432H137.916V113.325Z" fill="black"/>
<path d="M153.236 113.325H148.129V118.432H153.236V113.325Z" fill="black"/>
<path d="M158.344 113.325H153.237V118.432H158.344V113.325Z" fill="black"/>
<path d="M168.558 113.325H163.451V118.432H168.558V113.325Z" fill="black"/>
<path d="M173.665 113.325H168.558V118.432H173.665V113.325Z" fill="black"/>
<path d="M183.879 113.325H178.772V118.432H183.879V113.325Z" fill="black"/>
<path d="M194.093 113.325H188.986V118.432H194.093V113.325Z" fill="black"/>
<path d="M20.4556 118.426H15.3486V123.533H20.4556V118.426Z" fill="black"/>
<path d="M25.5616 118.426H20.4546V123.533H25.5616V118.426Z" fill="black"/>
<path d="M30.669 118.426H25.562V123.533H30.669V118.426Z" fill="black"/>
<path d="M51.0967 118.426H45.9897V123.533H51.0967V118.426Z" fill="black"/>
<path d="M71.525 118.426H66.418V123.533H71.525V118.426Z" fill="black"/>
<path d="M91.9532 118.426H86.8462V123.533H91.9532V118.426Z" fill="black"/>
<path d="M97.0601 118.426H91.9531V123.533H97.0601V118.426Z" fill="black"/>
<path d="M102.167 118.426H97.0601V123.533H102.167V118.426Z" fill="black"/>
<path d="M112.381 118.426H107.274V123.533H112.381V118.426Z" fill="black"/>
<path d="M117.488 118.426H112.381V123.533H117.488V118.426Z" fill="black"/>
<path d="M122.595 118.426H117.488V123.533H122.595V118.426Z" fill="black"/>
<path d="M127.702 118.426H122.595V123.533H127.702V118.426Z" fill="black"/>
<path d="M132.809 118.426H127.702V123.533H132.809V118.426Z" fill="black"/>
<path d="M137.916 118.426H132.809V123.533H137.916V118.426Z" fill="black"/>
<path d="M153.236 118.426H148.129V123.533H153.236V118.426Z" fill="black"/>
<path d="M158.344 118.426H153.237V123.533H158.344V118.426Z" fill="black"/>
<path d="M168.558 118.426H163.451V123.533H168.558V118.426Z" fill="black"/>
<path d="M199.2 118.426H194.093V123.533H199.2V118.426Z" fill="black"/>
<path d="M25.5616 123.541H20.4546V128.648H25.5616V123.541Z" fill="black"/>
<path d="M30.669 123.541H25.562V128.648H30.669V123.541Z" fill="black"/>
<path d="M35.7759 123.541H30.6689V128.648H35.7759V123.541Z" fill="black"/>
<path d="M45.9903 123.541H40.8833V128.648H45.9903V123.541Z" fill="black"/>
<path d="M51.0967 123.541H45.9897V128.648H51.0967V123.541Z" fill="black"/>
<path d="M61.3111 123.541H56.2041V128.648H61.3111V123.541Z" fill="black"/>
<path d="M71.525 123.541H66.418V128.648H71.525V123.541Z" fill="black"/>
<path d="M81.7383 123.541H76.6313V128.648H81.7383V123.541Z" fill="black"/>
<path d="M86.8458 123.541H81.7388V128.648H86.8458V123.541Z" fill="black"/>
<path d="M91.9532 123.541H86.8462V128.648H91.9532V123.541Z" fill="black"/>
<path d="M112.381 123.541H107.274V128.648H112.381V123.541Z" fill="black"/>
<path d="M122.595 123.541H117.488V128.648H122.595V123.541Z" fill="black"/>
<path d="M132.809 123.541H127.702V128.648H132.809V123.541Z" fill="black"/>
<path d="M143.023 123.541H137.916V128.648H143.023V123.541Z" fill="black"/>
<path d="M148.13 123.541H143.023V128.648H148.13V123.541Z" fill="black"/>
<path d="M153.236 123.541H148.129V128.648H153.236V123.541Z" fill="black"/>
<path d="M158.344 123.541H153.237V128.648H158.344V123.541Z" fill="black"/>
<path d="M168.558 123.541H163.451V128.648H168.558V123.541Z" fill="black"/>
<path d="M183.879 123.541H178.772V128.648H183.879V123.541Z" fill="black"/>
<path d="M188.986 123.541H183.879V128.648H188.986V123.541Z" fill="black"/>
<path d="M199.2 123.541H194.093V128.648H199.2V123.541Z" fill="black"/>
<path d="M30.669 128.642H25.562V133.749H30.669V128.642Z" fill="black"/>
<path d="M51.0967 128.642H45.9897V133.749H51.0967V128.642Z" fill="black"/>
<path d="M71.525 128.642H66.418V133.749H71.525V128.642Z" fill="black"/>
<path d="M86.8458 128.642H81.7388V133.749H86.8458V128.642Z" fill="black"/>
<path d="M102.167 128.642H97.0601V133.749H102.167V128.642Z" fill="black"/>
<path d="M127.702 128.642H122.595V133.749H127.702V128.642Z" fill="black"/>
<path d="M132.809 128.642H127.702V133.749H132.809V128.642Z" fill="black"/>
<path d="M137.916 128.642H132.809V133.749H137.916V128.642Z" fill="black"/>
<path d="M153.237 128.642H148.13V133.749H153.237V128.642Z" fill="black"/>
<path d="M158.344 128.642H153.237V133.749H158.344V128.642Z" fill="black"/>
<path d="M173.665 128.642H168.558V133.749H173.665V128.642Z" fill="black"/>
<path d="M178.772 128.642H173.665V133.749H178.772V128.642Z" fill="black"/>
<path d="M183.878 128.642H178.771V133.749H183.878V128.642Z" fill="black"/>
<path d="M194.093 128.642H188.986V133.749H194.093V128.642Z" fill="black"/>
<path d="M199.2 128.642H194.093V133.749H199.2V128.642Z" fill="black"/>
<path d="M15.3477 133.749H10.2407V138.856H15.3477V133.749Z" fill="black"/>
<path d="M25.5616 133.749H20.4546V138.856H25.5616V133.749Z" fill="black"/>
<path d="M30.669 133.749H25.562V138.856H30.669V133.749Z" fill="black"/>
<path d="M45.9903 133.749H40.8833V138.856H45.9903V133.749Z" fill="black"/>
<path d="M56.2037 133.749H51.0967V138.856H56.2037V133.749Z" fill="black"/>
<path d="M66.418 133.749H61.311V138.856H66.418V133.749Z" fill="black"/>
<path d="M76.6324 133.749H71.5254V138.856H76.6324V133.749Z" fill="black"/>
<path d="M81.7383 133.749H76.6313V138.856H81.7383V133.749Z" fill="black"/>
<path d="M86.8458 133.749H81.7388V138.856H86.8458V133.749Z" fill="black"/>
<path d="M102.167 133.749H97.0601V138.856H102.167V133.749Z" fill="black"/>
<path d="M112.381 133.749H107.274V138.856H112.381V133.749Z" fill="black"/>
<path d="M117.488 133.749H112.381V138.856H117.488V133.749Z" fill="black"/>
<path d="M137.916 133.749H132.809V138.856H137.916V133.749Z" fill="black"/>
<path d="M168.558 133.749H163.451V138.856H168.558V133.749Z" fill="black"/>
<path d="M173.665 133.749H168.558V138.856H173.665V133.749Z" fill="black"/>
<path d="M20.4556 138.859H15.3486V143.966H20.4556V138.859Z" fill="black"/>
<path d="M25.5621 138.859H20.4551V143.966H25.5621V138.859Z" fill="black"/>
<path d="M30.669 138.859H25.562V143.966H30.669V138.859Z" fill="black"/>
<path d="M35.7759 138.859H30.6689V143.966H35.7759V138.859Z" fill="black"/>
<path d="M56.2037 138.859H51.0967V143.966H56.2037V138.859Z" fill="black"/>
<path d="M61.3111 138.859H56.2041V143.966H61.3111V138.859Z" fill="black"/>
<path d="M71.525 138.859H66.418V143.966H71.525V138.859Z" fill="black"/>
<path d="M112.381 138.859H107.274V143.966H112.381V138.859Z" fill="black"/>
<path d="M117.488 138.859H112.381V143.966H117.488V138.859Z" fill="black"/>
<path d="M127.702 138.859H122.595V143.966H127.702V138.859Z" fill="black"/>
<path d="M132.809 138.859H127.702V143.966H132.809V138.859Z" fill="black"/>
<path d="M137.916 138.859H132.809V143.966H137.916V138.859Z" fill="black"/>
<path d="M148.13 138.859H143.023V143.966H148.13V138.859Z" fill="black"/>
<path d="M153.237 138.859H148.13V143.966H153.237V138.859Z" fill="black"/>
<path d="M158.344 138.859H153.237V143.966H158.344V138.859Z" fill="black"/>
<path d="M163.451 138.859H158.344V143.966H163.451V138.859Z" fill="black"/>
<path d="M168.558 138.859H163.451V143.966H168.558V138.859Z" fill="black"/>
<path d="M199.2 138.859H194.093V143.966H199.2V138.859Z" fill="black"/>
<path d="M15.3477 143.966H10.2407V149.073H15.3477V143.966Z" fill="black"/>
<path d="M20.4556 143.966H15.3486V149.073H20.4556V143.966Z" fill="black"/>
<path d="M40.8829 143.966H35.7759V149.073H40.8829V143.966Z" fill="black"/>
<path d="M45.9903 143.966H40.8833V149.073H45.9903V143.966Z" fill="black"/>
<path d="M56.2037 143.966H51.0967V149.073H56.2037V143.966Z" fill="black"/>
<path d="M61.3111 143.966H56.2041V149.073H61.3111V143.966Z" fill="black"/>
<path d="M76.6324 143.966H71.5254V149.073H76.6324V143.966Z" fill="black"/>
<path d="M86.8458 143.966H81.7388V149.073H86.8458V143.966Z" fill="black"/>
<path d="M91.9527 143.966H86.8457V149.073H91.9527V143.966Z" fill="black"/>
<path d="M102.167 143.966H97.0601V149.073H102.167V143.966Z" fill="black"/>
<path d="M112.381 143.966H107.274V149.073H112.381V143.966Z" fill="black"/>
<path d="M117.488 143.966H112.381V149.073H117.488V143.966Z" fill="black"/>
<path d="M127.702 143.966H122.595V149.073H127.702V143.966Z" fill="black"/>
<path d="M132.809 143.966H127.702V149.073H132.809V143.966Z" fill="black"/>
<path d="M137.916 143.966H132.809V149.073H137.916V143.966Z" fill="black"/>
<path d="M143.023 143.966H137.916V149.073H143.023V143.966Z" fill="black"/>
<path d="M153.237 143.966H148.13V149.073H153.237V143.966Z" fill="black"/>
<path d="M163.451 143.966H158.344V149.073H163.451V143.966Z" fill="black"/>
<path d="M168.558 143.966H163.451V149.073H168.558V143.966Z" fill="black"/>
<path d="M178.772 143.966H173.665V149.073H178.772V143.966Z" fill="black"/>
<path d="M199.2 143.966H194.093V149.073H199.2V143.966Z" fill="black"/>
<path d="M25.5616 149.066H20.4546V154.173H25.5616V149.066Z" fill="black"/>
<path d="M30.669 149.066H25.562V154.173H30.669V149.066Z" fill="black"/>
<path d="M35.7759 149.066H30.6689V154.173H35.7759V149.066Z" fill="black"/>
<path d="M51.0967 149.066H45.9897V154.173H51.0967V149.066Z" fill="black"/>
<path d="M56.2037 149.066H51.0967V154.173H56.2037V149.066Z" fill="black"/>
<path d="M71.525 149.066H66.418V154.173H71.525V149.066Z" fill="black"/>
<path d="M76.6324 149.066H71.5254V154.173H76.6324V149.066Z" fill="black"/>
<path d="M81.7383 149.066H76.6313V154.173H81.7383V149.066Z" fill="black"/>
<path d="M107.274 149.066H102.167V154.173H107.274V149.066Z" fill="black"/>
<path d="M112.381 149.066H107.274V154.173H112.381V149.066Z" fill="black"/>
<path d="M117.488 149.066H112.381V154.173H117.488V149.066Z" fill="black"/>
<path d="M137.916 149.066H132.809V154.173H137.916V149.066Z" fill="black"/>
<path d="M148.13 149.066H143.023V154.173H148.13V149.066Z" fill="black"/>
<path d="M163.451 149.066H158.344V154.173H163.451V149.066Z" fill="black"/>
<path d="M173.665 149.066H168.558V154.173H173.665V149.066Z" fill="black"/>
<path d="M178.772 149.066H173.665V154.173H178.772V149.066Z" fill="black"/>
<path d="M183.879 149.066H178.772V154.173H183.879V149.066Z" fill="black"/>
<path d="M199.2 149.066H194.093V154.173H199.2V149.066Z" fill="black"/>
<path d="M15.3477 154.174H10.2407V159.281H15.3477V154.174Z" fill="black"/>
<path d="M20.4556 154.174H15.3486V159.281H20.4556V154.174Z" fill="black"/>
<path d="M35.7759 154.174H30.6689V159.281H35.7759V154.174Z" fill="black"/>
<path d="M45.9903 154.174H40.8833V159.281H45.9903V154.174Z" fill="black"/>
<path d="M51.0967 154.174H45.9897V159.281H51.0967V154.174Z" fill="black"/>
<path d="M56.2037 154.174H51.0967V159.281H56.2037V154.174Z" fill="black"/>
<path d="M76.6324 154.174H71.5254V159.281H76.6324V154.174Z" fill="black"/>
<path d="M81.7383 154.174H76.6313V159.281H81.7383V154.174Z" fill="black"/>
<path d="M86.8458 154.174H81.7388V159.281H86.8458V154.174Z" fill="black"/>
<path d="M91.9532 154.174H86.8462V159.281H91.9532V154.174Z" fill="black"/>
<path d="M97.0601 154.174H91.9531V159.281H97.0601V154.174Z" fill="black"/>
<path d="M112.381 154.174H107.274V159.281H112.381V154.174Z" fill="black"/>
<path d="M117.488 154.174H112.381V159.281H117.488V154.174Z" fill="black"/>
<path d="M132.809 154.174H127.702V159.281H132.809V154.174Z" fill="black"/>
<path d="M137.916 154.174H132.809V159.281H137.916V154.174Z" fill="black"/>
<path d="M148.13 154.174H143.023V159.281H148.13V154.174Z" fill="black"/>
<path d="M158.344 154.174H153.237V159.281H158.344V154.174Z" fill="black"/>
<path d="M163.451 154.174H158.344V159.281H163.451V154.174Z" fill="black"/>
<path d="M168.558 154.174H163.451V159.281H168.558V154.174Z" fill="black"/>
<path d="M173.665 154.174H168.558V159.281H173.665V154.174Z" fill="black"/>
<path d="M178.772 154.174H173.665V159.281H178.772V154.174Z" fill="black"/>
<path d="M183.879 154.174H178.772V159.281H183.879V154.174Z" fill="black"/>
<path d="M56.2037 159.289H51.0967V164.396H56.2037V159.289Z" fill="black"/>
<path d="M66.418 159.289H61.311V164.396H66.418V159.289Z" fill="black"/>
<path d="M76.6324 159.289H71.5254V164.396H76.6324V159.289Z" fill="black"/>
<path d="M91.9532 159.289H86.8462V164.396H91.9532V159.289Z" fill="black"/>
<path d="M97.0601 159.289H91.9531V164.396H97.0601V159.289Z" fill="black"/>
<path d="M107.274 159.289H102.167V164.396H107.274V159.289Z" fill="black"/>
<path d="M112.381 159.289H107.274V164.396H112.381V159.289Z" fill="black"/>
<path d="M117.488 159.289H112.381V164.396H117.488V159.289Z" fill="black"/>
<path d="M132.809 159.289H127.702V164.396H132.809V159.289Z" fill="black"/>
<path d="M137.916 159.289H132.809V164.396H137.916V159.289Z" fill="black"/>
<path d="M158.344 159.289H153.237V164.396H158.344V159.289Z" fill="black"/>
<path d="M178.772 159.289H173.665V164.396H178.772V159.289Z" fill="black"/>
<path d="M194.093 159.289H188.986V164.396H194.093V159.289Z" fill="black"/>
<path d="M199.2 159.289H194.093V164.396H199.2V159.289Z" fill="black"/>
<path d="M56.2037 164.39H51.0967V169.497H56.2037V164.39Z" fill="black"/>
<path d="M81.7383 164.39H76.6313V169.497H81.7383V164.39Z" fill="black"/>
<path d="M91.9532 164.39H86.8462V169.497H91.9532V164.39Z" fill="black"/>
<path d="M102.167 164.39H97.0601V169.497H102.167V164.39Z" fill="black"/>
<path d="M107.274 164.39H102.167V169.497H107.274V164.39Z" fill="black"/>
<path d="M112.381 164.39H107.274V169.497H112.381V164.39Z" fill="black"/>
<path d="M127.702 164.39H122.595V169.497H127.702V164.39Z" fill="black"/>
<path d="M132.809 164.39H127.702V169.497H132.809V164.39Z" fill="black"/>
<path d="M148.13 164.39H143.023V169.497H148.13V164.39Z" fill="black"/>
<path d="M158.344 164.39H153.237V169.497H158.344V164.39Z" fill="black"/>
<path d="M168.558 164.39H163.451V169.497H168.558V164.39Z" fill="black"/>
<path d="M178.772 164.39H173.665V169.497H178.772V164.39Z" fill="black"/>
<path d="M194.093 164.39H188.986V169.497H194.093V164.39Z" fill="black"/>
<path d="M199.2 164.39H194.093V169.497H199.2V164.39Z" fill="black"/>
<path d="M71.525 169.498H66.418V174.605H71.525V169.498Z" fill="black"/>
<path d="M76.6324 169.498H71.5254V174.605H76.6324V169.498Z" fill="black"/>
<path d="M86.8458 169.498H81.7388V174.605H86.8458V169.498Z" fill="black"/>
<path d="M107.274 169.498H102.167V174.605H107.274V169.498Z" fill="black"/>
<path d="M112.381 169.498H107.274V174.605H112.381V169.498Z" fill="black"/>
<path d="M117.488 169.498H112.381V174.605H117.488V169.498Z" fill="black"/>
<path d="M132.809 169.498H127.702V174.605H132.809V169.498Z" fill="black"/>
<path d="M158.344 169.498H153.237V174.605H158.344V169.498Z" fill="black"/>
<path d="M178.772 169.498H173.665V174.605H178.772V169.498Z" fill="black"/>
<path d="M194.093 169.498H188.986V174.605H194.093V169.498Z" fill="black"/>
<path d="M199.2 169.498H194.093V174.605H199.2V169.498Z" fill="black"/>
<path d="M61.3111 174.606H56.2041V179.713H61.3111V174.606Z" fill="black"/>
<path d="M76.6324 174.606H71.5254V179.713H76.6324V174.606Z" fill="black"/>
<path d="M81.7383 174.606H76.6313V179.713H81.7383V174.606Z" fill="black"/>
<path d="M91.9527 174.606H86.8457V179.713H91.9527V174.606Z" fill="black"/>
<path d="M97.0601 174.606H91.9531V179.713H97.0601V174.606Z" fill="black"/>
<path d="M102.167 174.606H97.0601V179.713H102.167V174.606Z" fill="black"/>
<path d="M107.274 174.606H102.167V179.713H107.274V174.606Z" fill="black"/>
<path d="M117.488 174.606H112.381V179.713H117.488V174.606Z" fill="black"/>
<path d="M132.809 174.606H127.702V179.713H132.809V174.606Z" fill="black"/>
<path d="M137.916 174.606H132.809V179.713H137.916V174.606Z" fill="black"/>
<path d="M153.237 174.606H148.13V179.713H153.237V174.606Z" fill="black"/>
<path d="M158.344 174.606H153.237V179.713H158.344V174.606Z" fill="black"/>
<path d="M163.451 174.606H158.344V179.713H163.451V174.606Z" fill="black"/>
<path d="M168.558 174.606H163.451V179.713H168.558V174.606Z" fill="black"/>
<path d="M173.665 174.606H168.558V179.713H173.665V174.606Z" fill="black"/>
<path d="M178.772 174.606H173.665V179.713H178.772V174.606Z" fill="black"/>
<path d="M194.093 174.606H188.986V179.713H194.093V174.606Z" fill="black"/>
<path d="M199.2 174.606H194.093V179.713H199.2V174.606Z" fill="black"/>
<path d="M61.3111 179.713H56.2041V184.82H61.3111V179.713Z" fill="black"/>
<path d="M71.525 179.713H66.418V184.82H71.525V179.713Z" fill="black"/>
<path d="M76.6324 179.713H71.5254V184.82H76.6324V179.713Z" fill="black"/>
<path d="M86.8458 179.713H81.7388V184.82H86.8458V179.713Z" fill="black"/>
<path d="M97.0601 179.713H91.9531V184.82H97.0601V179.713Z" fill="black"/>
<path d="M107.274 179.713H102.167V184.82H107.274V179.713Z" fill="black"/>
<path d="M112.381 179.713H107.274V184.82H112.381V179.713Z" fill="black"/>
<path d="M127.702 179.713H122.595V184.82H127.702V179.713Z" fill="black"/>
<path d="M132.809 179.713H127.702V184.82H132.809V179.713Z" fill="black"/>
<path d="M137.916 179.713H132.809V184.82H137.916V179.713Z" fill="black"/>
<path d="M143.023 179.713H137.916V184.82H143.023V179.713Z" fill="black"/>
<path d="M153.237 179.713H148.13V184.82H153.237V179.713Z" fill="black"/>
<path d="M163.451 179.713H158.344V184.82H163.451V179.713Z" fill="black"/>
<path d="M178.772 179.713H173.665V184.82H178.772V179.713Z" fill="black"/>
<path d="M183.878 179.713H178.771V184.82H183.878V179.713Z" fill="black"/>
<path d="M188.986 179.713H183.879V184.82H188.986V179.713Z" fill="black"/>
<path d="M56.2037 184.821H51.0967V189.928H56.2037V184.821Z" fill="black"/>
<path d="M81.7383 184.821H76.6313V189.928H81.7383V184.821Z" fill="black"/>
<path d="M97.0601 184.821H91.9531V189.928H97.0601V184.821Z" fill="black"/>
<path d="M102.167 184.821H97.0601V189.928H102.167V184.821Z" fill="black"/>
<path d="M112.381 184.821H107.274V189.928H112.381V184.821Z" fill="black"/>
<path d="M122.595 184.821H117.488V189.928H122.595V184.821Z" fill="black"/>
<path d="M132.809 184.821H127.702V189.928H132.809V184.821Z" fill="black"/>
<path d="M153.236 184.821H148.129V189.928H153.236V184.821Z" fill="black"/>
<path d="M173.665 184.821H168.558V189.928H173.665V184.821Z" fill="black"/>
<path d="M178.772 184.821H173.665V189.928H178.772V184.821Z" fill="black"/>
<path d="M199.2 184.821H194.093V189.928H199.2V184.821Z" fill="black"/>
<path d="M71.525 189.929H66.418V195.036H71.525V189.929Z" fill="black"/>
<path d="M76.6324 189.929H71.5254V195.036H76.6324V189.929Z" fill="black"/>
<path d="M81.7383 189.929H76.6313V195.036H81.7383V189.929Z" fill="black"/>
<path d="M91.9532 189.929H86.8462V195.036H91.9532V189.929Z" fill="black"/>
<path d="M97.0601 189.929H91.9531V195.036H97.0601V189.929Z" fill="black"/>
<path d="M117.488 189.929H112.381V195.036H117.488V189.929Z" fill="black"/>
<path d="M127.702 189.929H122.595V195.036H127.702V189.929Z" fill="black"/>
<path d="M132.809 189.929H127.702V195.036H132.809V189.929Z" fill="black"/>
<path d="M137.916 189.929H132.809V195.036H137.916V189.929Z" fill="black"/>
<path d="M153.236 189.929H148.129V195.036H153.236V189.929Z" fill="black"/>
<path d="M158.344 189.929H153.237V195.036H158.344V189.929Z" fill="black"/>
<path d="M178.772 189.929H173.665V195.036H178.772V189.929Z" fill="black"/>
<path d="M183.879 189.929H178.772V195.036H183.879V189.929Z" fill="black"/>
<path d="M56.2037 195.03H51.0967V200.137H56.2037V195.03Z" fill="black"/>
<path d="M61.3111 195.03H56.2041V200.137H61.3111V195.03Z" fill="black"/>
<path d="M66.418 195.03H61.311V200.137H66.418V195.03Z" fill="black"/>
<path d="M76.6324 195.03H71.5254V200.137H76.6324V195.03Z" fill="black"/>
<path d="M97.0601 195.03H91.9531V200.137H97.0601V195.03Z" fill="black"/>
<path d="M112.381 195.03H107.274V200.137H112.381V195.03Z" fill="black"/>
<path d="M117.488 195.03H112.381V200.137H117.488V195.03Z" fill="black"/>
<path d="M127.702 195.03H122.595V200.137H127.702V195.03Z" fill="black"/>
<path d="M137.916 195.03H132.809V200.137H137.916V195.03Z" fill="black"/>
<path d="M158.344 195.03H153.237V200.137H158.344V195.03Z" fill="black"/>
<path d="M173.665 195.03H168.558V200.137H173.665V195.03Z" fill="black"/>
<path d="M183.879 195.03H178.772V200.137H183.879V195.03Z" fill="black"/>
<path d="M199.2 195.03H194.093V200.137H199.2V195.03Z" fill="black"/>
<path d="M40.6278 11.1834H15.6036H10.2412V16.5458V41.5701V46.9324H15.6036H40.6278H45.9902V41.5701V16.5458V11.1834H40.6278ZM40.6278 41.5701H15.6036V16.5458H40.6278V41.5701Z" fill="black"/>
<path d="M193.838 11.1831H168.814H163.451V16.5455V41.5698V46.9321H168.814H193.838H199.2V41.5698V16.5455V11.1831H193.838ZM193.838 41.5698H168.814V16.5455H193.838V41.5698Z" fill="black"/>
<path d="M40.6274 164.389H15.6031H10.2407V169.752V194.776V200.138H15.6031H40.6274H45.9897V194.776V169.752V164.389H40.6274ZM40.6274 194.776H15.6031V169.752H40.6274V194.776Z" fill="black"/>
<path d="M35.7756 21.3909H20.4546V36.7119H35.7756V21.3909Z" fill="black"/>
<path d="M188.986 21.3909H173.665V36.7119H188.986V21.3909Z" fill="black"/>
<path d="M35.7761 174.606H20.4551V189.927H35.7761V174.606Z" fill="black"/>
</g>
<defs>
<clipPath id="clip0_1617_19855">
<rect width="209.387" height="209.387" fill="white" transform="translate(0.0268555 0.966774)"/>
</clipPath>
</defs>
</svg>
