<svg width="678" height="411" viewBox="0 0 678 411" fill="none" xmlns="http://www.w3.org/2000/svg">
<g clip-path="url(#clip0_1556_4063)">
<mask id="mask0_1556_4063" style="mask-type:luminance" maskUnits="userSpaceOnUse" x="-46" y="-76" width="820" height="563">
<path d="M-46 -47L754.51 -75.0012L773.178 458.672L-27.3325 486.674L-46 -47Z" fill="white"/>
</mask>
<g mask="url(#mask0_1556_4063)">
<mask id="path-2-inside-1_1556_4063" fill="white">
<path fill-rule="evenodd" clip-rule="evenodd" d="M537.049 78.4658L546.624 105.797L546.633 105.794C542.394 106.381 538.388 108.084 535.024 110.728C531.947 113.148 529.524 116.3 527.977 119.896C526.43 123.493 525.807 127.42 526.165 131.319C526.479 134.928 527.613 138.417 529.481 141.521C531.348 144.625 533.9 147.261 536.941 149.228C539.983 151.196 543.433 152.442 547.029 152.873C550.625 153.303 554.271 152.907 557.69 151.713C559.194 151.183 560.642 150.506 562.013 149.693L571.589 177.024C572.413 179.377 572.766 181.869 572.628 184.359C572.489 186.848 571.862 189.286 570.781 191.532C569.701 193.779 568.188 195.79 566.331 197.452C564.473 199.114 562.306 200.393 559.953 201.217L532.629 210.791L532.632 210.799C532.044 206.56 530.341 202.553 527.697 199.187C525.277 196.109 522.125 193.686 518.529 192.137C514.933 190.589 511.007 189.966 507.108 190.324C503.5 190.637 500.012 191.771 496.909 193.638C493.807 195.506 491.172 198.058 489.205 201.099C487.239 204.141 485.993 207.591 485.563 211.188C485.133 214.785 485.53 218.432 486.724 221.852C487.254 223.356 487.93 224.804 488.744 226.176L461.425 235.737C451.535 239.205 440.706 233.996 437.237 224.104L427.661 196.773C426.29 197.587 424.843 198.263 423.339 198.793C419.92 199.987 416.274 200.383 412.678 199.952C409.082 199.521 405.632 198.275 402.591 196.308C399.55 194.34 396.998 191.704 395.13 188.601C393.262 185.497 392.128 182.008 391.813 178.4C391.455 174.5 392.078 170.574 393.625 166.977C395.172 163.381 397.595 160.229 400.672 157.809C404.036 155.165 407.211 154.099 412.281 152.874L413.576 152.572L402.697 125.546C401.872 123.193 401.519 120.7 401.658 118.211C401.796 115.721 402.424 113.284 403.504 111.037C404.585 108.79 406.097 106.779 407.955 105.117C409.813 103.455 411.98 102.176 414.333 101.352L441.657 91.7785C440.843 90.4072 440.167 88.9589 439.637 87.4547C438.443 84.0346 438.046 80.3871 438.475 76.7903C438.905 73.1936 440.151 69.7428 442.117 66.7012C444.084 63.6597 446.719 61.1079 449.822 59.2405C452.925 57.3731 456.413 56.2395 460.021 55.9262C463.919 55.5715 467.844 56.1965 471.44 57.7443C475.035 59.2922 478.188 61.7139 480.61 64.7896C483.254 68.1552 484.957 72.1626 485.545 76.4019L512.869 66.8288C517.62 65.1642 522.838 65.4555 527.375 67.6384C531.911 69.8221 535.395 73.7186 537.06 78.4707M241.284 200.177L268.695 190.574L268.692 190.565C269.282 194.818 270.99 198.839 273.642 202.215C276.07 205.303 279.232 207.735 282.84 209.288C286.447 210.841 290.386 211.467 294.296 211.108C297.916 210.794 301.415 209.656 304.528 207.782C307.64 205.909 310.284 203.349 312.256 200.297C314.229 197.246 315.478 193.784 315.909 190.176C316.34 186.568 315.942 182.909 314.744 179.478C314.212 177.969 313.533 176.516 312.717 175.14L340.127 165.537C342.487 164.71 344.987 164.356 347.484 164.496C349.98 164.635 352.425 165.265 354.679 166.35C356.932 167.435 358.95 168.953 360.617 170.818C362.284 172.682 363.568 174.857 364.395 177.218L374.001 204.637L374.01 204.634C369.758 205.223 365.739 206.932 362.364 209.585C359.277 212.013 356.847 215.175 355.295 218.783C353.743 222.39 353.119 226.33 353.478 230.241C353.794 233.861 354.931 237.362 356.805 240.476C358.679 243.589 361.238 246.234 364.289 248.208C367.34 250.181 370.801 251.432 374.408 251.864C378.016 252.297 381.674 251.899 385.104 250.701C386.613 250.17 388.065 249.492 389.44 248.676L399.035 276.089C402.514 286.014 397.293 296.879 387.373 300.358L359.962 309.962C360.779 311.338 361.457 312.791 361.988 314.3C363.186 317.731 363.585 321.39 363.154 324.998C362.722 328.606 361.473 332.067 359.5 335.119C357.528 338.17 354.885 340.73 351.772 342.604C348.66 344.477 345.16 345.615 341.541 345.93C337.63 346.288 333.692 345.663 330.085 344.109C326.477 342.556 323.316 340.125 320.888 337.037C318.235 333.66 316.527 329.64 315.936 325.387L315.939 325.395L288.53 334.998C286.17 335.825 283.67 336.179 281.173 336.04C278.676 335.9 276.231 335.27 273.978 334.186C271.724 333.101 269.706 331.583 268.039 329.718C266.372 327.853 265.089 325.679 264.262 323.318L254.656 295.898C253.28 296.715 251.828 297.393 250.319 297.924C246.889 299.122 243.231 299.52 239.623 299.088C236.016 298.656 232.555 297.405 229.504 295.431C226.453 293.458 223.893 290.813 222.02 287.699C220.146 284.585 219.008 281.084 218.694 277.464C218.337 273.553 218.963 269.614 220.515 266.007C222.067 262.399 224.495 259.237 227.58 256.807C230.955 254.154 234.973 252.446 239.225 251.857L229.619 224.437C228.791 222.077 228.437 219.577 228.576 217.079C228.714 214.582 229.344 212.136 230.427 209.882C231.511 207.628 233.028 205.61 234.892 203.943C236.756 202.276 238.93 200.992 241.29 200.165"/>
</mask>
<path fill-rule="evenodd" clip-rule="evenodd" d="M537.049 78.4658L546.624 105.797L546.633 105.794C542.394 106.381 538.388 108.084 535.024 110.728C531.947 113.148 529.524 116.3 527.977 119.896C526.43 123.493 525.807 127.42 526.165 131.319C526.479 134.928 527.613 138.417 529.481 141.521C531.348 144.625 533.9 147.261 536.941 149.228C539.983 151.196 543.433 152.442 547.029 152.873C550.625 153.303 554.271 152.907 557.69 151.713C559.194 151.183 560.642 150.506 562.013 149.693L571.589 177.024C572.413 179.377 572.766 181.869 572.628 184.359C572.489 186.848 571.862 189.286 570.781 191.532C569.701 193.779 568.188 195.79 566.331 197.452C564.473 199.114 562.306 200.393 559.953 201.217L532.629 210.791L532.632 210.799C532.044 206.56 530.341 202.553 527.697 199.187C525.277 196.109 522.125 193.686 518.529 192.137C514.933 190.589 511.007 189.966 507.108 190.324C503.5 190.637 500.012 191.771 496.909 193.638C493.807 195.506 491.172 198.058 489.205 201.099C487.239 204.141 485.993 207.591 485.563 211.188C485.133 214.785 485.53 218.432 486.724 221.852C487.254 223.356 487.93 224.804 488.744 226.176L461.425 235.737C451.535 239.205 440.706 233.996 437.237 224.104L427.661 196.773C426.29 197.587 424.843 198.263 423.339 198.793C419.92 199.987 416.274 200.383 412.678 199.952C409.082 199.521 405.632 198.275 402.591 196.308C399.55 194.34 396.998 191.704 395.13 188.601C393.262 185.497 392.128 182.008 391.813 178.4C391.455 174.5 392.078 170.574 393.625 166.977C395.172 163.381 397.595 160.229 400.672 157.809C404.036 155.165 407.211 154.099 412.281 152.874L413.576 152.572L402.697 125.546C401.872 123.193 401.519 120.7 401.658 118.211C401.796 115.721 402.424 113.284 403.504 111.037C404.585 108.79 406.097 106.779 407.955 105.117C409.813 103.455 411.98 102.176 414.333 101.352L441.657 91.7785C440.843 90.4072 440.167 88.9589 439.637 87.4547C438.443 84.0346 438.046 80.3871 438.475 76.7903C438.905 73.1936 440.151 69.7428 442.117 66.7012C444.084 63.6597 446.719 61.1079 449.822 59.2405C452.925 57.3731 456.413 56.2395 460.021 55.9262C463.919 55.5715 467.844 56.1965 471.44 57.7443C475.035 59.2922 478.188 61.7139 480.61 64.7896C483.254 68.1552 484.957 72.1626 485.545 76.4019L512.869 66.8288C517.62 65.1642 522.838 65.4555 527.375 67.6384C531.911 69.8221 535.395 73.7186 537.06 78.4707M241.284 200.177L268.695 190.574L268.692 190.565C269.282 194.818 270.99 198.839 273.642 202.215C276.07 205.303 279.232 207.735 282.84 209.288C286.447 210.841 290.386 211.467 294.296 211.108C297.916 210.794 301.415 209.656 304.528 207.782C307.64 205.909 310.284 203.349 312.256 200.297C314.229 197.246 315.478 193.784 315.909 190.176C316.34 186.568 315.942 182.909 314.744 179.478C314.212 177.969 313.533 176.516 312.717 175.14L340.127 165.537C342.487 164.71 344.987 164.356 347.484 164.496C349.98 164.635 352.425 165.265 354.679 166.35C356.932 167.435 358.95 168.953 360.617 170.818C362.284 172.682 363.568 174.857 364.395 177.218L374.001 204.637L374.01 204.634C369.758 205.223 365.739 206.932 362.364 209.585C359.277 212.013 356.847 215.175 355.295 218.783C353.743 222.39 353.119 226.33 353.478 230.241C353.794 233.861 354.931 237.362 356.805 240.476C358.679 243.589 361.238 246.234 364.289 248.208C367.34 250.181 370.801 251.432 374.408 251.864C378.016 252.297 381.674 251.899 385.104 250.701C386.613 250.17 388.065 249.492 389.44 248.676L399.035 276.089C402.514 286.014 397.293 296.879 387.373 300.358L359.962 309.962C360.779 311.338 361.457 312.791 361.988 314.3C363.186 317.731 363.585 321.39 363.154 324.998C362.722 328.606 361.473 332.067 359.5 335.119C357.528 338.17 354.885 340.73 351.772 342.604C348.66 344.477 345.16 345.615 341.541 345.93C337.63 346.288 333.692 345.663 330.085 344.109C326.477 342.556 323.316 340.125 320.888 337.037C318.235 333.66 316.527 329.64 315.936 325.387L315.939 325.395L288.53 334.998C286.17 335.825 283.67 336.179 281.173 336.04C278.676 335.9 276.231 335.27 273.978 334.186C271.724 333.101 269.706 331.583 268.039 329.718C266.372 327.853 265.089 325.679 264.262 323.318L254.656 295.898C253.28 296.715 251.828 297.393 250.319 297.924C246.889 299.122 243.231 299.52 239.623 299.088C236.016 298.656 232.555 297.405 229.504 295.431C226.453 293.458 223.893 290.813 222.02 287.699C220.146 284.585 219.008 281.084 218.694 277.464C218.337 273.553 218.963 269.614 220.515 266.007C222.067 262.399 224.495 259.237 227.58 256.807C230.955 254.154 234.973 252.446 239.225 251.857L229.619 224.437C228.791 222.077 228.437 219.577 228.576 217.079C228.714 214.582 229.344 212.136 230.427 209.882C231.511 207.628 233.028 205.61 234.892 203.943C236.756 202.276 238.93 200.992 241.29 200.165" fill="#C9BCFF"/>
<path d="M546.624 105.797L544.737 106.458L545.398 108.346L547.286 107.684L546.624 105.797ZM546.633 105.794L547.294 107.681L546.358 103.813L546.633 105.794ZM535.024 110.728L533.788 109.155L533.787 109.156L535.024 110.728ZM526.165 131.319L528.158 131.145L528.157 131.136L526.165 131.319ZM557.69 151.713L558.35 153.601L558.355 153.599L557.69 151.713ZM562.013 149.693L563.901 149.032L563.094 146.728L560.994 147.973L562.013 149.693ZM571.589 177.024L569.702 177.685L571.589 177.024ZM559.953 201.217L559.292 199.33L559.292 199.33L559.953 201.217ZM532.629 210.791L531.968 208.903L530.08 209.564L530.742 211.452L532.629 210.791ZM532.632 210.799L530.745 211.461L534.613 210.524L532.632 210.799ZM527.697 199.187L529.27 197.951L529.269 197.951L527.697 199.187ZM507.108 190.324L507.281 192.316L507.291 192.315L507.108 190.324ZM486.724 221.852L484.836 222.511L484.838 222.516L486.724 221.852ZM488.744 226.176L489.405 228.064L491.711 227.256L490.464 225.155L488.744 226.176ZM461.425 235.737L460.765 233.85L460.764 233.85L461.425 235.737ZM437.237 224.104L435.349 224.766L435.349 224.766L437.237 224.104ZM427.661 196.773L429.549 196.112L428.741 193.807L426.64 195.053L427.661 196.773ZM423.339 198.793L423.998 200.682L424.004 200.68L423.339 198.793ZM391.813 178.4L393.805 178.226L393.805 178.217L391.813 178.4ZM400.672 157.809L399.436 156.237L399.435 156.237L400.672 157.809ZM412.281 152.874L411.826 150.926L411.819 150.928L411.811 150.93L412.281 152.874ZM413.576 152.572L414.03 154.52L416.302 153.99L415.431 151.825L413.576 152.572ZM402.697 125.546L400.81 126.207L400.825 126.25L400.842 126.293L402.697 125.546ZM414.333 101.352L414.994 103.239L414.994 103.239L414.333 101.352ZM441.657 91.7785L442.318 93.666L444.623 92.8584L443.377 90.7579L441.657 91.7785ZM439.637 87.4547L437.749 88.114L437.751 88.1185L439.637 87.4547ZM460.021 55.9262L460.194 57.9188L460.203 57.918L460.021 55.9262ZM480.61 64.7896L482.183 63.5541L482.181 63.5521L480.61 64.7896ZM485.545 76.4019L483.564 76.6768L483.9 79.0975L486.206 78.2894L485.545 76.4019ZM512.869 66.8288L512.208 64.9413L512.869 66.8288ZM527.375 67.6384L528.242 65.8363L528.242 65.8362L527.375 67.6384ZM268.695 190.574L269.356 192.461L271.243 191.8L270.582 189.913L268.695 190.574ZM268.692 190.565L270.579 189.904L266.711 190.84L268.692 190.565ZM273.642 202.215L272.07 203.451L272.07 203.452L273.642 202.215ZM294.296 211.108L294.123 209.116L294.114 209.117L294.296 211.108ZM314.744 179.478L316.632 178.819L316.63 178.813L314.744 179.478ZM312.717 175.14L312.056 173.253L309.751 174.06L310.997 176.161L312.717 175.14ZM340.127 165.537L340.789 167.425L340.789 167.425L340.127 165.537ZM364.395 177.218L362.507 177.879L362.507 177.879L364.395 177.218ZM374.001 204.637L372.114 205.298L372.775 207.186L374.663 206.525L374.001 204.637ZM374.01 204.634L374.671 206.521L373.736 202.653L374.01 204.634ZM362.364 209.585L361.128 208.012L361.127 208.013L362.364 209.585ZM353.478 230.241L355.471 230.068L355.47 230.058L353.478 230.241ZM385.104 250.701L385.763 252.59L385.768 252.588L385.104 250.701ZM389.44 248.676L391.328 248.015L390.521 245.709L388.42 246.956L389.44 248.676ZM399.035 276.089L397.147 276.75L397.148 276.751L399.035 276.089ZM387.373 300.358L388.034 302.246L388.034 302.246L387.373 300.358ZM359.962 309.962L359.301 308.074L356.996 308.882L358.242 310.982L359.962 309.962ZM361.988 314.3L363.877 313.64L363.875 313.636L361.988 314.3ZM341.541 345.93L341.368 343.937L341.358 343.938L341.541 345.93ZM320.888 337.037L319.315 338.272L319.316 338.273L320.888 337.037ZM315.936 325.387L317.824 324.725L313.955 325.662L315.936 325.387ZM315.939 325.395L316.601 327.283L318.488 326.622L317.827 324.734L315.939 325.395ZM288.53 334.998L287.868 333.111L287.868 333.111L288.53 334.998ZM264.262 323.318L266.15 322.657L266.15 322.656L264.262 323.318ZM254.656 295.898L256.543 295.237L255.735 292.932L253.635 294.179L254.656 295.898ZM250.319 297.924L250.978 299.812L250.983 299.811L250.319 297.924ZM218.694 277.464L220.686 277.291L220.685 277.282L218.694 277.464ZM227.58 256.807L226.344 255.235L226.342 255.236L227.58 256.807ZM239.225 251.857L239.5 253.838L241.921 253.502L241.113 251.195L239.225 251.857ZM229.619 224.437L231.506 223.776L231.506 223.776L229.619 224.437ZM535.161 79.1271L544.737 106.458L548.512 105.135L538.936 77.8045L535.161 79.1271ZM547.286 107.684L547.294 107.681L545.972 103.906L545.963 103.909L547.286 107.684ZM546.358 103.813C541.769 104.449 537.431 106.293 533.788 109.155L536.259 112.301C539.345 109.876 543.02 108.314 546.908 107.775L546.358 103.813ZM533.787 109.156C530.448 111.782 527.819 115.203 526.14 119.106L529.814 120.687C531.23 117.397 533.446 114.514 536.26 112.3L533.787 109.156ZM526.14 119.106C524.461 123.009 523.785 127.27 524.173 131.502L528.157 131.136C527.829 127.569 528.399 123.977 529.814 120.687L526.14 119.106ZM524.173 131.492C524.513 135.404 525.742 139.187 527.767 142.552L531.194 140.49C529.484 137.647 528.445 134.451 528.158 131.145L524.173 131.492ZM527.767 142.552C529.792 145.917 532.558 148.775 535.855 150.908L538.028 147.549C535.242 145.747 532.905 143.333 531.194 140.49L527.767 142.552ZM535.855 150.908C539.152 153.041 542.893 154.392 546.791 154.859L547.267 150.887C543.973 150.493 540.813 149.351 538.028 147.549L535.855 150.908ZM546.791 154.859C550.69 155.325 554.643 154.895 558.35 153.601L557.031 149.824C553.9 150.918 550.56 151.281 547.267 150.887L546.791 154.859ZM558.355 153.599C559.982 153.025 561.549 152.293 563.033 151.414L560.994 147.973C559.735 148.719 558.406 149.34 557.025 149.826L558.355 153.599ZM560.126 150.354L569.702 177.685L573.477 176.363L563.901 149.032L560.126 150.354ZM569.702 177.685C570.439 179.791 570.755 182.02 570.631 184.248L574.625 184.47C574.778 181.718 574.388 178.964 573.477 176.363L569.702 177.685ZM570.631 184.248C570.507 186.475 569.946 188.655 568.979 190.665L572.584 192.399C573.778 189.916 574.472 187.221 574.625 184.47L570.631 184.248ZM568.979 190.665C568.012 192.675 566.659 194.475 564.997 195.962L567.664 198.943C569.718 197.106 571.389 194.882 572.584 192.399L568.979 190.665ZM564.997 195.962C563.335 197.448 561.396 198.593 559.292 199.33L560.614 203.105C563.215 202.194 565.61 200.78 567.664 198.943L564.997 195.962ZM559.292 199.33L531.968 208.903L533.29 212.678L560.614 203.105L559.292 199.33ZM530.742 211.452L530.745 211.461L534.52 210.138L534.517 210.129L530.742 211.452ZM534.613 210.524C533.976 205.934 532.132 201.596 529.27 197.951L526.124 200.422C528.549 203.51 530.112 207.185 530.651 211.074L534.613 210.524ZM529.269 197.951C526.642 194.61 523.222 191.981 519.319 190.3L517.738 193.975C521.027 195.391 523.911 197.608 526.125 200.423L529.269 197.951ZM519.319 190.3C515.417 188.62 511.156 187.944 506.926 188.332L507.291 192.315C510.857 191.988 514.448 192.558 517.738 193.975L519.319 190.3ZM506.935 188.331C503.024 188.671 499.242 189.9 495.878 191.925L497.941 195.352C500.782 193.642 503.977 192.603 507.281 192.316L506.935 188.331ZM495.878 191.925C492.514 193.949 489.657 196.716 487.526 200.013L490.885 202.185C492.686 199.399 495.099 197.062 497.941 195.352L495.878 191.925ZM487.526 200.013C485.394 203.311 484.043 207.051 483.577 210.951L487.549 211.425C487.943 208.131 489.084 204.971 490.885 202.185L487.526 200.013ZM483.577 210.951C483.111 214.85 483.542 218.804 484.836 222.511L488.613 221.193C487.519 218.06 487.155 214.72 487.549 211.425L483.577 210.951ZM484.838 222.516C485.411 224.144 486.143 225.712 487.024 227.197L490.464 225.155C489.717 223.897 489.097 222.568 488.611 221.188L484.838 222.516ZM488.083 224.288L460.765 233.85L462.086 237.625L489.405 228.064L488.083 224.288ZM460.764 233.85C451.916 236.952 442.228 232.293 439.124 223.442L435.349 224.766C439.184 235.7 451.154 241.458 462.087 237.625L460.764 233.85ZM439.124 223.443L429.549 196.112L425.774 197.435L435.349 224.766L439.124 223.443ZM426.64 195.053C425.382 195.8 424.054 196.421 422.674 196.907L424.004 200.68C425.631 200.106 427.198 199.374 428.682 198.493L426.64 195.053ZM422.68 196.905C419.549 197.998 416.209 198.361 412.916 197.966L412.44 201.938C416.338 202.405 420.291 201.975 423.998 200.682L422.68 196.905ZM412.916 197.966C409.622 197.572 406.463 196.43 403.677 194.628L401.505 197.987C404.802 200.12 408.542 201.471 412.44 201.938L412.916 197.966ZM403.677 194.628C400.892 192.827 398.555 190.412 396.844 187.57L393.417 189.632C395.441 192.997 398.208 195.854 401.505 197.987L403.677 194.628ZM396.844 187.57C395.133 184.727 394.094 181.531 393.805 178.226L389.821 178.573C390.162 182.485 391.392 186.268 393.417 189.632L396.844 187.57ZM393.805 178.217C393.477 174.65 394.047 171.058 395.462 167.768L391.788 166.187C390.109 170.09 389.433 174.351 389.821 178.583L393.805 178.217ZM395.462 167.768C396.878 164.478 399.094 161.595 401.908 159.381L399.435 156.237C396.096 158.864 393.467 162.284 391.788 166.187L395.462 167.768ZM401.907 159.381C404.926 157.009 407.759 156.024 412.751 154.818L411.811 150.93C406.664 152.174 403.146 153.321 399.436 156.237L401.907 159.381ZM412.735 154.822L414.03 154.52L413.121 150.624L411.826 150.926L412.735 154.822ZM415.431 151.825L404.552 124.799L400.842 126.293L411.72 153.319L415.431 151.825ZM404.585 124.884C403.847 122.779 403.531 120.549 403.655 118.322L399.661 118.1C399.508 120.851 399.898 123.606 400.81 126.207L404.585 124.884ZM403.655 118.322C403.779 116.095 404.34 113.914 405.307 111.904L401.702 110.17C400.507 112.654 399.814 115.348 399.661 118.1L403.655 118.322ZM405.307 111.904C406.273 109.894 407.626 108.094 409.288 106.608L406.622 103.626C404.568 105.463 402.896 107.687 401.702 110.17L405.307 111.904ZM409.288 106.608C410.951 105.121 412.889 103.976 414.994 103.239L413.672 99.4641C411.071 100.375 408.676 101.789 406.622 103.626L409.288 106.608ZM414.994 103.239L442.318 93.666L440.996 89.891L413.671 99.4642L414.994 103.239ZM443.377 90.7579C442.63 89.4997 442.01 88.1709 441.524 86.7908L437.751 88.1185C438.324 89.7469 439.056 91.3147 439.937 92.7991L443.377 90.7579ZM441.525 86.7953C440.432 83.6628 440.068 80.3219 440.461 77.0276L436.49 76.553C436.024 80.4522 436.454 84.4065 437.749 88.114L441.525 86.7953ZM440.461 77.0276C440.855 73.7334 441.996 70.5728 443.797 67.7871L440.438 65.6154C438.306 68.9128 436.956 72.6538 436.49 76.553L440.461 77.0276ZM443.797 67.7871C445.598 65.0015 448.011 62.6643 450.853 60.9541L448.791 57.5269C445.427 59.5514 442.57 62.318 440.438 65.6154L443.797 67.7871ZM450.853 60.9541C453.695 59.2438 456.89 58.2056 460.194 57.9187L459.848 53.9337C455.937 54.2733 452.155 55.5023 448.791 57.5269L450.853 60.9541ZM460.203 57.918C463.769 57.5935 467.359 58.1652 470.649 59.5813L472.231 55.9073C468.329 54.2277 464.07 53.5495 459.84 53.9345L460.203 57.918ZM470.649 59.5813C473.939 60.9975 476.822 63.2131 479.039 66.0271L482.181 63.5521C479.553 60.2148 476.132 57.5869 472.231 55.9073L470.649 59.5813ZM479.037 66.0251C481.462 69.1123 483.025 72.7881 483.564 76.6768L487.526 76.1271C486.889 71.537 485.045 67.1982 482.183 63.5541L479.037 66.0251ZM486.206 78.2894L513.531 68.7163L512.208 64.9413L484.884 74.5144L486.206 78.2894ZM513.531 68.7163C517.781 67.2272 522.449 67.4877 526.508 69.4406L528.242 65.8362C523.227 63.4233 517.46 63.1013 512.208 64.9413L513.531 68.7163ZM526.508 69.4405C530.566 71.3942 533.683 74.8802 535.173 79.132L538.948 77.8094C537.107 72.5569 533.257 68.2501 528.242 65.8363L526.508 69.4405ZM241.946 202.065L269.356 192.461L268.033 188.686L240.623 198.29L241.946 202.065ZM270.582 189.913L270.579 189.904L266.804 191.226L266.807 191.235L270.582 189.913ZM266.711 190.84C267.349 195.444 269.199 199.796 272.07 203.451L275.215 200.98C272.782 197.882 271.214 194.193 270.673 190.29L266.711 190.84ZM272.07 203.452C274.705 206.802 278.135 209.439 282.049 211.125L283.631 207.451C280.33 206.03 277.436 203.805 275.215 200.979L272.07 203.452ZM282.049 211.125C285.963 212.81 290.236 213.489 294.479 213.1L294.114 209.117C290.535 209.445 286.932 208.872 283.631 207.451L282.049 211.125ZM294.47 213.101C298.393 212.76 302.186 211.527 305.559 209.496L303.496 206.069C300.645 207.785 297.439 208.827 294.123 209.116L294.47 213.101ZM305.559 209.496C308.933 207.465 311.798 204.69 313.936 201.383L310.577 199.212C308.769 202.007 306.348 204.352 303.496 206.069L305.559 209.496ZM313.936 201.383C316.074 198.076 317.428 194.324 317.895 190.414L313.923 189.939C313.528 193.245 312.384 196.416 310.577 199.212L313.936 201.383ZM317.895 190.414C318.362 186.503 317.93 182.537 316.632 178.819L312.856 180.137C313.953 183.281 314.318 186.633 313.923 189.939L317.895 190.414ZM316.63 178.813C316.055 177.181 315.32 175.609 314.437 174.12L310.997 176.161C311.746 177.424 312.369 178.758 312.858 180.143L316.63 178.813ZM313.378 177.028L340.789 167.425L339.466 163.65L312.056 173.253L313.378 177.028ZM340.789 167.425C342.901 166.685 345.138 166.368 347.372 166.493L347.595 162.499C344.836 162.345 342.074 162.736 339.466 163.65L340.789 167.425ZM347.372 166.493C349.607 166.618 351.795 167.181 353.812 168.152L355.546 164.548C353.056 163.349 350.354 162.653 347.595 162.499L347.372 166.493ZM353.812 168.152C355.828 169.123 357.634 170.482 359.126 172.151L362.108 169.485C360.266 167.424 358.037 165.747 355.546 164.548L353.812 168.152ZM359.126 172.151C360.618 173.819 361.767 175.766 362.507 177.879L366.282 176.557C365.369 173.948 363.951 171.545 362.108 169.485L359.126 172.151ZM362.507 177.879L372.114 205.298L375.889 203.976L366.282 176.556L362.507 177.879ZM374.663 206.525L374.671 206.521L373.349 202.746L373.34 202.75L374.663 206.525ZM373.736 202.653C369.132 203.291 364.782 205.14 361.128 208.012L363.6 211.157C366.696 208.723 370.384 207.156 374.285 206.615L373.736 202.653ZM361.127 208.013C357.778 210.647 355.142 214.078 353.458 217.992L357.133 219.573C358.553 216.271 360.776 213.378 363.6 211.156L361.127 208.013ZM353.458 217.992C351.774 221.907 351.097 226.181 351.487 230.424L355.47 230.058C355.141 226.479 355.713 222.874 357.133 219.573L353.458 217.992ZM351.486 230.415C351.828 234.338 353.061 238.132 355.091 241.507L358.519 239.445C356.802 236.592 355.76 233.385 355.471 230.068L351.486 230.415ZM355.091 241.507C357.122 244.882 359.896 247.748 363.203 249.887L365.376 246.529C362.581 244.72 360.235 242.297 358.519 239.445L355.091 241.507ZM363.203 249.887C366.509 252.026 370.261 253.382 374.171 253.85L374.646 249.879C371.342 249.483 368.171 248.337 365.376 246.529L363.203 249.887ZM374.171 253.85C378.08 254.319 382.045 253.887 385.763 252.59L384.445 248.813C381.303 249.91 377.951 250.274 374.646 249.879L374.171 253.85ZM385.768 252.588C387.401 252.013 388.973 251.279 390.461 250.396L388.42 246.956C387.158 247.705 385.824 248.328 384.44 248.815L385.768 252.588ZM387.553 249.336L397.147 276.75L400.923 275.429L391.328 248.015L387.553 249.336ZM397.148 276.751C400.262 285.634 395.588 295.358 386.711 298.471L388.034 302.246C398.998 298.401 404.766 286.394 400.923 275.428L397.148 276.751ZM386.711 298.471L359.301 308.074L360.624 311.849L388.034 302.246L386.711 298.471ZM358.242 310.982C358.991 312.245 359.615 313.579 360.102 314.964L363.875 313.636C363.3 312.003 362.566 310.43 361.682 308.941L358.242 310.982ZM360.1 314.959C361.198 318.102 361.563 321.455 361.168 324.76L365.139 325.235C365.607 321.325 365.175 317.359 363.877 313.64L360.1 314.959ZM361.168 324.76C360.773 328.066 359.628 331.238 357.821 334.033L361.18 336.204C363.318 332.897 364.672 329.146 365.139 325.235L361.168 324.76ZM357.821 334.033C356.014 336.828 353.592 339.174 350.741 340.89L352.804 344.317C356.177 342.286 359.042 339.512 361.18 336.204L357.821 334.033ZM350.741 340.89C347.889 342.607 344.683 343.649 341.368 343.937L341.714 347.922C345.637 347.581 349.43 346.348 352.804 344.317L350.741 340.89ZM341.358 343.938C337.78 344.266 334.176 343.694 330.876 342.272L329.294 345.946C333.207 347.631 337.481 348.31 341.724 347.921L341.358 343.938ZM330.876 342.272C327.575 340.851 324.682 338.626 322.46 335.8L319.316 338.273C321.95 341.623 325.38 344.261 329.294 345.946L330.876 342.272ZM322.461 335.801C320.027 332.703 318.459 329.014 317.917 325.112L313.955 325.662C314.594 330.265 316.444 334.617 319.315 338.272L322.461 335.801ZM314.049 326.048L314.052 326.057L317.827 324.734L317.824 324.725L314.049 326.048ZM315.278 323.508L287.868 333.111L289.191 336.886L316.601 327.283L315.278 323.508ZM287.868 333.111C285.756 333.851 283.519 334.168 281.285 334.043L281.062 338.037C283.821 338.191 286.583 337.8 289.191 336.886L287.868 333.111ZM281.285 334.043C279.05 333.918 276.862 333.354 274.845 332.384L273.11 335.988C275.601 337.186 278.303 337.883 281.062 338.037L281.285 334.043ZM274.845 332.384C272.828 331.413 271.022 330.054 269.53 328.385L266.548 331.051C268.39 333.112 270.62 334.789 273.11 335.988L274.845 332.384ZM269.53 328.385C268.038 326.716 266.89 324.77 266.15 322.657L262.375 323.979C263.288 326.587 264.706 328.991 266.548 331.051L269.53 328.385ZM266.15 322.656L256.543 295.237L252.768 296.56L262.375 323.979L266.15 322.656ZM253.635 294.179C252.373 294.928 251.04 295.55 249.655 296.038L250.983 299.811C252.616 299.236 254.188 298.502 255.676 297.618L253.635 294.179ZM249.66 296.036C246.518 297.133 243.166 297.498 239.861 297.102L239.386 301.074C243.296 301.542 247.261 301.111 250.978 299.812L249.66 296.036ZM239.861 297.102C236.556 296.706 233.385 295.56 230.59 293.752L228.418 297.111C231.724 299.25 235.476 300.605 239.386 301.074L239.861 297.102ZM230.59 293.752C227.795 291.944 225.45 289.521 223.733 286.668L220.306 288.73C222.336 292.105 225.111 294.971 228.418 297.111L230.59 293.752ZM223.733 286.668C222.017 283.815 220.975 280.608 220.686 277.291L216.701 277.637C217.042 281.561 218.275 285.355 220.306 288.73L223.733 286.668ZM220.685 277.282C220.359 273.703 220.932 270.099 222.352 266.797L218.678 265.216C216.994 269.13 216.315 273.402 216.702 277.645L220.685 277.282ZM222.352 266.797C223.772 263.496 225.995 260.602 228.817 258.378L226.342 255.236C222.996 257.872 220.361 261.303 218.678 265.216L222.352 266.797ZM228.816 258.379C231.912 255.946 235.599 254.378 239.5 253.838L238.951 249.876C234.348 250.514 229.997 252.363 226.344 255.235L228.816 258.379ZM241.113 251.195L231.506 223.776L227.731 225.099L237.338 252.518L241.113 251.195ZM231.506 223.776C230.766 221.663 230.448 219.425 230.572 217.19L226.579 216.968C226.425 219.728 226.817 222.491 227.731 225.099L231.506 223.776ZM230.572 217.19C230.697 214.955 231.26 212.766 232.23 210.749L228.625 209.016C227.427 211.506 226.732 214.209 226.579 216.968L230.572 217.19ZM232.23 210.749C233.2 208.732 234.558 206.926 236.226 205.433L233.559 202.452C231.499 204.295 229.823 206.525 228.625 209.016L232.23 210.749ZM236.226 205.433C237.894 203.941 239.839 202.793 241.951 202.053L240.629 198.278C238.021 199.191 235.618 200.61 233.559 202.452L236.226 205.433Z" fill="black" mask="url(#path-2-inside-1_1556_4063)"/>
<path d="M237.272 321.788C233.295 333.092 230.558 347.403 228.817 358.85C227.945 364.581 227.32 369.609 226.914 373.205C226.71 375.003 226.561 376.444 226.463 377.436C226.414 377.931 226.378 378.315 226.353 378.575C226.353 378.58 226.353 378.584 226.352 378.588L226.174 378.753C225.874 379.031 225.434 379.439 224.874 379.958C223.754 380.998 222.154 382.486 220.233 384.28C216.392 387.866 211.269 392.674 206.14 397.559C201.014 402.443 195.876 407.41 192.008 411.312C190.076 413.261 188.451 414.955 187.301 416.244C186.727 416.886 186.258 417.444 185.925 417.89C185.759 418.112 185.613 418.325 185.502 418.519C185.416 418.672 185.262 418.959 185.243 419.288L185.243 419.291C185.229 419.538 185.289 419.791 185.333 419.96C185.387 420.161 185.463 420.394 185.555 420.649C185.739 421.161 186.008 421.819 186.344 422.594C187.018 424.147 187.986 426.22 189.15 428.629C191.481 433.45 194.617 439.652 197.815 445.806C201.012 451.959 204.275 458.071 206.859 462.712C208.15 465.032 209.277 466.992 210.143 468.409C210.575 469.116 210.95 469.7 211.253 470.131C211.403 470.345 211.546 470.535 211.677 470.688C211.777 470.806 211.964 471.018 212.205 471.148L212.207 471.149L238.215 322.12M237.272 321.788L238.215 322.12M237.272 321.788C237.272 321.788 237.272 321.789 237.272 321.789L238.215 322.12M237.272 321.788C238.854 317.283 241.267 312.645 243.798 309.387C245.058 307.765 246.396 306.421 247.73 305.628C249.067 304.834 250.588 304.497 251.981 305.304M238.215 322.12C241.323 313.271 247.68 303.967 251.479 306.169M251.981 305.304C251.98 305.304 251.98 305.304 251.98 305.304L251.479 306.169M251.981 305.304C252.839 305.802 253.422 306.679 253.833 307.66C254.249 308.656 254.536 309.877 254.732 311.225C255.123 313.914 255.172 317.281 255.038 320.779M251.981 305.304L251.479 306.169M251.479 306.169L255.038 320.779M314.541 340.713C314.894 340.262 315.276 339.763 315.674 339.226C315.164 339.354 314.674 339.545 314.231 339.753C314.117 339.806 314.004 339.862 313.892 339.919L314.541 340.713ZM314.541 340.713C313.111 341.406 311.891 342.424 311.749 342.545L314.541 340.713ZM255.038 320.779C255.038 320.792 255.037 320.806 255.037 320.819L254.037 320.781L255.033 320.688C255.036 320.719 255.038 320.749 255.038 320.779ZM598.037 -51.3678L598.039 -51.3669C598.281 -51.2373 598.468 -51.0251 598.568 -50.9083C598.699 -50.756 598.841 -50.5667 598.991 -50.354C599.293 -49.9264 599.666 -49.3456 600.096 -48.6433C600.957 -47.2354 602.077 -45.2875 603.361 -42.9832C605.93 -38.3717 609.173 -32.2982 612.352 -26.1839C615.53 -20.0696 618.647 -13.9064 620.962 -9.11521C622.119 -6.72104 623.081 -4.66067 623.75 -3.11702C624.084 -2.34678 624.351 -1.69216 624.534 -1.183C624.625 -0.929382 624.701 -0.697245 624.754 -0.496892C624.798 -0.328705 624.857 -0.0754023 624.843 0.171794L624.843 0.175451C624.823 0.503393 624.668 0.790643 624.582 0.942004C624.471 1.13577 624.324 1.34806 624.158 1.56908C623.824 2.01383 623.355 2.56933 622.78 3.20992C621.629 4.49502 620.002 6.18399 618.067 8.12823C614.196 12.0198 609.053 16.9738 603.921 21.8454C598.788 26.7184 593.66 31.5144 589.816 35.0919C587.893 36.8807 586.292 38.3651 585.171 39.4023C584.61 39.9209 584.17 40.3278 583.869 40.605L583.691 40.7697L583.69 40.7811C583.665 41.04 583.628 41.4219 583.578 41.9154C583.477 42.9024 583.325 44.336 583.117 46.1256C582.702 49.7044 582.066 54.7088 581.182 60.4133C579.414 71.8071 576.647 86.0517 572.647 97.3085C572.647 97.3087 572.647 97.3089 572.647 97.3092L571.705 96.9744C568.581 105.787 562.209 115.059 558.421 112.877L598.037 -51.3678ZM598.037 -51.3678C597.728 -51.533 597.428 -51.5085 597.267 -51.4786C597.095 -51.4469 596.945 -51.3849 596.834 -51.3311C596.61 -51.2222 596.374 -51.0624 596.145 -50.8893C595.677 -50.5357 595.079 -50.0057 594.38 -49.3417C592.976 -48.0066 591.074 -46.0418 588.822 -43.6317C584.314 -38.8072 578.355 -32.1454 572.066 -25.0411C568.43 -20.9333 564.684 -16.6788 561.044 -12.5433C552.076 -2.35644 543.745 7.10767 539.248 11.8743L539.247 11.8747C532.908 18.603 519.574 33.3697 508.396 47.3146C502.81 54.283 497.741 61.0733 494.353 66.5643C492.662 69.3045 491.364 71.7635 490.636 73.7832C490.272 74.7923 490.035 75.7348 489.979 76.5741C489.924 77.4079 490.043 78.2365 490.503 78.9145L490.503 78.9148C491.183 79.9165 492.168 80.3024 493.161 80.3103C493.571 80.3136 493.983 80.2537 494.383 80.1541M598.037 -51.3678L494.383 80.1541M494.383 80.1541C493.511 81.3244 492.563 82.6719 491.679 84.0834C490.405 86.1177 489.228 88.3418 488.619 90.3953C488.025 92.3999 487.887 94.5504 489.165 96.1213L489.165 96.1217C490.015 97.1651 491.191 97.4297 492.303 97.3189C493.109 97.2386 493.928 96.9615 494.687 96.6133C493.955 97.7479 493.169 99.0233 492.432 100.335C491.291 102.366 490.233 104.539 489.684 106.433C489.41 107.378 489.245 108.314 489.292 109.158C489.338 110.011 489.609 110.861 490.298 111.479L490.298 111.479C491.809 112.831 493.821 112.879 495.725 112.421C497.642 111.961 499.678 110.94 501.518 109.815C502.059 109.484 502.589 109.141 503.1 108.795L494.383 80.1541ZM251.731 342.648C251.885 342.515 252.265 342.187 252.834 341.696C252.899 341.283 252.978 340.771 253.067 340.175C252.865 340.349 252.676 340.512 252.501 340.663C252.279 340.854 252.079 341.027 251.903 341.178C251.784 341.943 251.701 342.451 251.67 342.638C251.663 342.663 251.658 342.688 251.654 342.714C251.654 342.714 251.678 342.693 251.725 342.652C251.727 342.651 251.729 342.649 251.731 342.648ZM304.654 312.023C303.369 313.881 302.176 315.294 302.002 315.499C302.18 315.338 303.508 314.142 305.385 312.724C305.88 312.013 306.392 311.234 306.871 310.427C306.871 310.427 306.871 310.426 306.872 310.426C306.077 310.965 305.329 311.51 304.654 312.023ZM308.141 301.706C308.141 301.706 308.141 301.706 308.14 301.705L307.417 302.396L308.141 301.706ZM291.176 307.903C291.175 307.903 291.175 307.904 291.175 307.904C291.175 307.904 291.174 307.904 291.174 307.904L291.775 308.704L291.176 307.903ZM255.021 321.011C255.026 320.982 255.03 320.952 255.033 320.922C255.033 320.909 255.034 320.896 255.034 320.883L254.035 320.843L255.021 321.011ZM518.787 111.253L518.187 110.453L505.324 107.198C503.128 110.359 500.672 114.803 502.552 116.768L501.829 117.459C501.829 117.459 501.829 117.459 501.829 117.459C502.899 118.578 504.271 118.92 505.695 118.784C507.079 118.652 508.558 118.069 510.015 117.298C512.56 115.952 515.309 113.877 517.752 112.033C518.103 111.768 518.449 111.507 518.786 111.254C518.786 111.254 518.787 111.254 518.787 111.253Z" fill="#FCDBD0" stroke="black" stroke-width="2"/>
</g>
</g>
<defs>
<clipPath id="clip0_1556_4063">
<rect width="801" height="534" fill="white" transform="translate(0 -61)"/>
</clipPath>
</defs>
</svg>
