<svg width="123" height="122" viewBox="0 0 123 122" fill="none" xmlns="http://www.w3.org/2000/svg">
<g clip-path="url(#clip0_1513_36771)">
<path d="M32.2114 105.939C32.9121 104.827 34.3735 104.496 35.4846 105.198C36.5957 105.899 36.926 107.362 36.2253 108.474L31.4106 116.17C30.71 117.282 29.2485 117.612 28.1375 116.911C27.0264 116.21 26.696 114.747 27.3967 113.635L32.2114 105.939ZM6.57642 75.4691C6.90674 76.7417 6.15601 78.0442 4.88477 78.3749C3.61353 78.7055 2.31226 77.954 1.98193 76.6815C1.59155 75.1786 1.25122 73.6656 0.960938 72.1325C0.680664 70.6095 0.460449 69.0965 0.300293 67.5835C0.200195 66.6016 0.120117 65.5996 0.0800781 64.5876C0.0200195 63.4955 0 62.4835 0 61.5617C0 44.5581 6.88672 29.1676 18.0176 18.0356C29.1384 6.89362 44.5134 0 61.5 0C78.4866 0 93.8716 6.84352 105.012 17.9455C116.133 29.0274 123 44.3577 123 61.3312C123 62.6438 121.929 63.7159 120.618 63.7159C119.306 63.7159 118.235 62.6438 118.235 61.3312C118.235 45.6602 111.899 31.5323 101.659 21.3221C91.3892 11.0819 77.1953 4.76943 61.5 4.76943C45.8347 4.76943 31.6509 11.122 21.3809 21.4023C11.1209 31.6826 4.76465 45.8807 4.76465 61.5617C4.76465 62.6037 4.78467 63.5356 4.82471 64.3672C4.86475 65.279 4.93481 66.1908 5.0249 67.1026C5.17505 68.5054 5.37524 69.8981 5.6355 71.2809C5.89575 72.6536 6.20605 74.0463 6.57642 75.4691ZM12.9827 97.0618C11.9917 97.9235 10.4902 97.8133 9.62939 96.8213C8.76855 95.8294 8.87866 94.3264 9.86963 93.4647C10.4702 92.9437 11.0007 92.3224 11.4512 91.601C11.9216 90.8596 12.312 89.9878 12.6223 88.9959C14.2139 83.9258 13.2529 78.6354 12.282 73.2748C11.6213 69.6276 10.9507 65.9503 10.9807 62.1127C11.1008 42.4739 23.3728 26.4623 39.4285 18.2561C46.165 14.8093 53.5923 12.7452 61.0796 12.3544C68.5969 11.9636 76.1743 13.2863 83.1711 16.6128C98.7964 24.0475 111.489 41.4519 114.131 72.2728C114.241 73.5854 113.26 74.7377 111.949 74.8479C110.638 74.9581 109.487 73.9762 109.377 72.6636C106.904 43.8166 95.343 27.6847 81.1392 20.9213C74.873 17.9354 68.0764 16.7631 61.3198 17.1038C54.5232 17.4545 47.7566 19.3482 41.5906 22.4945C26.9863 29.9492 15.8354 44.4278 15.7253 62.1228C15.7053 65.5295 16.3359 68.9963 16.9565 72.4331C18.0376 78.3849 19.0986 84.2565 17.1667 90.4187C16.7363 91.8014 16.1658 93.0439 15.4751 94.146C14.7744 95.2582 13.9336 96.2302 12.9827 97.0618ZM109.327 82.1724C109.327 80.8498 110.398 79.7877 111.709 79.7877C113.02 79.7877 114.091 80.8598 114.091 82.1724V92.1721C114.091 93.4948 113.02 94.5569 111.709 94.5569C110.398 94.5569 109.327 93.4847 109.327 92.1721V82.1724ZM20.0295 106.771C19.0486 107.643 17.5471 107.553 16.6763 106.571C15.8054 105.589 15.8955 104.086 16.8765 103.214C19.8293 100.609 21.9814 97.2422 23.2227 93.0238C24.5039 88.6752 24.8242 83.3948 24.0735 77.0723C22.6921 70.2789 22.4419 64.0065 23.2527 58.3453C24.0935 52.4236 26.0955 47.1732 29.1484 42.6843C29.8892 41.6022 31.3706 41.3217 32.4517 42.0631C33.5327 42.8046 33.813 44.2875 33.0723 45.3697C30.4297 49.2473 28.698 53.8264 27.9573 59.0166C27.2266 64.1568 27.4568 69.8781 28.728 76.1204C28.7581 76.2407 28.7881 76.3609 28.7981 76.4811C29.6389 83.4649 29.2485 89.3866 27.7871 94.3665C26.2856 99.4766 23.6531 103.565 20.0295 106.771ZM44.2231 35.0392C43.082 35.7006 41.6306 35.3098 40.97 34.1675C40.3093 33.0253 40.6997 31.5724 41.8408 30.9111C44.5034 29.368 47.3462 28.1456 50.2791 27.2539C58.3269 24.809 67.0654 24.8792 75.0132 27.6647C83.001 30.4702 90.178 36.0011 95.0627 44.4679C96.6943 47.2834 98.0657 50.4397 99.1267 53.9366C100.638 58.9264 101.669 64.4975 102.2 70.6196C102.72 76.6415 102.75 83.2545 102.29 90.4487C102.29 90.5189 102.28 90.579 102.27 90.6491L100.608 107.062C100.478 108.364 99.3169 109.326 98.0056 109.196C96.7043 109.066 95.7434 107.903 95.8735 106.591L97.5352 90.1582V90.1481C97.9756 83.2245 97.9456 76.8318 97.4451 71.0103C96.9446 65.1788 95.9836 59.9384 94.5823 55.3193C93.6414 52.2032 92.4102 49.3876 90.9487 46.8526C86.6746 39.4379 80.4084 34.5984 73.4517 32.1535C66.4548 29.6987 58.7573 29.6386 51.6604 31.7928C49.0879 32.5944 46.5955 33.6665 44.2231 35.0392ZM38.988 98.3443C38.7578 99.6369 37.5266 100.509 36.2354 100.278C34.9441 100.048 34.0732 98.8153 34.3035 97.5227C34.854 94.4366 35.1643 90.9798 35.2744 87.2123C35.3845 83.3948 35.2944 79.2165 35.0342 74.7477C34.9841 73.7858 34.894 72.5935 34.814 71.4312C34.2734 63.8261 33.843 57.694 38.2874 49.7884C39.2683 48.0449 40.4395 46.4217 41.8408 44.9388C43.2422 43.4559 44.8538 42.1132 46.6855 40.9409C46.8057 40.8607 46.9258 40.8006 47.0559 40.7505C49.7686 39.448 52.4612 38.436 55.1538 37.7747C57.9265 37.0933 60.6792 36.7927 63.3918 36.943C64.7031 37.0131 65.7141 38.1253 65.644 39.4379C65.574 40.7505 64.4629 41.7625 63.1516 41.6924C60.8994 41.5722 58.6072 41.8227 56.2749 42.3938C53.9526 42.9649 51.5703 43.8567 49.1479 45.019C47.6765 45.9708 46.3953 47.0329 45.3042 48.1952C44.1831 49.3876 43.2322 50.6902 42.4414 52.113C38.6978 58.7862 39.0781 64.277 39.5586 71.0905C39.6287 72.0925 39.6987 73.1345 39.7788 74.4772C40.0391 79.0262 40.1292 83.3347 40.019 87.3326C39.8889 91.4006 39.5686 95.0879 38.988 98.3443ZM72.5107 44.5981C71.3896 43.9168 71.0393 42.4439 71.72 41.3317C72.4006 40.2095 73.8621 39.8588 74.9832 40.5401C75.7139 40.991 76.4246 41.472 77.1152 41.993C77.7959 42.504 78.4666 43.0651 79.1372 43.6763C88.2061 51.9226 91.2791 65.1788 91.4792 79.0462C91.6694 92.5529 89.137 106.641 86.8147 117.031C86.5344 118.314 85.2632 119.125 83.9819 118.835C82.7007 118.554 81.8899 117.282 82.1802 115.999C84.4424 105.859 86.9248 92.1421 86.7346 79.0963C86.5544 66.4112 83.8518 54.3975 75.9341 47.1933C75.3835 46.6923 74.813 46.2213 74.2424 45.7905C73.6719 45.3396 73.0913 44.9488 72.5107 44.5981ZM43.1921 119.927C42.4314 120.999 40.95 121.26 39.8789 120.498C38.8079 119.737 38.5476 118.254 39.3083 117.182C40.99 114.807 42.4114 112.202 43.5725 109.376C44.7336 106.531 45.6345 103.434 46.2551 100.088C47.4163 93.8455 46.8657 85.8897 46.3352 78.3749C46.155 75.8399 45.9849 73.365 45.8748 70.82C45.7146 67.1026 45.6445 63.4554 46.3352 60.1388C47.0859 56.5217 48.7075 53.3855 51.9607 51.101C52.6914 50.59 53.4822 50.1291 54.333 49.7383C55.1838 49.3475 56.1047 48.9968 57.0957 48.7163C57.8364 48.5059 58.5671 48.3355 59.2778 48.2153C64.1526 47.3836 68.0164 48.6461 70.9993 51.2513C73.832 53.7262 75.7539 57.3734 76.9351 61.5116C77.2854 62.754 77.5757 64.0466 77.8059 65.3692C77.926 66.0906 78.0361 66.8221 78.1162 67.5535C78.1963 68.2749 78.2664 69.0164 78.3164 69.7779C78.8169 77.3328 78.4866 86.7615 77.4656 95.9897C76.4846 104.837 74.863 113.554 72.7109 120.338C72.3105 121.59 70.9792 122.282 69.728 121.891C68.4768 121.49 67.7861 120.157 68.1765 118.905C70.2185 112.462 71.77 104.066 72.7209 95.4787C73.7119 86.511 74.0322 77.3829 73.5518 70.0885C73.5117 69.4573 73.4517 68.796 73.3716 68.1146C73.3015 67.4733 73.2014 66.8321 73.0913 66.2008C72.8911 65.0586 72.6409 63.9363 72.3406 62.8442C71.3997 59.5276 69.9382 56.682 67.8562 54.8684C65.9343 53.1951 63.3818 52.3935 60.0786 52.9546C59.5481 53.0448 58.9875 53.1751 58.397 53.3454C57.6262 53.5659 56.9355 53.8163 56.325 54.1069C55.7043 54.3975 55.1538 54.7081 54.6833 55.0388C52.5913 56.5017 51.5203 58.6359 50.9998 61.1408C50.4192 63.9363 50.4893 67.2529 50.6294 70.6496C50.7295 72.9041 50.9097 75.4691 51.0898 78.0943C51.6304 85.8897 52.2109 94.136 50.9297 100.99C50.249 104.647 49.2581 108.044 47.9668 111.21C46.6855 114.336 45.084 117.252 43.1921 119.927ZM59.498 62.2731C59.2578 60.9805 60.1187 59.7381 61.4099 59.5076C62.7012 59.2671 63.9424 60.1288 64.1726 61.4214C65.3838 67.9543 65.9644 74.5573 65.9844 81.1904C66.0044 87.7935 65.4639 94.4266 64.4429 101.07C64.2427 102.362 63.0315 103.254 61.7302 103.054C60.439 102.853 59.5481 101.641 59.7483 100.338C60.7393 93.9456 61.2598 87.553 61.2397 81.1904C61.2197 74.8479 60.6592 68.5354 59.498 62.2731ZM56.7754 108.524C57.0557 107.242 58.3269 106.43 59.6082 106.721C60.8894 107.001 61.7002 108.274 61.4099 109.556L59.3279 118.945C59.0476 120.228 57.7764 121.039 56.4951 120.749C55.2139 120.468 54.4031 119.196 54.6934 117.913L56.7754 108.524Z" fill="#E8E8E8"/>
</g>
<defs>
<clipPath id="clip0_1513_36771">
<rect width="123" height="122" fill="white"/>
</clipPath>
</defs>
</svg>
