<svg width="211" height="211" viewBox="0 0 211 211" fill="none" xmlns="http://www.w3.org/2000/svg">
<g clip-path="url(#clip0_1617_21607)">
<path d="M210.235 0.704544H0.585938V210.353H210.235V0.704544Z" fill="white"/>
<path d="M47.6501 9.25354H43.3716V13.5321H47.6501V9.25354Z" fill="black"/>
<path d="M56.2068 9.25354H51.9282V13.5321H56.2068V9.25354Z" fill="black"/>
<path d="M69.0432 9.25354H64.7646V13.5321H69.0432V9.25354Z" fill="black"/>
<path d="M90.4358 9.25354H86.1572V13.5321H90.4358V9.25354Z" fill="black"/>
<path d="M94.7146 9.25354H90.436V13.5321H94.7146V9.25354Z" fill="black"/>
<path d="M111.829 9.25354H107.55V13.5321H111.829V9.25354Z" fill="black"/>
<path d="M128.943 9.25354H124.664V13.5321H128.943V9.25354Z" fill="black"/>
<path d="M137.5 9.25354H133.222V13.5321H137.5V9.25354Z" fill="black"/>
<path d="M141.779 9.25354H137.5V13.5321H141.779V9.25354Z" fill="black"/>
<path d="M146.056 9.25354H141.778V13.5321H146.056V9.25354Z" fill="black"/>
<path d="M154.614 9.25354H150.335V13.5321H154.614V9.25354Z" fill="black"/>
<path d="M167.449 9.25354H163.171V13.5321H167.449V9.25354Z" fill="black"/>
<path d="M47.6501 13.5403H43.3716V17.8188H47.6501V13.5403Z" fill="black"/>
<path d="M60.4866 13.5403H56.208V17.8188H60.4866V13.5403Z" fill="black"/>
<path d="M64.7644 13.5403H60.4858V17.8188H64.7644V13.5403Z" fill="black"/>
<path d="M69.0432 13.5403H64.7646V17.8188H69.0432V13.5403Z" fill="black"/>
<path d="M73.3215 13.5403H69.043V17.8188H73.3215V13.5403Z" fill="black"/>
<path d="M86.1575 13.5403H81.8789V17.8188H86.1575V13.5403Z" fill="black"/>
<path d="M103.271 13.5403H98.9922V17.8188H103.271V13.5403Z" fill="black"/>
<path d="M120.386 13.5403H116.107V17.8188H120.386V13.5403Z" fill="black"/>
<path d="M128.943 13.5403H124.664V17.8188H128.943V13.5403Z" fill="black"/>
<path d="M141.779 13.5403H137.5V17.8188H141.779V13.5403Z" fill="black"/>
<path d="M150.336 13.5403H146.057V17.8188H150.336V13.5403Z" fill="black"/>
<path d="M154.614 13.5403H150.335V17.8188H154.614V13.5403Z" fill="black"/>
<path d="M163.171 13.5403H158.893V17.8188H163.171V13.5403Z" fill="black"/>
<path d="M51.9289 17.8119H47.6504V22.0904H51.9289V17.8119Z" fill="black"/>
<path d="M81.8786 17.8119H77.6001V22.0904H81.8786V17.8119Z" fill="black"/>
<path d="M90.4358 17.8119H86.1572V22.0904H90.4358V17.8119Z" fill="black"/>
<path d="M94.7146 17.8119H90.436V22.0904H94.7146V17.8119Z" fill="black"/>
<path d="M103.272 17.8119H98.9932V22.0904H103.272V17.8119Z" fill="black"/>
<path d="M107.55 17.8119H103.271V22.0904H107.55V17.8119Z" fill="black"/>
<path d="M116.107 17.8119H111.829V22.0904H116.107V17.8119Z" fill="black"/>
<path d="M120.386 17.8119H116.107V22.0904H120.386V17.8119Z" fill="black"/>
<path d="M128.943 17.8119H124.664V22.0904H128.943V17.8119Z" fill="black"/>
<path d="M150.336 17.8119H146.057V22.0904H150.336V17.8119Z" fill="black"/>
<path d="M163.171 17.8119H158.893V22.0904H163.171V17.8119Z" fill="black"/>
<path d="M47.6501 22.0962H43.3716V26.3748H47.6501V22.0962Z" fill="black"/>
<path d="M51.9289 22.0962H47.6504V26.3748H51.9289V22.0962Z" fill="black"/>
<path d="M73.322 22.0962H69.0435V26.3748H73.322V22.0962Z" fill="black"/>
<path d="M77.6003 22.0962H73.3218V26.3748H77.6003V22.0962Z" fill="black"/>
<path d="M90.4358 22.0962H86.1572V26.3748H90.4358V22.0962Z" fill="black"/>
<path d="M94.7146 22.0962H90.436V26.3748H94.7146V22.0962Z" fill="black"/>
<path d="M98.9929 22.0962H94.7144V26.3748H98.9929V22.0962Z" fill="black"/>
<path d="M103.271 22.0962H98.9922V26.3748H103.271V22.0962Z" fill="black"/>
<path d="M116.107 22.0962H111.829V26.3748H116.107V22.0962Z" fill="black"/>
<path d="M120.386 22.0962H116.107V26.3748H120.386V22.0962Z" fill="black"/>
<path d="M128.943 22.0962H124.664V26.3748H128.943V22.0962Z" fill="black"/>
<path d="M141.779 22.0962H137.5V26.3748H141.779V22.0962Z" fill="black"/>
<path d="M163.171 22.0962H158.893V26.3748H163.171V22.0962Z" fill="black"/>
<path d="M167.449 22.0962H163.171V26.3748H167.449V22.0962Z" fill="black"/>
<path d="M51.9289 26.3714H47.6504V30.6499H51.9289V26.3714Z" fill="black"/>
<path d="M64.7644 26.3714H60.4858V30.6499H64.7644V26.3714Z" fill="black"/>
<path d="M69.0432 26.3714H64.7646V30.6499H69.0432V26.3714Z" fill="black"/>
<path d="M90.4358 26.3714H86.1572V30.6499H90.4358V26.3714Z" fill="black"/>
<path d="M94.7146 26.3714H90.436V30.6499H94.7146V26.3714Z" fill="black"/>
<path d="M98.9929 26.3714H94.7144V30.6499H98.9929V26.3714Z" fill="black"/>
<path d="M103.272 26.3714H98.9932V30.6499H103.272V26.3714Z" fill="black"/>
<path d="M107.55 26.3714H103.271V30.6499H107.55V26.3714Z" fill="black"/>
<path d="M111.828 26.3714H107.55V30.6499H111.828V26.3714Z" fill="black"/>
<path d="M116.107 26.3714H111.829V30.6499H116.107V26.3714Z" fill="black"/>
<path d="M124.664 26.3714H120.386V30.6499H124.664V26.3714Z" fill="black"/>
<path d="M137.5 26.3714H133.222V30.6499H137.5V26.3714Z" fill="black"/>
<path d="M150.336 26.3714H146.057V30.6499H150.336V26.3714Z" fill="black"/>
<path d="M158.892 26.3714H154.614V30.6499H158.892V26.3714Z" fill="black"/>
<path d="M163.171 26.3714H158.893V30.6499H163.171V26.3714Z" fill="black"/>
<path d="M167.449 26.3714H163.171V30.6499H167.449V26.3714Z" fill="black"/>
<path d="M77.5998 30.6552H73.3213V34.9338H77.5998V30.6552Z" fill="black"/>
<path d="M86.1575 30.6552H81.8789V34.9338H86.1575V30.6552Z" fill="black"/>
<path d="M90.4358 30.6552H86.1572V34.9338H90.4358V30.6552Z" fill="black"/>
<path d="M94.7146 30.6552H90.436V34.9338H94.7146V30.6552Z" fill="black"/>
<path d="M98.9929 30.6552H94.7144V34.9338H98.9929V30.6552Z" fill="black"/>
<path d="M116.107 30.6552H111.829V34.9338H116.107V30.6552Z" fill="black"/>
<path d="M124.664 30.6552H120.386V34.9338H124.664V30.6552Z" fill="black"/>
<path d="M128.943 30.6552H124.664V34.9338H128.943V30.6552Z" fill="black"/>
<path d="M133.221 30.6552H128.942V34.9338H133.221V30.6552Z" fill="black"/>
<path d="M141.779 30.6552H137.5V34.9338H141.779V30.6552Z" fill="black"/>
<path d="M47.6501 34.9361H43.3716V39.2147H47.6501V34.9361Z" fill="black"/>
<path d="M56.2068 34.9361H51.9282V39.2147H56.2068V34.9361Z" fill="black"/>
<path d="M64.7644 34.9361H60.4858V39.2147H64.7644V34.9361Z" fill="black"/>
<path d="M73.322 34.9361H69.0435V39.2147H73.322V34.9361Z" fill="black"/>
<path d="M81.8786 34.9361H77.6001V39.2147H81.8786V34.9361Z" fill="black"/>
<path d="M90.4358 34.9361H86.1572V39.2147H90.4358V34.9361Z" fill="black"/>
<path d="M98.9929 34.9361H94.7144V39.2147H98.9929V34.9361Z" fill="black"/>
<path d="M107.55 34.9361H103.271V39.2147H107.55V34.9361Z" fill="black"/>
<path d="M116.107 34.9361H111.829V39.2147H116.107V34.9361Z" fill="black"/>
<path d="M124.664 34.9361H120.386V39.2147H124.664V34.9361Z" fill="black"/>
<path d="M133.221 34.9361H128.942V39.2147H133.221V34.9361Z" fill="black"/>
<path d="M141.779 34.9361H137.5V39.2147H141.779V34.9361Z" fill="black"/>
<path d="M150.336 34.9361H146.057V39.2147H150.336V34.9361Z" fill="black"/>
<path d="M158.892 34.9361H154.614V39.2147H158.892V34.9361Z" fill="black"/>
<path d="M167.449 34.9361H163.171V39.2147H167.449V34.9361Z" fill="black"/>
<path d="M47.6501 39.2085H43.3716V43.487H47.6501V39.2085Z" fill="black"/>
<path d="M51.9289 39.2085H47.6504V43.487H51.9289V39.2085Z" fill="black"/>
<path d="M60.4866 39.2085H56.208V43.487H60.4866V39.2085Z" fill="black"/>
<path d="M69.0432 39.2085H64.7646V43.487H69.0432V39.2085Z" fill="black"/>
<path d="M81.8786 39.2085H77.6001V43.487H81.8786V39.2085Z" fill="black"/>
<path d="M86.1575 39.2085H81.8789V43.487H86.1575V39.2085Z" fill="black"/>
<path d="M90.4358 39.2085H86.1572V43.487H90.4358V39.2085Z" fill="black"/>
<path d="M98.9929 39.2085H94.7144V43.487H98.9929V39.2085Z" fill="black"/>
<path d="M116.107 39.2085H111.829V43.487H116.107V39.2085Z" fill="black"/>
<path d="M124.664 39.2085H120.386V43.487H124.664V39.2085Z" fill="black"/>
<path d="M133.221 39.2085H128.942V43.487H133.221V39.2085Z" fill="black"/>
<path d="M137.5 39.2085H133.222V43.487H137.5V39.2085Z" fill="black"/>
<path d="M146.056 39.2085H141.778V43.487H146.056V39.2085Z" fill="black"/>
<path d="M13.4216 43.4892H9.14307V47.7678H13.4216V43.4892Z" fill="black"/>
<path d="M21.9787 43.4892H17.7002V47.7678H21.9787V43.4892Z" fill="black"/>
<path d="M26.2576 43.4892H21.979V47.7678H26.2576V43.4892Z" fill="black"/>
<path d="M34.8142 43.4892H30.5356V47.7678H34.8142V43.4892Z" fill="black"/>
<path d="M39.0935 43.4892H34.8149V47.7678H39.0935V43.4892Z" fill="black"/>
<path d="M43.3718 43.4892H39.0933V47.7678H43.3718V43.4892Z" fill="black"/>
<path d="M51.9289 43.4892H47.6504V47.7678H51.9289V43.4892Z" fill="black"/>
<path d="M60.4866 43.4892H56.208V47.7678H60.4866V43.4892Z" fill="black"/>
<path d="M77.6003 43.4892H73.3218V47.7678H77.6003V43.4892Z" fill="black"/>
<path d="M86.1575 43.4892H81.8789V47.7678H86.1575V43.4892Z" fill="black"/>
<path d="M90.4358 43.4892H86.1572V47.7678H90.4358V43.4892Z" fill="black"/>
<path d="M94.7146 43.4892H90.436V47.7678H94.7146V43.4892Z" fill="black"/>
<path d="M98.9929 43.4892H94.7144V47.7678H98.9929V43.4892Z" fill="black"/>
<path d="M103.272 43.4892H98.9932V47.7678H103.272V43.4892Z" fill="black"/>
<path d="M107.55 43.4892H103.271V47.7678H107.55V43.4892Z" fill="black"/>
<path d="M111.828 43.4892H107.55V47.7678H111.828V43.4892Z" fill="black"/>
<path d="M116.107 43.4892H111.829V47.7678H116.107V43.4892Z" fill="black"/>
<path d="M124.664 43.4892H120.386V47.7678H124.664V43.4892Z" fill="black"/>
<path d="M128.943 43.4892H124.664V47.7678H128.943V43.4892Z" fill="black"/>
<path d="M133.221 43.4892H128.942V47.7678H133.221V43.4892Z" fill="black"/>
<path d="M146.057 43.4892H141.778V47.7678H146.057V43.4892Z" fill="black"/>
<path d="M154.614 43.4892H150.335V47.7678H154.614V43.4892Z" fill="black"/>
<path d="M158.892 43.4892H154.614V47.7678H158.892V43.4892Z" fill="black"/>
<path d="M167.449 43.4892H163.171V47.7678H167.449V43.4892Z" fill="black"/>
<path d="M176.007 43.4892H171.728V47.7678H176.007V43.4892Z" fill="black"/>
<path d="M188.843 43.4892H184.564V47.7678H188.843V43.4892Z" fill="black"/>
<path d="M197.4 43.4892H193.121V47.7678H197.4V43.4892Z" fill="black"/>
<path d="M201.678 43.4892H197.4V47.7678H201.678V43.4892Z" fill="black"/>
<path d="M21.9787 47.7614H17.7002V52.04H21.9787V47.7614Z" fill="black"/>
<path d="M26.2576 47.7614H21.979V52.04H26.2576V47.7614Z" fill="black"/>
<path d="M60.4866 47.7614H56.208V52.04H60.4866V47.7614Z" fill="black"/>
<path d="M81.8786 47.7614H77.6001V52.04H81.8786V47.7614Z" fill="black"/>
<path d="M90.4358 47.7614H86.1572V52.04H90.4358V47.7614Z" fill="black"/>
<path d="M116.107 47.7614H111.829V52.04H116.107V47.7614Z" fill="black"/>
<path d="M120.386 47.7614H116.107V52.04H120.386V47.7614Z" fill="black"/>
<path d="M128.943 47.7614H124.664V52.04H128.943V47.7614Z" fill="black"/>
<path d="M133.221 47.7614H128.942V52.04H133.221V47.7614Z" fill="black"/>
<path d="M141.779 47.7614H137.5V52.04H141.779V47.7614Z" fill="black"/>
<path d="M167.449 47.7614H163.171V52.04H167.449V47.7614Z" fill="black"/>
<path d="M184.564 47.7614H180.286V52.04H184.564V47.7614Z" fill="black"/>
<path d="M188.843 47.7614H184.564V52.04H188.843V47.7614Z" fill="black"/>
<path d="M193.121 47.7614H188.842V52.04H193.121V47.7614Z" fill="black"/>
<path d="M197.4 47.7614H193.121V52.04H197.4V47.7614Z" fill="black"/>
<path d="M201.678 47.7614H197.4V52.04H201.678V47.7614Z" fill="black"/>
<path d="M17.7004 52.0481H13.4219V56.3267H17.7004V52.0481Z" fill="black"/>
<path d="M21.9787 52.0481H17.7002V56.3267H21.9787V52.0481Z" fill="black"/>
<path d="M26.2576 52.0481H21.979V56.3267H26.2576V52.0481Z" fill="black"/>
<path d="M39.0935 52.0481H34.8149V56.3267H39.0935V52.0481Z" fill="black"/>
<path d="M47.6501 52.0481H43.3716V56.3267H47.6501V52.0481Z" fill="black"/>
<path d="M56.2068 52.0481H51.9282V56.3267H56.2068V52.0481Z" fill="black"/>
<path d="M73.322 52.0481H69.0435V56.3267H73.322V52.0481Z" fill="black"/>
<path d="M86.1575 52.0481H81.8789V56.3267H86.1575V52.0481Z" fill="black"/>
<path d="M94.7146 52.0481H90.436V56.3267H94.7146V52.0481Z" fill="black"/>
<path d="M98.9929 52.0481H94.7144V56.3267H98.9929V52.0481Z" fill="black"/>
<path d="M103.271 52.0481H98.9922V56.3267H103.271V52.0481Z" fill="black"/>
<path d="M111.828 52.0481H107.55V56.3267H111.828V52.0481Z" fill="black"/>
<path d="M128.943 52.0481H124.664V56.3267H128.943V52.0481Z" fill="black"/>
<path d="M133.221 52.0481H128.942V56.3267H133.221V52.0481Z" fill="black"/>
<path d="M137.5 52.0481H133.222V56.3267H137.5V52.0481Z" fill="black"/>
<path d="M141.779 52.0481H137.5V56.3267H141.779V52.0481Z" fill="black"/>
<path d="M146.056 52.0481H141.778V56.3267H146.056V52.0481Z" fill="black"/>
<path d="M150.335 52.0481H146.056V56.3267H150.335V52.0481Z" fill="black"/>
<path d="M154.614 52.0481H150.335V56.3267H154.614V52.0481Z" fill="black"/>
<path d="M158.892 52.0481H154.614V56.3267H158.892V52.0481Z" fill="black"/>
<path d="M163.171 52.0481H158.893V56.3267H163.171V52.0481Z" fill="black"/>
<path d="M171.728 52.0481H167.45V56.3267H171.728V52.0481Z" fill="black"/>
<path d="M188.843 52.0481H184.564V56.3267H188.843V52.0481Z" fill="black"/>
<path d="M197.4 52.0481H193.121V56.3267H197.4V52.0481Z" fill="black"/>
<path d="M201.678 52.0481H197.4V56.3267H201.678V52.0481Z" fill="black"/>
<path d="M21.9787 56.3257H17.7002V60.6043H21.9787V56.3257Z" fill="black"/>
<path d="M30.5364 56.3257H26.2578V60.6043H30.5364V56.3257Z" fill="black"/>
<path d="M34.8142 56.3257H30.5356V60.6043H34.8142V56.3257Z" fill="black"/>
<path d="M47.6501 56.3257H43.3716V60.6043H47.6501V56.3257Z" fill="black"/>
<path d="M51.9289 56.3257H47.6504V60.6043H51.9289V56.3257Z" fill="black"/>
<path d="M56.2068 56.3257H51.9282V60.6043H56.2068V56.3257Z" fill="black"/>
<path d="M69.0427 56.3257H64.7642V60.6043H69.0427V56.3257Z" fill="black"/>
<path d="M73.322 56.3257H69.0435V60.6043H73.322V56.3257Z" fill="black"/>
<path d="M81.8782 56.3257H77.5996V60.6043H81.8782V56.3257Z" fill="black"/>
<path d="M94.7146 56.3257H90.436V60.6043H94.7146V56.3257Z" fill="black"/>
<path d="M103.272 56.3257H98.9932V60.6043H103.272V56.3257Z" fill="black"/>
<path d="M107.55 56.3257H103.271V60.6043H107.55V56.3257Z" fill="black"/>
<path d="M120.385 56.3257H116.106V60.6043H120.385V56.3257Z" fill="black"/>
<path d="M128.943 56.3257H124.664V60.6043H128.943V56.3257Z" fill="black"/>
<path d="M150.336 56.3257H146.057V60.6043H150.336V56.3257Z" fill="black"/>
<path d="M154.614 56.3257H150.335V60.6043H154.614V56.3257Z" fill="black"/>
<path d="M158.892 56.3257H154.614V60.6043H158.892V56.3257Z" fill="black"/>
<path d="M197.4 56.3257H193.121V60.6043H197.4V56.3257Z" fill="black"/>
<path d="M13.4216 60.6013H9.14307V64.8799H13.4216V60.6013Z" fill="black"/>
<path d="M30.5359 60.6013H26.2573V64.8799H30.5359V60.6013Z" fill="black"/>
<path d="M39.0935 60.6013H34.8149V64.8799H39.0935V60.6013Z" fill="black"/>
<path d="M47.6501 60.6013H43.3716V64.8799H47.6501V60.6013Z" fill="black"/>
<path d="M64.7644 60.6013H60.4858V64.8799H64.7644V60.6013Z" fill="black"/>
<path d="M73.322 60.6013H69.0435V64.8799H73.322V60.6013Z" fill="black"/>
<path d="M77.6003 60.6013H73.3218V64.8799H77.6003V60.6013Z" fill="black"/>
<path d="M81.8786 60.6013H77.6001V64.8799H81.8786V60.6013Z" fill="black"/>
<path d="M90.4358 60.6013H86.1572V64.8799H90.4358V60.6013Z" fill="black"/>
<path d="M94.7146 60.6013H90.436V64.8799H94.7146V60.6013Z" fill="black"/>
<path d="M103.271 60.6013H98.9922V64.8799H103.271V60.6013Z" fill="black"/>
<path d="M111.829 60.6013H107.55V64.8799H111.829V60.6013Z" fill="black"/>
<path d="M116.107 60.6013H111.829V64.8799H116.107V60.6013Z" fill="black"/>
<path d="M128.943 60.6013H124.664V64.8799H128.943V60.6013Z" fill="black"/>
<path d="M137.5 60.6013H133.222V64.8799H137.5V60.6013Z" fill="black"/>
<path d="M141.779 60.6013H137.5V64.8799H141.779V60.6013Z" fill="black"/>
<path d="M176.007 60.6013H171.728V64.8799H176.007V60.6013Z" fill="black"/>
<path d="M180.285 60.6013H176.006V64.8799H180.285V60.6013Z" fill="black"/>
<path d="M188.843 60.6013H184.564V64.8799H188.843V60.6013Z" fill="black"/>
<path d="M201.678 60.6013H197.4V64.8799H201.678V60.6013Z" fill="black"/>
<path d="M13.4216 64.8764H9.14307V69.155H13.4216V64.8764Z" fill="black"/>
<path d="M17.7004 64.8764H13.4219V69.155H17.7004V64.8764Z" fill="black"/>
<path d="M21.9787 64.8764H17.7002V69.155H21.9787V64.8764Z" fill="black"/>
<path d="M34.8152 64.8764H30.5366V69.155H34.8152V64.8764Z" fill="black"/>
<path d="M43.3723 64.8764H39.0938V69.155H43.3723V64.8764Z" fill="black"/>
<path d="M60.4866 64.8764H56.208V69.155H60.4866V64.8764Z" fill="black"/>
<path d="M69.0432 64.8764H64.7646V69.155H69.0432V64.8764Z" fill="black"/>
<path d="M81.8786 64.8764H77.6001V69.155H81.8786V64.8764Z" fill="black"/>
<path d="M86.1575 64.8764H81.8789V69.155H86.1575V64.8764Z" fill="black"/>
<path d="M90.4358 64.8764H86.1572V69.155H90.4358V64.8764Z" fill="black"/>
<path d="M98.9929 64.8764H94.7144V69.155H98.9929V64.8764Z" fill="black"/>
<path d="M103.271 64.8764H98.9922V69.155H103.271V64.8764Z" fill="black"/>
<path d="M107.55 64.8764H103.271V69.155H107.55V64.8764Z" fill="black"/>
<path d="M111.828 64.8764H107.55V69.155H111.828V64.8764Z" fill="black"/>
<path d="M116.107 64.8764H111.829V69.155H116.107V64.8764Z" fill="black"/>
<path d="M124.664 64.8764H120.386V69.155H124.664V64.8764Z" fill="black"/>
<path d="M128.943 64.8764H124.664V69.155H128.943V64.8764Z" fill="black"/>
<path d="M137.5 64.8764H133.222V69.155H137.5V64.8764Z" fill="black"/>
<path d="M150.335 64.8764H146.056V69.155H150.335V64.8764Z" fill="black"/>
<path d="M163.171 64.8764H158.893V69.155H163.171V64.8764Z" fill="black"/>
<path d="M176.007 64.8764H171.728V69.155H176.007V64.8764Z" fill="black"/>
<path d="M180.285 64.8764H176.006V69.155H180.285V64.8764Z" fill="black"/>
<path d="M188.843 64.8764H184.564V69.155H188.843V64.8764Z" fill="black"/>
<path d="M197.4 64.8764H193.121V69.155H197.4V64.8764Z" fill="black"/>
<path d="M13.4226 69.1632H9.14404V73.4417H13.4226V69.1632Z" fill="black"/>
<path d="M17.7004 69.1632H13.4219V73.4417H17.7004V69.1632Z" fill="black"/>
<path d="M30.5359 69.1632H26.2573V73.4417H30.5359V69.1632Z" fill="black"/>
<path d="M34.8142 69.1632H30.5356V73.4417H34.8142V69.1632Z" fill="black"/>
<path d="M39.0935 69.1632H34.8149V73.4417H39.0935V69.1632Z" fill="black"/>
<path d="M47.6501 69.1632H43.3716V73.4417H47.6501V69.1632Z" fill="black"/>
<path d="M56.2068 69.1632H51.9282V73.4417H56.2068V69.1632Z" fill="black"/>
<path d="M77.6003 69.1632H73.3218V73.4417H77.6003V69.1632Z" fill="black"/>
<path d="M86.1575 69.1632H81.8789V73.4417H86.1575V69.1632Z" fill="black"/>
<path d="M94.7146 69.1632H90.436V73.4417H94.7146V69.1632Z" fill="black"/>
<path d="M120.385 69.1632H116.106V73.4417H120.385V69.1632Z" fill="black"/>
<path d="M124.664 69.1632H120.386V73.4417H124.664V69.1632Z" fill="black"/>
<path d="M137.5 69.1632H133.222V73.4417H137.5V69.1632Z" fill="black"/>
<path d="M141.779 69.1632H137.5V73.4417H141.779V69.1632Z" fill="black"/>
<path d="M154.614 69.1632H150.335V73.4417H154.614V69.1632Z" fill="black"/>
<path d="M163.171 69.1632H158.893V73.4417H163.171V69.1632Z" fill="black"/>
<path d="M171.728 69.1632H167.45V73.4417H171.728V69.1632Z" fill="black"/>
<path d="M176.007 69.1632H171.728V73.4417H176.007V69.1632Z" fill="black"/>
<path d="M197.4 69.1632H193.121V73.4417H197.4V69.1632Z" fill="black"/>
<path d="M13.4226 73.4354H9.14404V77.714H13.4226V73.4354Z" fill="black"/>
<path d="M17.7004 73.4354H13.4219V77.714H17.7004V73.4354Z" fill="black"/>
<path d="M26.2576 73.4354H21.979V77.714H26.2576V73.4354Z" fill="black"/>
<path d="M30.5359 73.4354H26.2573V77.714H30.5359V73.4354Z" fill="black"/>
<path d="M60.4866 73.4354H56.208V77.714H60.4866V73.4354Z" fill="black"/>
<path d="M64.7644 73.4354H60.4858V77.714H64.7644V73.4354Z" fill="black"/>
<path d="M69.0432 73.4354H64.7646V77.714H69.0432V73.4354Z" fill="black"/>
<path d="M73.322 73.4354H69.0435V77.714H73.322V73.4354Z" fill="black"/>
<path d="M81.8786 73.4354H77.6001V77.714H81.8786V73.4354Z" fill="black"/>
<path d="M86.1575 73.4354H81.8789V77.714H86.1575V73.4354Z" fill="black"/>
<path d="M90.4358 73.4354H86.1572V77.714H90.4358V73.4354Z" fill="black"/>
<path d="M94.7146 73.4354H90.436V77.714H94.7146V73.4354Z" fill="black"/>
<path d="M107.55 73.4354H103.271V77.714H107.55V73.4354Z" fill="black"/>
<path d="M128.943 73.4354H124.664V77.714H128.943V73.4354Z" fill="black"/>
<path d="M141.779 73.4354H137.5V77.714H141.779V73.4354Z" fill="black"/>
<path d="M150.336 73.4354H146.057V77.714H150.336V73.4354Z" fill="black"/>
<path d="M167.449 73.4354H163.171V77.714H167.449V73.4354Z" fill="black"/>
<path d="M171.728 73.4354H167.45V77.714H171.728V73.4354Z" fill="black"/>
<path d="M176.007 73.4354H171.728V77.714H176.007V73.4354Z" fill="black"/>
<path d="M180.285 73.4354H176.006V77.714H180.285V73.4354Z" fill="black"/>
<path d="M184.564 73.4354H180.286V77.714H184.564V73.4354Z" fill="black"/>
<path d="M193.121 73.4354H188.842V77.714H193.121V73.4354Z" fill="black"/>
<path d="M13.4216 77.7165H9.14307V81.995H13.4216V77.7165Z" fill="black"/>
<path d="M21.9787 77.7165H17.7002V81.995H21.9787V77.7165Z" fill="black"/>
<path d="M26.2576 77.7165H21.979V81.995H26.2576V77.7165Z" fill="black"/>
<path d="M30.5359 77.7165H26.2573V81.995H30.5359V77.7165Z" fill="black"/>
<path d="M39.0935 77.7165H34.8149V81.995H39.0935V77.7165Z" fill="black"/>
<path d="M43.3718 77.7165H39.0933V81.995H43.3718V77.7165Z" fill="black"/>
<path d="M56.2068 77.7165H51.9282V81.995H56.2068V77.7165Z" fill="black"/>
<path d="M60.4866 77.7165H56.208V81.995H60.4866V77.7165Z" fill="black"/>
<path d="M69.0432 77.7165H64.7646V81.995H69.0432V77.7165Z" fill="black"/>
<path d="M73.322 77.7165H69.0435V81.995H73.322V77.7165Z" fill="black"/>
<path d="M81.8786 77.7165H77.6001V81.995H81.8786V77.7165Z" fill="black"/>
<path d="M86.1575 77.7165H81.8789V81.995H86.1575V77.7165Z" fill="black"/>
<path d="M94.7146 77.7165H90.436V81.995H94.7146V77.7165Z" fill="black"/>
<path d="M98.9929 77.7165H94.7144V81.995H98.9929V77.7165Z" fill="black"/>
<path d="M111.828 77.7165H107.55V81.995H111.828V77.7165Z" fill="black"/>
<path d="M124.664 77.7165H120.386V81.995H124.664V77.7165Z" fill="black"/>
<path d="M128.943 77.7165H124.664V81.995H128.943V77.7165Z" fill="black"/>
<path d="M137.5 77.7165H133.222V81.995H137.5V77.7165Z" fill="black"/>
<path d="M146.056 77.7165H141.778V81.995H146.056V77.7165Z" fill="black"/>
<path d="M150.335 77.7165H146.056V81.995H150.335V77.7165Z" fill="black"/>
<path d="M154.614 77.7165H150.335V81.995H154.614V77.7165Z" fill="black"/>
<path d="M163.171 77.7165H158.893V81.995H163.171V77.7165Z" fill="black"/>
<path d="M167.449 77.7165H163.171V81.995H167.449V77.7165Z" fill="black"/>
<path d="M171.728 77.7165H167.45V81.995H171.728V77.7165Z" fill="black"/>
<path d="M176.007 77.7165H171.728V81.995H176.007V77.7165Z" fill="black"/>
<path d="M188.843 77.7165H184.564V81.995H188.843V77.7165Z" fill="black"/>
<path d="M193.121 77.7165H188.842V81.995H193.121V77.7165Z" fill="black"/>
<path d="M197.4 77.7165H193.121V81.995H197.4V77.7165Z" fill="black"/>
<path d="M201.678 77.7165H197.4V81.995H201.678V77.7165Z" fill="black"/>
<path d="M13.4216 81.9972H9.14307V86.2757H13.4216V81.9972Z" fill="black"/>
<path d="M21.9787 81.9972H17.7002V86.2757H21.9787V81.9972Z" fill="black"/>
<path d="M26.2576 81.9972H21.979V86.2757H26.2576V81.9972Z" fill="black"/>
<path d="M30.5359 81.9972H26.2573V86.2757H30.5359V81.9972Z" fill="black"/>
<path d="M34.8137 81.9972H30.5352V86.2757H34.8137V81.9972Z" fill="black"/>
<path d="M43.3718 81.9972H39.0933V86.2757H43.3718V81.9972Z" fill="black"/>
<path d="M47.6501 81.9972H43.3716V86.2757H47.6501V81.9972Z" fill="black"/>
<path d="M64.7644 81.9972H60.4858V86.2757H64.7644V81.9972Z" fill="black"/>
<path d="M81.8786 81.9972H77.6001V86.2757H81.8786V81.9972Z" fill="black"/>
<path d="M90.4358 81.9972H86.1572V86.2757H90.4358V81.9972Z" fill="black"/>
<path d="M103.271 81.9972H98.9922V86.2757H103.271V81.9972Z" fill="black"/>
<path d="M107.55 81.9972H103.271V86.2757H107.55V81.9972Z" fill="black"/>
<path d="M116.107 81.9972H111.829V86.2757H116.107V81.9972Z" fill="black"/>
<path d="M120.386 81.9972H116.107V86.2757H120.386V81.9972Z" fill="black"/>
<path d="M128.943 81.9972H124.664V86.2757H128.943V81.9972Z" fill="black"/>
<path d="M133.221 81.9972H128.942V86.2757H133.221V81.9972Z" fill="black"/>
<path d="M137.5 81.9972H133.222V86.2757H137.5V81.9972Z" fill="black"/>
<path d="M146.057 81.9972H141.778V86.2757H146.057V81.9972Z" fill="black"/>
<path d="M150.336 81.9972H146.057V86.2757H150.336V81.9972Z" fill="black"/>
<path d="M154.614 81.9972H150.335V86.2757H154.614V81.9972Z" fill="black"/>
<path d="M158.892 81.9972H154.614V86.2757H158.892V81.9972Z" fill="black"/>
<path d="M163.171 81.9972H158.893V86.2757H163.171V81.9972Z" fill="black"/>
<path d="M171.729 81.9972H167.45V86.2757H171.729V81.9972Z" fill="black"/>
<path d="M180.285 81.9972H176.006V86.2757H180.285V81.9972Z" fill="black"/>
<path d="M201.678 81.9972H197.4V86.2757H201.678V81.9972Z" fill="black"/>
<path d="M21.9787 86.2665H17.7002V90.5451H21.9787V86.2665Z" fill="black"/>
<path d="M39.093 86.2665H34.8145V90.5451H39.093V86.2665Z" fill="black"/>
<path d="M43.3718 86.2665H39.0933V90.5451H43.3718V86.2665Z" fill="black"/>
<path d="M60.4866 86.2665H56.208V90.5451H60.4866V86.2665Z" fill="black"/>
<path d="M69.0432 86.2665H64.7646V90.5451H69.0432V86.2665Z" fill="black"/>
<path d="M73.322 86.2665H69.0435V90.5451H73.322V86.2665Z" fill="black"/>
<path d="M90.4358 86.2665H86.1572V90.5451H90.4358V86.2665Z" fill="black"/>
<path d="M116.107 86.2665H111.829V90.5451H116.107V86.2665Z" fill="black"/>
<path d="M124.664 86.2665H120.386V90.5451H124.664V86.2665Z" fill="black"/>
<path d="M137.5 86.2665H133.222V90.5451H137.5V86.2665Z" fill="black"/>
<path d="M146.056 86.2665H141.778V90.5451H146.056V86.2665Z" fill="black"/>
<path d="M150.336 86.2665H146.057V90.5451H150.336V86.2665Z" fill="black"/>
<path d="M154.614 86.2665H150.335V90.5451H154.614V86.2665Z" fill="black"/>
<path d="M163.171 86.2665H158.893V90.5451H163.171V86.2665Z" fill="black"/>
<path d="M176.007 86.2665H171.728V90.5451H176.007V86.2665Z" fill="black"/>
<path d="M180.285 86.2665H176.006V90.5451H180.285V86.2665Z" fill="black"/>
<path d="M193.121 86.2665H188.842V90.5451H193.121V86.2665Z" fill="black"/>
<path d="M13.4216 90.5533H9.14307V94.8318H13.4216V90.5533Z" fill="black"/>
<path d="M17.7004 90.5533H13.4219V94.8318H17.7004V90.5533Z" fill="black"/>
<path d="M21.9787 90.5533H17.7002V94.8318H21.9787V90.5533Z" fill="black"/>
<path d="M26.2576 90.5533H21.979V94.8318H26.2576V90.5533Z" fill="black"/>
<path d="M30.5359 90.5533H26.2573V94.8318H30.5359V90.5533Z" fill="black"/>
<path d="M47.6501 90.5533H43.3716V94.8318H47.6501V90.5533Z" fill="black"/>
<path d="M51.9289 90.5533H47.6504V94.8318H51.9289V90.5533Z" fill="black"/>
<path d="M60.4866 90.5533H56.208V94.8318H60.4866V90.5533Z" fill="black"/>
<path d="M64.7644 90.5533H60.4858V94.8318H64.7644V90.5533Z" fill="black"/>
<path d="M77.6003 90.5533H73.3218V94.8318H77.6003V90.5533Z" fill="black"/>
<path d="M86.1575 90.5533H81.8789V94.8318H86.1575V90.5533Z" fill="black"/>
<path d="M94.7146 90.5533H90.436V94.8318H94.7146V90.5533Z" fill="black"/>
<path d="M98.9929 90.5533H94.7144V94.8318H98.9929V90.5533Z" fill="black"/>
<path d="M111.829 90.5533H107.55V94.8318H111.829V90.5533Z" fill="black"/>
<path d="M124.664 90.5533H120.386V94.8318H124.664V90.5533Z" fill="black"/>
<path d="M167.449 90.5533H163.171V94.8318H167.449V90.5533Z" fill="black"/>
<path d="M171.729 90.5533H167.45V94.8318H171.729V90.5533Z" fill="black"/>
<path d="M176.007 90.5533H171.728V94.8318H176.007V90.5533Z" fill="black"/>
<path d="M188.843 90.5533H184.564V94.8318H188.843V90.5533Z" fill="black"/>
<path d="M201.678 90.5533H197.4V94.8318H201.678V90.5533Z" fill="black"/>
<path d="M21.9787 94.8309H17.7002V99.1094H21.9787V94.8309Z" fill="black"/>
<path d="M30.5359 94.8309H26.2573V99.1094H30.5359V94.8309Z" fill="black"/>
<path d="M34.8152 94.8309H30.5366V99.1094H34.8152V94.8309Z" fill="black"/>
<path d="M39.0935 94.8309H34.8149V99.1094H39.0935V94.8309Z" fill="black"/>
<path d="M43.3718 94.8309H39.0933V99.1094H43.3718V94.8309Z" fill="black"/>
<path d="M47.6501 94.8309H43.3716V99.1094H47.6501V94.8309Z" fill="black"/>
<path d="M51.9289 94.8309H47.6504V99.1094H51.9289V94.8309Z" fill="black"/>
<path d="M60.4866 94.8309H56.208V99.1094H60.4866V94.8309Z" fill="black"/>
<path d="M64.7644 94.8309H60.4858V99.1094H64.7644V94.8309Z" fill="black"/>
<path d="M69.0432 94.8309H64.7646V99.1094H69.0432V94.8309Z" fill="black"/>
<path d="M77.5998 94.8309H73.3213V99.1094H77.5998V94.8309Z" fill="black"/>
<path d="M81.8786 94.8309H77.6001V99.1094H81.8786V94.8309Z" fill="black"/>
<path d="M98.9929 94.8309H94.7144V99.1094H98.9929V94.8309Z" fill="black"/>
<path d="M103.272 94.8309H98.9932V99.1094H103.272V94.8309Z" fill="black"/>
<path d="M107.55 94.8309H103.271V99.1094H107.55V94.8309Z" fill="black"/>
<path d="M111.828 94.8309H107.55V99.1094H111.828V94.8309Z" fill="black"/>
<path d="M116.107 94.8309H111.829V99.1094H116.107V94.8309Z" fill="black"/>
<path d="M128.943 94.8309H124.664V99.1094H128.943V94.8309Z" fill="black"/>
<path d="M133.221 94.8309H128.942V99.1094H133.221V94.8309Z" fill="black"/>
<path d="M137.5 94.8309H133.222V99.1094H137.5V94.8309Z" fill="black"/>
<path d="M167.449 94.8309H163.171V99.1094H167.449V94.8309Z" fill="black"/>
<path d="M171.728 94.8309H167.45V99.1094H171.728V94.8309Z" fill="black"/>
<path d="M176.007 94.8309H171.728V99.1094H176.007V94.8309Z" fill="black"/>
<path d="M180.285 94.8309H176.006V99.1094H180.285V94.8309Z" fill="black"/>
<path d="M184.564 94.8309H180.286V99.1094H184.564V94.8309Z" fill="black"/>
<path d="M193.121 94.8309H188.842V99.1094H193.121V94.8309Z" fill="black"/>
<path d="M13.4216 99.1121H9.14307V103.391H13.4216V99.1121Z" fill="black"/>
<path d="M17.7004 99.1121H13.4219V103.391H17.7004V99.1121Z" fill="black"/>
<path d="M21.9787 99.1121H17.7002V103.391H21.9787V99.1121Z" fill="black"/>
<path d="M26.2576 99.1121H21.979V103.391H26.2576V99.1121Z" fill="black"/>
<path d="M30.5359 99.1121H26.2573V103.391H30.5359V99.1121Z" fill="black"/>
<path d="M47.6501 99.1121H43.3716V103.391H47.6501V99.1121Z" fill="black"/>
<path d="M51.9289 99.1121H47.6504V103.391H51.9289V99.1121Z" fill="black"/>
<path d="M77.6003 99.1121H73.3218V103.391H77.6003V99.1121Z" fill="black"/>
<path d="M81.8782 99.1121H77.5996V103.391H81.8782V99.1121Z" fill="black"/>
<path d="M98.9929 99.1121H94.7144V103.391H98.9929V99.1121Z" fill="black"/>
<path d="M116.107 99.1121H111.829V103.391H116.107V99.1121Z" fill="black"/>
<path d="M137.5 99.1121H133.222V103.391H137.5V99.1121Z" fill="black"/>
<path d="M141.779 99.1121H137.5V103.391H141.779V99.1121Z" fill="black"/>
<path d="M146.056 99.1121H141.778V103.391H146.056V99.1121Z" fill="black"/>
<path d="M163.171 99.1121H158.893V103.391H163.171V99.1121Z" fill="black"/>
<path d="M167.449 99.1121H163.171V103.391H167.449V99.1121Z" fill="black"/>
<path d="M184.564 99.1121H180.286V103.391H184.564V99.1121Z" fill="black"/>
<path d="M188.843 99.1121H184.564V103.391H188.843V99.1121Z" fill="black"/>
<path d="M193.121 99.1121H188.842V103.391H193.121V99.1121Z" fill="black"/>
<path d="M17.7004 103.384H13.4219V107.663H17.7004V103.384Z" fill="black"/>
<path d="M21.9787 103.384H17.7002V107.663H21.9787V103.384Z" fill="black"/>
<path d="M30.5359 103.384H26.2573V107.663H30.5359V103.384Z" fill="black"/>
<path d="M39.0935 103.384H34.8149V107.663H39.0935V103.384Z" fill="black"/>
<path d="M47.6501 103.384H43.3716V107.663H47.6501V103.384Z" fill="black"/>
<path d="M60.4866 103.384H56.208V107.663H60.4866V103.384Z" fill="black"/>
<path d="M64.7644 103.384H60.4858V107.663H64.7644V103.384Z" fill="black"/>
<path d="M73.3215 103.384H69.043V107.663H73.3215V103.384Z" fill="black"/>
<path d="M77.6003 103.384H73.3218V107.663H77.6003V103.384Z" fill="black"/>
<path d="M86.1575 103.384H81.8789V107.663H86.1575V103.384Z" fill="black"/>
<path d="M94.7146 103.384H90.436V107.663H94.7146V103.384Z" fill="black"/>
<path d="M98.9929 103.384H94.7144V107.663H98.9929V103.384Z" fill="black"/>
<path d="M107.55 103.384H103.271V107.663H107.55V103.384Z" fill="black"/>
<path d="M116.107 103.384H111.829V107.663H116.107V103.384Z" fill="black"/>
<path d="M120.386 103.384H116.107V107.663H120.386V103.384Z" fill="black"/>
<path d="M128.943 103.384H124.664V107.663H128.943V103.384Z" fill="black"/>
<path d="M137.5 103.384H133.222V107.663H137.5V103.384Z" fill="black"/>
<path d="M163.171 103.384H158.893V107.663H163.171V103.384Z" fill="black"/>
<path d="M167.449 103.384H163.171V107.663H167.449V103.384Z" fill="black"/>
<path d="M176.007 103.384H171.728V107.663H176.007V103.384Z" fill="black"/>
<path d="M184.564 103.384H180.286V107.663H184.564V103.384Z" fill="black"/>
<path d="M188.843 103.384H184.564V107.663H188.843V103.384Z" fill="black"/>
<path d="M197.4 103.384H193.121V107.663H197.4V103.384Z" fill="black"/>
<path d="M201.678 103.384H197.4V107.663H201.678V103.384Z" fill="black"/>
<path d="M13.4216 107.668H9.14307V111.947H13.4216V107.668Z" fill="black"/>
<path d="M21.9787 107.668H17.7002V111.947H21.9787V107.668Z" fill="black"/>
<path d="M26.2576 107.668H21.979V111.947H26.2576V107.668Z" fill="black"/>
<path d="M30.5359 107.668H26.2573V111.947H30.5359V107.668Z" fill="black"/>
<path d="M47.6501 107.668H43.3716V111.947H47.6501V107.668Z" fill="black"/>
<path d="M51.9289 107.668H47.6504V111.947H51.9289V107.668Z" fill="black"/>
<path d="M60.4866 107.668H56.208V111.947H60.4866V107.668Z" fill="black"/>
<path d="M73.3215 107.668H69.043V111.947H73.3215V107.668Z" fill="black"/>
<path d="M86.1575 107.668H81.8789V111.947H86.1575V107.668Z" fill="black"/>
<path d="M94.7146 107.668H90.436V111.947H94.7146V107.668Z" fill="black"/>
<path d="M98.9929 107.668H94.7144V111.947H98.9929V107.668Z" fill="black"/>
<path d="M116.107 107.668H111.829V111.947H116.107V107.668Z" fill="black"/>
<path d="M124.664 107.668H120.386V111.947H124.664V107.668Z" fill="black"/>
<path d="M137.5 107.668H133.222V111.947H137.5V107.668Z" fill="black"/>
<path d="M146.056 107.668H141.778V111.947H146.056V107.668Z" fill="black"/>
<path d="M158.892 107.668H154.614V111.947H158.892V107.668Z" fill="black"/>
<path d="M167.449 107.668H163.171V111.947H167.449V107.668Z" fill="black"/>
<path d="M184.564 107.668H180.286V111.947H184.564V107.668Z" fill="black"/>
<path d="M188.843 107.668H184.564V111.947H188.843V107.668Z" fill="black"/>
<path d="M13.4216 111.941H9.14307V116.219H13.4216V111.941Z" fill="black"/>
<path d="M30.5359 111.941H26.2573V116.219H30.5359V111.941Z" fill="black"/>
<path d="M34.8142 111.941H30.5356V116.219H34.8142V111.941Z" fill="black"/>
<path d="M39.0935 111.941H34.8149V116.219H39.0935V111.941Z" fill="black"/>
<path d="M43.3718 111.941H39.0933V116.219H43.3718V111.941Z" fill="black"/>
<path d="M47.6501 111.941H43.3716V116.219H47.6501V111.941Z" fill="black"/>
<path d="M56.2068 111.941H51.9282V116.219H56.2068V111.941Z" fill="black"/>
<path d="M60.4866 111.941H56.208V116.219H60.4866V111.941Z" fill="black"/>
<path d="M73.3215 111.941H69.043V116.219H73.3215V111.941Z" fill="black"/>
<path d="M81.8782 111.941H77.5996V116.219H81.8782V111.941Z" fill="black"/>
<path d="M90.4358 111.941H86.1572V116.219H90.4358V111.941Z" fill="black"/>
<path d="M94.7146 111.941H90.436V116.219H94.7146V111.941Z" fill="black"/>
<path d="M98.9929 111.941H94.7144V116.219H98.9929V111.941Z" fill="black"/>
<path d="M103.272 111.941H98.9932V116.219H103.272V111.941Z" fill="black"/>
<path d="M107.55 111.941H103.271V116.219H107.55V111.941Z" fill="black"/>
<path d="M111.828 111.941H107.55V116.219H111.828V111.941Z" fill="black"/>
<path d="M116.107 111.941H111.829V116.219H116.107V111.941Z" fill="black"/>
<path d="M120.385 111.941H116.106V116.219H120.385V111.941Z" fill="black"/>
<path d="M124.664 111.941H120.386V116.219H124.664V111.941Z" fill="black"/>
<path d="M128.943 111.941H124.664V116.219H128.943V111.941Z" fill="black"/>
<path d="M137.5 111.941H133.222V116.219H137.5V111.941Z" fill="black"/>
<path d="M141.779 111.941H137.5V116.219H141.779V111.941Z" fill="black"/>
<path d="M146.056 111.941H141.778V116.219H146.056V111.941Z" fill="black"/>
<path d="M154.614 111.941H150.335V116.219H154.614V111.941Z" fill="black"/>
<path d="M167.449 111.941H163.171V116.219H167.449V111.941Z" fill="black"/>
<path d="M171.728 111.941H167.45V116.219H171.728V111.941Z" fill="black"/>
<path d="M176.007 111.941H171.728V116.219H176.007V111.941Z" fill="black"/>
<path d="M180.285 111.941H176.006V116.219H180.285V111.941Z" fill="black"/>
<path d="M184.564 111.941H180.286V116.219H184.564V111.941Z" fill="black"/>
<path d="M188.843 111.941H184.564V116.219H188.843V111.941Z" fill="black"/>
<path d="M197.4 111.941H193.121V116.219H197.4V111.941Z" fill="black"/>
<path d="M13.4216 116.222H9.14307V120.5H13.4216V116.222Z" fill="black"/>
<path d="M21.9787 116.222H17.7002V120.5H21.9787V116.222Z" fill="black"/>
<path d="M30.5359 116.222H26.2573V120.5H30.5359V116.222Z" fill="black"/>
<path d="M43.3718 116.222H39.0933V120.5H43.3718V116.222Z" fill="black"/>
<path d="M47.6501 116.222H43.3716V120.5H47.6501V116.222Z" fill="black"/>
<path d="M51.9289 116.222H47.6504V120.5H51.9289V116.222Z" fill="black"/>
<path d="M64.7644 116.222H60.4858V120.5H64.7644V116.222Z" fill="black"/>
<path d="M69.0432 116.222H64.7646V120.5H69.0432V116.222Z" fill="black"/>
<path d="M94.7146 116.222H90.436V120.5H94.7146V116.222Z" fill="black"/>
<path d="M107.55 116.222H103.271V120.5H107.55V116.222Z" fill="black"/>
<path d="M120.385 116.222H116.106V120.5H120.385V116.222Z" fill="black"/>
<path d="M124.664 116.222H120.386V120.5H124.664V116.222Z" fill="black"/>
<path d="M128.943 116.222H124.664V120.5H128.943V116.222Z" fill="black"/>
<path d="M146.056 116.222H141.778V120.5H146.056V116.222Z" fill="black"/>
<path d="M150.336 116.222H146.057V120.5H150.336V116.222Z" fill="black"/>
<path d="M154.614 116.222H150.335V120.5H154.614V116.222Z" fill="black"/>
<path d="M163.171 116.222H158.893V120.5H163.171V116.222Z" fill="black"/>
<path d="M171.728 116.222H167.45V120.5H171.728V116.222Z" fill="black"/>
<path d="M176.007 116.222H171.728V120.5H176.007V116.222Z" fill="black"/>
<path d="M180.285 116.222H176.006V120.5H180.285V116.222Z" fill="black"/>
<path d="M188.843 116.222H184.564V120.5H188.843V116.222Z" fill="black"/>
<path d="M13.4226 120.499H9.14404V124.778H13.4226V120.499Z" fill="black"/>
<path d="M30.5359 120.499H26.2573V124.778H30.5359V120.499Z" fill="black"/>
<path d="M34.8142 120.499H30.5356V124.778H34.8142V120.499Z" fill="black"/>
<path d="M39.0935 120.499H34.8149V124.778H39.0935V120.499Z" fill="black"/>
<path d="M64.7644 120.499H60.4858V124.778H64.7644V120.499Z" fill="black"/>
<path d="M73.322 120.499H69.0435V124.778H73.322V120.499Z" fill="black"/>
<path d="M90.4358 120.499H86.1572V124.778H90.4358V120.499Z" fill="black"/>
<path d="M94.7146 120.499H90.436V124.778H94.7146V120.499Z" fill="black"/>
<path d="M98.9929 120.499H94.7144V124.778H98.9929V120.499Z" fill="black"/>
<path d="M103.271 120.499H98.9922V124.778H103.271V120.499Z" fill="black"/>
<path d="M107.55 120.499H103.271V124.778H107.55V120.499Z" fill="black"/>
<path d="M111.829 120.499H107.55V124.778H111.829V120.499Z" fill="black"/>
<path d="M116.107 120.499H111.829V124.778H116.107V120.499Z" fill="black"/>
<path d="M120.386 120.499H116.107V124.778H120.386V120.499Z" fill="black"/>
<path d="M124.664 120.499H120.386V124.778H124.664V120.499Z" fill="black"/>
<path d="M128.943 120.499H124.664V124.778H128.943V120.499Z" fill="black"/>
<path d="M133.221 120.499H128.942V124.778H133.221V120.499Z" fill="black"/>
<path d="M154.614 120.499H150.335V124.778H154.614V120.499Z" fill="black"/>
<path d="M167.449 120.499H163.171V124.778H167.449V120.499Z" fill="black"/>
<path d="M34.8142 124.786H30.5356V129.065H34.8142V124.786Z" fill="black"/>
<path d="M60.4866 124.786H56.208V129.065H60.4866V124.786Z" fill="black"/>
<path d="M64.7644 124.786H60.4858V129.065H64.7644V124.786Z" fill="black"/>
<path d="M90.4358 124.786H86.1572V129.065H90.4358V124.786Z" fill="black"/>
<path d="M103.272 124.786H98.9932V129.065H103.272V124.786Z" fill="black"/>
<path d="M111.828 124.786H107.55V129.065H111.828V124.786Z" fill="black"/>
<path d="M116.107 124.786H111.829V129.065H116.107V124.786Z" fill="black"/>
<path d="M120.385 124.786H116.106V129.065H120.385V124.786Z" fill="black"/>
<path d="M133.221 124.786H128.942V129.065H133.221V124.786Z" fill="black"/>
<path d="M137.5 124.786H133.222V129.065H137.5V124.786Z" fill="black"/>
<path d="M141.779 124.786H137.5V129.065H141.779V124.786Z" fill="black"/>
<path d="M154.614 124.786H150.335V129.065H154.614V124.786Z" fill="black"/>
<path d="M158.892 124.786H154.614V129.065H158.892V124.786Z" fill="black"/>
<path d="M163.171 124.786H158.893V129.065H163.171V124.786Z" fill="black"/>
<path d="M167.449 124.786H163.171V129.065H167.449V124.786Z" fill="black"/>
<path d="M180.285 124.786H176.007V129.065H180.285V124.786Z" fill="black"/>
<path d="M193.121 124.786H188.842V129.065H193.121V124.786Z" fill="black"/>
<path d="M13.4216 129.061H9.14307V133.34H13.4216V129.061Z" fill="black"/>
<path d="M17.7004 129.061H13.4219V133.34H17.7004V129.061Z" fill="black"/>
<path d="M26.2576 129.061H21.979V133.34H26.2576V129.061Z" fill="black"/>
<path d="M30.5359 129.061H26.2573V133.34H30.5359V129.061Z" fill="black"/>
<path d="M39.0935 129.061H34.8149V133.34H39.0935V129.061Z" fill="black"/>
<path d="M43.3718 129.061H39.0933V133.34H43.3718V129.061Z" fill="black"/>
<path d="M56.2068 129.061H51.9282V133.34H56.2068V129.061Z" fill="black"/>
<path d="M60.4866 129.061H56.208V133.34H60.4866V129.061Z" fill="black"/>
<path d="M64.7644 129.061H60.4858V133.34H64.7644V129.061Z" fill="black"/>
<path d="M69.0432 129.061H64.7646V133.34H69.0432V129.061Z" fill="black"/>
<path d="M73.322 129.061H69.0435V133.34H73.322V129.061Z" fill="black"/>
<path d="M86.1575 129.061H81.8789V133.34H86.1575V129.061Z" fill="black"/>
<path d="M98.9929 129.061H94.7144V133.34H98.9929V129.061Z" fill="black"/>
<path d="M116.107 129.061H111.829V133.34H116.107V129.061Z" fill="black"/>
<path d="M120.385 129.061H116.106V133.34H120.385V129.061Z" fill="black"/>
<path d="M124.664 129.061H120.386V133.34H124.664V129.061Z" fill="black"/>
<path d="M146.057 129.061H141.778V133.34H146.057V129.061Z" fill="black"/>
<path d="M150.336 129.061H146.057V133.34H150.336V129.061Z" fill="black"/>
<path d="M163.171 129.061H158.893V133.34H163.171V129.061Z" fill="black"/>
<path d="M180.285 129.061H176.006V133.34H180.285V129.061Z" fill="black"/>
<path d="M184.564 129.061H180.286V133.34H184.564V129.061Z" fill="black"/>
<path d="M188.843 129.061H184.564V133.34H188.843V129.061Z" fill="black"/>
<path d="M193.121 129.061H188.842V133.34H193.121V129.061Z" fill="black"/>
<path d="M197.4 129.061H193.121V133.34H197.4V129.061Z" fill="black"/>
<path d="M201.678 129.061H197.4V133.34H201.678V129.061Z" fill="black"/>
<path d="M26.2576 133.336H21.979V137.615H26.2576V133.336Z" fill="black"/>
<path d="M30.5359 133.336H26.2573V137.615H30.5359V133.336Z" fill="black"/>
<path d="M34.8152 133.336H30.5366V137.615H34.8152V133.336Z" fill="black"/>
<path d="M47.6501 133.336H43.3716V137.615H47.6501V133.336Z" fill="black"/>
<path d="M51.9289 133.336H47.6504V137.615H51.9289V133.336Z" fill="black"/>
<path d="M73.322 133.336H69.0435V137.615H73.322V133.336Z" fill="black"/>
<path d="M86.1575 133.336H81.8789V137.615H86.1575V133.336Z" fill="black"/>
<path d="M90.4358 133.336H86.1572V137.615H90.4358V133.336Z" fill="black"/>
<path d="M94.7146 133.336H90.436V137.615H94.7146V133.336Z" fill="black"/>
<path d="M98.9929 133.336H94.7144V137.615H98.9929V133.336Z" fill="black"/>
<path d="M103.272 133.336H98.9932V137.615H103.272V133.336Z" fill="black"/>
<path d="M111.828 133.336H107.55V137.615H111.828V133.336Z" fill="black"/>
<path d="M116.107 133.336H111.829V137.615H116.107V133.336Z" fill="black"/>
<path d="M128.943 133.336H124.664V137.615H128.943V133.336Z" fill="black"/>
<path d="M158.892 133.336H154.614V137.615H158.892V133.336Z" fill="black"/>
<path d="M167.449 133.336H163.171V137.615H167.449V133.336Z" fill="black"/>
<path d="M171.728 133.336H167.45V137.615H171.728V133.336Z" fill="black"/>
<path d="M176.007 133.336H171.728V137.615H176.007V133.336Z" fill="black"/>
<path d="M180.285 133.336H176.006V137.615H180.285V133.336Z" fill="black"/>
<path d="M184.564 133.336H180.285V137.615H184.564V133.336Z" fill="black"/>
<path d="M188.843 133.336H184.564V137.615H188.843V133.336Z" fill="black"/>
<path d="M197.4 133.336H193.121V137.615H197.4V133.336Z" fill="black"/>
<path d="M17.7004 137.617H13.4219V141.896H17.7004V137.617Z" fill="black"/>
<path d="M34.8142 137.617H30.5356V141.896H34.8142V137.617Z" fill="black"/>
<path d="M39.0935 137.617H34.8149V141.896H39.0935V137.617Z" fill="black"/>
<path d="M56.2068 137.617H51.9282V141.896H56.2068V137.617Z" fill="black"/>
<path d="M73.322 137.617H69.0435V141.896H73.322V137.617Z" fill="black"/>
<path d="M77.6003 137.617H73.3218V141.896H77.6003V137.617Z" fill="black"/>
<path d="M86.1575 137.617H81.8789V141.896H86.1575V137.617Z" fill="black"/>
<path d="M94.7146 137.617H90.436V141.896H94.7146V137.617Z" fill="black"/>
<path d="M111.829 137.617H107.55V141.896H111.829V137.617Z" fill="black"/>
<path d="M128.943 137.617H124.664V141.896H128.943V137.617Z" fill="black"/>
<path d="M137.5 137.617H133.222V141.896H137.5V137.617Z" fill="black"/>
<path d="M146.057 137.617H141.778V141.896H146.057V137.617Z" fill="black"/>
<path d="M158.892 137.617H154.614V141.896H158.892V137.617Z" fill="black"/>
<path d="M180.285 137.617H176.006V141.896H180.285V137.617Z" fill="black"/>
<path d="M188.843 137.617H184.564V141.896H188.843V137.617Z" fill="black"/>
<path d="M193.121 137.617H188.842V141.896H193.121V137.617Z" fill="black"/>
<path d="M197.4 137.617H193.121V141.896H197.4V137.617Z" fill="black"/>
<path d="M17.7004 141.889H13.4219V146.168H17.7004V141.889Z" fill="black"/>
<path d="M21.9787 141.889H17.7002V146.168H21.9787V141.889Z" fill="black"/>
<path d="M34.8142 141.889H30.5356V146.168H34.8142V141.889Z" fill="black"/>
<path d="M47.6501 141.889H43.3716V146.168H47.6501V141.889Z" fill="black"/>
<path d="M56.2068 141.889H51.9282V146.168H56.2068V141.889Z" fill="black"/>
<path d="M64.7644 141.889H60.4858V146.168H64.7644V141.889Z" fill="black"/>
<path d="M69.0432 141.889H64.7646V146.168H69.0432V141.889Z" fill="black"/>
<path d="M73.322 141.889H69.0435V146.168H73.322V141.889Z" fill="black"/>
<path d="M77.6003 141.889H73.3218V146.168H77.6003V141.889Z" fill="black"/>
<path d="M86.1575 141.889H81.8789V146.168H86.1575V141.889Z" fill="black"/>
<path d="M94.7146 141.889H90.436V146.168H94.7146V141.889Z" fill="black"/>
<path d="M111.828 141.889H107.55V146.168H111.828V141.889Z" fill="black"/>
<path d="M120.385 141.889H116.106V146.168H120.385V141.889Z" fill="black"/>
<path d="M124.664 141.889H120.386V146.168H124.664V141.889Z" fill="black"/>
<path d="M133.221 141.889H128.942V146.168H133.221V141.889Z" fill="black"/>
<path d="M137.5 141.889H133.222V146.168H137.5V141.889Z" fill="black"/>
<path d="M197.4 141.889H193.121V146.168H197.4V141.889Z" fill="black"/>
<path d="M201.678 141.889H197.4V146.168H201.678V141.889Z" fill="black"/>
<path d="M13.4216 146.176H9.14307V150.455H13.4216V146.176Z" fill="black"/>
<path d="M39.0935 146.176H34.8149V150.455H39.0935V146.176Z" fill="black"/>
<path d="M60.4866 146.176H56.208V150.455H60.4866V146.176Z" fill="black"/>
<path d="M73.322 146.176H69.0435V150.455H73.322V146.176Z" fill="black"/>
<path d="M81.8786 146.176H77.6001V150.455H81.8786V146.176Z" fill="black"/>
<path d="M90.4358 146.176H86.1572V150.455H90.4358V146.176Z" fill="black"/>
<path d="M107.55 146.176H103.271V150.455H107.55V146.176Z" fill="black"/>
<path d="M133.221 146.176H128.942V150.455H133.221V146.176Z" fill="black"/>
<path d="M146.056 146.176H141.778V150.455H146.056V146.176Z" fill="black"/>
<path d="M180.285 146.176H176.006V150.455H180.285V146.176Z" fill="black"/>
<path d="M13.4226 150.454H9.14404V154.733H13.4226V150.454Z" fill="black"/>
<path d="M30.5359 150.454H26.2573V154.733H30.5359V150.454Z" fill="black"/>
<path d="M43.3718 150.454H39.0933V154.733H43.3718V150.454Z" fill="black"/>
<path d="M47.6501 150.454H43.3716V154.733H47.6501V150.454Z" fill="black"/>
<path d="M56.2068 150.454H51.9282V154.733H56.2068V150.454Z" fill="black"/>
<path d="M86.1575 150.454H81.8789V154.733H86.1575V150.454Z" fill="black"/>
<path d="M90.4358 150.454H86.1572V154.733H90.4358V150.454Z" fill="black"/>
<path d="M94.7146 150.454H90.436V154.733H94.7146V150.454Z" fill="black"/>
<path d="M107.55 150.454H103.271V154.733H107.55V150.454Z" fill="black"/>
<path d="M111.828 150.454H107.55V154.733H111.828V150.454Z" fill="black"/>
<path d="M116.107 150.454H111.829V154.733H116.107V150.454Z" fill="black"/>
<path d="M120.386 150.454H116.107V154.733H120.386V150.454Z" fill="black"/>
<path d="M128.943 150.454H124.664V154.733H128.943V150.454Z" fill="black"/>
<path d="M137.5 150.454H133.222V154.733H137.5V150.454Z" fill="black"/>
<path d="M141.779 150.454H137.5V154.733H141.779V150.454Z" fill="black"/>
<path d="M146.057 150.454H141.778V154.733H146.057V150.454Z" fill="black"/>
<path d="M150.336 150.454H146.057V154.733H150.336V150.454Z" fill="black"/>
<path d="M171.728 150.454H167.45V154.733H171.728V150.454Z" fill="black"/>
<path d="M180.285 150.454H176.006V154.733H180.285V150.454Z" fill="black"/>
<path d="M188.843 150.454H184.564V154.733H188.843V150.454Z" fill="black"/>
<path d="M193.121 150.454H188.842V154.733H193.121V150.454Z" fill="black"/>
<path d="M30.5359 154.73H26.2573V159.008H30.5359V154.73Z" fill="black"/>
<path d="M39.0935 154.73H34.8149V159.008H39.0935V154.73Z" fill="black"/>
<path d="M43.3708 154.73H39.0923V159.008H43.3708V154.73Z" fill="black"/>
<path d="M77.6003 154.73H73.3218V159.008H77.6003V154.73Z" fill="black"/>
<path d="M86.1575 154.73H81.8789V159.008H86.1575V154.73Z" fill="black"/>
<path d="M98.9929 154.73H94.7144V159.008H98.9929V154.73Z" fill="black"/>
<path d="M111.828 154.73H107.55V159.008H111.828V154.73Z" fill="black"/>
<path d="M124.664 154.73H120.386V159.008H124.664V154.73Z" fill="black"/>
<path d="M128.943 154.73H124.664V159.008H128.943V154.73Z" fill="black"/>
<path d="M137.5 154.73H133.222V159.008H137.5V154.73Z" fill="black"/>
<path d="M141.779 154.73H137.5V159.008H141.779V154.73Z" fill="black"/>
<path d="M150.336 154.73H146.057V159.008H150.336V154.73Z" fill="black"/>
<path d="M163.171 154.73H158.893V159.008H163.171V154.73Z" fill="black"/>
<path d="M171.729 154.73H167.45V159.008H171.729V154.73Z" fill="black"/>
<path d="M176.007 154.73H171.728V159.008H176.007V154.73Z" fill="black"/>
<path d="M184.564 154.73H180.285V159.008H184.564V154.73Z" fill="black"/>
<path d="M197.4 154.73H193.121V159.008H197.4V154.73Z" fill="black"/>
<path d="M201.678 154.73H197.4V159.008H201.678V154.73Z" fill="black"/>
<path d="M17.7004 159.01H13.4219V163.289H17.7004V159.01Z" fill="black"/>
<path d="M21.9787 159.01H17.7002V163.289H21.9787V159.01Z" fill="black"/>
<path d="M26.2576 159.01H21.979V163.289H26.2576V159.01Z" fill="black"/>
<path d="M30.5359 159.01H26.2573V163.289H30.5359V159.01Z" fill="black"/>
<path d="M43.3723 159.01H39.0938V163.289H43.3723V159.01Z" fill="black"/>
<path d="M47.6501 159.01H43.3716V163.289H47.6501V159.01Z" fill="black"/>
<path d="M51.9289 159.01H47.6504V163.289H51.9289V159.01Z" fill="black"/>
<path d="M60.4866 159.01H56.208V163.289H60.4866V159.01Z" fill="black"/>
<path d="M73.322 159.01H69.0435V163.289H73.322V159.01Z" fill="black"/>
<path d="M81.8786 159.01H77.6001V163.289H81.8786V159.01Z" fill="black"/>
<path d="M90.4358 159.01H86.1572V163.289H90.4358V159.01Z" fill="black"/>
<path d="M94.7146 159.01H90.436V163.289H94.7146V159.01Z" fill="black"/>
<path d="M103.271 159.01H98.9922V163.289H103.271V159.01Z" fill="black"/>
<path d="M107.55 159.01H103.271V163.289H107.55V159.01Z" fill="black"/>
<path d="M111.828 159.01H107.55V163.289H111.828V159.01Z" fill="black"/>
<path d="M120.385 159.01H116.106V163.289H120.385V159.01Z" fill="black"/>
<path d="M124.664 159.01H120.386V163.289H124.664V159.01Z" fill="black"/>
<path d="M146.056 159.01H141.778V163.289H146.056V159.01Z" fill="black"/>
<path d="M150.335 159.01H146.056V163.289H150.335V159.01Z" fill="black"/>
<path d="M154.614 159.01H150.335V163.289H154.614V159.01Z" fill="black"/>
<path d="M158.892 159.01H154.614V163.289H158.892V159.01Z" fill="black"/>
<path d="M163.171 159.01H158.893V163.289H163.171V159.01Z" fill="black"/>
<path d="M171.728 159.01H167.45V163.289H171.728V159.01Z" fill="black"/>
<path d="M184.564 159.01H180.286V163.289H184.564V159.01Z" fill="black"/>
<path d="M188.843 159.01H184.564V163.289H188.843V159.01Z" fill="black"/>
<path d="M13.4226 163.291H9.14404V167.57H13.4226V163.291Z" fill="black"/>
<path d="M26.2576 163.291H21.979V167.57H26.2576V163.291Z" fill="black"/>
<path d="M30.5359 163.291H26.2573V167.57H30.5359V163.291Z" fill="black"/>
<path d="M39.0935 163.291H34.8149V167.57H39.0935V163.291Z" fill="black"/>
<path d="M56.2068 163.291H51.9282V167.57H56.2068V163.291Z" fill="black"/>
<path d="M60.4866 163.291H56.208V167.57H60.4866V163.291Z" fill="black"/>
<path d="M64.7644 163.291H60.4858V167.57H64.7644V163.291Z" fill="black"/>
<path d="M69.0432 163.291H64.7646V167.57H69.0432V163.291Z" fill="black"/>
<path d="M86.1575 163.291H81.8789V167.57H86.1575V163.291Z" fill="black"/>
<path d="M90.4358 163.291H86.1572V167.57H90.4358V163.291Z" fill="black"/>
<path d="M98.9929 163.291H94.7144V167.57H98.9929V163.291Z" fill="black"/>
<path d="M103.271 163.291H98.9922V167.57H103.271V163.291Z" fill="black"/>
<path d="M107.55 163.291H103.271V167.57H107.55V163.291Z" fill="black"/>
<path d="M111.829 163.291H107.55V167.57H111.829V163.291Z" fill="black"/>
<path d="M116.107 163.291H111.829V167.57H116.107V163.291Z" fill="black"/>
<path d="M120.386 163.291H116.107V167.57H120.386V163.291Z" fill="black"/>
<path d="M128.943 163.291H124.664V167.57H128.943V163.291Z" fill="black"/>
<path d="M146.057 163.291H141.778V167.57H146.057V163.291Z" fill="black"/>
<path d="M154.614 163.291H150.335V167.57H154.614V163.291Z" fill="black"/>
<path d="M167.449 163.291H163.171V167.57H167.449V163.291Z" fill="black"/>
<path d="M171.728 163.291H167.45V167.57H171.728V163.291Z" fill="black"/>
<path d="M176.007 163.291H171.728V167.57H176.007V163.291Z" fill="black"/>
<path d="M180.285 163.291H176.006V167.57H180.285V163.291Z" fill="black"/>
<path d="M184.564 163.291H180.286V167.57H184.564V163.291Z" fill="black"/>
<path d="M193.121 163.291H188.842V167.57H193.121V163.291Z" fill="black"/>
<path d="M197.4 163.291H193.121V167.57H197.4V163.291Z" fill="black"/>
<path d="M47.6501 167.563H43.3716V171.842H47.6501V167.563Z" fill="black"/>
<path d="M51.9289 167.563H47.6504V171.842H51.9289V167.563Z" fill="black"/>
<path d="M56.2068 167.563H51.9282V171.842H56.2068V167.563Z" fill="black"/>
<path d="M98.9929 167.563H94.7144V171.842H98.9929V167.563Z" fill="black"/>
<path d="M116.107 167.563H111.829V171.842H116.107V167.563Z" fill="black"/>
<path d="M124.664 167.563H120.386V171.842H124.664V167.563Z" fill="black"/>
<path d="M128.943 167.563H124.664V171.842H128.943V167.563Z" fill="black"/>
<path d="M146.057 167.563H141.778V171.842H146.057V167.563Z" fill="black"/>
<path d="M167.449 167.563H163.171V171.842H167.449V167.563Z" fill="black"/>
<path d="M184.564 167.563H180.286V171.842H184.564V167.563Z" fill="black"/>
<path d="M47.6501 171.844H43.3716V176.123H47.6501V171.844Z" fill="black"/>
<path d="M56.2068 171.844H51.9282V176.123H56.2068V171.844Z" fill="black"/>
<path d="M64.7644 171.844H60.4858V176.123H64.7644V171.844Z" fill="black"/>
<path d="M73.322 171.844H69.0435V176.123H73.322V171.844Z" fill="black"/>
<path d="M77.5998 171.844H73.3213V176.123H77.5998V171.844Z" fill="black"/>
<path d="M98.9929 171.844H94.7144V176.123H98.9929V171.844Z" fill="black"/>
<path d="M107.55 171.844H103.271V176.123H107.55V171.844Z" fill="black"/>
<path d="M116.107 171.844H111.829V176.123H116.107V171.844Z" fill="black"/>
<path d="M124.664 171.844H120.386V176.123H124.664V171.844Z" fill="black"/>
<path d="M128.943 171.844H124.664V176.123H128.943V171.844Z" fill="black"/>
<path d="M133.221 171.844H128.942V176.123H133.221V171.844Z" fill="black"/>
<path d="M150.335 171.844H146.056V176.123H150.335V171.844Z" fill="black"/>
<path d="M163.171 171.844H158.893V176.123H163.171V171.844Z" fill="black"/>
<path d="M167.449 171.844H163.171V176.123H167.449V171.844Z" fill="black"/>
<path d="M176.007 171.844H171.728V176.123H176.007V171.844Z" fill="black"/>
<path d="M184.564 171.844H180.285V176.123H184.564V171.844Z" fill="black"/>
<path d="M197.4 171.844H193.121V176.123H197.4V171.844Z" fill="black"/>
<path d="M47.6501 176.117H43.3716V180.395H47.6501V176.117Z" fill="black"/>
<path d="M69.0432 176.117H64.7646V180.395H69.0432V176.117Z" fill="black"/>
<path d="M77.6003 176.117H73.3218V180.395H77.6003V176.117Z" fill="black"/>
<path d="M81.8786 176.117H77.6001V180.395H81.8786V176.117Z" fill="black"/>
<path d="M98.9929 176.117H94.7144V180.395H98.9929V176.117Z" fill="black"/>
<path d="M116.107 176.117H111.829V180.395H116.107V176.117Z" fill="black"/>
<path d="M120.386 176.117H116.107V180.395H120.386V176.117Z" fill="black"/>
<path d="M124.664 176.117H120.386V180.395H124.664V176.117Z" fill="black"/>
<path d="M128.943 176.117H124.664V180.395H128.943V176.117Z" fill="black"/>
<path d="M133.221 176.117H128.942V180.395H133.221V176.117Z" fill="black"/>
<path d="M141.779 176.117H137.5V180.395H141.779V176.117Z" fill="black"/>
<path d="M150.336 176.117H146.057V180.395H150.336V176.117Z" fill="black"/>
<path d="M154.614 176.117H150.335V180.395H154.614V176.117Z" fill="black"/>
<path d="M163.171 176.117H158.893V180.395H163.171V176.117Z" fill="black"/>
<path d="M167.449 176.117H163.171V180.395H167.449V176.117Z" fill="black"/>
<path d="M184.564 176.117H180.286V180.395H184.564V176.117Z" fill="black"/>
<path d="M188.843 176.117H184.564V180.395H188.843V176.117Z" fill="black"/>
<path d="M193.121 176.117H188.842V180.395H193.121V176.117Z" fill="black"/>
<path d="M197.4 176.117H193.121V180.395H197.4V176.117Z" fill="black"/>
<path d="M201.678 176.117H197.4V180.395H201.678V176.117Z" fill="black"/>
<path d="M56.2068 180.397H51.9282V184.676H56.2068V180.397Z" fill="black"/>
<path d="M60.4866 180.397H56.208V184.676H60.4866V180.397Z" fill="black"/>
<path d="M64.7644 180.397H60.4858V184.676H64.7644V180.397Z" fill="black"/>
<path d="M77.5998 180.397H73.3213V184.676H77.5998V180.397Z" fill="black"/>
<path d="M98.9929 180.397H94.7144V184.676H98.9929V180.397Z" fill="black"/>
<path d="M103.272 180.397H98.9932V184.676H103.272V180.397Z" fill="black"/>
<path d="M107.55 180.397H103.271V184.676H107.55V180.397Z" fill="black"/>
<path d="M111.829 180.397H107.55V184.676H111.829V180.397Z" fill="black"/>
<path d="M116.107 180.397H111.829V184.676H116.107V180.397Z" fill="black"/>
<path d="M120.385 180.397H116.106V184.676H120.385V180.397Z" fill="black"/>
<path d="M124.664 180.397H120.386V184.676H124.664V180.397Z" fill="black"/>
<path d="M128.943 180.397H124.664V184.676H128.943V180.397Z" fill="black"/>
<path d="M137.5 180.397H133.222V184.676H137.5V180.397Z" fill="black"/>
<path d="M141.779 180.397H137.5V184.676H141.779V180.397Z" fill="black"/>
<path d="M150.336 180.397H146.057V184.676H150.336V180.397Z" fill="black"/>
<path d="M167.449 180.397H163.171V184.676H167.449V180.397Z" fill="black"/>
<path d="M171.728 180.397H167.45V184.676H171.728V180.397Z" fill="black"/>
<path d="M176.007 180.397H171.728V184.676H176.007V180.397Z" fill="black"/>
<path d="M180.285 180.397H176.006V184.676H180.285V180.397Z" fill="black"/>
<path d="M184.564 180.397H180.286V184.676H184.564V180.397Z" fill="black"/>
<path d="M193.121 180.397H188.842V184.676H193.121V180.397Z" fill="black"/>
<path d="M197.4 180.397H193.121V184.676H197.4V180.397Z" fill="black"/>
<path d="M47.6501 184.681H43.3716V188.96H47.6501V184.681Z" fill="black"/>
<path d="M51.9289 184.681H47.6504V188.96H51.9289V184.681Z" fill="black"/>
<path d="M56.2068 184.681H51.9282V188.96H56.2068V184.681Z" fill="black"/>
<path d="M60.4866 184.681H56.208V188.96H60.4866V184.681Z" fill="black"/>
<path d="M69.0432 184.681H64.7646V188.96H69.0432V184.681Z" fill="black"/>
<path d="M81.8782 184.681H77.5996V188.96H81.8782V184.681Z" fill="black"/>
<path d="M90.4358 184.681H86.1572V188.96H90.4358V184.681Z" fill="black"/>
<path d="M94.7146 184.681H90.436V188.96H94.7146V184.681Z" fill="black"/>
<path d="M107.55 184.681H103.271V188.96H107.55V184.681Z" fill="black"/>
<path d="M116.107 184.681H111.829V188.96H116.107V184.681Z" fill="black"/>
<path d="M120.386 184.681H116.107V188.96H120.386V184.681Z" fill="black"/>
<path d="M133.221 184.681H128.942V188.96H133.221V184.681Z" fill="black"/>
<path d="M137.5 184.681H133.222V188.96H137.5V184.681Z" fill="black"/>
<path d="M154.614 184.681H150.335V188.96H154.614V184.681Z" fill="black"/>
<path d="M158.893 184.681H154.615V188.96H158.893V184.681Z" fill="black"/>
<path d="M163.171 184.681H158.893V188.96H163.171V184.681Z" fill="black"/>
<path d="M167.449 184.681H163.171V188.96H167.449V184.681Z" fill="black"/>
<path d="M184.564 184.681H180.286V188.96H184.564V184.681Z" fill="black"/>
<path d="M188.843 184.681H184.564V188.96H188.843V184.681Z" fill="black"/>
<path d="M201.678 184.681H197.4V188.96H201.678V184.681Z" fill="black"/>
<path d="M47.6501 188.956H43.3716V193.235H47.6501V188.956Z" fill="black"/>
<path d="M60.4866 188.956H56.208V193.235H60.4866V188.956Z" fill="black"/>
<path d="M69.0432 188.956H64.7646V193.235H69.0432V188.956Z" fill="black"/>
<path d="M77.6003 188.956H73.3218V193.235H77.6003V188.956Z" fill="black"/>
<path d="M81.8786 188.956H77.6001V193.235H81.8786V188.956Z" fill="black"/>
<path d="M90.4358 188.956H86.1572V193.235H90.4358V188.956Z" fill="black"/>
<path d="M116.107 188.956H111.829V193.235H116.107V188.956Z" fill="black"/>
<path d="M124.664 188.956H120.386V193.235H124.664V188.956Z" fill="black"/>
<path d="M133.221 188.956H128.942V193.235H133.221V188.956Z" fill="black"/>
<path d="M141.779 188.956H137.5V193.235H141.779V188.956Z" fill="black"/>
<path d="M146.057 188.956H141.778V193.235H146.057V188.956Z" fill="black"/>
<path d="M158.892 188.956H154.614V193.235H158.892V188.956Z" fill="black"/>
<path d="M167.449 188.956H163.171V193.235H167.449V188.956Z" fill="black"/>
<path d="M171.728 188.956H167.45V193.235H171.728V188.956Z" fill="black"/>
<path d="M188.843 188.956H184.564V193.235H188.843V188.956Z" fill="black"/>
<path d="M193.121 188.956H188.842V193.235H193.121V188.956Z" fill="black"/>
<path d="M197.4 188.956H193.121V193.235H197.4V188.956Z" fill="black"/>
<path d="M56.2068 193.241H51.9282V197.519H56.2068V193.241Z" fill="black"/>
<path d="M60.4866 193.241H56.208V197.519H60.4866V193.241Z" fill="black"/>
<path d="M64.7644 193.241H60.4858V197.519H64.7644V193.241Z" fill="black"/>
<path d="M73.322 193.241H69.0435V197.519H73.322V193.241Z" fill="black"/>
<path d="M77.6003 193.241H73.3218V197.519H77.6003V193.241Z" fill="black"/>
<path d="M81.8786 193.241H77.6001V197.519H81.8786V193.241Z" fill="black"/>
<path d="M103.272 193.241H98.9932V197.519H103.272V193.241Z" fill="black"/>
<path d="M107.55 193.241H103.271V197.519H107.55V193.241Z" fill="black"/>
<path d="M116.107 193.241H111.829V197.519H116.107V193.241Z" fill="black"/>
<path d="M124.664 193.241H120.386V197.519H124.664V193.241Z" fill="black"/>
<path d="M128.943 193.241H124.664V197.519H128.943V193.241Z" fill="black"/>
<path d="M133.221 193.241H128.942V197.519H133.221V193.241Z" fill="black"/>
<path d="M163.171 193.241H158.893V197.519H163.171V193.241Z" fill="black"/>
<path d="M171.729 193.241H167.45V197.519H171.729V193.241Z" fill="black"/>
<path d="M176.007 193.241H171.728V197.519H176.007V193.241Z" fill="black"/>
<path d="M184.564 193.241H180.285V197.519H184.564V193.241Z" fill="black"/>
<path d="M201.678 193.241H197.4V197.519H201.678V193.241Z" fill="black"/>
<path d="M47.6501 197.512H43.3716V201.791H47.6501V197.512Z" fill="black"/>
<path d="M64.7644 197.512H60.4858V201.791H64.7644V197.512Z" fill="black"/>
<path d="M73.3215 197.512H69.043V201.791H73.3215V197.512Z" fill="black"/>
<path d="M77.5998 197.512H73.3213V201.791H77.5998V197.512Z" fill="black"/>
<path d="M90.4358 197.512H86.1572V201.791H90.4358V197.512Z" fill="black"/>
<path d="M103.272 197.512H98.9932V201.791H103.272V197.512Z" fill="black"/>
<path d="M120.385 197.512H116.106V201.791H120.385V197.512Z" fill="black"/>
<path d="M124.664 197.512H120.386V201.791H124.664V197.512Z" fill="black"/>
<path d="M133.222 197.512H128.943V201.791H133.222V197.512Z" fill="black"/>
<path d="M141.779 197.512H137.5V201.791H141.779V197.512Z" fill="black"/>
<path d="M146.057 197.512H141.778V201.791H146.057V197.512Z" fill="black"/>
<path d="M158.892 197.512H154.614V201.791H158.892V197.512Z" fill="black"/>
<path d="M163.171 197.512H158.893V201.791H163.171V197.512Z" fill="black"/>
<path d="M171.728 197.512H167.45V201.791H171.728V197.512Z" fill="black"/>
<path d="M184.564 197.512H180.286V201.791H184.564V197.512Z" fill="black"/>
<path d="M34.6004 9.25223H13.6355H9.14307V13.7447V34.7096V39.2021H13.6355H34.6004H39.0929V34.7096V13.7447V9.25223H34.6004ZM34.6004 34.7096H13.6355V13.7447H34.6004V34.7096Z" fill="black"/>
<path d="M197.185 9.25223H176.22H171.728V13.7447V34.7096V39.2021H176.22H197.185H201.677V34.7096V13.7447V9.25223H197.185ZM197.185 34.7096H176.22V13.7447H197.185V34.7096Z" fill="black"/>
<path d="M34.6004 171.844H13.6355H9.14307V176.337V197.302V201.794H13.6355H34.6004H39.0929V197.302V176.337V171.844H34.6004ZM34.6004 197.302H13.6355V176.337H34.6004V197.302Z" fill="black"/>
<path d="M30.5358 17.8119H17.7002V30.6475H30.5358V17.8119Z" fill="black"/>
<path d="M193.121 17.8119H180.285V30.6475H193.121V17.8119Z" fill="black"/>
<path d="M30.5358 180.397H17.7002V193.233H30.5358V180.397Z" fill="black"/>
</g>
<defs>
<clipPath id="clip0_1617_21607">
<rect width="209.649" height="209.649" fill="white" transform="translate(0.585938 0.704544)"/>
</clipPath>
</defs>
</svg>
