<svg width="133" height="29" viewBox="0 0 133 29" fill="none" xmlns="http://www.w3.org/2000/svg">
<path d="M45.6068 22V9.42466H56.5288V22H53.7226V12.0562H48.413V22H45.6068ZM65.8415 22.3493C64.615 22.3493 63.5864 22.0582 62.7559 21.476C61.9253 20.8938 61.3004 20.1021 60.8812 19.1007C60.462 18.0916 60.2524 16.9621 60.2524 15.7123C60.2524 14.447 60.462 13.3137 60.8812 12.3123C61.3004 11.311 61.9136 10.5231 62.7209 9.94863C63.536 9.36644 64.5412 9.07534 65.7367 9.07534C66.9243 9.07534 67.9529 9.36644 68.8223 9.94863C69.6995 10.5231 70.3787 11.311 70.86 12.3123C71.3412 13.3059 71.5819 14.4393 71.5819 15.7123C71.5819 16.9699 71.3451 18.0993 70.8716 19.1007C70.3981 20.1021 69.7305 20.8938 68.8689 21.476C68.0072 22.0582 66.9981 22.3493 65.8415 22.3493ZM59.775 27.589V9.42466H62.2552V18.2507H62.6045V27.589H59.775ZM65.4106 19.8342C66.1403 19.8342 66.7419 19.6518 67.2154 19.287C67.689 18.9221 68.0383 18.4292 68.2634 17.8082C68.4963 17.1795 68.6127 16.4808 68.6127 15.7123C68.6127 14.9516 68.4963 14.2607 68.2634 13.6397C68.0305 13.011 67.6696 12.5142 67.1805 12.1493C66.6915 11.7767 66.0705 11.5904 65.3175 11.5904C64.6033 11.5904 64.0212 11.7651 63.5709 12.1144C63.1207 12.4559 62.7869 12.9372 62.5696 13.5582C62.36 14.1715 62.2552 14.8895 62.2552 15.7123C62.2552 16.5274 62.36 17.2454 62.5696 17.8664C62.7869 18.4874 63.1246 18.9726 63.5826 19.3219C64.0483 19.6635 64.6577 19.8342 65.4106 19.8342ZM79.7026 22.3493C78.445 22.3493 77.3466 22.066 76.4073 21.4993C75.4681 20.9326 74.7384 20.1525 74.2183 19.1589C73.706 18.1575 73.4498 17.0087 73.4498 15.7123C73.4498 14.3927 73.7137 13.2361 74.2416 12.2425C74.7694 11.2489 75.503 10.4726 76.4423 9.9137C77.3815 9.35479 78.4683 9.07534 79.7026 9.07534C80.9678 9.07534 82.0701 9.35868 83.0094 9.92534C83.9487 10.492 84.6783 11.276 85.1984 12.2774C85.7185 13.271 85.9786 14.416 85.9786 15.7123C85.9786 17.0164 85.7147 18.1692 85.1868 19.1705C84.6667 20.1642 83.937 20.9443 82.9978 21.511C82.0585 22.0699 80.9601 22.3493 79.7026 22.3493ZM79.7026 19.7178C80.8204 19.7178 81.651 19.3452 82.1943 18.6C82.7377 17.8548 83.0094 16.8922 83.0094 15.7123C83.0094 14.4936 82.7338 13.5233 82.1827 12.8014C81.6315 12.0717 80.8048 11.7068 79.7026 11.7068C78.9496 11.7068 78.3286 11.8776 77.8395 12.2192C77.3583 12.553 77.0012 13.0226 76.7683 13.6281C76.5354 14.2258 76.419 14.9205 76.419 15.7123C76.419 16.931 76.6946 17.9053 77.2457 18.6349C77.8046 19.3568 78.6236 19.7178 79.7026 19.7178ZM87.6125 24.7945V19.7993C88.2956 19.7993 88.7808 19.5664 89.068 19.1007C89.3552 18.6349 89.5842 17.8276 89.755 16.6788C89.8637 15.9957 89.9529 15.2737 90.0228 14.513C90.0927 13.7523 90.1509 12.9489 90.1975 12.1027C90.2518 11.2566 90.2984 10.3639 90.3372 9.42466H99.6988V19.7993H100.968V24.7945H98.3132V22H90.2557V24.7945H87.6125ZM91.3735 19.7993H96.9043V11.6253H92.794C92.7708 12.0911 92.7436 12.5685 92.7125 13.0575C92.6815 13.5388 92.6466 14.0201 92.6077 14.5014C92.5689 14.9826 92.5262 15.4445 92.4797 15.887C92.4408 16.3217 92.3943 16.7253 92.3399 17.0979C92.2545 17.75 92.1497 18.2856 92.0255 18.7048C91.9013 19.124 91.684 19.4888 91.3735 19.7993ZM108.858 22.3493C107.6 22.3493 106.502 22.066 105.562 21.4993C104.623 20.9326 103.893 20.1525 103.373 19.1589C102.861 18.1575 102.605 17.0087 102.605 15.7123C102.605 14.3927 102.869 13.2361 103.397 12.2425C103.925 11.2489 104.658 10.4726 105.597 9.9137C106.537 9.35479 107.623 9.07534 108.858 9.07534C110.123 9.07534 111.225 9.35868 112.164 9.92534C113.104 10.492 113.833 11.276 114.354 12.2774C114.874 13.271 115.134 14.416 115.134 15.7123C115.134 17.0164 114.87 18.1692 114.342 19.1705C113.822 20.1642 113.092 20.9443 112.153 21.511C111.214 22.0699 110.115 22.3493 108.858 22.3493ZM108.858 19.7178C109.975 19.7178 110.806 19.3452 111.349 18.6C111.893 17.8548 112.164 16.8922 112.164 15.7123C112.164 14.4936 111.889 13.5233 111.338 12.8014C110.787 12.0717 109.96 11.7068 108.858 11.7068C108.105 11.7068 107.484 11.8776 106.995 12.2192C106.513 12.553 106.156 13.0226 105.923 13.6281C105.691 14.2258 105.574 14.9205 105.574 15.7123C105.574 16.931 105.85 17.9053 106.401 18.6349C106.96 19.3568 107.779 19.7178 108.858 19.7178ZM117.676 22V9.42466H119.981L124.487 18.111L129.005 9.42466H131.299V22H128.621V15.0719L125.046 22H123.94L120.366 15.0719V22H117.676Z" fill="#212121"/>
<path d="M5.44068 26.9064C3.42719 26.9064 1.79493 25.2742 1.79495 23.2607L1.79502 11.3643C1.79502 10.6076 2.10857 9.88826 2.62754 9.41691L10.1959 2.65671C10.9743 1.96209 12.0663 1.96209 12.8556 2.65671L20.4239 9.40449C20.9537 9.87584 21.2565 10.5952 21.2565 11.3643V26.9064" fill="white"/>
<path d="M1.79502 11.3643L1.79495 23.2607C1.79493 25.2742 3.42719 26.9064 5.44068 26.9064H21.2565V11.3643C21.2565 10.5952 20.9537 9.87584 20.4239 9.40449L12.8556 2.65671C12.0663 1.96209 10.9743 1.96209 10.1959 2.65671L2.62754 9.41691C2.10857 9.88826 1.79502 10.6076 1.79502 11.3643Z" stroke="#212121" stroke-width="2.58752" stroke-miterlimit="10" stroke-linejoin="round"/>
<path d="M26.5573 26.9064C27.0496 26.9064 27.4487 26.5073 27.4487 26.015L27.4486 11.3643C27.4486 10.6076 27.1351 9.88826 26.6161 9.41691L19.0478 2.65671C18.2693 1.96209 17.1773 1.96209 16.388 2.65671L8.81971 9.40449C8.28992 9.87584 7.98719 10.5952 7.98719 11.3643V26.9064" fill="white"/>
<path d="M27.4486 11.3643L27.4487 26.015C27.4487 26.5073 27.0496 26.9064 26.5573 26.9064H7.98719V11.3643C7.98719 10.5952 8.28992 9.87584 8.81971 9.40449L16.388 2.65671C17.1773 1.96209 18.2693 1.96209 19.0478 2.65671L26.6161 9.41691C27.1351 9.88826 27.4486 10.6076 27.4486 11.3643Z" stroke="#212121" stroke-width="2.58752" stroke-miterlimit="10" stroke-linejoin="round"/>
</svg>
