<?xml version="1.0" encoding="utf-8"?><svg viewBox="0 0 502.66 502.66" xmlns="http://www.w3.org/2000/svg" xmlns:xlink="http://www.w3.org/1999/xlink"><style>:root>svg{display:none}:root>svg:target{display:block}</style><svg viewBox="0 0 16 16" id="alarm" xmlns="http://www.w3.org/2000/svg"><path fill-rule="evenodd" clip-rule="evenodd" d="M.585 14.667c0-.413.335-.748.748-.748h13.333a.748.748 0 010 1.495H1.333a.748.748 0 01-.748-.747z"/><path fill-rule="evenodd" clip-rule="evenodd" d="M1.252 10a6.748 6.748 0 0113.496 0v4.667a.748.748 0 01-.748.747H2a.748.748 0 01-.748-.747V10zM8 4.748A5.253 5.253 0 002.748 10v3.919h10.504V10c0-2.9-2.352-5.252-5.252-5.252zM8 .586c.413 0 .747.334.747.747V2a.748.748 0 11-1.495 0v-.667c0-.413.335-.747.748-.747z"/><path fill-rule="evenodd" clip-rule="evenodd" d="M2.138 2.138a.748.748 0 011.057 0l.667.667a.748.748 0 11-1.057 1.057l-.667-.667a.748.748 0 010-1.057zm11.724 0a.748.748 0 010 1.057l-.667.667a.748.748 0 11-1.057-1.057l.667-.667a.748.748 0 011.057 0z"/></svg><svg viewBox="0 0 20 20" id="call" xmlns="http://www.w3.org/2000/svg"><path d="M1 15.88c0 .306.068.621.213.927.145.306.332.595.579.867.417.459.876.79 1.396 1.003a4.28 4.28 0 001.66.323c.868 0 1.796-.204 2.775-.62a14.957 14.957 0 002.928-1.683 24.46 24.46 0 002.793-2.38 24.167 24.167 0 002.375-2.78c.698-.969 1.26-1.938 1.668-2.899.409-.968.613-1.895.613-2.779 0-.578-.102-1.13-.306-1.64a3.913 3.913 0 00-.98-1.42C16.17 2.264 15.575 2 14.945 2c-.238 0-.477.051-.69.153a1.387 1.387 0 00-.57.476l-1.975 2.78a2.904 2.904 0 00-.34.595 1.34 1.34 0 00-.12.518c0 .204.06.408.18.603.11.196.272.4.476.604l.647.671a.454.454 0 01.136.34.772.772 0 01-.026.196c-.025.068-.05.119-.068.17-.153.28-.417.646-.791 1.088a29.14 29.14 0 01-1.235 1.343c-.46.45-.902.867-1.353 1.25-.443.373-.809.628-1.098.781-.043.018-.094.043-.154.069a.589.589 0 01-.212.034.469.469 0 01-.35-.145l-.646-.637a2.611 2.611 0 00-.613-.476 1.135 1.135 0 00-.605-.179 1.36 1.36 0 00-.519.11 3.294 3.294 0 00-.596.332l-2.818 1.998a1.29 1.29 0 00-.468.543A1.742 1.742 0 001 15.88z"/></svg><svg viewBox="0 0 16 16" id="check-down" xmlns="http://www.w3.org/2000/svg"><path fill-rule="evenodd" clip-rule="evenodd" d="M13.578 4.306c.383.32.435.889.116 1.272l-5 6a.903.903 0 01-1.388 0l-5-6a.903.903 0 111.388-1.156L8 9.589l4.306-5.167a.903.903 0 011.272-.116z"/></svg><svg viewBox="0 0 502.664 502.664" id="icon" xmlns="http://www.w3.org/2000/svg"><path d="M153.821 358.226L0 274.337v-46.463l153.821-83.414v54.574L46.636 250.523l107.185 53.431v54.272zm26.273 29.358L282.103 115.08h32.227L212.084 387.584h-31.99zm168.749-29.358v-54.272l107.164-52.999-107.164-52.59v-53.927l153.821 83.522v46.183l-153.821 84.083z"/></svg><svg viewBox="0 0 17 17" id="tick" xmlns="http://www.w3.org/2000/svg"><path fill-rule="evenodd" clip-rule="evenodd" d="M12.594 3.364a.87.87 0 01.042 1.23l-4.67 5a.87.87 0 01-1.272 0l-2.33-2.5a.87.87 0 011.272-1.187l1.695 1.818 4.033-4.319a.87.87 0 011.23-.042zm0 6a.87.87 0 01.042 1.23l-4.67 5a.87.87 0 01-1.272 0l-2.33-2.5a.87.87 0 011.272-1.187l1.695 1.818 4.033-4.319a.87.87 0 011.23-.042z"/></svg></svg>