<?xml version="1.0" encoding="utf-8"?><svg viewBox="0 0 45 40" xmlns="http://www.w3.org/2000/svg" xmlns:xlink="http://www.w3.org/1999/xlink"><style>:root>svg{display:none}:root>svg:target{display:block}</style><svg viewBox="0 0 16 16" id="alarm" xmlns="http://www.w3.org/2000/svg"><path fill-rule="evenodd" clip-rule="evenodd" d="M.585 14.667c0-.413.335-.748.748-.748h13.333a.748.748 0 010 1.495H1.333a.748.748 0 01-.748-.747z"/><path fill-rule="evenodd" clip-rule="evenodd" d="M1.252 10a6.748 6.748 0 0113.496 0v4.667a.748.748 0 01-.748.747H2a.748.748 0 01-.748-.747V10zM8 4.748A5.253 5.253 0 002.748 10v3.919h10.504V10c0-2.9-2.352-5.252-5.252-5.252zM8 .586c.413 0 .747.334.747.747V2a.748.748 0 11-1.495 0v-.667c0-.413.335-.747.748-.747z"/><path fill-rule="evenodd" clip-rule="evenodd" d="M2.138 2.138a.748.748 0 011.057 0l.667.667a.748.748 0 11-1.057 1.057l-.667-.667a.748.748 0 010-1.057zm11.724 0a.748.748 0 010 1.057l-.667.667a.748.748 0 11-1.057-1.057l.667-.667a.748.748 0 011.057 0z"/></svg><svg viewBox="0 0 23 22" id="arrow-left" xmlns="http://www.w3.org/2000/svg"><path d="M12.836 17.998a.808.808 0 00.544-.213.916.916 0 00.21-.28.989.989 0 00.06-.708.958.958 0 00-.16-.318l-3.807-4.966 3.672-4.976a.957.957 0 00.155-.32 1.008 1.008 0 00-.07-.708.913.913 0 00-.213-.278.835.835 0 00-.302-.187.784.784 0 00-.677.076.876.876 0 00-.262.25l-4.105 5.559a.979.979 0 00-.193.588.98.98 0 00.193.589l4.25 5.559c.085.112.193.2.316.259a.788.788 0 00.39.074z"/></svg><svg viewBox="0 0 45 33" id="barriers" xmlns="http://www.w3.org/2000/svg"><path d="M1.274 31.612h16.509M3.532 7.398a5.997 5.997 0 0111.995 0V31.6H3.532V7.398z"/><path d="M41.131 7.62a2.718 2.718 0 012.719 2.718v.848a2.718 2.718 0 01-2.719 2.718H11.054a2.718 2.718 0 01-2.719-2.718v-.848a2.718 2.718 0 012.719-2.719H41.13z"/></svg><svg viewBox="0 0 20 20" id="call" xmlns="http://www.w3.org/2000/svg"><path d="M1 15.88c0 .306.068.621.213.927.145.306.332.595.579.867.417.459.876.79 1.396 1.003a4.28 4.28 0 001.66.323c.868 0 1.796-.204 2.775-.62a14.957 14.957 0 002.928-1.683 24.46 24.46 0 002.793-2.38 24.167 24.167 0 002.375-2.78c.698-.969 1.26-1.938 1.668-2.899.409-.968.613-1.895.613-2.779 0-.578-.102-1.13-.306-1.64a3.913 3.913 0 00-.98-1.42C16.17 2.264 15.575 2 14.945 2c-.238 0-.477.051-.69.153a1.387 1.387 0 00-.57.476l-1.975 2.78a2.904 2.904 0 00-.34.595 1.34 1.34 0 00-.12.518c0 .204.06.408.18.603.11.196.272.4.476.604l.647.671a.454.454 0 01.136.34.772.772 0 01-.026.196c-.025.068-.05.119-.068.17-.153.28-.417.646-.791 1.088a29.14 29.14 0 01-1.235 1.343c-.46.45-.902.867-1.353 1.25-.443.373-.809.628-1.098.781-.043.018-.094.043-.154.069a.589.589 0 01-.212.034.469.469 0 01-.35-.145l-.646-.637a2.611 2.611 0 00-.613-.476 1.135 1.135 0 00-.605-.179 1.36 1.36 0 00-.519.11 3.294 3.294 0 00-.596.332l-2.818 1.998a1.29 1.29 0 00-.468.543A1.742 1.742 0 001 15.88z"/></svg><svg viewBox="0 0 31 31" id="camera" xmlns="http://www.w3.org/2000/svg"><path d="M16.185 26.376H8.02c-4.081 0-5.438-2.713-5.438-5.438V10.062c0-4.081 1.357-5.438 5.438-5.438h8.164c4.081 0 5.438 1.357 5.438 5.438v10.876c0 4.082-1.37 5.438-5.438 5.438zm9.029-4.288l-3.59-2.52v-8.15l3.59-2.518c1.757-1.227 3.204-.478 3.204 1.679v9.842c0 2.157-1.447 2.907-3.204 1.667z"/><path d="M14.855 14.208a1.938 1.938 0 100-3.875 1.938 1.938 0 000 3.875z"/></svg><svg viewBox="0 0 19 19" id="car" xmlns="http://www.w3.org/2000/svg"><path d="M12.133 2.623H6.868c-1.868 0-2.28.93-2.52 2.07L3.5 8.75h12l-.848-4.057c-.24-1.14-.652-2.07-2.52-2.07zm4.859 12.742c.083.877-.622 1.635-1.522 1.635h-1.41c-.81 0-.923-.345-1.065-.773l-.15-.45c-.21-.614-.345-1.027-1.425-1.027H7.58c-1.08 0-1.237.465-1.425 1.027l-.15.45c-.142.428-.255.773-1.065.773H3.53c-.9 0-1.605-.758-1.522-1.635l.42-4.568c.105-1.125.322-2.047 2.287-2.047h9.57c1.965 0 2.183.922 2.288 2.047l.42 4.568zM3.5 6.5h-.75m13.5 0h-.75m-6-3.75v1.5m-1.125 0h2.25M5 11.75h2.25m4.5 0H14"/></svg><svg viewBox="0 0 14 10" id="check" xmlns="http://www.w3.org/2000/svg"><path d="M2 5l3.33 3L12 2"/></svg><svg viewBox="0 0 16 16" id="check-down" xmlns="http://www.w3.org/2000/svg"><path fill-rule="evenodd" clip-rule="evenodd" d="M13.578 4.306c.383.32.435.889.116 1.272l-5 6a.903.903 0 01-1.388 0l-5-6a.903.903 0 111.388-1.156L8 9.589l4.306-5.167a.903.903 0 011.272-.116z"/></svg><svg viewBox="0 0 17 17" id="close" xmlns="http://www.w3.org/2000/svg"><path d="M2 2l12.728 12.728m-12.365.006L15.09 2.006"/></svg><svg viewBox="0 0 31 30" id="coin" xmlns="http://www.w3.org/2000/svg"><path d="M23.625 15.813v4.624c0 3.9-3.638 7.063-8.125 7.063-4.488 0-8.125-3.163-8.125-7.063v-4.625c0 3.9 3.637 6.688 8.125 6.688 4.487 0 8.125-2.788 8.125-6.688z"/><path d="M23.625 9.563v6.25c0 3.9-3.638 6.687-8.125 6.687-4.488 0-8.125-2.788-8.125-6.688v-6.25c0-3.9 3.637-7.062 8.125-7.062 2.25 0 4.275.788 5.75 2.063 1.462 1.287 2.375 3.05 2.375 5z"/><path d="M23.625 9.563a5.88 5.88 0 01-.863 3.087c-1.337 2.2-4.087 3.6-7.262 3.6s-5.925-1.4-7.262-3.6a5.88 5.88 0 01-.863-3.088c0-1.95.912-3.712 2.375-4.987C11.225 3.287 13.25 2.5 15.5 2.5s4.275.788 5.75 2.063c1.462 1.287 2.375 3.05 2.375 5z"/></svg><svg viewBox="0 0 43 35" id="doors" xmlns="http://www.w3.org/2000/svg"><path d="M30.992 28h-7.5c-3.125 0-5-2.25-5-5V8c0-2.75 1.875-5 5-5h7.5c3.125 0 5 2.25 5 5v15c0 2.75-1.875 5-5 5zM32.477 14.64h-3.438m3.438 1.72v-1.72"/><path d="M19.508 32h-7.5c-3.125 0-5-2.25-5-5V12c0-2.75 1.875-5 5-5h7.5c3.125 0 5 2.25 5 5v15c0 2.75-1.875 5-5 5zM20.992 18.64h-3.437m3.437 1.72v-1.72"/></svg><svg viewBox="0 0 17 19" id="fire" xmlns="http://www.w3.org/2000/svg"><path d="M13.738 9.832a5.437 5.437 0 00-1.21-1.861l-.435-.439a.127.127 0 00-.206.042l-.23.574c-.143.36-.393.723-.74 1.075a.098.098 0 01-.065.028.086.086 0 01-.066-.027.092.092 0 01-.028-.076c.102-.939-.13-2.013-.69-3.197-.465-.983-1.137-1.765-1.996-2.328l-.627-.41a.125.125 0 00-.193.106v.751c0 .514-.081.965-.24 1.335-.192.453-.459.87-.792 1.24a4.622 4.622 0 01-.775.686 5.516 5.516 0 00-1.654 1.826 5.448 5.448 0 00-.344 4.531 5.49 5.49 0 002.79 3.037 5.49 5.49 0 002.117.528 5.517 5.517 0 002.156-.327 5.447 5.447 0 001.801-1.086 5.417 5.417 0 001.79-3.784 5.394 5.394 0 00-.363-2.224z"/></svg><svg viewBox="0 0 38 33" id="gates" xmlns="http://www.w3.org/2000/svg"><path d="M1.245 4.25a2.718 2.718 0 012.718-2.718h.848A2.718 2.718 0 017.53 4.25v24.5a2.718 2.718 0 01-2.719 2.718h-.848a2.718 2.718 0 01-2.718-2.718V4.25zm28.625 0a2.718 2.718 0 012.718-2.718h.849a2.718 2.718 0 012.718 2.718v24.5a2.718 2.718 0 01-2.718 2.718h-.849a2.718 2.718 0 01-2.718-2.718V4.25zM14.026 24.762V9.572m3.942 15.19V9.572m3.941 15.19V9.572m3.942 15.19V9.572m3.941 15.19V9.572M13.154 25.625h17.5M13.146 8.716h17.546"/></svg><svg viewBox="0 0 32 31" id="grammerly" xmlns="http://www.w3.org/2000/svg"><path d="M25.132 6.394c5.128 5.128 5.038 13.498-.258 18.522-4.895 4.637-12.84 4.637-17.747 0-5.31-5.024-5.4-13.394-.259-18.522 5.038-5.05 13.227-5.05 18.264 0zM20.96 20.757c-2.738 2.584-7.181 2.584-9.907 0"/></svg><svg viewBox="0 0 30 31" id="like" xmlns="http://www.w3.org/2000/svg"><path d="M9.35 23.438l3.876 3c.5.5 1.625.75 2.375.75h4.75c1.5 0 3.125-1.125 3.5-2.625l3-9.125c.625-1.75-.5-3.25-2.375-3.25h-5c-.75 0-1.375-.626-1.25-1.5l.625-4c.25-1.126-.5-2.376-1.625-2.75-1-.376-2.25.124-2.75.874L9.35 12.437M2.976 23.438v-12.25c0-1.75.75-2.376 2.5-2.376h1.25c1.75 0 2.5.626 2.5 2.376v12.25c0 1.75-.75 2.375-2.5 2.375h-1.25c-1.75 0-2.5-.625-2.5-2.375z"/></svg><svg viewBox="0 0 21 22" id="music" xmlns="http://www.w3.org/2000/svg"><path d="M5.496 19.788a2.73 2.73 0 100-5.46 2.73 2.73 0 000 5.46z"/><path d="M18.235 15.238V4.563c0-2.275-1.427-2.59-2.87-2.196l-5.46 1.487c-.998.272-1.68 1.06-1.68 2.197v10.998"/><path d="M15.505 17.968a2.73 2.73 0 100-5.46 2.73 2.73 0 000 5.46zm-7.28-9.1l10.01-2.73"/></svg><svg viewBox="0 0 39 40" id="plus" xmlns="http://www.w3.org/2000/svg"><rect x="39" y="16.5" width="6" height="39" rx="3" transform="rotate(90 39 16.5)"/><rect x="16" y=".5" width="6" height="39" rx="3"/></svg><svg viewBox="0 0 24 24" id="plus-circle" xmlns="http://www.w3.org/2000/svg"><path d="M12 2C6.49 2 2 6.49 2 12s4.49 10 10 10 10-4.49 10-10S17.51 2 12 2zm4 10.75h-3.25V16c0 .41-.34.75-.75.75s-.75-.34-.75-.75v-3.25H8c-.41 0-.75-.34-.75-.75s.34-.75.75-.75h3.25V8c0-.41.34-.75.75-.75s.75.34.75.75v3.25H16c.41 0 .75.34.75.75s-.34.75-.75.75z"/></svg><svg viewBox="0 0 17 17" id="tick" xmlns="http://www.w3.org/2000/svg"><path fill-rule="evenodd" clip-rule="evenodd" d="M12.594 3.364a.87.87 0 01.042 1.23l-4.67 5a.87.87 0 01-1.272 0l-2.33-2.5a.87.87 0 011.272-1.187l1.695 1.818 4.033-4.319a.87.87 0 011.23-.042zm0 6a.87.87 0 01.042 1.23l-4.67 5a.87.87 0 01-1.272 0l-2.33-2.5a.87.87 0 011.272-1.187l1.695 1.818 4.033-4.319a.87.87 0 011.23-.042z"/></svg><svg viewBox="0 0 34 33" id="turnstiles" xmlns="http://www.w3.org/2000/svg"><path d="M25.847 5.925a7.205 7.205 0 010 14.41H7.57V5.925h18.278z"/><path d="M1.446 4.25a2.718 2.718 0 012.718-2.718h.848A2.718 2.718 0 017.731 4.25v24.5a2.718 2.718 0 01-2.719 2.718h-.848a2.718 2.718 0 01-2.718-2.718V4.25zM11.665 6.527v13.25"/></svg></svg>