<?xml version="1.0" encoding="utf-8"?><svg viewBox="0 0 39 40" xmlns="http://www.w3.org/2000/svg" xmlns:xlink="http://www.w3.org/1999/xlink"><style>:root>svg{display:none}:root>svg:target{display:block}</style><svg viewBox="0 0 16 16" id="alarm" xmlns="http://www.w3.org/2000/svg"><path fill-rule="evenodd" clip-rule="evenodd" d="M.585 14.667c0-.413.335-.748.748-.748h13.333a.748.748 0 010 1.495H1.333a.748.748 0 01-.748-.747z"/><path fill-rule="evenodd" clip-rule="evenodd" d="M1.252 10a6.748 6.748 0 0113.496 0v4.667a.748.748 0 01-.748.747H2a.748.748 0 01-.748-.747V10zM8 4.748A5.253 5.253 0 002.748 10v3.919h10.504V10c0-2.9-2.352-5.252-5.252-5.252zM8 .586c.413 0 .747.334.747.747V2a.748.748 0 11-1.495 0v-.667c0-.413.335-.747.748-.747z"/><path fill-rule="evenodd" clip-rule="evenodd" d="M2.138 2.138a.748.748 0 011.057 0l.667.667a.748.748 0 11-1.057 1.057l-.667-.667a.748.748 0 010-1.057zm11.724 0a.748.748 0 010 1.057l-.667.667a.748.748 0 11-1.057-1.057l.667-.667a.748.748 0 011.057 0z"/></svg><svg viewBox="0 0 23 22" id="arrow-left" xmlns="http://www.w3.org/2000/svg"><path d="M12.836 17.998a.808.808 0 00.544-.213.916.916 0 00.21-.28.989.989 0 00.06-.708.958.958 0 00-.16-.318l-3.807-4.966 3.672-4.976a.957.957 0 00.155-.32 1.008 1.008 0 00-.07-.708.913.913 0 00-.213-.278.835.835 0 00-.302-.187.784.784 0 00-.677.076.876.876 0 00-.262.25l-4.105 5.559a.979.979 0 00-.193.588.98.98 0 00.193.589l4.25 5.559c.085.112.193.2.316.259a.788.788 0 00.39.074z"/></svg><svg viewBox="0 0 20 20" id="call" xmlns="http://www.w3.org/2000/svg"><path d="M1 15.88c0 .306.068.621.213.927.145.306.332.595.579.867.417.459.876.79 1.396 1.003a4.28 4.28 0 001.66.323c.868 0 1.796-.204 2.775-.62a14.957 14.957 0 002.928-1.683 24.46 24.46 0 002.793-2.38 24.167 24.167 0 002.375-2.78c.698-.969 1.26-1.938 1.668-2.899.409-.968.613-1.895.613-2.779 0-.578-.102-1.13-.306-1.64a3.913 3.913 0 00-.98-1.42C16.17 2.264 15.575 2 14.945 2c-.238 0-.477.051-.69.153a1.387 1.387 0 00-.57.476l-1.975 2.78a2.904 2.904 0 00-.34.595 1.34 1.34 0 00-.12.518c0 .204.06.408.18.603.11.196.272.4.476.604l.647.671a.454.454 0 01.136.34.772.772 0 01-.026.196c-.025.068-.05.119-.068.17-.153.28-.417.646-.791 1.088a29.14 29.14 0 01-1.235 1.343c-.46.45-.902.867-1.353 1.25-.443.373-.809.628-1.098.781-.043.018-.094.043-.154.069a.589.589 0 01-.212.034.469.469 0 01-.35-.145l-.646-.637a2.611 2.611 0 00-.613-.476 1.135 1.135 0 00-.605-.179 1.36 1.36 0 00-.519.11 3.294 3.294 0 00-.596.332l-2.818 1.998a1.29 1.29 0 00-.468.543A1.742 1.742 0 001 15.88z"/></svg><svg viewBox="0 0 14 10" id="check" xmlns="http://www.w3.org/2000/svg"><path d="M2 5l3.33 3L12 2"/></svg><svg viewBox="0 0 16 16" id="check-down" xmlns="http://www.w3.org/2000/svg"><path fill-rule="evenodd" clip-rule="evenodd" d="M13.578 4.306c.383.32.435.889.116 1.272l-5 6a.903.903 0 01-1.388 0l-5-6a.903.903 0 111.388-1.156L8 9.589l4.306-5.167a.903.903 0 011.272-.116z"/></svg><svg viewBox="0 0 30 30" id="coin" xmlns="http://www.w3.org/2000/svg"><path d="M23.125 15.813v4.624c0 3.9-3.637 7.063-8.125 7.063-4.488 0-8.125-3.163-8.125-7.063v-4.625c0 3.9 3.637 6.688 8.125 6.688 4.488 0 8.125-2.788 8.125-6.688z"/><path d="M23.125 9.563a5.88 5.88 0 01-.863 3.087c-1.337 2.2-4.087 3.6-7.262 3.6s-5.925-1.4-7.263-3.6a5.88 5.88 0 01-.862-3.088c0-1.95.912-3.712 2.375-4.987C10.725 3.287 12.75 2.5 15 2.5s4.275.788 5.75 2.063c1.462 1.287 2.375 3.05 2.375 5z"/><path d="M23.125 9.563v6.25c0 3.9-3.637 6.687-8.125 6.687-4.488 0-8.125-2.788-8.125-6.688v-6.25c0-3.9 3.637-7.062 8.125-7.062 2.25 0 4.275.788 5.75 2.063 1.462 1.287 2.375 3.05 2.375 5z"/></svg><svg viewBox="0 0 17 19" id="fire" xmlns="http://www.w3.org/2000/svg"><path d="M13.738 9.832a5.437 5.437 0 00-1.21-1.861l-.435-.439a.127.127 0 00-.206.042l-.23.574c-.143.36-.393.723-.74 1.075a.098.098 0 01-.065.028.086.086 0 01-.066-.027.092.092 0 01-.028-.076c.102-.939-.13-2.013-.69-3.197-.465-.983-1.137-1.765-1.996-2.328l-.627-.41a.125.125 0 00-.193.106v.751c0 .514-.081.965-.24 1.335-.192.453-.459.87-.792 1.24a4.622 4.622 0 01-.775.686 5.516 5.516 0 00-1.654 1.826 5.448 5.448 0 00-.344 4.531 5.49 5.49 0 002.79 3.037 5.49 5.49 0 002.117.528 5.517 5.517 0 002.156-.327 5.447 5.447 0 001.801-1.086 5.417 5.417 0 001.79-3.784 5.394 5.394 0 00-.363-2.224z"/></svg><svg viewBox="0 0 32 31" id="grammerly" xmlns="http://www.w3.org/2000/svg"><path d="M25.132 6.394c5.128 5.128 5.038 13.498-.258 18.522-4.895 4.637-12.84 4.637-17.747 0-5.31-5.024-5.4-13.394-.259-18.522 5.038-5.05 13.227-5.05 18.264 0zM20.96 20.757c-2.738 2.584-7.181 2.584-9.907 0"/></svg><svg viewBox="0 0 30 31" id="like" xmlns="http://www.w3.org/2000/svg"><path d="M9.35 23.438l3.876 3c.5.5 1.625.75 2.375.75h4.75c1.5 0 3.125-1.125 3.5-2.625l3-9.125c.625-1.75-.5-3.25-2.375-3.25h-5c-.75 0-1.375-.626-1.25-1.5l.625-4c.25-1.126-.5-2.376-1.625-2.75-1-.376-2.25.124-2.75.874L9.35 12.437M2.976 23.438v-12.25c0-1.75.75-2.376 2.5-2.376h1.25c1.75 0 2.5.626 2.5 2.376v12.25c0 1.75-.75 2.375-2.5 2.375h-1.25c-1.75 0-2.5-.625-2.5-2.375z"/></svg><svg viewBox="0 0 39 40" id="plus" xmlns="http://www.w3.org/2000/svg"><rect x="39" y="16.5" width="6" height="39" rx="3" transform="rotate(90 39 16.5)"/><rect x="16" y=".5" width="6" height="39" rx="3"/></svg><svg viewBox="0 0 24 24" id="plus-circle" xmlns="http://www.w3.org/2000/svg"><path d="M12 2C6.49 2 2 6.49 2 12s4.49 10 10 10 10-4.49 10-10S17.51 2 12 2zm4 10.75h-3.25V16c0 .41-.34.75-.75.75s-.75-.34-.75-.75v-3.25H8c-.41 0-.75-.34-.75-.75s.34-.75.75-.75h3.25V8c0-.41.34-.75.75-.75s.75.34.75.75v3.25H16c.41 0 .75.34.75.75s-.34.75-.75.75z"/></svg><svg viewBox="0 0 17 17" id="tick" xmlns="http://www.w3.org/2000/svg"><path fill-rule="evenodd" clip-rule="evenodd" d="M12.594 3.364a.87.87 0 01.042 1.23l-4.67 5a.87.87 0 01-1.272 0l-2.33-2.5a.87.87 0 011.272-1.187l1.695 1.818 4.033-4.319a.87.87 0 011.23-.042zm0 6a.87.87 0 01.042 1.23l-4.67 5a.87.87 0 01-1.272 0l-2.33-2.5a.87.87 0 011.272-1.187l1.695 1.818 4.033-4.319a.87.87 0 011.23-.042z"/></svg></svg>