<svg width="1296" height="411" viewBox="0 0 1296 411" fill="none" xmlns="http://www.w3.org/2000/svg">
<path d="M348.235 -454.532C283.782 -438.573 220.713 -393.625 173.862 -348.445C57.8112 -236.535 3.0128 -64.0754 28.3433 94.7821C41.7126 178.626 78.7269 254.934 130.671 321.703C181.678 387.27 248.568 451.657 326.925 482.929C419.132 519.728 525.849 515.735 618.563 481.713C719.988 444.495 795.402 368.668 859.625 285.065C918.734 208.12 970.508 122.673 1005.7 31.955C1022.23 -10.6514 1039.88 -65.6359 1026.24 -111.865C993.235 -223.66 803.795 -88.7821 765.419 -57.7097C664.744 23.805 582.532 129.149 525.414 245.428C483.096 331.577 449.075 434.655 470.572 531.446C498.549 657.416 635.82 736.774 756.202 748.064C894.392 761.024 1011.55 679.368 1100.89 581.403C1172.68 502.69 1229.96 410.658 1273.54 313.76C1301.59 251.407 1328.8 179.831 1331.87 110.321C1332.95 85.8978 1328.17 51.3222 1295.56 55.7614C1245.8 62.5332 1195.74 116.325 1166.68 151.324C1096.76 235.537 1048.58 334.564 1021.32 440.303C994.822 543.063 987.191 652.242 1038.53 749.59C1079.63 827.515 1156.39 896.457 1239.77 925.338C1303.47 947.402 1373.59 937.472 1434.81 912.104C1574.56 854.197 1681.42 722.153 1752.61 592.923C1762.39 575.159 1778.26 547.798 1780.02 525.991C1780.65 518.115 1774.64 518.308 1768.62 520.319C1749.23 526.804 1731.79 541.241 1716.84 554.37C1675.34 590.835 1639.88 633.037 1601.66 672.738" stroke="#E4E6EA" stroke-opacity="0.43" stroke-width="134.763" stroke-linecap="round"/>
</svg>
