<svg width="251" height="251" viewBox="0 0 251 251" fill="none" xmlns="http://www.w3.org/2000/svg">
<g clip-path="url(#clip0_1300_5820)">
<path d="M10 4H4V10H10V4Z" fill="white"/>
<path d="M16 4H10V10H16V4Z" fill="white"/>
<path d="M24 4H18V10H24V4Z" fill="white"/>
<path d="M30 4H24V10H30V4Z" fill="white"/>
<path d="M36 4H30V10H36V4Z" fill="white"/>
<path d="M42 4H36V10H42V4Z" fill="white"/>
<path d="M50 4H44V10H50V4Z" fill="white"/>
<path d="M76 4H70V10H76V4Z" fill="white"/>
<path d="M88 4H82V10H88V4Z" fill="white"/>
<path d="M108 4H102V10H108V4Z" fill="white"/>
<path d="M114 4H108V10H114V4Z" fill="white"/>
<path d="M120 4H114V10H120V4Z" fill="white"/>
<path d="M128 4H122V10H128V4Z" fill="white"/>
<path d="M141 4H135V10H141V4Z" fill="white"/>
<path d="M173 4H167V10H173V4Z" fill="white"/>
<path d="M181 4H175V10H181V4Z" fill="white"/>
<path d="M187 4H181V10H187V4Z" fill="white"/>
<path d="M207 4H201V10H207V4Z" fill="white"/>
<path d="M213 4H207V10H213V4Z" fill="white"/>
<path d="M219 4H213V10H219V4Z" fill="white"/>
<path d="M227 4H221V10H227V4Z" fill="white"/>
<path d="M233 4H227V10H233V4Z" fill="white"/>
<path d="M239 4H233V10H239V4Z" fill="white"/>
<path d="M245 4H239V10H245V4Z" fill="white"/>
<path d="M10 10H4V16H10V10Z" fill="white"/>
<path d="M50 10H44V16H50V10Z" fill="white"/>
<path d="M68 10H62V16H68V10Z" fill="white"/>
<path d="M82 10H76V16H82V10Z" fill="white"/>
<path d="M94 10H88V16H94V10Z" fill="white"/>
<path d="M114 10H108V16H114V10Z" fill="white"/>
<path d="M128 10H122V16H128V10Z" fill="white"/>
<path d="M155 10H149V16H155V10Z" fill="white"/>
<path d="M161 10H155V16H161V10Z" fill="white"/>
<path d="M187 10H181V16H187V10Z" fill="white"/>
<path d="M207 10H201V16H207V10Z" fill="white"/>
<path d="M245 10H239V16H245V10Z" fill="white"/>
<path d="M10 18H4V24H10V18Z" fill="white"/>
<path d="M24 18H18V24H24V18Z" fill="white"/>
<path d="M30 18H24V24H30V18Z" fill="white"/>
<path d="M36 18H30V24H36V18Z" fill="white"/>
<path d="M50 18H44V24H50V18Z" fill="white"/>
<path d="M62 18H56V24H62V18Z" fill="white"/>
<path d="M76 18H70V24H76V18Z" fill="white"/>
<path d="M88 18H82V24H88V18Z" fill="white"/>
<path d="M102 18H96V24H102V18Z" fill="white"/>
<path d="M108 18H102V24H108V18Z" fill="white"/>
<path d="M114 18H108V24H114V18Z" fill="white"/>
<path d="M120 18H114V24H120V18Z" fill="white"/>
<path d="M128 18H122V24H128V18Z" fill="white"/>
<path d="M147 18H141V24H147V18Z" fill="white"/>
<path d="M173 18H167V24H173V18Z" fill="white"/>
<path d="M181 18H175V24H181V18Z" fill="white"/>
<path d="M207 18H201V24H207V18Z" fill="white"/>
<path d="M219 18H213V24H219V18Z" fill="white"/>
<path d="M227 18H221V24H227V18Z" fill="white"/>
<path d="M233 18H227V24H233V18Z" fill="white"/>
<path d="M245 18H239V24H245V18Z" fill="white"/>
<path d="M10 24H4V30H10V24Z" fill="white"/>
<path d="M24 24H18V30H24V24Z" fill="white"/>
<path d="M30 24H24V30H30V24Z" fill="white"/>
<path d="M36 24H30V30H36V24Z" fill="white"/>
<path d="M50 24H44V30H50V24Z" fill="white"/>
<path d="M62 24H56V30H62V24Z" fill="white"/>
<path d="M68 24H62V30H68V24Z" fill="white"/>
<path d="M82 24H76V30H82V24Z" fill="white"/>
<path d="M88 24H82V30H88V24Z" fill="white"/>
<path d="M102 24H96V30H102V24Z" fill="white"/>
<path d="M108 24H102V30H108V24Z" fill="white"/>
<path d="M114 24H108V30H114V24Z" fill="white"/>
<path d="M155 24H149V30H155V24Z" fill="white"/>
<path d="M167 24H161V30H167V24Z" fill="white"/>
<path d="M181 24H175V30H181V24Z" fill="white"/>
<path d="M193 24H187V30H193V24Z" fill="white"/>
<path d="M207 24H201V30H207V24Z" fill="white"/>
<path d="M219 24H213V30H219V24Z" fill="white"/>
<path d="M227 24H221V30H227V24Z" fill="white"/>
<path d="M233 24H227V30H233V24Z" fill="white"/>
<path d="M245 24H239V30H245V24Z" fill="white"/>
<path d="M10 30H4V36H10V30Z" fill="white"/>
<path d="M24 30H18V36H24V30Z" fill="white"/>
<path d="M30 30H24V36H30V30Z" fill="white"/>
<path d="M36 30H30V36H36V30Z" fill="white"/>
<path d="M50 30H44V36H50V30Z" fill="white"/>
<path d="M82 30H76V36H82V30Z" fill="white"/>
<path d="M120 30H114V36H120V30Z" fill="white"/>
<path d="M128 30H122V36H128V30Z" fill="white"/>
<path d="M135 30H129V36H135V30Z" fill="white"/>
<path d="M147 30H141V36H147V30Z" fill="white"/>
<path d="M155 30H149V36H155V30Z" fill="white"/>
<path d="M167 30H161V36H167V30Z" fill="white"/>
<path d="M181 30H175V36H181V30Z" fill="white"/>
<path d="M207 30H201V36H207V30Z" fill="white"/>
<path d="M219 30H213V36H219V30Z" fill="white"/>
<path d="M227 30H221V36H227V30Z" fill="white"/>
<path d="M233 30H227V36H233V30Z" fill="white"/>
<path d="M245 30H239V36H245V30Z" fill="white"/>
<path d="M10 36H4V42H10V36Z" fill="white"/>
<path d="M50 36H44V42H50V36Z" fill="white"/>
<path d="M68 36H62V42H68V36Z" fill="white"/>
<path d="M76 36H70V42H76V36Z" fill="white"/>
<path d="M82 36H76V42H82V36Z" fill="white"/>
<path d="M94 36H88V42H94V36Z" fill="white"/>
<path d="M108 36H102V42H108V36Z" fill="white"/>
<path d="M114 36H108V42H114V36Z" fill="white"/>
<path d="M120 36H114V42H120V36Z" fill="white"/>
<path d="M161 36H155V42H161V36Z" fill="white"/>
<path d="M167 36H161V42H167V36Z" fill="white"/>
<path d="M173 36H167V42H173V36Z" fill="white"/>
<path d="M187 36H181V42H187V36Z" fill="white"/>
<path d="M207 36H201V42H207V36Z" fill="white"/>
<path d="M245 36H239V42H245V36Z" fill="white"/>
<path d="M10 44H4V50H10V44Z" fill="white"/>
<path d="M16 44H10V50H16V44Z" fill="white"/>
<path d="M24 44H18V50H24V44Z" fill="white"/>
<path d="M30 44H24V50H30V44Z" fill="white"/>
<path d="M36 44H30V50H36V44Z" fill="white"/>
<path d="M42 44H36V50H42V44Z" fill="white"/>
<path d="M50 44H44V50H50V44Z" fill="white"/>
<path d="M62 44H56V50H62V44Z" fill="white"/>
<path d="M76 44H70V50H76V44Z" fill="white"/>
<path d="M88 44H82V50H88V44Z" fill="white"/>
<path d="M102 44H96V50H102V44Z" fill="white"/>
<path d="M114 44H108V50H114V44Z" fill="white"/>
<path d="M128 44H122V50H128V44Z" fill="white"/>
<path d="M141 44H135V50H141V44Z" fill="white"/>
<path d="M155 44H149V50H155V44Z" fill="white"/>
<path d="M167 44H161V50H167V44Z" fill="white"/>
<path d="M181 44H175V50H181V44Z" fill="white"/>
<path d="M193 44H187V50H193V44Z" fill="white"/>
<path d="M207 44H201V50H207V44Z" fill="white"/>
<path d="M213 44H207V50H213V44Z" fill="white"/>
<path d="M219 44H213V50H219V44Z" fill="white"/>
<path d="M227 44H221V50H227V44Z" fill="white"/>
<path d="M233 44H227V50H233V44Z" fill="white"/>
<path d="M239 44H233V50H239V44Z" fill="white"/>
<path d="M245 44H239V50H245V44Z" fill="white"/>
<path d="M88 50H82V56H88V50Z" fill="white"/>
<path d="M94 50H88V56H94V50Z" fill="white"/>
<path d="M102 50H96V56H102V50Z" fill="white"/>
<path d="M120 50H114V56H120V50Z" fill="white"/>
<path d="M128 50H122V56H128V50Z" fill="white"/>
<path d="M135 50H129V56H135V50Z" fill="white"/>
<path d="M141 50H135V56H141V50Z" fill="white"/>
<path d="M155 50H149V56H155V50Z" fill="white"/>
<path d="M161 50H155V56H161V50Z" fill="white"/>
<path d="M167 50H161V56H167V50Z" fill="white"/>
<path d="M187 50H181V56H187V50Z" fill="white"/>
<path d="M30 56H24V62H30V56Z" fill="white"/>
<path d="M36 56H30V62H36V56Z" fill="white"/>
<path d="M50 56H44V62H50V56Z" fill="white"/>
<path d="M56 56H50V62H56V56Z" fill="white"/>
<path d="M68 56H62V62H68V56Z" fill="white"/>
<path d="M82 56H76V62H82V56Z" fill="white"/>
<path d="M88 56H82V62H88V56Z" fill="white"/>
<path d="M108 56H102V62H108V56Z" fill="white"/>
<path d="M114 56H108V62H114V56Z" fill="white"/>
<path d="M120 56H114V62H120V56Z" fill="white"/>
<path d="M135 56H129V62H135V56Z" fill="white"/>
<path d="M147 56H141V62H147V56Z" fill="white"/>
<path d="M155 56H149V62H155V56Z" fill="white"/>
<path d="M161 56H155V62H161V56Z" fill="white"/>
<path d="M167 56H161V62H167V56Z" fill="white"/>
<path d="M173 56H167V62H173V56Z" fill="white"/>
<path d="M187 56H181V62H187V56Z" fill="white"/>
<path d="M227 56H221V62H227V56Z" fill="white"/>
<path d="M233 56H227V62H233V56Z" fill="white"/>
<path d="M10 64H4V70H10V64Z" fill="white"/>
<path d="M16 64H10V70H16V64Z" fill="white"/>
<path d="M24 64H18V70H24V64Z" fill="white"/>
<path d="M56 64H50V70H56V64Z" fill="white"/>
<path d="M68 64H62V70H68V64Z" fill="white"/>
<path d="M76 64H70V70H76V64Z" fill="white"/>
<path d="M88 64H82V70H88V64Z" fill="white"/>
<path d="M102 64H96V70H102V64Z" fill="white"/>
<path d="M108 64H102V70H108V64Z" fill="white"/>
<path d="M128 64H122V70H128V64Z" fill="white"/>
<path d="M135 64H129V70H135V64Z" fill="white"/>
<path d="M147 64H141V70H147V64Z" fill="white"/>
<path d="M161 64H155V70H161V64Z" fill="white"/>
<path d="M167 64H161V70H167V64Z" fill="white"/>
<path d="M193 64H187V70H193V64Z" fill="white"/>
<path d="M199 64H193V70H199V64Z" fill="white"/>
<path d="M219 64H213V70H219V64Z" fill="white"/>
<path d="M233 64H227V70H233V64Z" fill="white"/>
<path d="M239 64H233V70H239V64Z" fill="white"/>
<path d="M10 70H4V76H10V70Z" fill="white"/>
<path d="M16 70H10V76H16V70Z" fill="white"/>
<path d="M30 70H24V76H30V70Z" fill="white"/>
<path d="M42 70H36V76H42V70Z" fill="white"/>
<path d="M50 70H44V76H50V70Z" fill="white"/>
<path d="M56 70H50V76H56V70Z" fill="white"/>
<path d="M88 70H82V76H88V70Z" fill="white"/>
<path d="M94 70H88V76H94V70Z" fill="white"/>
<path d="M128 70H122V76H128V70Z" fill="white"/>
<path d="M135 70H129V76H135V70Z" fill="white"/>
<path d="M155 70H149V76H155V70Z" fill="white"/>
<path d="M161 70H155V76H161V70Z" fill="white"/>
<path d="M173 70H167V76H173V70Z" fill="white"/>
<path d="M181 70H175V76H181V70Z" fill="white"/>
<path d="M187 70H181V76H187V70Z" fill="white"/>
<path d="M193 70H187V76H193V70Z" fill="white"/>
<path d="M207 70H201V76H207V70Z" fill="white"/>
<path d="M213 70H207V76H213V70Z" fill="white"/>
<path d="M233 70H227V76H233V70Z" fill="white"/>
<path d="M10 76H4V82H10V76Z" fill="white"/>
<path d="M16 76H10V82H16V76Z" fill="white"/>
<path d="M24 76H18V82H24V76Z" fill="white"/>
<path d="M36 76H30V82H36V76Z" fill="white"/>
<path d="M56 76H50V82H56V76Z" fill="white"/>
<path d="M68 76H62V82H68V76Z" fill="white"/>
<path d="M82 76H76V82H82V76Z" fill="white"/>
<path d="M88 76H82V82H88V76Z" fill="white"/>
<path d="M94 76H88V82H94V76Z" fill="white"/>
<path d="M102 76H96V82H102V76Z" fill="white"/>
<path d="M120 76H114V82H120V76Z" fill="white"/>
<path d="M147 76H141V82H147V76Z" fill="white"/>
<path d="M161 76H155V82H161V76Z" fill="white"/>
<path d="M167 76H161V82H167V76Z" fill="white"/>
<path d="M173 76H167V82H173V76Z" fill="white"/>
<path d="M187 76H181V82H187V76Z" fill="white"/>
<path d="M193 76H187V82H193V76Z" fill="white"/>
<path d="M233 76H227V82H233V76Z" fill="white"/>
<path d="M239 76H233V82H239V76Z" fill="white"/>
<path d="M24 82H18V88H24V82Z" fill="white"/>
<path d="M30 82H24V88H30V82Z" fill="white"/>
<path d="M50 82H44V88H50V82Z" fill="white"/>
<path d="M88 82H82V88H88V82Z" fill="white"/>
<path d="M114 82H108V88H114V82Z" fill="white"/>
<path d="M128 82H122V88H128V82Z" fill="white"/>
<path d="M135 82H129V88H135V82Z" fill="white"/>
<path d="M141 82H135V88H141V82Z" fill="white"/>
<path d="M155 82H149V88H155V82Z" fill="white"/>
<path d="M167 82H161V88H167V82Z" fill="white"/>
<path d="M187 82H181V88H187V82Z" fill="white"/>
<path d="M207 82H201V88H207V82Z" fill="white"/>
<path d="M213 82H207V88H213V82Z" fill="white"/>
<path d="M233 82H227V88H233V82Z" fill="white"/>
<path d="M245 82H239V88H245V82Z" fill="white"/>
<path d="M10 90H4V96H10V90Z" fill="white"/>
<path d="M16 90H10V96H16V90Z" fill="white"/>
<path d="M24 90H18V96H24V90Z" fill="white"/>
<path d="M30 90H24V96H30V90Z" fill="white"/>
<path d="M36 90H30V96H36V90Z" fill="white"/>
<path d="M42 90H36V96H42V90Z" fill="white"/>
<path d="M56 90H50V96H56V90Z" fill="white"/>
<path d="M62 90H56V96H62V90Z" fill="white"/>
<path d="M82 90H76V96H82V90Z" fill="white"/>
<path d="M94 90H88V96H94V90Z" fill="white"/>
<path d="M120 90H114V96H120V90Z" fill="white"/>
<path d="M141 90H135V96H141V90Z" fill="white"/>
<path d="M147 90H141V96H147V90Z" fill="white"/>
<path d="M155 90H149V96H155V90Z" fill="white"/>
<path d="M173 90H167V96H173V90Z" fill="white"/>
<path d="M207 90H201V96H207V90Z" fill="white"/>
<path d="M213 90H207V96H213V90Z" fill="white"/>
<path d="M219 90H213V96H219V90Z" fill="white"/>
<path d="M245 90H239V96H245V90Z" fill="white"/>
<path d="M10 96H4V102H10V96Z" fill="white"/>
<path d="M24 96H18V102H24V96Z" fill="white"/>
<path d="M50 96H44V102H50V96Z" fill="white"/>
<path d="M56 96H50V102H56V96Z" fill="white"/>
<path d="M62 96H56V102H62V96Z" fill="white"/>
<path d="M88 96H82V102H88V96Z" fill="white"/>
<path d="M114 96H108V102H114V96Z" fill="white"/>
<path d="M128 96H122V102H128V96Z" fill="white"/>
<path d="M135 96H129V102H135V96Z" fill="white"/>
<path d="M141 96H135V102H141V96Z" fill="white"/>
<path d="M155 96H149V102H155V96Z" fill="white"/>
<path d="M181 96H175V102H181V96Z" fill="white"/>
<path d="M187 96H181V102H187V96Z" fill="white"/>
<path d="M193 96H187V102H193V96Z" fill="white"/>
<path d="M199 96H193V102H199V96Z" fill="white"/>
<path d="M207 96H201V102H207V96Z" fill="white"/>
<path d="M219 96H213V102H219V96Z" fill="white"/>
<path d="M227 96H221V102H227V96Z" fill="white"/>
<path d="M245 96H239V102H245V96Z" fill="white"/>
<path d="M16 102H10V108H16V102Z" fill="white"/>
<path d="M24 102H18V108H24V102Z" fill="white"/>
<path d="M30 102H24V108H30V102Z" fill="white"/>
<path d="M36 102H30V108H36V102Z" fill="white"/>
<path d="M62 102H56V108H62V102Z" fill="white"/>
<path d="M68 102H62V108H68V102Z" fill="white"/>
<path d="M76 102H70V108H76V102Z" fill="white"/>
<path d="M114 102H108V108H114V102Z" fill="white"/>
<path d="M120 102H114V108H120V102Z" fill="white"/>
<path d="M155 102H149V108H155V102Z" fill="white"/>
<path d="M167 102H161V108H167V102Z" fill="white"/>
<path d="M181 102H175V108H181V102Z" fill="white"/>
<path d="M187 102H181V108H187V102Z" fill="white"/>
<path d="M213 102H207V108H213V102Z" fill="white"/>
<path d="M219 102H213V108H219V102Z" fill="white"/>
<path d="M239 102H233V108H239V102Z" fill="white"/>
<path d="M10 108H4V114H10V108Z" fill="white"/>
<path d="M30 108H24V114H30V108Z" fill="white"/>
<path d="M42 108H36V114H42V108Z" fill="white"/>
<path d="M50 108H44V114H50V108Z" fill="white"/>
<path d="M68 108H62V114H68V108Z" fill="white"/>
<path d="M82 108H76V114H82V108Z" fill="white"/>
<path d="M94 108H88V114H94V108Z" fill="white"/>
<path d="M108 108H102V114H108V108Z" fill="white"/>
<path d="M114 108H108V114H114V108Z" fill="white"/>
<path d="M120 108H114V114H120V108Z" fill="white"/>
<path d="M128 108H122V114H128V108Z" fill="white"/>
<path d="M141 108H135V114H141V108Z" fill="white"/>
<path d="M147 108H141V114H147V108Z" fill="white"/>
<path d="M155 108H149V114H155V108Z" fill="white"/>
<path d="M167 108H161V114H167V108Z" fill="white"/>
<path d="M187 108H181V114H187V108Z" fill="white"/>
<path d="M199 108H193V114H199V108Z" fill="white"/>
<path d="M207 108H201V114H207V108Z" fill="white"/>
<path d="M227 108H221V114H227V108Z" fill="white"/>
<path d="M233 108H227V114H233V108Z" fill="white"/>
<path d="M245 108H239V114H245V108Z" fill="white"/>
<path d="M10 116H4V122H10V116Z" fill="white"/>
<path d="M16 116H10V122H16V116Z" fill="white"/>
<path d="M24 116H18V122H24V116Z" fill="white"/>
<path d="M36 116H30V122H36V116Z" fill="white"/>
<path d="M62 116H56V122H62V116Z" fill="white"/>
<path d="M76 116H70V122H76V116Z" fill="white"/>
<path d="M155 116H149V122H155V116Z" fill="white"/>
<path d="M161 116H155V122H161V116Z" fill="white"/>
<path d="M167 116H161V122H167V116Z" fill="white"/>
<path d="M181 116H175V122H181V116Z" fill="white"/>
<path d="M193 116H187V122H193V116Z" fill="white"/>
<path d="M207 116H201V122H207V116Z" fill="white"/>
<path d="M213 116H207V122H213V116Z" fill="white"/>
<path d="M219 116H213V122H219V116Z" fill="white"/>
<path d="M227 116H221V122H227V116Z" fill="white"/>
<path d="M233 116H227V122H233V116Z" fill="white"/>
<path d="M239 116H233V122H239V116Z" fill="white"/>
<path d="M245 116H239V122H245V116Z" fill="white"/>
<path d="M16 122H10V128H16V122Z" fill="white"/>
<path d="M24 122H18V128H24V122Z" fill="white"/>
<path d="M30 122H24V128H30V122Z" fill="white"/>
<path d="M36 122H30V128H36V122Z" fill="white"/>
<path d="M42 122H36V128H42V122Z" fill="white"/>
<path d="M50 122H44V128H50V122Z" fill="white"/>
<path d="M62 122H56V128H62V122Z" fill="white"/>
<path d="M68 122H62V128H68V122Z" fill="white"/>
<path d="M76 122H70V128H76V122Z" fill="white"/>
<path d="M94 122H88V128H94V122Z" fill="white"/>
<path d="M108 122H102V128H108V122Z" fill="white"/>
<path d="M114 122H108V128H114V122Z" fill="white"/>
<path d="M120 122H114V128H120V122Z" fill="white"/>
<path d="M128 122H122V128H128V122Z" fill="white"/>
<path d="M135 122H129V128H135V122Z" fill="white"/>
<path d="M167 122H161V128H167V122Z" fill="white"/>
<path d="M187 122H181V128H187V122Z" fill="white"/>
<path d="M207 122H201V128H207V122Z" fill="white"/>
<path d="M213 122H207V128H213V122Z" fill="white"/>
<path d="M245 122H239V128H245V122Z" fill="white"/>
<path d="M10 129H4V135H10V129Z" fill="white"/>
<path d="M24 129H18V135H24V129Z" fill="white"/>
<path d="M68 129H62V135H68V129Z" fill="white"/>
<path d="M76 129H70V135H76V129Z" fill="white"/>
<path d="M88 129H82V135H88V129Z" fill="white"/>
<path d="M94 129H88V135H94V129Z" fill="white"/>
<path d="M102 129H96V135H102V129Z" fill="white"/>
<path d="M108 129H102V135H108V129Z" fill="white"/>
<path d="M120 129H114V135H120V129Z" fill="white"/>
<path d="M135 129H129V135H135V129Z" fill="white"/>
<path d="M155 129H149V135H155V129Z" fill="white"/>
<path d="M173 129H167V135H173V129Z" fill="white"/>
<path d="M187 129H181V135H187V129Z" fill="white"/>
<path d="M193 129H187V135H193V129Z" fill="white"/>
<path d="M199 129H193V135H199V129Z" fill="white"/>
<path d="M213 129H207V135H213V129Z" fill="white"/>
<path d="M219 129H213V135H219V129Z" fill="white"/>
<path d="M16 135H10V141H16V135Z" fill="white"/>
<path d="M30 135H24V141H30V135Z" fill="white"/>
<path d="M42 135H36V141H42V135Z" fill="white"/>
<path d="M50 135H44V141H50V135Z" fill="white"/>
<path d="M76 135H70V141H76V135Z" fill="white"/>
<path d="M82 135H76V141H82V135Z" fill="white"/>
<path d="M88 135H82V141H88V135Z" fill="white"/>
<path d="M102 135H96V141H102V135Z" fill="white"/>
<path d="M108 135H102V141H108V135Z" fill="white"/>
<path d="M135 135H129V141H135V135Z" fill="white"/>
<path d="M155 135H149V141H155V135Z" fill="white"/>
<path d="M167 135H161V141H167V135Z" fill="white"/>
<path d="M173 135H167V141H173V135Z" fill="white"/>
<path d="M187 135H181V141H187V135Z" fill="white"/>
<path d="M199 135H193V141H199V135Z" fill="white"/>
<path d="M207 135H201V141H207V135Z" fill="white"/>
<path d="M213 135H207V141H213V135Z" fill="white"/>
<path d="M227 135H221V141H227V135Z" fill="white"/>
<path d="M233 135H227V141H233V135Z" fill="white"/>
<path d="M10 143H4V149H10V143Z" fill="white"/>
<path d="M36 143H30V149H36V143Z" fill="white"/>
<path d="M76 143H70V149H76V143Z" fill="white"/>
<path d="M82 143H76V149H82V143Z" fill="white"/>
<path d="M94 143H88V149H94V143Z" fill="white"/>
<path d="M135 143H129V149H135V143Z" fill="white"/>
<path d="M147 143H141V149H147V143Z" fill="white"/>
<path d="M155 143H149V149H155V143Z" fill="white"/>
<path d="M161 143H155V149H161V143Z" fill="white"/>
<path d="M167 143H161V149H167V143Z" fill="white"/>
<path d="M181 143H175V149H181V143Z" fill="white"/>
<path d="M187 143H181V149H187V143Z" fill="white"/>
<path d="M193 143H187V149H193V143Z" fill="white"/>
<path d="M199 143H193V149H199V143Z" fill="white"/>
<path d="M207 143H201V149H207V143Z" fill="white"/>
<path d="M213 143H207V149H213V143Z" fill="white"/>
<path d="M219 143H213V149H219V143Z" fill="white"/>
<path d="M227 143H221V149H227V143Z" fill="white"/>
<path d="M233 143H227V149H233V143Z" fill="white"/>
<path d="M245 143H239V149H245V143Z" fill="white"/>
<path d="M16 149H10V155H16V149Z" fill="white"/>
<path d="M24 149H18V155H24V149Z" fill="white"/>
<path d="M30 149H24V155H30V149Z" fill="white"/>
<path d="M42 149H36V155H42V149Z" fill="white"/>
<path d="M50 149H44V155H50V149Z" fill="white"/>
<path d="M56 149H50V155H56V149Z" fill="white"/>
<path d="M76 149H70V155H76V149Z" fill="white"/>
<path d="M94 149H88V155H94V149Z" fill="white"/>
<path d="M102 149H96V155H102V149Z" fill="white"/>
<path d="M120 149H114V155H120V149Z" fill="white"/>
<path d="M135 149H129V155H135V149Z" fill="white"/>
<path d="M147 149H141V155H147V149Z" fill="white"/>
<path d="M173 149H167V155H173V149Z" fill="white"/>
<path d="M181 149H175V155H181V149Z" fill="white"/>
<path d="M187 149H181V155H187V149Z" fill="white"/>
<path d="M193 149H187V155H193V149Z" fill="white"/>
<path d="M199 149H193V155H199V149Z" fill="white"/>
<path d="M207 149H201V155H207V149Z" fill="white"/>
<path d="M213 149H207V155H213V149Z" fill="white"/>
<path d="M227 149H221V155H227V149Z" fill="white"/>
<path d="M233 149H227V155H233V149Z" fill="white"/>
<path d="M245 149H239V155H245V149Z" fill="white"/>
<path d="M30 155H24V161H30V155Z" fill="white"/>
<path d="M62 155H56V161H62V155Z" fill="white"/>
<path d="M68 155H62V161H68V155Z" fill="white"/>
<path d="M76 155H70V161H76V155Z" fill="white"/>
<path d="M82 155H76V161H82V155Z" fill="white"/>
<path d="M94 155H88V161H94V155Z" fill="white"/>
<path d="M114 155H108V161H114V155Z" fill="white"/>
<path d="M141 155H135V161H141V155Z" fill="white"/>
<path d="M147 155H141V161H147V155Z" fill="white"/>
<path d="M161 155H155V161H161V155Z" fill="white"/>
<path d="M181 155H175V161H181V155Z" fill="white"/>
<path d="M187 155H181V161H187V155Z" fill="white"/>
<path d="M213 155H207V161H213V155Z" fill="white"/>
<path d="M227 155H221V161H227V155Z" fill="white"/>
<path d="M239 155H233V161H239V155Z" fill="white"/>
<path d="M10 161H4V167H10V161Z" fill="white"/>
<path d="M16 161H10V167H16V161Z" fill="white"/>
<path d="M30 161H24V167H30V161Z" fill="white"/>
<path d="M50 161H44V167H50V161Z" fill="white"/>
<path d="M56 161H50V167H56V161Z" fill="white"/>
<path d="M76 161H70V167H76V161Z" fill="white"/>
<path d="M94 161H88V167H94V161Z" fill="white"/>
<path d="M102 161H96V167H102V161Z" fill="white"/>
<path d="M114 161H108V167H114V161Z" fill="white"/>
<path d="M120 161H114V167H120V161Z" fill="white"/>
<path d="M135 161H129V167H135V161Z" fill="white"/>
<path d="M141 161H135V167H141V161Z" fill="white"/>
<path d="M161 161H155V167H161V161Z" fill="white"/>
<path d="M167 161H161V167H167V161Z" fill="white"/>
<path d="M173 161H167V167H173V161Z" fill="white"/>
<path d="M187 161H181V167H187V161Z" fill="white"/>
<path d="M199 161H193V167H199V161Z" fill="white"/>
<path d="M213 161H207V167H213V161Z" fill="white"/>
<path d="M233 161H227V167H233V161Z" fill="white"/>
<path d="M245 161H239V167H245V161Z" fill="white"/>
<path d="M10 169H4V175H10V169Z" fill="white"/>
<path d="M16 169H10V175H16V169Z" fill="white"/>
<path d="M24 169H18V175H24V169Z" fill="white"/>
<path d="M42 169H36V175H42V169Z" fill="white"/>
<path d="M56 169H50V175H56V169Z" fill="white"/>
<path d="M76 169H70V175H76V169Z" fill="white"/>
<path d="M82 169H76V175H82V169Z" fill="white"/>
<path d="M114 169H108V175H114V169Z" fill="white"/>
<path d="M120 169H114V175H120V169Z" fill="white"/>
<path d="M128 169H122V175H128V169Z" fill="white"/>
<path d="M135 169H129V175H135V169Z" fill="white"/>
<path d="M167 169H161V175H167V169Z" fill="white"/>
<path d="M173 169H167V175H173V169Z" fill="white"/>
<path d="M181 169H175V175H181V169Z" fill="white"/>
<path d="M199 169H193V175H199V169Z" fill="white"/>
<path d="M207 169H201V175H207V169Z" fill="white"/>
<path d="M219 169H213V175H219V169Z" fill="white"/>
<path d="M239 169H233V175H239V169Z" fill="white"/>
<path d="M10 175H4V181H10V175Z" fill="white"/>
<path d="M16 175H10V181H16V175Z" fill="white"/>
<path d="M24 175H18V181H24V175Z" fill="white"/>
<path d="M30 175H24V181H30V175Z" fill="white"/>
<path d="M36 175H30V181H36V175Z" fill="white"/>
<path d="M42 175H36V181H42V175Z" fill="white"/>
<path d="M50 175H44V181H50V175Z" fill="white"/>
<path d="M68 175H62V181H68V175Z" fill="white"/>
<path d="M82 175H76V181H82V175Z" fill="white"/>
<path d="M88 175H82V181H88V175Z" fill="white"/>
<path d="M94 175H88V181H94V175Z" fill="white"/>
<path d="M114 175H108V181H114V175Z" fill="white"/>
<path d="M135 175H129V181H135V175Z" fill="white"/>
<path d="M141 175H135V181H141V175Z" fill="white"/>
<path d="M147 175H141V181H147V175Z" fill="white"/>
<path d="M167 175H161V181H167V175Z" fill="white"/>
<path d="M187 175H181V181H187V175Z" fill="white"/>
<path d="M199 175H193V181H199V175Z" fill="white"/>
<path d="M207 175H201V181H207V175Z" fill="white"/>
<path d="M219 175H213V181H219V175Z" fill="white"/>
<path d="M245 175H239V181H245V175Z" fill="white"/>
<path d="M10 181H4V187H10V181Z" fill="white"/>
<path d="M30 181H24V187H30V181Z" fill="white"/>
<path d="M36 181H30V187H36V181Z" fill="white"/>
<path d="M62 181H56V187H62V181Z" fill="white"/>
<path d="M68 181H62V187H68V181Z" fill="white"/>
<path d="M82 181H76V187H82V181Z" fill="white"/>
<path d="M88 181H82V187H88V181Z" fill="white"/>
<path d="M108 181H102V187H108V181Z" fill="white"/>
<path d="M114 181H108V187H114V181Z" fill="white"/>
<path d="M120 181H114V187H120V181Z" fill="white"/>
<path d="M128 181H122V187H128V181Z" fill="white"/>
<path d="M167 181H161V187H167V181Z" fill="white"/>
<path d="M173 181H167V187H173V181Z" fill="white"/>
<path d="M181 181H175V187H181V181Z" fill="white"/>
<path d="M187 181H181V187H187V181Z" fill="white"/>
<path d="M193 181H187V187H193V181Z" fill="white"/>
<path d="M199 181H193V187H199V181Z" fill="white"/>
<path d="M219 181H213V187H219V181Z" fill="white"/>
<path d="M227 181H221V187H227V181Z" fill="white"/>
<path d="M233 181H227V187H233V181Z" fill="white"/>
<path d="M10 187H4V193H10V187Z" fill="white"/>
<path d="M24 187H18V193H24V187Z" fill="white"/>
<path d="M30 187H24V193H30V187Z" fill="white"/>
<path d="M42 187H36V193H42V187Z" fill="white"/>
<path d="M50 187H44V193H50V187Z" fill="white"/>
<path d="M94 187H88V193H94V187Z" fill="white"/>
<path d="M108 187H102V193H108V187Z" fill="white"/>
<path d="M114 187H108V193H114V187Z" fill="white"/>
<path d="M120 187H114V193H120V187Z" fill="white"/>
<path d="M147 187H141V193H147V187Z" fill="white"/>
<path d="M155 187H149V193H155V187Z" fill="white"/>
<path d="M161 187H155V193H161V187Z" fill="white"/>
<path d="M173 187H167V193H173V187Z" fill="white"/>
<path d="M187 187H181V193H187V187Z" fill="white"/>
<path d="M193 187H187V193H193V187Z" fill="white"/>
<path d="M199 187H193V193H199V187Z" fill="white"/>
<path d="M207 187H201V193H207V187Z" fill="white"/>
<path d="M213 187H207V193H213V187Z" fill="white"/>
<path d="M219 187H213V193H219V187Z" fill="white"/>
<path d="M245 187H239V193H245V187Z" fill="white"/>
<path d="M62 195H56V201H62V195Z" fill="white"/>
<path d="M68 195H62V201H68V195Z" fill="white"/>
<path d="M76 195H70V201H76V195Z" fill="white"/>
<path d="M82 195H76V201H82V195Z" fill="white"/>
<path d="M88 195H82V201H88V195Z" fill="white"/>
<path d="M102 195H96V201H102V195Z" fill="white"/>
<path d="M108 195H102V201H108V195Z" fill="white"/>
<path d="M114 195H108V201H114V195Z" fill="white"/>
<path d="M120 195H114V201H120V195Z" fill="white"/>
<path d="M141 195H135V201H141V195Z" fill="white"/>
<path d="M161 195H155V201H161V195Z" fill="white"/>
<path d="M167 195H161V201H167V195Z" fill="white"/>
<path d="M181 195H175V201H181V195Z" fill="white"/>
<path d="M187 195H181V201H187V195Z" fill="white"/>
<path d="M193 195H187V201H193V195Z" fill="white"/>
<path d="M219 195H213V201H219V195Z" fill="white"/>
<path d="M227 195H221V201H227V195Z" fill="white"/>
<path d="M233 195H227V201H233V195Z" fill="white"/>
<path d="M245 195H239V201H245V195Z" fill="white"/>
<path d="M10 201H4V207H10V201Z" fill="white"/>
<path d="M16 201H10V207H16V201Z" fill="white"/>
<path d="M24 201H18V207H24V201Z" fill="white"/>
<path d="M30 201H24V207H30V201Z" fill="white"/>
<path d="M36 201H30V207H36V201Z" fill="white"/>
<path d="M42 201H36V207H42V201Z" fill="white"/>
<path d="M50 201H44V207H50V201Z" fill="white"/>
<path d="M62 201H56V207H62V201Z" fill="white"/>
<path d="M88 201H82V207H88V201Z" fill="white"/>
<path d="M120 201H114V207H120V201Z" fill="white"/>
<path d="M141 201H135V207H141V201Z" fill="white"/>
<path d="M147 201H141V207H147V201Z" fill="white"/>
<path d="M155 201H149V207H155V201Z" fill="white"/>
<path d="M167 201H161V207H167V201Z" fill="white"/>
<path d="M181 201H175V207H181V201Z" fill="white"/>
<path d="M193 201H187V207H193V201Z" fill="white"/>
<path d="M207 201H201V207H207V201Z" fill="white"/>
<path d="M219 201H213V207H219V201Z" fill="white"/>
<path d="M227 201H221V207H227V201Z" fill="white"/>
<path d="M239 201H233V207H239V201Z" fill="white"/>
<path d="M245 201H239V207H245V201Z" fill="white"/>
<path d="M10 207H4V213H10V207Z" fill="white"/>
<path d="M50 207H44V213H50V207Z" fill="white"/>
<path d="M68 207H62V213H68V207Z" fill="white"/>
<path d="M76 207H70V213H76V207Z" fill="white"/>
<path d="M88 207H82V213H88V207Z" fill="white"/>
<path d="M94 207H88V213H94V207Z" fill="white"/>
<path d="M102 207H96V213H102V207Z" fill="white"/>
<path d="M114 207H108V213H114V207Z" fill="white"/>
<path d="M128 207H122V213H128V207Z" fill="white"/>
<path d="M135 207H129V213H135V207Z" fill="white"/>
<path d="M147 207H141V213H147V207Z" fill="white"/>
<path d="M161 207H155V213H161V207Z" fill="white"/>
<path d="M181 207H175V213H181V207Z" fill="white"/>
<path d="M187 207H181V213H187V207Z" fill="white"/>
<path d="M193 207H187V213H193V207Z" fill="white"/>
<path d="M219 207H213V213H219V207Z" fill="white"/>
<path d="M233 207H227V213H233V207Z" fill="white"/>
<path d="M10 213H4V219H10V213Z" fill="white"/>
<path d="M24 213H18V219H24V213Z" fill="white"/>
<path d="M30 213H24V219H30V213Z" fill="white"/>
<path d="M36 213H30V219H36V213Z" fill="white"/>
<path d="M50 213H44V219H50V213Z" fill="white"/>
<path d="M62 213H56V219H62V213Z" fill="white"/>
<path d="M68 213H62V219H68V213Z" fill="white"/>
<path d="M76 213H70V219H76V213Z" fill="white"/>
<path d="M82 213H76V219H82V213Z" fill="white"/>
<path d="M108 213H102V219H108V213Z" fill="white"/>
<path d="M114 213H108V219H114V213Z" fill="white"/>
<path d="M120 213H114V219H120V213Z" fill="white"/>
<path d="M128 213H122V219H128V213Z" fill="white"/>
<path d="M135 213H129V219H135V213Z" fill="white"/>
<path d="M141 213H135V219H141V213Z" fill="white"/>
<path d="M147 213H141V219H147V213Z" fill="white"/>
<path d="M167 213H161V219H167V213Z" fill="white"/>
<path d="M181 213H175V219H181V213Z" fill="white"/>
<path d="M193 213H187V219H193V213Z" fill="white"/>
<path d="M199 213H193V219H199V213Z" fill="white"/>
<path d="M207 213H201V219H207V213Z" fill="white"/>
<path d="M213 213H207V219H213V213Z" fill="white"/>
<path d="M219 213H213V219H219V213Z" fill="white"/>
<path d="M227 213H221V219H227V213Z" fill="white"/>
<path d="M233 213H227V219H233V213Z" fill="white"/>
<path d="M239 213H233V219H239V213Z" fill="white"/>
<path d="M245 213H239V219H245V213Z" fill="white"/>
<path d="M10 221H4V227H10V221Z" fill="white"/>
<path d="M24 221H18V227H24V221Z" fill="white"/>
<path d="M30 221H24V227H30V221Z" fill="white"/>
<path d="M36 221H30V227H36V221Z" fill="white"/>
<path d="M50 221H44V227H50V221Z" fill="white"/>
<path d="M62 221H56V227H62V221Z" fill="white"/>
<path d="M76 221H70V227H76V221Z" fill="white"/>
<path d="M82 221H76V227H82V221Z" fill="white"/>
<path d="M102 221H96V227H102V221Z" fill="white"/>
<path d="M108 221H102V227H108V221Z" fill="white"/>
<path d="M114 221H108V227H114V221Z" fill="white"/>
<path d="M120 221H114V227H120V221Z" fill="white"/>
<path d="M128 221H122V227H128V221Z" fill="white"/>
<path d="M135 221H129V227H135V221Z" fill="white"/>
<path d="M147 221H141V227H147V221Z" fill="white"/>
<path d="M155 221H149V227H155V221Z" fill="white"/>
<path d="M181 221H175V227H181V221Z" fill="white"/>
<path d="M207 221H201V227H207V221Z" fill="white"/>
<path d="M213 221H207V227H213V221Z" fill="white"/>
<path d="M227 221H221V227H227V221Z" fill="white"/>
<path d="M233 221H227V227H233V221Z" fill="white"/>
<path d="M239 221H233V227H239V221Z" fill="white"/>
<path d="M245 221H239V227H245V221Z" fill="white"/>
<path d="M10 227H4V233H10V227Z" fill="white"/>
<path d="M24 227H18V233H24V227Z" fill="white"/>
<path d="M30 227H24V233H30V227Z" fill="white"/>
<path d="M36 227H30V233H36V227Z" fill="white"/>
<path d="M50 227H44V233H50V227Z" fill="white"/>
<path d="M68 227H62V233H68V227Z" fill="white"/>
<path d="M76 227H70V233H76V227Z" fill="white"/>
<path d="M88 227H82V233H88V227Z" fill="white"/>
<path d="M94 227H88V233H94V227Z" fill="white"/>
<path d="M102 227H96V233H102V227Z" fill="white"/>
<path d="M108 227H102V233H108V227Z" fill="white"/>
<path d="M128 227H122V233H128V227Z" fill="white"/>
<path d="M135 227H129V233H135V227Z" fill="white"/>
<path d="M155 227H149V233H155V227Z" fill="white"/>
<path d="M161 227H155V233H161V227Z" fill="white"/>
<path d="M173 227H167V233H173V227Z" fill="white"/>
<path d="M181 227H175V233H181V227Z" fill="white"/>
<path d="M187 227H181V233H187V227Z" fill="white"/>
<path d="M199 227H193V233H199V227Z" fill="white"/>
<path d="M207 227H201V233H207V227Z" fill="white"/>
<path d="M213 227H207V233H213V227Z" fill="white"/>
<path d="M233 227H227V233H233V227Z" fill="white"/>
<path d="M239 227H233V233H239V227Z" fill="white"/>
<path d="M245 227H239V233H245V227Z" fill="white"/>
<path d="M10 233H4V239H10V233Z" fill="white"/>
<path d="M50 233H44V239H50V233Z" fill="white"/>
<path d="M76 233H70V239H76V233Z" fill="white"/>
<path d="M94 233H88V239H94V233Z" fill="white"/>
<path d="M108 233H102V239H108V233Z" fill="white"/>
<path d="M120 233H114V239H120V233Z" fill="white"/>
<path d="M128 233H122V239H128V233Z" fill="white"/>
<path d="M135 233H129V239H135V233Z" fill="white"/>
<path d="M141 233H135V239H141V233Z" fill="white"/>
<path d="M147 233H141V239H147V233Z" fill="white"/>
<path d="M167 233H161V239H167V233Z" fill="white"/>
<path d="M173 233H167V239H173V233Z" fill="white"/>
<path d="M193 233H187V239H193V233Z" fill="white"/>
<path d="M207 233H201V239H207V233Z" fill="white"/>
<path d="M219 233H213V239H219V233Z" fill="white"/>
<path d="M233 233H227V239H233V233Z" fill="white"/>
<path d="M10 239H4V245H10V239Z" fill="white"/>
<path d="M16 239H10V245H16V239Z" fill="white"/>
<path d="M24 239H18V245H24V239Z" fill="white"/>
<path d="M30 239H24V245H30V239Z" fill="white"/>
<path d="M36 239H30V245H36V239Z" fill="white"/>
<path d="M42 239H36V245H42V239Z" fill="white"/>
<path d="M50 239H44V245H50V239Z" fill="white"/>
<path d="M88 239H82V245H88V239Z" fill="white"/>
<path d="M94 239H88V245H94V239Z" fill="white"/>
<path d="M102 239H96V245H102V239Z" fill="white"/>
<path d="M108 239H102V245H108V239Z" fill="white"/>
<path d="M114 239H108V245H114V239Z" fill="white"/>
<path d="M161 239H155V245H161V239Z" fill="white"/>
<path d="M187 239H181V245H187V239Z" fill="white"/>
<path d="M193 239H187V245H193V239Z" fill="white"/>
<path d="M213 239H207V245H213V239Z" fill="white"/>
<path d="M219 239H213V245H219V239Z" fill="white"/>
<path d="M245 239H239V245H245V239Z" fill="white"/>
</g>
<defs>
<clipPath id="clip0_1300_5820">
<rect width="251" height="251" fill="white"/>
</clipPath>
</defs>
</svg>
