<svg width="111" height="56" viewBox="0 0 111 56" fill="none" xmlns="http://www.w3.org/2000/svg">
<path d="M43.659 43.1722L49.6849 45.6987C50.5014 46.1701 52.0366 46.1039 53.0025 45.845L59.1201 44.2058C61.0519 43.6882 62.7565 41.6785 62.7218 39.6173L63.4366 26.8299C63.6376 24.3604 61.6711 22.8168 59.2563 23.4638L52.8168 25.1893C51.8508 25.4481 50.8302 24.8588 50.6892 23.6888L50.1138 18.3215C50.0476 16.7864 48.6503 15.4353 47.072 15.3406C45.6547 15.2027 44.2173 16.278 43.8322 17.4165L39.863 29.0053" stroke="#0A5DFF" stroke-width="2.5" stroke-miterlimit="10"/>
<path d="M35.4493 45.3719L31.2219 29.5951C30.618 27.3413 31.3683 26.2776 33.6221 25.6736L35.232 25.2423C37.4858 24.6384 38.6674 25.1845 39.2713 27.4383L43.4987 43.2151C44.1026 45.4689 43.3524 46.5327 41.0985 47.1366L39.4887 47.568C37.2348 48.1719 36.0532 47.6258 35.4493 45.3719Z" stroke="#0A5DFF" stroke-width="2.5" stroke-linecap="round" stroke-linejoin="round"/>
<path d="M88.9213 29.4861L90.1679 31.9795C90.3379 32.3265 90.7913 32.6595 91.1738 32.7232L93.4334 33.0986C94.8784 33.3395 95.2184 34.3878 94.1771 35.422L92.4204 37.1786C92.1229 37.4761 91.96 38.0499 92.0521 38.4607L92.555 40.6353C92.9517 42.3565 92.0379 43.0224 90.515 42.1228L88.3971 40.869C88.0146 40.6424 87.3842 40.6424 86.9946 40.869L84.8767 42.1228C83.3609 43.0224 82.44 42.3495 82.8367 40.6353L83.3396 38.4607C83.4317 38.0499 83.2688 37.4761 82.9713 37.1786L81.2146 35.422C80.1804 34.3878 80.5134 33.3395 81.9584 33.0986L84.2179 32.7232C84.5934 32.6595 85.0467 32.3265 85.2167 31.9795L86.4634 29.4861C87.1434 28.1332 88.2484 28.1332 88.9213 29.4861Z" stroke="#0A5DFF" stroke-width="2.5" stroke-linecap="round" stroke-linejoin="round"/>
<path d="M102.921 10.4861L104.168 12.9795C104.338 13.3265 104.791 13.6595 105.174 13.7232L107.433 14.0986C108.878 14.3395 109.218 15.3878 108.177 16.422L106.42 18.1786C106.123 18.4761 105.96 19.0499 106.052 19.4607L106.555 21.6353C106.952 23.3565 106.038 24.0224 104.515 23.1228L102.397 21.869C102.015 21.6424 101.384 21.6424 100.995 21.869L98.8767 23.1228C97.3609 24.0224 96.44 23.3495 96.8367 21.6353L97.3396 19.4607C97.4317 19.0499 97.2688 18.4761 96.9713 18.1786L95.2146 16.422C94.1804 15.3878 94.5134 14.3395 95.9584 14.0986L98.2179 13.7232C98.5934 13.6595 99.0467 13.3265 99.2167 12.9795L100.463 10.4861C101.143 9.13321 102.248 9.13321 102.921 10.4861Z" stroke="#0A5DFF" stroke-width="2.5" stroke-linecap="round" stroke-linejoin="round"/>
<path d="M9.92128 2.48612L11.1679 4.97946C11.3379 5.32654 11.7913 5.65946 12.1738 5.72321L14.4334 6.09862C15.8784 6.33946 16.2184 7.38779 15.1771 8.42196L13.4204 10.1786C13.1229 10.4761 12.96 11.0499 13.0521 11.4607L13.555 13.6353C13.9517 15.3565 13.0379 16.0224 11.515 15.1228L9.39711 13.869C9.01461 13.6424 8.38419 13.6424 7.99461 13.869L5.87669 15.1228C4.36086 16.0224 3.44003 15.3495 3.83669 13.6353L4.33961 11.4607C4.43169 11.0499 4.26878 10.4761 3.97128 10.1786L2.21461 8.42196C1.18044 7.38779 1.51336 6.33946 2.95836 6.09862L5.21794 5.72321C5.59336 5.65946 6.04669 5.32654 6.21669 4.97946L7.46336 2.48612C8.14336 1.13321 9.24836 1.13321 9.92128 2.48612Z" stroke="#0A5DFF" stroke-width="2.5" stroke-linecap="round" stroke-linejoin="round"/>
</svg>
