<svg width="16" height="16" viewBox="0 0 16 16" fill="none" xmlns="http://www.w3.org/2000/svg">
<path fill-rule="evenodd" clip-rule="evenodd" d="M0.585449 14.6666C0.585449 14.2537 0.920203 13.9189 1.33314 13.9189H14.6665C15.0794 13.9189 15.4142 14.2537 15.4142 14.6666C15.4142 15.0796 15.0794 15.4143 14.6665 15.4143H1.33314C0.920203 15.4143 0.585449 15.0796 0.585449 14.6666Z" fill="white"/>
<path fill-rule="evenodd" clip-rule="evenodd" d="M1.25244 10C1.25244 6.27374 4.27386 3.25232 8.00014 3.25232C11.7264 3.25232 14.7478 6.27374 14.7478 10V14.6667C14.7478 15.0796 14.4131 15.4144 14.0001 15.4144H2.00013C1.58719 15.4144 1.25244 15.0796 1.25244 14.6667V10ZM8.00014 4.74771C5.09974 4.74771 2.74783 7.09962 2.74783 10V13.919H13.2524V10C13.2524 7.09962 10.9005 4.74771 8.00014 4.74771Z" fill="white"/>
<path fill-rule="evenodd" clip-rule="evenodd" d="M7.99965 0.585571C8.41259 0.585571 8.74734 0.920325 8.74734 1.33326V1.99993C8.74734 2.41287 8.41259 2.74762 7.99965 2.74762C7.58671 2.74762 7.25195 2.41287 7.25195 1.99993V1.33326C7.25195 0.920325 7.58671 0.585571 7.99965 0.585571Z" fill="white"/>
<path fill-rule="evenodd" clip-rule="evenodd" d="M2.13794 2.13794C2.42993 1.84595 2.90334 1.84595 3.19534 2.13794L3.862 2.80461C4.154 3.0966 4.154 3.57001 3.862 3.862C3.57001 4.154 3.0966 4.154 2.80461 3.862L2.13794 3.19534C1.84595 2.90334 1.84595 2.42993 2.13794 2.13794Z" fill="white"/>
<path fill-rule="evenodd" clip-rule="evenodd" d="M13.862 2.13794C14.154 2.42993 14.154 2.90335 13.862 3.19534L13.1953 3.862C12.9033 4.154 12.4299 4.154 12.1379 3.862C11.8459 3.57001 11.8459 3.0966 12.1379 2.80461L12.8046 2.13794C13.0966 1.84595 13.57 1.84595 13.862 2.13794Z" fill="white"/>
</svg>
