<svg width="23" height="22" viewBox="0 0 23 22" fill="none" xmlns="http://www.w3.org/2000/svg">
<path d="M12.8363 17.9983C13.0349 17.9987 13.2274 17.9234 13.3803 17.7852C13.4663 17.7074 13.5375 17.6119 13.5896 17.5041C13.6418 17.3963 13.6739 17.2784 13.6842 17.157C13.6944 17.0357 13.6826 16.9133 13.6494 16.7969C13.6162 16.6806 13.5623 16.5725 13.4908 16.4788L9.68299 11.5127L13.3548 6.53731C13.4254 6.44254 13.4781 6.33349 13.5099 6.21644C13.5417 6.09938 13.552 5.97663 13.5402 5.85523C13.5283 5.73383 13.4946 5.61618 13.4409 5.50904C13.3872 5.4019 13.3146 5.30738 13.2273 5.23092C13.1393 5.14658 13.0364 5.08295 12.9248 5.04405C12.8132 5.00515 12.6955 4.9918 12.579 5.00485C12.4624 5.0179 12.3496 5.05707 12.2477 5.11988C12.1457 5.1827 12.0567 5.26782 11.9864 5.3699L7.8811 10.929C7.75608 11.0948 7.68774 11.3027 7.68774 11.5173C7.68774 11.7319 7.75608 11.9399 7.8811 12.1057L12.1308 17.6648C12.2161 17.7769 12.3244 17.8655 12.447 17.9235C12.5696 17.9814 12.7029 18.0071 12.8363 17.9983Z" fill="white"/>
</svg>
