<svg width="29" height="28" viewBox="0 0 29 28" fill="none" xmlns="http://www.w3.org/2000/svg">
<path d="M18.8267 22.9978C19.0914 22.9984 19.3481 22.8998 19.5519 22.7191C19.6667 22.6174 19.7616 22.4925 19.8311 22.3515C19.9006 22.2106 19.9434 22.0563 19.9571 21.8976C19.9708 21.739 19.9551 21.5789 19.9108 21.4268C19.8666 21.2746 19.7947 21.1332 19.6993 21.0108L14.6222 14.5166L19.5179 8.01033C19.6121 7.8864 19.6824 7.7438 19.7248 7.59073C19.7672 7.43765 19.7809 7.27713 19.7651 7.11837C19.7493 6.95962 19.7043 6.80577 19.6328 6.66566C19.5612 6.52556 19.4644 6.40196 19.348 6.30198C19.2307 6.19168 19.0934 6.10848 18.9446 6.0576C18.7959 6.00673 18.6389 5.98928 18.4835 6.00634C18.3282 6.02341 18.1778 6.07462 18.0418 6.15677C17.9058 6.23892 17.7872 6.35023 17.6934 6.48372L12.2197 13.7533C12.053 13.9701 11.9619 14.242 11.9619 14.5227C11.9619 14.8033 12.053 15.0752 12.2197 15.292L17.886 22.5616C17.9997 22.7083 18.1441 22.8242 18.3076 22.8999C18.471 22.9757 18.6488 23.0093 18.8267 22.9978Z" fill="white"/>
</svg>
