<svg width="33" height="32" viewBox="0 0 33 32" fill="none" xmlns="http://www.w3.org/2000/svg">
<path d="M29.7927 24.4408C29.7927 24.9208 29.686 25.4141 29.4593 25.8941C29.2327 26.3741 28.9393 26.8275 28.5527 27.2541C27.8993 27.9741 27.1793 28.4941 26.366 28.8275C25.566 29.1608 24.6993 29.3341 23.766 29.3341C22.406 29.3341 20.9527 29.0141 19.4193 28.3608C17.886 27.7075 16.3527 26.8275 14.8327 25.7208C13.2993 24.6008 11.846 23.3608 10.4593 21.9875C9.08601 20.6008 7.84601 19.1475 6.73935 17.6275C5.64602 16.1075 4.76602 14.5875 4.12602 13.0808C3.48602 11.5608 3.16602 10.1075 3.16602 8.72081C3.16602 7.81415 3.32602 6.94748 3.64602 6.14748C3.96602 5.33415 4.47268 4.58748 5.17935 3.92081C6.03268 3.08081 6.96602 2.66748 7.95268 2.66748C8.32602 2.66748 8.69935 2.74748 9.03268 2.90748C9.37935 3.06748 9.68601 3.30748 9.92601 3.65415L13.0193 8.01415C13.2593 8.34748 13.4327 8.65415 13.5527 8.94748C13.6727 9.22748 13.7393 9.50748 13.7393 9.76081C13.7393 10.0808 13.646 10.4008 13.4593 10.7075C13.286 11.0141 13.0327 11.3341 12.7127 11.6541L11.6993 12.7075C11.5527 12.8541 11.486 13.0275 11.486 13.2408C11.486 13.3475 11.4993 13.4408 11.526 13.5475C11.566 13.6541 11.606 13.7341 11.6327 13.8141C11.8727 14.2541 12.286 14.8275 12.8727 15.5208C13.4727 16.2141 14.1127 16.9208 14.806 17.6275C15.526 18.3341 16.2193 18.9875 16.926 19.5875C17.6193 20.1741 18.1927 20.5741 18.646 20.8141C18.7127 20.8408 18.7927 20.8808 18.886 20.9208C18.9927 20.9608 19.0993 20.9741 19.2193 20.9741C19.446 20.9741 19.6193 20.8941 19.766 20.7475L20.7793 19.7475C21.1127 19.4141 21.4327 19.1608 21.7393 19.0008C22.046 18.8141 22.3527 18.7208 22.686 18.7208C22.9393 18.7208 23.206 18.7741 23.4993 18.8941C23.7927 19.0141 24.0993 19.1875 24.4327 19.4141L28.846 22.5475C29.1927 22.7875 29.4327 23.0675 29.5793 23.4008C29.7127 23.7341 29.7927 24.0675 29.7927 24.4408Z" fill="white" stroke="#292D32" stroke-width="2" stroke-miterlimit="10"/>
<path d="M26.2865 11.4657C26.1097 10.2283 25.544 9.02616 24.5894 8.07156C23.6348 7.11697 22.4327 6.55129 21.1953 6.37451" stroke="black" stroke-width="2" stroke-linecap="round" stroke-linejoin="round"/>
<path d="M30.249 10.8998C29.959 8.82801 29.0115 6.83397 27.4205 5.24298C25.8295 3.65199 23.8355 2.70446 21.7637 2.41455" stroke="black" stroke-width="2" stroke-linecap="round" stroke-linejoin="round"/>
</svg>
