<svg width="31" height="31" viewBox="0 0 31 31" fill="none" xmlns="http://www.w3.org/2000/svg">
<path d="M16.1846 26.3759H8.02129C3.93962 26.3759 2.58337 23.6634 2.58337 20.938V10.0622C2.58337 5.98052 3.93962 4.62427 8.02129 4.62427H16.1846C20.2663 4.62427 21.6225 5.98052 21.6225 10.0622V20.938C21.6225 25.0197 20.2534 26.3759 16.1846 26.3759Z" fill="white" stroke="black" stroke-width="1.9375" stroke-linecap="round" stroke-linejoin="round"/>
<path d="M25.2142 22.0877L21.6234 19.5689V11.4185L25.2142 8.89975C26.9709 7.67267 28.4176 8.42184 28.4176 10.5789V20.4214C28.4176 22.5785 26.9709 23.3277 25.2142 22.0877Z" fill="white" stroke="black" stroke-width="1.9375" stroke-linecap="round" stroke-linejoin="round"/>
<path d="M14.8549 14.2083C15.9249 14.2083 16.7924 13.3408 16.7924 12.2708C16.7924 11.2007 15.9249 10.3333 14.8549 10.3333C13.7848 10.3333 12.9174 11.2007 12.9174 12.2708C12.9174 13.3408 13.7848 14.2083 14.8549 14.2083Z" stroke="black" stroke-width="1.9375" stroke-linecap="round" stroke-linejoin="round"/>
</svg>
