<svg width="19" height="19" viewBox="0 0 19 19" fill="none" xmlns="http://www.w3.org/2000/svg">
<path d="M12.1325 2.62256H6.8675C5 2.62256 4.5875 3.55256 4.3475 4.69256L3.5 8.75006H15.5L14.6525 4.69256C14.4125 3.55256 14 2.62256 12.1325 2.62256Z" stroke="white" stroke-width="1.12486" stroke-linecap="round" stroke-linejoin="round"/>
<path d="M16.9925 15.365C17.075 16.2425 16.37 17 15.47 17H14.06C13.25 17 13.1375 16.655 12.995 16.2275L12.845 15.7775C12.635 15.1625 12.5 14.75 11.42 14.75H7.58005C6.50005 14.75 6.34255 15.215 6.15505 15.7775L6.00505 16.2275C5.86255 16.655 5.75005 17 4.94005 17H3.53005C2.63005 17 1.92505 16.2425 2.00755 15.365L2.42755 10.7975C2.53255 9.6725 2.75005 8.75 4.71505 8.75H14.285C16.25 8.75 16.4675 9.6725 16.5725 10.7975L16.9925 15.365Z" stroke="white" stroke-width="1.12486" stroke-linecap="round" stroke-linejoin="round"/>
<path d="M3.49991 6.5H2.75" stroke="white" stroke-width="1.12486" stroke-linecap="round" stroke-linejoin="round"/>
<path d="M16.2499 6.5H15.5" stroke="white" stroke-width="1.12486" stroke-linecap="round" stroke-linejoin="round"/>
<path d="M9.5 2.75V4.25" stroke="white" stroke-width="1.12486" stroke-linecap="round" stroke-linejoin="round"/>
<path d="M8.375 4.25H10.625" stroke="white" stroke-width="1.12486" stroke-linecap="round" stroke-linejoin="round"/>
<path d="M5 11.75H7.25" stroke="white" stroke-width="1.12486" stroke-linecap="round" stroke-linejoin="round"/>
<path d="M11.75 11.75H14" stroke="white" stroke-width="1.12486" stroke-linecap="round" stroke-linejoin="round"/>
</svg>
