<svg width="17" height="19" viewBox="0 0 17 19" fill="none" xmlns="http://www.w3.org/2000/svg">
<path d="M13.7376 9.83165C13.4664 9.13456 13.0545 8.50103 12.5276 7.97071L12.0928 7.53222C12.078 7.51772 12.0599 7.50707 12.0401 7.50122C12.0202 7.49536 11.9992 7.49447 11.979 7.49863C11.9587 7.50279 11.9398 7.51187 11.9238 7.52507C11.9079 7.53828 11.8954 7.55519 11.8875 7.57435L11.6574 8.14792C11.514 8.5078 11.264 8.87054 10.9176 9.22252C10.8946 9.24495 10.8694 9.25004 10.8521 9.2508C10.8349 9.25157 10.8085 9.24721 10.7861 9.22423C10.7651 9.20446 10.7555 9.17581 10.7584 9.14775C10.86 8.20947 10.6284 7.13505 10.0673 5.95129C9.60317 4.96786 8.931 4.18622 8.0719 3.623L7.44498 3.21315C7.36303 3.1592 7.25227 3.21984 7.25237 3.31853L7.25176 4.0704C7.25129 4.58418 7.17087 5.03471 7.01285 5.40487C6.81968 5.85798 6.55312 6.27478 6.21993 6.64461C5.98807 6.90162 5.72813 7.13175 5.44499 7.33066C4.7632 7.8067 4.19777 8.43102 3.79104 9.15688C3.38492 9.88926 3.15312 10.7056 3.11369 11.5424C3.07932 12.2802 3.19121 13.0013 3.44701 13.6883C3.6941 14.3499 4.06686 14.9572 4.54468 15.4767C5.02708 16.0004 5.5956 16.4216 6.23684 16.7256C6.90098 17.0417 7.61225 17.2189 8.35363 17.2534C9.09502 17.288 9.81968 17.1776 10.5103 16.9262C11.1753 16.6847 11.787 16.3157 12.3112 15.84C12.8402 15.3633 13.2639 14.7972 13.5703 14.1614C13.8884 13.5029 14.0692 12.7865 14.1017 12.0558C14.1372 11.293 14.0156 10.5448 13.7376 9.83165V9.83165Z" fill="white"/>
</svg>
