<svg width="38" height="33" viewBox="0 0 38 33" fill="none" xmlns="http://www.w3.org/2000/svg">
<path d="M1.24509 4.24993C1.24509 2.74863 2.46213 1.53159 3.96343 1.53159L4.81147 1.53159C6.31277 1.53159 7.52981 2.74863 7.52981 4.24993L7.5298 28.7502C7.5298 30.2515 6.31276 31.4685 4.81147 31.4685L3.96342 31.4685C2.46213 31.4685 1.24509 30.2515 1.24509 28.7502L1.24509 4.24993Z" fill="white" stroke="black" stroke-width="1.8"/>
<path d="M29.8701 4.24993C29.8701 2.74863 31.0871 1.53159 32.5884 1.53159L33.4365 1.53159C34.9378 1.53159 36.1548 2.74863 36.1548 4.24993L36.1548 28.7502C36.1548 30.2515 34.9378 31.4685 33.4365 31.4685L32.5884 31.4685C31.0871 31.4685 29.8701 30.2515 29.8701 28.7502L29.8701 4.24993Z" fill="white" stroke="black" stroke-width="1.8"/>
<line x1="14.0261" y1="24.762" x2="14.0261" y2="9.57205" stroke="black" stroke-width="1.8"/>
<line x1="17.9676" y1="24.762" x2="17.9676" y2="9.57205" stroke="black" stroke-width="1.8"/>
<line x1="21.9091" y1="24.762" x2="21.9091" y2="9.57205" stroke="black" stroke-width="1.8"/>
<line x1="25.8507" y1="24.762" x2="25.8507" y2="9.57205" stroke="black" stroke-width="1.8"/>
<line x1="29.7922" y1="24.762" x2="29.7922" y2="9.57205" stroke="black" stroke-width="1.8"/>
<path d="M13.1536 25.6249L30.6537 25.6249" stroke="black" stroke-width="1.8"/>
<path d="M13.1459 8.71621L30.6922 8.7162" stroke="black" stroke-width="1.8"/>
</svg>
