<svg width="33" height="32" viewBox="0 0 33 32" fill="none" xmlns="http://www.w3.org/2000/svg">
<path d="M26.7645 19.9066C24.0178 22.64 20.0845 23.48 16.6311 22.4L10.3511 28.6666C9.8978 29.1333 9.00447 29.4133 8.36447 29.32L5.4578 28.92C4.4978 28.7866 3.60447 27.88 3.4578 26.92L3.0578 24.0133C2.96447 23.3733 3.27113 22.48 3.71113 22.0266L9.9778 15.76C8.91113 12.2933 9.7378 8.35997 12.4845 5.62664C16.4178 1.6933 22.8045 1.6933 26.7511 5.62664C30.6978 9.55997 30.6978 15.9733 26.7645 19.9066Z" fill="white" stroke="black" stroke-width="1.5" stroke-miterlimit="10" stroke-linecap="round" stroke-linejoin="round"/>
<path d="M9.56445 23.3199L12.6311 26.3866" stroke="black" stroke-width="1.5" stroke-miterlimit="10" stroke-linecap="round" stroke-linejoin="round"/>
<path d="M19.7109 14.6666C20.8155 14.6666 21.7109 13.7712 21.7109 12.6666C21.7109 11.5621 20.8155 10.6666 19.7109 10.6666C18.6064 10.6666 17.7109 11.5621 17.7109 12.6666C17.7109 13.7712 18.6064 14.6666 19.7109 14.6666Z" stroke="black" stroke-width="1.5" stroke-linecap="round" stroke-linejoin="round"/>
</svg>
