<svg width="40" height="37" viewBox="0 0 40 37" fill="none" xmlns="http://www.w3.org/2000/svg">
<path d="M26.887 24.9068C24.1404 27.6401 20.207 28.4801 16.7537 27.4001L10.4737 33.6668C10.0204 34.1334 9.12702 34.4134 8.48702 34.3201L5.58036 33.9201C4.62036 33.7868 3.72702 32.8801 3.58036 31.9201L3.18036 29.0134C3.08702 28.3734 3.39369 27.4801 3.83369 27.0268L10.1004 20.7601C9.03369 17.2934 9.86036 13.3601 12.607 10.6268C16.5404 6.69342 22.927 6.69342 26.8737 10.6268C30.8204 14.5601 30.8204 20.9734 26.887 24.9068Z" fill="white" stroke="black" stroke-width="2" stroke-miterlimit="10" stroke-linecap="round" stroke-linejoin="round"/>
<path d="M9.68701 28.3201L12.7537 31.3867" stroke="black" stroke-width="2" stroke-miterlimit="10" stroke-linecap="round" stroke-linejoin="round"/>
<path d="M19.8335 19.6667C20.9381 19.6667 21.8335 18.7713 21.8335 17.6667C21.8335 16.5622 20.9381 15.6667 19.8335 15.6667C18.7289 15.6667 17.8335 16.5622 17.8335 17.6667C17.8335 18.7713 18.7289 19.6667 19.8335 19.6667Z" stroke="black" stroke-width="2" stroke-linecap="round" stroke-linejoin="round"/>
<path d="M34.3931 10.7702C34.3711 9.52044 33.9589 8.25746 33.1301 7.19184C32.3013 6.12622 31.1786 5.41581 29.9727 5.08691" stroke="black" stroke-width="2" stroke-linecap="round" stroke-linejoin="round"/>
<path d="M38.3947 10.7002C38.364 8.60845 37.6711 6.51228 36.2897 4.73624C34.9083 2.9602 33.0472 1.77267 31.0273 1.22803" stroke="black" stroke-width="2" stroke-linecap="round" stroke-linejoin="round"/>
</svg>
