<svg width="17" height="17" viewBox="0 0 17 17" fill="none" xmlns="http://www.w3.org/2000/svg">
<path fill-rule="evenodd" clip-rule="evenodd" d="M12.5938 3.36407C12.9451 3.69205 12.9639 4.24264 12.6359 4.59385L7.96648 9.59385C7.80184 9.77014 7.5714 9.87018 7.33018 9.87007C7.08897 9.86997 6.85862 9.76973 6.69413 9.59329L4.36354 7.09329C4.03587 6.74179 4.05518 6.19122 4.40667 5.86354C4.75817 5.53587 5.30874 5.55518 5.63641 5.90667L7.33113 7.72458L11.3641 3.40611C11.6921 3.05491 12.2426 3.03608 12.5938 3.36407Z" fill="white"/>
<path fill-rule="evenodd" clip-rule="evenodd" d="M12.5938 9.36407C12.9451 9.69205 12.9639 10.2426 12.6359 10.5938L7.96648 15.5938C7.80184 15.7701 7.5714 15.8702 7.33018 15.8701C7.08897 15.87 6.85862 15.7697 6.69413 15.5933L4.36354 13.0933C4.03587 12.7418 4.05518 12.1912 4.40667 11.8635C4.75817 11.5359 5.30874 11.5552 5.63641 11.9067L7.33113 13.7246L11.3641 9.40611C11.6921 9.05491 12.2426 9.03608 12.5938 9.36407Z" fill="white"/>
</svg>
