<svg width="34" height="33" viewBox="0 0 34 33" fill="none" xmlns="http://www.w3.org/2000/svg">
<path d="M25.8473 5.92515C29.8265 5.92515 33.0523 9.15093 33.0523 13.1301C33.0523 17.1093 29.8266 20.3351 25.8474 20.3351L7.56947 20.3351L7.56947 5.92515L25.8473 5.92515Z" fill="white" stroke="black" stroke-width="1.8"/>
<path d="M1.44608 4.24993C1.44608 2.74863 2.66312 1.53159 4.16442 1.53159L5.01246 1.53159C6.51376 1.53159 7.7308 2.74863 7.7308 4.24993L7.73079 28.7502C7.73079 30.2515 6.51375 31.4685 5.01246 31.4685L4.16441 31.4685C2.66312 31.4685 1.44608 30.2515 1.44608 28.7502L1.44608 4.24993Z" fill="white" stroke="black" stroke-width="1.8"/>
<line x1="11.6648" y1="6.52661" x2="11.6648" y2="19.7766" stroke="black" stroke-width="1.8"/>
</svg>
