<svg width="33" height="32" viewBox="0 0 33 32" fill="none" xmlns="http://www.w3.org/2000/svg">
<path d="M17.083 27.2266H8.6563C4.44297 27.2266 3.04297 24.4266 3.04297 21.6133V10.3866C3.04297 6.17332 4.44297 4.77332 8.6563 4.77332H17.083C21.2963 4.77332 22.6963 6.17332 22.6963 10.3866V21.6133C22.6963 25.8266 21.283 27.2266 17.083 27.2266Z" fill="white" stroke="#292D32" stroke-width="1.5" stroke-linecap="round" stroke-linejoin="round"/>
<path d="M26.4039 22.8001L22.6973 20.2001V11.7867L26.4039 9.18672C28.2173 7.92005 29.7106 8.69339 29.7106 10.9201V21.0801C29.7106 23.3067 28.2173 24.0801 26.4039 22.8001Z" fill="white" stroke="#292D32" stroke-width="1.5" stroke-linecap="round" stroke-linejoin="round"/>
<path d="M15.7109 14.6666C16.8155 14.6666 17.7109 13.7712 17.7109 12.6666C17.7109 11.5621 16.8155 10.6666 15.7109 10.6666C14.6064 10.6666 13.7109 11.5621 13.7109 12.6666C13.7109 13.7712 14.6064 14.6666 15.7109 14.6666Z" stroke="#292D32" stroke-width="1.5" stroke-linecap="round" stroke-linejoin="round"/>
</svg>
